<?xml version="1.0" encoding="UTF-8"?>
<svg id="icon" xmlns="http://www.w3.org/2000/svg" version="1.1" viewBox="0 0 32 32">
  <!-- Generator: Adobe Illustrator 29.6.0, SVG Export Plug-In . SVG Version: 2.1.1 Build 207)  -->
  <defs>
    <style>
      .st0 {
        fill: none;
      }

      .st1 {
        fill: #aaa;
      }
    </style>
  </defs>
  <path class="st1" d="M13.502,5.414c-1.899,8.107,3.134,16.218,11.24,18.116.117.028.235.054.353.078-2.09,2.162-4.968,3.385-7.975,3.389-.139,0-.278.005-.418,0-6.123-.217-10.912-5.356-10.695-11.48.163-4.596,3.144-8.615,7.494-10.104M14.98,3c-.059,0-.117.005-.175.016-7.121,1.265-11.869,8.063-10.604,15.184,1.08,6.079,6.258,10.578,12.428,10.797.164.006.328,0,.491,0,4.259.002,8.253-2.071,10.702-5.556.307-.465.18-1.091-.285-1.399-.148-.098-.32-.155-.498-.166-7.196-.631-12.518-6.977-11.887-14.173.1-1.135.347-2.253.736-3.324.202-.523-.058-1.11-.581-1.312-.105-.041-.216-.063-.328-.068Z"/>
  <rect id="_Transparent_Rectangle_" class="st0" y="0" width="15.999999" height="15.999999"/>
</svg>