<?xml version="1.0" encoding="UTF-8"?>
<svg id="icon" xmlns="http://www.w3.org/2000/svg" version="1.1" viewBox="0 0 32 32">
  <!-- Generator: Adobe Illustrator 29.6.0, SVG Export Plug-In . SVG Version: 2.1.1 Build 207)  -->
  <defs>
    <style>
      .st0 {
        fill: none;
      }

      .st1 {
        fill: #aaa;
      }
    </style>
  </defs>
  <path class="st1" d="M21,28.6l-4.7-4.7c1.1-1.4,1.7-3.1,1.7-4.9,0-4.4-3.6-8-8-8S2,14.6,2,19s3.6,8,8,8c1.8,0,3.5-.6,4.9-1.7l4.7,4.7,1.4-1.4ZM10,25c-3.3,0-6-2.7-6-6s2.7-6,6-6,6,2.7,6,6-2.7,6-6,6Z"/>
  <rect class="st1" x="22" y="12" width="8" height="2"/>
  <rect class="st1" x="14" y="7" width="16" height="2"/>
  <rect class="st1" x="14" y="2" width="16" height="2"/>
  <rect id="_x3C_Transparent_Rectangle_x3E_" class="st0" y="0" width="32" height="32"/>
</svg>