<?xml version="1.0" encoding="UTF-8"?>
<svg id="svg19713" xmlns="http://www.w3.org/2000/svg" xmlns:svg="http://www.w3.org/2000/svg" version="1.1" viewBox="0 0 16 16" width="15.999999" height="15.999999">
  <!-- Generator: Adobe Illustrator 29.6.0, SVG Export Plug-In . SVG Version: 2.1.1 Build 207)  -->
  <defs>
    <style>
      .st0 {
        fill: none;
      }

      .st1 {
        fill: #aaa;
      }
    </style>
  </defs>
  <g id="g27707">
    <path id="path27703" class="st1" d="M14,4.5h-1.5V1.5H3.5v3h-1.5c-.552,0-1,.448-1,1v5c0,.552.448,1,1,1h1.5v3h9v-3h1.5c.552,0,1-.448,1-1v-5c0-.552-.448-1-1-1ZM4.5,2.5h7v2h-7v-2ZM11.5,13.5h-7v-5h7v5ZM14,10.5h-1.5v-3H3.5v3h-1.5v-5h12v5Z"/>
    <rect id="rect27705" class="st0" x="0" y="0" width="16" height="16"/>
  </g>
</svg>