<?xml version="1.0" encoding="UTF-8"?>
<svg id="icon" xmlns="http://www.w3.org/2000/svg" version="1.1" viewBox="0 0 32 32" width="15.999999" height="15.999999">
  <!-- Generator: Adobe Illustrator 29.6.0, SVG Export Plug-In . SVG Version: 2.1.1 Build 207)  -->
  <defs>
    <style>
      .st0 {
        fill: none;
      }

      .st1 {
        fill: #555;
      }
    </style>
  </defs>
  <polygon class="st1" points="26 18 24 18 22 21.897 20 18 18 18 20.905 23 18 28 20 28 22 24.201 24 28 26 28 23.098 23 26 18"/>
  <path class="st1" d="M19,6v-2h-5.087c-1.036-.005-1.902.787-1.992,1.819l-.653,7.181h-4.269v2h4.087l-1,11h-5.087v2h5.087c1.036.005,1.902-.787,1.992-1.819l1.017-11.181h4.905v-2h-4.723l.636-7h5.087Z"/>
  <rect id="_Transparent_Rectangle" class="st0" y="0" width="15.999999" height="15.999999"/>
</svg>