<?xml version="1.0" encoding="UTF-8"?>
<svg id="icon" xmlns="http://www.w3.org/2000/svg" version="1.1" viewBox="0 0 32 32" width="15.999999" height="15.999999">
  <!-- Generator: Adobe Illustrator 29.6.0, SVG Export Plug-In . SVG Version: 2.1.1 Build 207)  -->
  <defs>
    <style>
      .st0 {
        fill: none;
      }

      .st1 {
        fill: #555;
      }
    </style>
  </defs>
  <path class="st1" d="M12,28h-6c-1.104-.001-1.999-.896-2-2V6c.001-1.104.896-1.999,2-2h6c1.104.001,1.999.896,2,2v20c-.001,1.104-.896,1.999-2,2ZM6,6v20h6V6h-6Z"/>
  <path class="st1" d="M26,28h-6c-1.104-.001-1.999-.896-2-2V6c.001-1.104.896-1.999,2-2h6c1.104.001,1.999.896,2,2v20c-.001,1.104-.896,1.999-2,2ZM20,6v20h6V6h-6Z"/>
  <rect id="_Transparent_Rectangle_" class="st0" y="0" width="15.999999" height="15.999999"/>
</svg>