<?xml version="1.0" encoding="UTF-8"?>
<svg id="icon" xmlns="http://www.w3.org/2000/svg" version="1.1" viewBox="0 0 32 32">
  <!-- Generator: Adobe Illustrator 29.6.0, SVG Export Plug-In . SVG Version: 2.1.1 Build 207)  -->
  <defs>
    <style>
      .st0 {
        fill: none;
      }

      .st1 {
        fill: #aaa;
      }
    </style>
  </defs>
  <path class="st1" d="M27,16.76v-1.53l1.92-1.68c.731-.644.891-1.721.38-2.55l-2.36-4c-.357-.618-1.016-.999-1.73-1-.217-.002-.434.032-.64.1l-2.43.82c-.42-.279-.857-.529-1.31-.75l-.51-2.52c-.189-.95-1.031-1.629-2-1.61h-4.68c-.969-.019-1.811.66-2,1.61l-.51,2.52c-.456.221-.897.471-1.32.75l-2.38-.86c-.209-.054-.425-.075-.64-.06-.714,0-1.373.382-1.73,1l-2.36,4c-.481.827-.31,1.879.41,2.51l1.89,1.73v1.53l-1.89,1.68c-.741.636-.914,1.714-.41,2.55l2.36,4c.357.618,1.016.999,1.73,1,.217.002.434-.032.64-.1l2.43-.82c.42.279.857.529,1.31.75l.51,2.52c.189.95,1.031,1.629,2,1.61h4.72c.969.019,1.811-.66,2-1.61l.51-2.52c.456-.221.897-.471,1.32-.75l2.42.82c.206.068.423.102.64.1.714,0,1.373-.382,1.73-1l2.28-4c.481-.827.31-1.879-.41-2.51l-1.89-1.73ZM25.21,24l-3.43-1.16c-.803.68-1.721,1.212-2.71,1.57l-.71,3.59h-4.72l-.71-3.55c-.982-.368-1.894-.899-2.7-1.57l-3.44,1.12-2.36-4,2.72-2.4c-.185-1.035-.185-2.095,0-3.13l-2.72-2.47,2.36-4,3.43,1.16c.803-.68,1.721-1.212,2.71-1.57l.71-3.59h4.72l.71,3.55c.982.368,1.894.899,2.7,1.57l3.44-1.12,2.36,4-2.72,2.4c.185,1.035.185,2.095,0,3.13l2.72,2.47s-2.36,4-2.36,4Z"/>
  <path class="st1" d="M16,22c-3.314,0-6-2.686-6-6s2.686-6,6-6,6,2.686,6,6c.033,3.28-2.599,5.967-5.879,6h-.121ZM16,12c-2.159-.05-3.95,1.659-4,3.818-.001.061-.001.121,0,.182-.05,2.159,1.659,3.95,3.818,4,.061,0,.121,0,.182,0,2.159.05,3.95-1.659,4-3.818,0-.061,0-.121,0-.182.05-2.159-1.659-3.95-3.818-4-.061-.001-.121-.001-.182,0Z"/>
  <rect id="_Transparent_Rectangle_" class="st0" y="0" width="16" height="16"/>
</svg>