<?xml version="1.0" encoding="UTF-8" standalone="no"?>
<!-- Created with Inkscape (http://www.inkscape.org/) -->

<svg
   width="16"
   height="16"
   viewBox="0 0 4.2333333 4.2333333"
   version="1.1"
   id="svg19713"
   xml:space="preserve"
   xmlns="http://www.w3.org/2000/svg"
   xmlns:svg="http://www.w3.org/2000/svg"><defs
     id="defs19710"><style
       id="style36518">.cls-1{fill:none;}</style><style
       id="style36538">.cls-1{fill:none;}</style><style
       id="style48643">
      .cls-1 {
        fill: none;
      }
    </style><style
       id="style49369">.cls-1{fill:none;}</style><style
       id="style68473">.cls-1{fill:none;}</style><style
       id="style34301">.cls-1{fill:none;}</style><style
       id="style40867">.cls-1{fill:none;}</style><style
       id="style3486">.cls-1{fill:none;}</style><style
       id="style16714">.cls-1{fill:none;}</style><style
       id="style16734">.cls-1{fill:none;}</style><style
       id="style598">.cls-1{fill:none;}</style><style
       id="style938">
      .cls-1 {
        fill: none;
      }
    </style><style
       id="style953">
      .cls-1 {
        fill: none;
      }
    </style><style
       id="style988">
      .cls-1 {
        fill: none;
      }
    </style><style
       id="style6804">.cls-1{fill:none;}</style><style
       id="style8295">.cls-1{fill:none;}</style><style
       id="style9297">.cls-1{fill:none;}</style><style
       id="style10710">
      .cls-1 {
        fill: none;
      }
    </style><style
       id="style616">.cls-1{fill:#000000;}.cls-2{fill:none;}</style><style
       id="style640">.cls-1{fill:none;}</style><style
       id="style732">.cls-1{fill:#000000;}.cls-2{fill:none;}</style><style
       id="style1166">
      .cls-1 {
        fill: none;
      }
    </style><style
       id="style1186">
      .cls-1 {
        fill: none;
      }
    </style><style
       id="style1201">
      .cls-1 {
        fill: none;
      }
    </style><style
       id="style2604">.cls-1{fill:none;}</style><style
       id="style3041">.cls-1{fill:none;}</style><style
       id="style34659">
      .cls-1 {
        fill: none;
      }
    </style><style
       id="style931">.cls-1{fill:#000000;}.cls-2{fill:none;}</style><style
       id="style1772">
      .cls-1 {
        fill: none;
      }
    </style><style
       id="style4214">.cls-1{fill:none;}</style><style
       id="style5886">.cls-1{fill:none;}</style><style
       id="style5923">
      .cls-1 {
        fill: none;
      }
    </style><style
       id="style5938">
      .cls-1 {
        fill: none;
      }
    </style><style
       id="style8494">
      .cls-1 {
        fill: none;
      }
    </style><style
       id="style8509">
      .cls-1 {
        fill: none;
      }
    </style><style
       id="style10257">
      .cls-1 {
        fill: none;
      }
    </style><style
       id="style10280">.cls-1{fill:none;}</style><style
       id="style11171">
      .cls-1 {
        fill: none;
      }
    </style><style
       id="style1997">.cls-1{fill:none;}</style><style
       id="style2928">
      .cls-1 {
        fill: none;
      }
    </style><style
       id="style2943">
      .cls-1 {
        fill: none;
      }
    </style><style
       id="style3863">.cls-1{fill:none;}</style><style
       id="style3880">.cls-1{fill:none;}</style><style
       id="style1078">
      .cls-1 {
        fill: none;
      }
    </style><style
       id="style3954">.cls-1{fill:none;}</style></defs><g
     id="g24979"
     transform="translate(-101.60006,105.83338)"><g
       id="g24977"
       transform="matrix(0.13229167,0,0,0.13229167,101.60006,-105.83338)"
       style="stroke-width:2"><path
         id="path24973"
         style="fill:#afb1b3;fill-opacity:1;stroke-width:2"
         d="m 13.638428,2.0393799 a 2,2 0 0 0 -2,1.609375 L 11.130616,6.168286 a 11.48,11.48 0 0 0 -1.3203124,0.75 L 7.4313974,6.058911 A 2,2 0 0 0 6.7907724,6.0003173 2,2 0 0 0 5.0603037,7.0003172 L 2.7009288,11.000317 A 2,2 0 0 0 3.111085,13.50813 l 1.890625,1.730468 v 0.761719 0.769531 l -1.890625,1.679688 a 2,2 0 0 0 -0.4101562,2.550781 l 2.3593749,4 a 2,2 0 0 0 1.7304687,1 2,2 0 0 0 0.640625,-0.101563 l 2.4296874,-0.820312 a 11.35,11.35 0 0 0 1.3085942,0.75 l 0.511718,2.523437 a 2,2 0 0 0 2,1.609375 h 4.71875 a 2,2 0 0 0 2,-1.609375 l 0.511719,-2.523437 a 11.48,11.48 0 0 0 1.316406,-0.75 l 2.421875,0.820312 a 2,2 0 0 0 0.640625,0.101563 2,2 0 0 0 1.730468,-1 l 2.277344,-4 a 2,2 0 0 0 -0.410156,-2.511719 l -1.886719,-1.730469 v -0.757812 -0.769531 l 1.917969,-1.679688 a 2,2 0 0 0 0.378906,-2.550781 L 26.939209,7.0003172 A 2,2 0 0 0 25.208741,6.0003173 2,2 0 0 0 24.568116,6.1018798 L 22.138428,6.918286 a 11.35,11.35 0 0 0 -1.308594,-0.75 L 20.318116,3.6487549 a 2,2 0 0 0 -2,-1.609375 z m 0,1.9609374 h 4.722657 l 0.707031,3.5507812 a 9.36,9.36 0 0 1 2.703125,1.5703124 l 3.4375,-1.1210937 2.359374,3.9999998 -2.718749,2.398438 a 8.9,8.9 0 0 1 0,3.132812 l 2.718749,2.46875 -2.359374,4 -3.429688,-1.160157 a 8.86,8.86 0 0 1 -2.710937,1.570313 l -0.707031,3.589844 h -4.722657 l -0.707031,-3.550782 a 9.36,9.36 0 0 1 -2.703125,-1.570312 l -3.4374996,1.121094 -2.3593749,-4 2.7187499,-2.398438 a 8.9,8.9 0 0 1 0,-3.132812 L 4.4313975,12.000317 6.7907724,8.0003172 10.22046,9.1604734 A 8.86,8.86 0 0 1 12.931397,7.590161 Z m 1.191407,6.1132807 a 6,6 0 0 0 1.171875,11.886719 5.94,5.94 0 0 0 5.999999,-6 6,6 0 0 0 -7.171874,-5.886719 z m 1.171875,1.886719 a 3.91,3.91 0 0 1 3.999999,4 3.91,3.91 0 0 1 -3.999999,4 3.91,3.91 0 0 1 -4,-4 3.91,3.91 0 0 1 4,-4 z" /><rect
         id="rect24975"
         data-name="&lt;Transparent Rectangle&gt;"
         class="cls-1"
         width="32"
         height="32"
         x="0"
         y="0"
         style="fill:none;stroke-width:2" /></g></g><style
     type="text/css"
     id="style578">
	.st0{fill:none;}
</style><style
     type="text/css"
     id="style968">
	.st0{fill:none;}
</style><style
     type="text/css"
     id="style3690">
	.st0{fill:none;}
</style><style
     type="text/css"
     id="style5365">
	.st0{fill:none;}
</style><style
     type="text/css"
     id="style596">
	.st0{fill:none;}
</style><style
     type="text/css"
     id="style660">
	.st0{fill:none;}
</style><style
     type="text/css"
     id="style5861">
	.st0{fill:none;}
</style><style
     type="text/css"
     id="style25784">
	.st0{fill:none;}
</style></svg>
