<?xml version="1.0" encoding="UTF-8"?>
<svg id="Layer_1" xmlns="http://www.w3.org/2000/svg" version="1.1" viewBox="0 0 32 32">
  <!-- Generator: Adobe Illustrator 29.6.0, SVG Export Plug-In . SVG Version: 2.1.1 Build 207)  -->
  <defs>
    <style>
      .st0 {
        fill: none;
      }

      .st1 {
        fill: #555;
      }
    </style>
  </defs>
  <path class="st1" d="M28,13h2v2h-2v-2ZM23.778,4.797l1.414-1.414,1.414,1.414-1.414,1.414-1.414-1.414ZM15,0h2V2h-2V0ZM6.808,6.233l-1.415-1.415,1.415-1.414,1.414,1.414-1.414,1.415ZM2,13h2v2h-2v-2ZM20,13h-3v-3h-2v3h-3v2h3v3h2v-3h3v-2ZM13,30h6v2h-6v-2ZM11,26h10v2h-10v-2Z"/>
  <path class="st1" d="M16,4c-5.5,0-10,4.5-10,10,0,4.4,2,6.3,3.5,7.6,1,.9,1.5,1.5,1.5,2.4h2c0-1.8-1.1-2.9-2.2-3.9-1.4-1.2-2.8-2.6-2.8-6.1,0-4.4,3.6-8,8-8s8,3.6,8,8c0,3.5-1.4,4.9-2.8,6.1-1.1,1-2.2,2-2.2,3.9h2c0-.9.5-1.5,1.5-2.4,1.5-1.3,3.5-3.2,3.5-7.6,0-5.5-4.5-10-10-10Z"/>
  <path class="st0" d="M0,0h32V32H0V0Z"/>
</svg>