<?xml version="1.0" encoding="UTF-8"?>
<svg id="icon" xmlns="http://www.w3.org/2000/svg" version="1.1" viewBox="0 0 32 32" width="16" height="16">
  <!-- Generator: Adobe Illustrator 29.6.0, SVG Export Plug-In . SVG Version: 2.1.1 Build 207)  -->
  <defs>
    <style>
      .st0 {
        fill: none;
      }

      .st1 {
        fill: #555;
      }
    </style>
  </defs>
  <path class="st1" d="M30.94,15.66c-2.404-6.218-8.278-10.409-14.94-10.66-6.662.251-12.536,4.442-14.94,10.66-.079.22-.079.46,0,.68,2.404,6.218,8.278,10.409,14.94,10.66,6.662-.251,12.536-4.442,14.94-10.66.079-.22.079-.46,0-.68ZM16,25c-5.3,0-10.9-3.93-12.93-9,2.03-5.07,7.63-9,12.93-9s10.9,3.93,12.93,9c-2.03,5.07-7.63,9-12.93,9Z"/>
  <path class="st1" d="M16,10c-3.314,0-6,2.686-6,6s2.686,6,6,6,6-2.686,6-6-2.686-6-6-6ZM16,20c-2.209,0-4-1.791-4-4s1.791-4,4-4,4,1.791,4,4-1.791,4-4,4Z"/>
  <rect id="_Transparent_Rectangle_" class="st0" y="0" width="32" height="32"/>
</svg>