<?xml version="1.0" encoding="UTF-8"?>
<svg id="icon" xmlns="http://www.w3.org/2000/svg" version="1.1" viewBox="0 0 32 32">
  <!-- Generator: Adobe Illustrator 29.6.0, SVG Export Plug-In . SVG Version: 2.1.1 Build 207)  -->
  <defs>
    <style>
      .st0 {
        fill: none;
      }

      .st1 {
        fill: #aaa;
      }
    </style>
  </defs>
  <path class="st1" d="M28,30h-6c-1.104-.001-1.999-.896-2-2V10c.001-1.104.896-1.999,2-2h6c1.104.001,1.999.896,2,2v18c-.001,1.104-.896,1.999-2,2ZM22,10v18h6V10h-6Z"/>
  <polygon class="st1" points="16 9 21.586 3.414 20.172 2 16 6.172 11.828 2 10.414 3.414 16 9"/>
  <path class="st1" d="M10,30h-6c-1.104-.001-1.999-.896-2-2V10c.001-1.104.896-1.999,2-2h6c1.104.001,1.999.896,2,2v18c-.001,1.104-.896,1.999-2,2ZM4,10v18h6V10h-6Z"/>
  <rect id="_Transparent_Rectangle_" class="st0" y="0" width="15.999999" height="15.999999"/>
</svg>