<?xml version="1.0" encoding="UTF-8"?>
<svg id="svg19713" xmlns="http://www.w3.org/2000/svg" xmlns:svg="http://www.w3.org/2000/svg" version="1.1" viewBox="0 0 16 16" width="15.999999" height="15.999999">
  <!-- Generator: Adobe Illustrator 29.6.0, SVG Export Plug-In . SVG Version: 2.1.1 Build 207)  -->
  <defs>
    <style>
      .st0 {
        fill: none;
      }

      .st1 {
        fill: #aaa;
      }
    </style>
  </defs>
  <g id="g23868">
    <g id="g23866">
      <path id="path23862" class="st1" d="M2,2c-.552,0-1,.448-1,1h0v7h1V3h7v-1H2ZM5,5c-.552,0-1,.448-1,1v7c0,.552.448,1,1,1h9c.552,0,1-.448,1-1v-7c0-.552-.448-1-1-1H5ZM5,6h9v1H5v-1ZM5,8h9v5H5v-5Z"/>
      <rect id="rect23864" class="st0" x="0" y="0" width="16" height="16"/>
    </g>
  </g>
</svg>