<?xml version="1.0" encoding="UTF-8"?>
<svg id="svg19713" xmlns="http://www.w3.org/2000/svg" xmlns:svg="http://www.w3.org/2000/svg" version="1.1" viewBox="0 0 16 16" width="15.999999" height="15.999999">
  <!-- Generator: Adobe Illustrator 29.6.0, SVG Export Plug-In . SVG Version: 2.1.1 Build 207)  -->
  <defs>
    <style>
      .st0 {
        fill: none;
      }

      .st1 {
        fill: #555;
      }
    </style>
  </defs>
  <g id="layer52">
    <g id="g15420">
      <path id="polygon15408" class="st1" d="M4,1c-.552.002-.998.448-1,1v12c.002.552.448.998,1,1h4v-1h-4V2h4v3c.002.552.448.998,1,1h3v2h1v-3c.003-.133-.052-.261-.15-.35l-3.5-3.5c-.089-.099-.217-.154-.35-.15H4ZM9,2.199l2.801,2.801h-2.801v-2.801ZM12,10v2h-2v1h2v2h1v-2h2v-1h-2v-2h-1Z"/>
      <rect id="_Transparent_Rectangle_-20" class="st0" y="0" width="8" height="8"/>
    </g>
  </g>
</svg>