<?xml version="1.0" encoding="UTF-8"?>
<svg id="icon" xmlns="http://www.w3.org/2000/svg" version="1.1" viewBox="0 0 32 32" width="15.999999" height="15.999999">
  <!-- Generator: Adobe Illustrator 29.6.0, SVG Export Plug-In . SVG Version: 2.1.1 Build 207)  -->
  <defs>
    <style>
      .st0 {
        fill: none;
      }

      .st1 {
        fill: #555;
      }
    </style>
  </defs>
  <path class="st1" d="M16,28h-8V4h8v6c.003,1.103.897,1.997,2,2h6v3h2v-5c.007-.266-.102-.522-.3-.7l-7-7c-.178-.198-.434-.307-.7-.3h-10c-1.103.003-1.997.897-2,2v24c.003,1.103.897,1.997,2,2h8v-2ZM18,4.4l5.6,5.6h-5.6v-5.6Z"/>
  <rect id="_Transparent_Rectangle_" class="st0" y="0" width="15.999999" height="15.999999"/>
  <circle class="st1" cx="15.627" cy="22" r="2"/>
  <circle class="st1" cx="14.419" cy="16" r="2"/>
  <circle class="st1" cx="28" cy="22" r="2"/>
  <circle class="st1" cx="26" cy="28" r="2"/>
  <circle class="st1" cx="20" cy="26" r="2"/>
  <circle class="st1" cx="22" cy="20" r="2"/>
</svg>