<?xml version="1.0" encoding="UTF-8"?>
<svg id="icon" xmlns="http://www.w3.org/2000/svg" version="1.1" viewBox="0 0 32 32" width="16" height="16">
  <!-- Generator: Adobe Illustrator 29.6.0, SVG Export Plug-In . SVG Version: 2.1.1 Build 207)  -->
  <defs>
    <style>
      .st0 {
        fill: none;
      }

      .st1 {
        fill: #aaa;
      }
    </style>
  </defs>
  <path class="st1" d="M23.499,9.085l-6.792-6.792c-.188-.188-.442-.293-.707-.293H6c-1.1,0-2,.9-2,2v24c0,1.1.9,2,2,2h8v-2H6V4h8v6c0,1.102.897,2,2,2h6.292c.693,0,1.312-.414,1.577-1.054.266-.641.12-1.371-.37-1.861ZM16,10v-5.586l5.585,5.586h-5.585Z"/>
  <rect id="_Transparent_Rectangle_" class="st0" y="0" width="32" height="32"/>
  <path class="st1" d="M23,24c-.758.002-1.486.292-2.038.812l-4.004-2.402c.055-.27.055-.548,0-.818l4.004-2.402c1.275,1.26,3.331,1.248,4.591-.028,1.26-1.275,1.248-3.331-.028-4.591-1.275-1.26-3.331-1.248-4.591.028-.731.74-1.063,1.785-.894,2.812l-4.004,2.402c-1.209-1.133-3.107-1.072-4.24.137s-1.072,3.107.137,4.24c1.154,1.082,2.95,1.082,4.104,0l4.004,2.402c-.023.135-.037.272-.041.409,0,1.657,1.343,3,3,3s3-1.343,3-3-1.343-3-3-3ZM23,16c.552,0,1,.448,1,1s-.448,1-1,1-1-.448-1-1c0-.552.448-1,1-1ZM14,23c-.552,0-1-.448-1-1s.448-1,1-1,1,.448,1,1c0,.552-.448,1-1,1ZM23,28c-.552,0-1-.448-1-1s.448-1,1-1,1,.448,1,1c0,.552-.448,1-1,1Z"/>
</svg>