<?xml version="1.0" encoding="UTF-8" standalone="no"?>
<!-- Created with Inkscape (http://www.inkscape.org/) -->

<svg
   width="16"
   height="16"
   viewBox="0 0 4.2333333 4.2333333"
   version="1.1"
   id="svg19713"
   xml:space="preserve"
   xmlns="http://www.w3.org/2000/svg"
   xmlns:svg="http://www.w3.org/2000/svg"><defs
     id="defs19710"><style
       id="style36518">.cls-1{fill:none;}</style><style
       id="style36538">.cls-1{fill:none;}</style><style
       id="style48643">
      .cls-1 {
        fill: none;
      }
    </style><style
       id="style49369">.cls-1{fill:none;}</style><style
       id="style68473">.cls-1{fill:none;}</style><style
       id="style34301">.cls-1{fill:none;}</style><style
       id="style40867">.cls-1{fill:none;}</style><style
       id="style3486">.cls-1{fill:none;}</style><style
       id="style16714">.cls-1{fill:none;}</style><style
       id="style16734">.cls-1{fill:none;}</style><style
       id="style598">.cls-1{fill:none;}</style><style
       id="style938">
      .cls-1 {
        fill: none;
      }
    </style><style
       id="style953">
      .cls-1 {
        fill: none;
      }
    </style><style
       id="style988">
      .cls-1 {
        fill: none;
      }
    </style><style
       id="style6804">.cls-1{fill:none;}</style><style
       id="style8295">.cls-1{fill:none;}</style><style
       id="style9297">.cls-1{fill:none;}</style><style
       id="style10710">
      .cls-1 {
        fill: none;
      }
    </style><style
       id="style616">.cls-1{fill:#000000;}.cls-2{fill:none;}</style><style
       id="style640">.cls-1{fill:none;}</style><style
       id="style732">.cls-1{fill:#000000;}.cls-2{fill:none;}</style><style
       id="style1166">
      .cls-1 {
        fill: none;
      }
    </style><style
       id="style1186">
      .cls-1 {
        fill: none;
      }
    </style><style
       id="style1201">
      .cls-1 {
        fill: none;
      }
    </style><style
       id="style2604">.cls-1{fill:none;}</style><style
       id="style3041">.cls-1{fill:none;}</style><style
       id="style34659">
      .cls-1 {
        fill: none;
      }
    </style><style
       id="style931">.cls-1{fill:#000000;}.cls-2{fill:none;}</style><style
       id="style1772">
      .cls-1 {
        fill: none;
      }
    </style><style
       id="style4214">.cls-1{fill:none;}</style><style
       id="style5886">.cls-1{fill:none;}</style><style
       id="style5923">
      .cls-1 {
        fill: none;
      }
    </style><style
       id="style5938">
      .cls-1 {
        fill: none;
      }
    </style><style
       id="style8494">
      .cls-1 {
        fill: none;
      }
    </style><style
       id="style8509">
      .cls-1 {
        fill: none;
      }
    </style><style
       id="style10257">
      .cls-1 {
        fill: none;
      }
    </style><style
       id="style10280">.cls-1{fill:none;}</style><style
       id="style11171">
      .cls-1 {
        fill: none;
      }
    </style><style
       id="style1997">.cls-1{fill:none;}</style><style
       id="style2928">
      .cls-1 {
        fill: none;
      }
    </style><style
       id="style2943">
      .cls-1 {
        fill: none;
      }
    </style><style
       id="style3863">.cls-1{fill:none;}</style><style
       id="style3880">.cls-1{fill:none;}</style><style
       id="style1078">
      .cls-1 {
        fill: none;
      }
    </style><style
       id="style3954">.cls-1{fill:none;}</style></defs><g
     id="layer49"
     style="display:inline"
     transform="translate(-59.266663,118.53333)"><g
       id="g22950"
       style="display:inline;stroke-width:2"
       transform="matrix(0.50000002,0,0,0.50000002,-78.316671,-158.75)"><path
         id="path12629"
         style="fill:#6e6e6e;fill-opacity:1;stroke-width:0.529166"
         d="m 277.28356,80.962499 c -0.2919,8.43e-4 -0.52833,0.237266 -0.52917,0.529167 v 6.35 c 8.5e-4,0.2919 0.23727,0.528323 0.52917,0.529166 h 1.5875 v -0.529166 h -1.5875 v -6.35 h 2.11666 v 1.5875 c 8.5e-4,0.2919 0.23727,0.528323 0.52917,0.529166 h 1.5875 l -2.3e-4,0.529167 h 0.52917 l 2.3e-4,-0.529167 v -0.529166 c 0.002,-0.07038 -0.0273,-0.137855 -0.0796,-0.185002 l -1.85208,-1.852083 c -0.0471,-0.0523 -0.11462,-0.08152 -0.185,-0.07958 z m 2.64583,0.635103 1.48156,1.481564 h -1.48156 z" /><path
         d="m 281.51163,86.897976 a 1.0464006,1.0464006 0 0 0 0.5342,0.149939 1.0595239,1.0595239 0 0 0 1.05834,-1.058333 1.0431727,1.0431727 0 0 0 -0.0395,-0.270616 l -0.6447,0.644763 -1.4e-4,-1.32e-4 a 0.52893709,0.52893709 0 1 1 -0.74803,-0.74803 l -1.3e-4,-1.32e-4 0.64474,-0.644737 a 1.0451042,1.0451042 0 0 0 -0.27059,-0.03945 1.0595239,1.0595239 0 0 0 -1.05833,1.058333 1.0462683,1.0462683 0 0 0 0.14999,0.53422 l -1.47291,1.472909 0.37414,0.374121 z"
         id="path13728"
         style="fill:#6e6e6e;fill-opacity:1;stroke-width:0.529166" /><path
         class="cls-1"
         d="m 282.04583,81.491665 h -1.05833 v -0.529166 h -0.52916 v 0.529166 h -2.11667 v -0.529166 h -0.52917 v 0.529166 h -1.05834 a 0.52916666,0.52916666 0 0 0 -0.52916,0.529167 v 5.291667 a 0.52916666,0.52916666 0 0 0 0.52916,0.529166 h 2.11667 v -0.529166 h -2.11667 v -5.291667 h 1.05834 v 0.529167 h 0.52917 v -0.529167 h 2.11667 v 0.529167 h 0.52916 v -0.529167 h 1.05833 v 2.116667 h 0.52916 v -2.116667 a 0.52916666,0.52916666 0 0 0 -0.52916,-0.529167 z"
         id="path13730"
         style="fill:none;fill-rule:evenodd;stroke-width:0.529166" /><rect
         id="_Transparent_Rectangle_-48-8"
         data-name="&lt;Transparent Rectangle&gt;"
         class="cls-2"
         width="8.4666662"
         height="8.4666662"
         x="275.16666"
         y="80.433334"
         style="fill:none;stroke-width:0.529166" /></g></g><style
     type="text/css"
     id="style578">
	.st0{fill:none;}
</style><style
     type="text/css"
     id="style968">
	.st0{fill:none;}
</style><style
     type="text/css"
     id="style3690">
	.st0{fill:none;}
</style><style
     type="text/css"
     id="style5365">
	.st0{fill:none;}
</style><style
     type="text/css"
     id="style596">
	.st0{fill:none;}
</style><style
     type="text/css"
     id="style660">
	.st0{fill:none;}
</style><style
     type="text/css"
     id="style5861">
	.st0{fill:none;}
</style><style
     type="text/css"
     id="style25784">
	.st0{fill:none;}
</style></svg>
