<?xml version="1.0" encoding="UTF-8"?>
<svg id="svg19713" xmlns="http://www.w3.org/2000/svg" xmlns:svg="http://www.w3.org/2000/svg" version="1.1" viewBox="0 0 16 16">
  <!-- Generator: Adobe Illustrator 29.6.0, SVG Export Plug-In . SVG Version: 2.1.1 Build 207)  -->
  <defs>
    <style>
      .st0 {
        fill: none;
      }

      .st1 {
        fill: #555;
      }
    </style>
  </defs>
  <g id="g23904">
    <g id="g23902">
      <path id="path23894" class="st1" d="M4,1c-.552.002-.998.448-1,1v12c.002.552.448.998,1,1h3v-1h-3V2h4v3c.002.552.448.998,1,1h3v1h1v-2c.004-.133-.052-.261-.15-.35l-3.5-3.5c-.089-.099-.217-.154-.35-.15,0,0-5,0-5,0ZM9,2.2l2.8,2.8h-2.8v-2.8Z"/>
      <path id="path23896" class="st1" d="M11.99,12.217c.305.184.654.281,1.01.283,1.104-.001,1.999-.896,2-2-.002-.173-.027-.345-.075-.511l-1.218,1.218h0c-.389.392-1.022.394-1.414.005s-.394-1.022-.006-1.414l.006-.006h0l1.218-1.219c-.166-.047-.338-.072-.511-.075-1.104.001-1.999.896-2,2,.002.356.1.705.283,1.01l-2.783,2.783.707.707,2.783-2.783v.002Z"/>
      <rect id="rect23900" class="st0" y="0" width="16" height="16"/>
    </g>
  </g>
</svg>