<?xml version="1.0" encoding="UTF-8"?>
<svg id="svg19713" xmlns="http://www.w3.org/2000/svg" xmlns:svg="http://www.w3.org/2000/svg" version="1.1" viewBox="0 0 16 16">
  <!-- Generator: Adobe Illustrator 29.6.0, SVG Export Plug-In . SVG Version: 2.1.1 Build 207)  -->
  <defs>
    <style>
      .st0 {
        fill: none;
      }

      .st1 {
        fill: #aaa;
      }
    </style>
  </defs>
  <rect id="rect6096" class="st0" y="0" width="16" height="16"/>
  <path id="path6094" class="st1" d="M2,2c-.552,0-1,.448-1,1h0v10c0,.552.448,1,1,1h5v-1H2V5h12v2h1V3c0-.552-.448-1-1-1H2ZM2,3h12v1H2v-1ZM15,12v-1h-1.05c-.064-.313-.189-.611-.366-.877l.745-.745-.707-.707-.745.745c-.266-.177-.564-.302-.877-.366v-1.05h-1v1.05c-.313.064-.611.189-.877.366l-.745-.745-.707.707.745.745c-.177.266-.302.564-.366.877h-1.05v1h1.05c.064.313.189.611.366.877l-.745.745.707.707.745-.745c.266.177.564.302.877.366v1.05h1v-1.05c.313-.064.611-.189.877-.366l.745.745.707-.707-.745-.745c.177-.266.302-.564.366-.877h1.05ZM11.5,13c-.828,0-1.5-.672-1.5-1.5s.672-1.5,1.5-1.5,1.5.672,1.5,1.5c-.001.828-.672,1.499-1.5,1.5Z"/>
</svg>