<?xml version="1.0" encoding="UTF-8"?>
<svg id="svg19713" xmlns="http://www.w3.org/2000/svg" xmlns:svg="http://www.w3.org/2000/svg" version="1.1" viewBox="0 0 16 16">
  <!-- Generator: Adobe Illustrator 29.6.0, SVG Export Plug-In . SVG Version: 2.1.1 Build 207)  -->
  <defs>
    <style>
      .st0 {
        fill: none;
      }

      .st1 {
        fill: #555;
      }
    </style>
  </defs>
  <g id="layer62">
    <g id="g4236">
      <path id="path4220" class="st1" d="M8,1C4.134,1,1,4.134,1,8s3.134,7,7,7,7-3.134,7-7S11.866,1,8,1ZM8,14c-3.314,0-6-2.686-6-6S4.686,2,8,2s6,2.686,6,6-2.686,6-6,6Z"/>
      <circle id="circle4222" class="st1" cx="8" cy="11.75" r=".75"/>
      <path id="path4224" class="st1" d="M8.5,4h-.75c-1.24-.003-2.247,1-2.25,2.24,0,.003,0,.007,0,.01v.25h1v-.25c0-.69.56-1.25,1.25-1.25h.75c.69,0,1.25.56,1.25,1.25s-.56,1.25-1.25,1.25h-1v2.25h1v-1.25c1.243,0,2.25-1.007,2.25-2.25s-1.007-2.25-2.25-2.25Z"/>
      <rect id="rect4226" class="st0" y="0" width="8" height="8"/>
    </g>
  </g>
</svg>