<?xml version="1.0" encoding="UTF-8"?>
<svg id="svg19713" xmlns="http://www.w3.org/2000/svg" xmlns:svg="http://www.w3.org/2000/svg" version="1.1" viewBox="0 0 16 16">
  <!-- Generator: Adobe Illustrator 29.6.0, SVG Export Plug-In . SVG Version: 2.1.1 Build 207)  -->
  <defs>
    <style>
      .st0 {
        fill: none;
      }

      .st1 {
        fill: #555;
      }
    </style>
  </defs>
  <g id="layer64">
    <g id="g5904">
      <path id="path5892" class="st1" d="M8,2c3.314,0,6,2.686,6,6s-2.686,6-6,6S2,11.314,2,8,4.686,2,8,2M8,1C4.134,1,1,4.134,1,8s3.134,7,7,7,7-3.134,7-7S11.866,1,8,1Z"/>
      <path id="path5894" class="st1" d="M10,6v4h-4v-4h4M10,5h-4c-.552,0-1,.448-1,1v4c0,.552.448,1,1,1h4c.552,0,1-.448,1-1v-4c0-.552-.448-1-1-1Z"/>
      <rect id="_Transparent_Rectangle_-49" class="st0" x="0" y="0" width="15.999999" height="15.999999"/>
    </g>
  </g>
</svg>