<?xml version="1.0" encoding="UTF-8"?>
<svg id="svg19713" xmlns="http://www.w3.org/2000/svg" xmlns:svg="http://www.w3.org/2000/svg" version="1.1" viewBox="0 0 16 16" width="15.999999" height="15.999999">
  <!-- Generator: Adobe Illustrator 29.6.0, SVG Export Plug-In . SVG Version: 2.1.1 Build 207)  -->
  <defs>
    <style>
      .st0 {
        fill: none;
      }

      .st1 {
        fill: #555;
      }
    </style>
  </defs>
  <g id="g29005">
    <path id="path29001" class="st1" d="M7.725,1.139C4.764.461,1.814,2.312,1.136,5.273c-.678,2.961,1.173,5.911,4.134,6.589.403.092.816.139,1.23.139,1.281.001,2.52-.451,3.5-1.275l3.793,3.775.707-.707-3.775-3.793c.825-.98,1.276-2.219,1.275-3.5,0-2.566-1.774-4.79-4.275-5.361ZM7.502,2.113c2.046.467,3.498,2.288,3.498,4.387-.003,2.484-2.016,4.497-4.5,4.5-2.485,0-4.501-2.013-4.501-4.499,0-2.485,2.013-4.501,4.499-4.501.338,0,.675.038,1.005.113ZM5,4c-.552,0-.999.448-1,1v1h1v-1h1v-1h-1ZM7,4v1h1v1h1v-1c0-.552-.448-.999-1-1h-1ZM4,7v1c0,.552.448.999,1,1h1v-1h-1v-1h-1ZM8,7v1h-1v1h1c.552,0,.999-.448,1-1v-1h-1Z"/>
    <rect id="rect29003" class="st0" x="0" y="0" width="16" height="16"/>
  </g>
</svg>