<?xml version="1.0" encoding="UTF-8"?>
<svg id="svg19713" xmlns="http://www.w3.org/2000/svg" xmlns:svg="http://www.w3.org/2000/svg" version="1.1" viewBox="0 0 16 16" width="15.999999" height="15.999999">
  <!-- Generator: Adobe Illustrator 29.6.0, SVG Export Plug-In . SVG Version: 2.1.1 Build 207)  -->
  <defs>
    <style>
      .st0 {
        fill: none;
      }

      .st1 {
        fill: #aaa;
      }
    </style>
  </defs>
  <g id="g29015">
    <path id="path29009" class="st1" d="M7,9h-1c-.552,0-1-.448-1-1v-3c0-.552.448-1,1-1h1c.552,0,1,.448,1,1v3c0,.552-.448,1-1,1ZM6,5v3h1v-3h-1Z"/>
    <path id="path29011" class="st1" d="M10.724,10c.825-.98,1.277-2.219,1.276-3.5,0-3.038-2.462-5.5-5.5-5.5S1,3.462,1,6.5s2.462,5.5,5.5,5.5c1.281,0,2.52-.451,3.5-1.276l3.793,3.776.707-.707-3.776-3.793ZM6.5,11c-2.485,0-4.5-2.015-4.5-4.5S4.015,2,6.5,2c2.485,0,4.5,2.015,4.5,4.5-.003,2.484-2.016,4.497-4.5,4.5Z"/>
    <rect id="rect29013" class="st0" x="0" y="0" width="16" height="16"/>
  </g>
</svg>