<?xml version="1.0" encoding="UTF-8"?>
<svg id="svg19713" xmlns="http://www.w3.org/2000/svg" xmlns:svg="http://www.w3.org/2000/svg" version="1.1" viewBox="0 0 16 16">
  <!-- Generator: Adobe Illustrator 29.6.0, SVG Export Plug-In . SVG Version: 2.1.1 Build 207)  -->
  <defs>
    <style>
      .st0 {
        fill: none;
      }

      .st1 {
        fill: #aaa;
      }
    </style>
  </defs>
  <g id="g29023">
    <path id="path29019" class="st1" d="M1.5,1v1h2.5v1H2c-.552,0-1,.448-1,1v1c0,.552.448,1,1,1h3V2c0-.552-.448-.999-1-1H1.5ZM2,4h2v1H2v-1ZM9.179,6.006c-.425.01-.843.102-1.232.273l-.67.294,2.077,2.078c.195.195.195.512,0,.707-.198.188-.508.188-.706,0l-2.077-2.078-.294.67c-1.07,2.434,1.077,5.052,3.673,4.479l2.063,2.063c.328.33.774.514,1.238.513,1.559,0,2.339-1.885,1.237-2.987l-2.064-2.064c.454-2.056-1.139-3.994-3.244-3.947h0ZM9.25,7.005c1.528,0,2.612,1.491,2.139,2.944l-.094.291,2.485,2.484c.293.293.293.768,0,1.061-.297.284-.765.284-1.061,0l-2.484-2.484-.291.095c-1.454.473-2.946-.612-2.944-2.141,0-.042.001-.083.004-.125l.937.936c.594.566,1.528.566,2.121,0,.586-.586.586-1.535,0-2.121l-.936-.936c.041-.002.083-.004.125-.004h0Z"/>
    <path id="path29021" class="st0" d="M0,0H16v16H0V0Z"/>
  </g>
</svg>