<?xml version="1.0" encoding="UTF-8"?>
<svg id="icon" xmlns="http://www.w3.org/2000/svg" version="1.1" viewBox="0 0 16 16" width="16" height="16">
  <!-- Generator: Adobe Illustrator 29.6.0, SVG Export Plug-In . SVG Version: 2.1.1 Build 207)  -->
  <defs>
    <style>
      .st0 {
        fill: none;
      }

      .st1 {
        fill: #f9cec2;
      }

      .st2 {
        fill: #aaa;
      }

      .st3 {
        fill: #c5d2ff;
      }

      .st4 {
        fill: #b6e5b1;
      }
    </style>
  </defs>
  <rect id="_Transparent_Rectangle_" class="st0" y="0" width="16" height="16"/>
  <path class="st2" d="M8,8.707l3.283,3.283c-.183.305-.281.653-.284,1.01,0,1.104.896,2,2,2s2-.896,2-2-.895-2-2-2c-.356.002-.704.1-1.009.283l-3.283-3.283-3.991-3.99c.184-.305.281-.654.283-1.009,0-1.104-.896-2-2-2s-2,.895-2,2,.896,2,2,2c.356-.002.705-.1,1.009-.284,0,0,3.99,3.99,3.991,3.99h.001ZM14,13c0,.552-.447,1-1,1s-1-.448-1-1,.447-1,1-1,.999.448,1,1ZM2,3c0-.552.448-1,1-1s1,.447,1,1-.448,1-1,1-1-.448-1-1Z"/>
  <g>
    <path class="st1" d="M5.999,3.001c-.001.264-.037.523-.105.773l.475.475c1.701-1.272,3.806-2.035,6.094-2.035.877,0,1.724.123,2.536.331V.929c-.818-.181-1.665-.283-2.536-.284-2.405.003-4.64.729-6.503,1.969.017.128.039.254.039.387Z"/>
    <path class="st1" d="M3.772,5.896c-.249.068-.507.104-.768.105-.127,0-.249-.022-.372-.037-1.218,1.852-1.933,4.065-1.935,6.447v1.569c0,.433.351.784.784.784s.784-.351.784-.784v-1.569c0-2.26.744-4.341,1.989-6.032-.157-.157-.31-.31-.483-.482Z"/>
  </g>
  <g>
    <path class="st4" d="M8.616,6.495c1.107-.721,2.426-1.145,3.846-1.145.895,0,1.748.173,2.536.477v-1.663c-.802-.247-1.653-.382-2.536-.383-1.853.002-3.565.593-4.971,1.589l1.125,1.125Z"/>
    <path class="st4" d="M5.379,7.498c-.969,1.394-1.542,3.085-1.544,4.912v1.569c0,.433.351.784.784.784s.784-.351.784-.784v-1.569c0-1.397.411-2.696,1.112-3.792-.297-.288-.674-.659-1.137-1.119Z"/>
  </g>
  <g>
    <path class="st3" d="M10.924,8.803c.473-.202.992-.315,1.538-.315.973,0,1.851.367,2.536.953v-1.898c-.759-.396-1.621-.624-2.536-.624-.985,0-1.906.263-2.706.716l1.167,1.167Z"/>
    <path class="st3" d="M7.649,9.77c-.431.784-.677,1.683-.677,2.64v1.569c0,.433.351.784.784.784s.784-.351.784-.784v-1.569c0-.517.106-1.008.288-1.461l-1.18-1.179Z"/>
  </g>
</svg>