<?xml version="1.0" encoding="UTF-8"?>
<svg id="icon" xmlns="http://www.w3.org/2000/svg" version="1.1" viewBox="0 0 16 16" width="16" height="16">
  <!-- Generator: Adobe Illustrator 29.6.0, SVG Export Plug-In . SVG Version: 2.1.1 Build 207)  -->
  <defs>
    <style>
      .st0 {
        fill: none;
      }

      .st1 {
        fill: #aaa;
      }
    </style>
  </defs>
  <rect id="_Transparent_Rectangle_" class="st0" y="0" width="8" height="8"/>
  <path class="st1" d="M8.707,8l3.283-3.283c.305.183.653.281,1.01.284,1.104,0,2-.896,2-2s-.896-2-2-2-2,.895-2,2c.002.356.1.704.283,1.009l-3.283,3.283-3.99,3.991c-.305-.184-.654-.281-1.009-.283-1.104,0-2,.896-2,2s.895,2,2,2,2-.896,2-2c-.002-.356-.1-.705-.284-1.009,0,0,3.99-3.99,3.99-3.991ZM13,2c.552,0,1,.447,1,1s-.448,1-1,1-1-.447-1-1c0-.552.448-.999,1-1ZM3,14c-.552,0-1-.448-1-1s.447-1,1-1,1,.448,1,1c0,.552-.448,1-1,1Z"/>
</svg>