<?xml version="1.0" encoding="UTF-8"?>
<svg id="icon" xmlns="http://www.w3.org/2000/svg" version="1.1" viewBox="0 0 32 32" width="15.999999" height="15.999999">
  <!-- Generator: Adobe Illustrator 29.6.0, SVG Export Plug-In . SVG Version: 2.1.1 Build 207)  -->
  <defs>
    <style>
      .st0 {
        fill: none;
      }

      .st1 {
        fill: #aaa;
      }
    </style>
  </defs>
  <rect id="_Transparent_Rectangle_" class="st0" y="0" width="15.999999" height="15.999999"/>
  <circle class="st1" cx="20.299" cy="7.096" r="1"/>
  <circle class="st1" cx="22.904" cy="5.996" r="1"/>
  <circle class="st1" cx="25.509" cy="7.531" r="1"/>
  <circle class="st1" cx="25.41" cy="10.547" r="1"/>
  <path class="st1" d="M26.084,20.785v-5.871h-2v5.875c-.477.108-.93.281-1.34.525l-12.165-12.282c.245-.418.42-.879.527-1.366h6.234v-2h-6.229c-.458-2.088-2.31-3.666-4.508-3.666h-.119c-2.485.065-4.503,2.144-4.503,4.666,0,2.564,2.083,4.666,4.622,4.666.854,0,1.656-.238,2.347-.651l12.16,12.282c-.411.695-.646,1.507-.646,2.37,0,2.564,2.083,4.666,4.622,4.666s4.622-2.102,4.622-4.666c0-2.218-1.561-4.083-3.624-4.549ZM6.601,8.999c-1.29,0-2.31-1.031-2.31-2.333s1.02-2.333,2.31-2.333,2.31,1.031,2.31,2.333-1.02,2.333-2.31,2.333ZM25.084,27.665c-1.29,0-2.31-1.031-2.31-2.333s1.02-2.333,2.31-2.333,2.31,1.031,2.31,2.333-1.02,2.333-2.31,2.333Z"/>
  <path class="st1" d="M22.998,3.989c.066,0,.132.001.193.004,2.594.107,4.71,2.222,4.816,4.811.003.066.004.131.004.197-.002,2.588-1.981,4.723-4.508,4.974v-1.353c0-.314-.041-.626-.124-.929-.415-1.519-1.803-2.579-3.376-2.579-.311,0-.621.042-.93.126l-.554.153c-.035.01-.072.015-.108.015-.227,0-.411-.184-.411-.413,0-.066.001-.131.004-.197.104-2.697,2.298-4.81,4.994-4.81M22.998,1.989c-3.743,0-6.847,2.96-6.993,6.733-.004.092-.005.184-.005.275,0,1.331,1.079,2.411,2.411,2.411.215,0,.428-.029.635-.085l.56-.155c.132-.036.265-.053.396-.053.66,0,1.265.439,1.447,1.106.035.13.053.264.053.398v1.881c0,.829.672,1.501,1.501,1.501.002,0,.004,0,.005,0,3.865,0,7-3.132,7.002-6.997,0-.092-.002-.184-.005-.275-.15-3.654-3.078-6.582-6.733-6.732-.092-.004-.184-.005-.275-.005h0Z"/>
</svg>