<?xml version="1.0" encoding="UTF-8"?>
<svg id="icon" xmlns="http://www.w3.org/2000/svg" version="1.1" viewBox="0 0 16 16" width="16" height="16">
  <!-- Generator: Adobe Illustrator 29.6.0, SVG Export Plug-In . SVG Version: 2.1.1 Build 207)  -->
  <defs>
    <style>
      .st0 {
        fill: none;
      }

      .st1 {
        fill: #aaa;
      }
    </style>
  </defs>
  <rect id="_Transparent_Rectangle_" class="st0" y="0" width="8" height="8"/>
  <path class="st1" d="M13,1c-1.104,0-2,.896-2,2,.002.353.099.697.279,1h-3.279l1.647,1.646-1.647,1.647-3.99,3.99c-.305-.184-.654-.281-1.01-.284-1.104,0-2,.896-2,2s.896,2,2,2,2-.896,2-2c-.002-.356-.1-.705-.284-1.01l3.99-3.99,1.647-1.647,1.633,1.633v-3.267l.004-.004c.305.184.654.281,1.01.284,1.104,0,2-.896,2-2s-.896-2-2-2Z"/>
</svg>