<?xml version="1.0" encoding="UTF-8"?>
<svg id="svg19713" xmlns="http://www.w3.org/2000/svg" xmlns:svg="http://www.w3.org/2000/svg" version="1.1" viewBox="0 0 16 16">
  <!-- Generator: Adobe Illustrator 29.6.0, SVG Export Plug-In . SVG Version: 2.1.1 Build 207)  -->
  <defs>
    <style>
      .st0 {
        fill: none;
      }

      .st1 {
        fill: #aaa;
      }
    </style>
  </defs>
  <g id="g29031">
    <path id="path29027" class="st1" d="M1,1v1h14v-1H1ZM12.5,2.5l-2.5,2.5.705.705,1.295-1.291v7.172l-1.295-1.291-.705.705,2.5,2.5,2.5-2.5-.705-.705-1.295,1.291v-7.172l1.295,1.291.705-.705-2.5-2.5ZM4.5,3.5L1,12h1l.805-2h4.371l.824,2h1L5.5,3.5h-1ZM4.936,4.814h.129l1.705,4.186h-3.555l1.721-4.186ZM1,14v1h14v-1H1Z"/>
    <rect id="rect29029" class="st0" x="0" y="0" width="16" height="16"/>
  </g>
</svg>