<?xml version="1.0" encoding="UTF-8"?>
<svg id="svg19713" xmlns="http://www.w3.org/2000/svg" xmlns:svg="http://www.w3.org/2000/svg" version="1.1" viewBox="0 0 16 16">
  <!-- Generator: Adobe Illustrator 29.6.0, SVG Export Plug-In . SVG Version: 2.1.1 Build 207)  -->
  <defs>
    <style>
      .st0 {
        fill: none;
      }

      .st1 {
        fill: #555;
      }
    </style>
  </defs>
  <g id="g29039">
    <path id="path29035" class="st1" d="M12,7h-6v-3c0-1.105.895-2,2-2s2,.895,2,2h1c0-1.657-1.343-3-3-3s-3,1.343-3,3v3h-1c-.552,0-1,.448-1,1v6c0,.552.448,1,1,1h8c.552,0,1-.448,1-1v-6c0-.552-.448-1-1-1ZM12,14H4v-6h8v6Z"/>
    <rect id="rect29037" class="st0" x="0" y="0" width="16" height="16"/>
  </g>
</svg>