<?xml version="1.0" encoding="UTF-8" standalone="no"?>
<!-- Created with Inkscape (http://www.inkscape.org/) -->

<svg
   width="15.999999"
   height="15.999999"
   viewBox="0 0 4.233333 4.233333"
   version="1.1"
   id="svg19713"
   xml:space="preserve"
   xmlns="http://www.w3.org/2000/svg"
   xmlns:svg="http://www.w3.org/2000/svg"><defs
     id="defs19710"><style
       id="style36518">.cls-1{fill:none;}</style><style
       id="style36538">.cls-1{fill:none;}</style><style
       id="style48643">
      .cls-1 {
        fill: none;
      }
    </style><style
       id="style49369">.cls-1{fill:none;}</style><style
       id="style68473">.cls-1{fill:none;}</style><style
       id="style34301">.cls-1{fill:none;}</style><style
       id="style40867">.cls-1{fill:none;}</style><style
       id="style3486">.cls-1{fill:none;}</style><style
       id="style16714">.cls-1{fill:none;}</style><style
       id="style16734">.cls-1{fill:none;}</style><style
       id="style598">.cls-1{fill:none;}</style><style
       id="style938">
      .cls-1 {
        fill: none;
      }
    </style><style
       id="style953">
      .cls-1 {
        fill: none;
      }
    </style><style
       id="style988">
      .cls-1 {
        fill: none;
      }
    </style><style
       id="style6804">.cls-1{fill:none;}</style><style
       id="style8295">.cls-1{fill:none;}</style><style
       id="style9297">.cls-1{fill:none;}</style><style
       id="style10710">
      .cls-1 {
        fill: none;
      }
    </style><style
       id="style616">.cls-1{fill:#000000;}.cls-2{fill:none;}</style><style
       id="style640">.cls-1{fill:none;}</style><style
       id="style732">.cls-1{fill:#000000;}.cls-2{fill:none;}</style><style
       id="style1166">
      .cls-1 {
        fill: none;
      }
    </style><style
       id="style1186">
      .cls-1 {
        fill: none;
      }
    </style><style
       id="style1201">
      .cls-1 {
        fill: none;
      }
    </style><style
       id="style2604">.cls-1{fill:none;}</style><style
       id="style3041">.cls-1{fill:none;}</style><style
       id="style34659">
      .cls-1 {
        fill: none;
      }
    </style><style
       id="style931">.cls-1{fill:#000000;}.cls-2{fill:none;}</style><style
       id="style1772">
      .cls-1 {
        fill: none;
      }
    </style><style
       id="style4214">.cls-1{fill:none;}</style><style
       id="style5886">.cls-1{fill:none;}</style><style
       id="style5923">
      .cls-1 {
        fill: none;
      }
    </style><style
       id="style5938">
      .cls-1 {
        fill: none;
      }
    </style><style
       id="style8494">
      .cls-1 {
        fill: none;
      }
    </style><style
       id="style8509">
      .cls-1 {
        fill: none;
      }
    </style><style
       id="style10257">
      .cls-1 {
        fill: none;
      }
    </style><style
       id="style10280">.cls-1{fill:none;}</style><style
       id="style11171">
      .cls-1 {
        fill: none;
      }
    </style><style
       id="style1997">.cls-1{fill:none;}</style><style
       id="style2928">
      .cls-1 {
        fill: none;
      }
    </style><style
       id="style2943">
      .cls-1 {
        fill: none;
      }
    </style><style
       id="style3863">.cls-1{fill:none;}</style><style
       id="style3880">.cls-1{fill:none;}</style><style
       id="style1078">
      .cls-1 {
        fill: none;
      }
    </style><style
       id="style3954">.cls-1{fill:none;}</style></defs><g
     id="layer8"
     style="display:inline"
     transform="translate(-59.266679,-33.866681)"><g
       id="g48330"
       transform="translate(29.633346,33.866681)"><path
         id="path46915"
         d="m 31.882285,0.26456465 c -0.181806,0 -0.336327,0.1254255 -0.382408,0.2935242 -0.04555,-0.018415 -0.09498,-0.02894 -0.146766,-0.02894 -0.217576,0 -0.396877,0.1792963 -0.396877,0.3968779 V 2.3944228 L 30.661161,2.1934001 c -0.06763,-0.050365 -0.149776,-0.077314 -0.234096,-0.07674 -0.354838,-8.75e-4 -0.532284,0.4288981 -0.280347,0.6787748 l 1.058342,0.965581 c 0.149831,0.1341075 0.343848,0.2081248 0.544929,0.2077408 h 0.661465 c 0.511444,0 0.926047,-0.4146076 0.926047,-0.9260483 V 1.3229046 c 0,-0.2175815 -0.179297,-0.39687775 -0.396878,-0.39687775 -0.04625,0 -0.09085,0.00814 -0.132291,0.022995 v -0.1552866 c 0,-0.217581 -0.179296,-0.3968778 -0.396878,-0.3968778 -0.07079,0 -0.137251,0.01935 -0.195081,0.052452 -0.07081,-0.1105368 -0.194362,-0.1847448 -0.334088,-0.1847448 z m 0,0.2645854 c 0.07558,0 0.132291,0.056714 0.132291,0.1322925 l 2e-6,1.45522385 h 0.264587 l -2e-6,-1.32293145 c 0,-0.075578 0.05672,-0.1322924 0.132291,-0.1322924 0.07558,0 0.132291,0.056714 0.132291,0.1322924 l 2e-6,1.32293145 h 0.264587 l -2e-6,-0.7937607 c 0,-0.075578 0.05672,-0.1322929 0.132291,-0.1322929 0.07558,0 0.132296,0.056714 0.132296,0.1322929 v 1.7198038 c 0,0.3653148 -0.296147,0.6614631 -0.661465,0.6614631 H 31.749989 C 31.616273,3.7057926 31.486547,3.6587756 31.384897,3.57188 L 30.333014,2.6060405 c -0.02445,-0.024641 -0.0381,-0.057796 -0.03825,-0.092501 0,-0.1090151 0.124406,-0.1713462 0.211616,-0.1059375 l 0.71443,0.4896377 V 0.92602835 c 0,-0.075579 0.05672,-0.132293 0.132291,-0.132293 0.07558,0 0.132296,0.056714 0.132296,0.132293 l 2e-6,1.19063845 h 0.264582 l -2e-6,-1.45522385 c 0,-0.075578 0.05672,-0.1322925 0.132296,-0.1322925 z"
         style="display:inline;fill:#6e6e6e;fill-opacity:1;stroke-width:0.264583" /><rect
         style="fill:none;fill-opacity:1;stroke-width:0.264583;paint-order:stroke fill markers"
         id="rect48272"
         width="15.999999"
         height="15.999999"
         x="29.633333"
         y="0" /></g></g><style
     type="text/css"
     id="style578">
	.st0{fill:none;}
</style><style
     type="text/css"
     id="style968">
	.st0{fill:none;}
</style><style
     type="text/css"
     id="style3690">
	.st0{fill:none;}
</style><style
     type="text/css"
     id="style5365">
	.st0{fill:none;}
</style><style
     type="text/css"
     id="style596">
	.st0{fill:none;}
</style><style
     type="text/css"
     id="style660">
	.st0{fill:none;}
</style><style
     type="text/css"
     id="style5861">
	.st0{fill:none;}
</style><style
     type="text/css"
     id="style25784">
	.st0{fill:none;}
</style></svg>
