<?xml version="1.0" encoding="UTF-8"?>
<svg id="svg19713" xmlns="http://www.w3.org/2000/svg" xmlns:svg="http://www.w3.org/2000/svg" version="1.1" viewBox="0 0 16 16">
  <!-- Generator: Adobe Illustrator 29.6.0, SVG Export Plug-In . SVG Version: 2.1.1 Build 207)  -->
  <defs>
    <style>
      .st0 {
        fill: none;
      }

      .st1 {
        fill: #555;
      }
    </style>
  </defs>
  <g id="g29047">
    <path id="path29043" class="st1" d="M8.5,1c-.687,0-1.271.474-1.445,1.109-.172-.07-.359-.109-.555-.109-.822,0-1.5.678-1.5,1.5v5.55l-1.115-.76c-.256-.19-.566-.292-.885-.29-1.341-.003-2.012,1.621-1.06,2.565l4,3.649c.566.507,1.3.787,2.06.785h2.5c1.933,0,3.5-1.567,3.5-3.5v-6.5c0-.822-.678-1.5-1.5-1.5-.175,0-.343.031-.5.087v-.587c0-.822-.678-1.5-1.5-1.5-.268,0-.519.073-.737.198-.268-.418-.735-.698-1.263-.698h0ZM8.5,2c.286,0,.5.214.5.5v5.5h1V3c0-.286.214-.5.5-.5s.5.214.5.5v5h1v-3c0-.286.214-.5.5-.5s.5.214.5.5v6.5c0,1.381-1.119,2.5-2.5,2.5h-2.5c-.505.006-.996-.172-1.38-.5l-3.976-3.65c-.092-.093-.144-.218-.145-.35,0-.412.47-.648.8-.4l2.7,1.851V3.5c0-.286.214-.5.5-.5s.5.214.5.5v4.5h1V2.5c0-.286.214-.5.5-.5h0Z"/>
    <rect id="rect29045" class="st0" x="0" y="0" width="16" height="16"/>
  </g>
</svg>