<?xml version="1.0" encoding="UTF-8"?>
<svg id="icon" xmlns="http://www.w3.org/2000/svg" version="1.1" viewBox="0 0 32 32" width="16" height="16">
  <!-- Generator: Adobe Illustrator 29.6.0, SVG Export Plug-In . SVG Version: 2.1.1 Build 207)  -->
  <defs>
    <style>
      .st0 {
        fill: none;
      }

      .st1 {
        fill: #555;
      }
    </style>
  </defs>
  <rect id="_Transparent_Rectangle_" class="st0" y="0" width="32" height="32"/>
  <path class="st1" d="M23.5,10c-.584,0-1.158.145-1.67.425-.594-1.84-2.566-2.849-4.406-2.255-.539.174-1.028.476-1.424.88-1.353-1.381-3.569-1.403-4.949-.051-.672.658-1.051,1.56-1.051,2.501v2.5h-1.5c-1.933,0-3.5,1.567-3.5,3.5v1.5c0,6.075,4.925,11,11,11s11-4.925,11-11v-5.5c0-1.933-1.567-3.5-3.5-3.5ZM25,19c0,4.971-4.029,9-9,9s-9-4.029-9-9v-1.5c0-.828.672-1.5,1.5-1.5h1.5v3c0,.552.448,1,1,1s1-.448,1-1v-7.5c0-.828.672-1.5,1.5-1.5s1.5.672,1.5,1.5v3.5c0,.552.448,1,1,1s1-.448,1-1v-3.5c0-.828.672-1.5,1.5-1.5s1.5.672,1.5,1.5v3.5c0,.552.448,1,1,1s1-.448,1-1v-1.5c0-.828.672-1.5,1.5-1.5s1.5.672,1.5,1.5v5.5Z"/>
</svg>