<?xml version="1.0" encoding="UTF-8"?>
<svg id="svg19713" xmlns="http://www.w3.org/2000/svg" xmlns:svg="http://www.w3.org/2000/svg" version="1.1" viewBox="0 0 16 16">
  <!-- Generator: Adobe Illustrator 29.6.0, SVG Export Plug-In . SVG Version: 2.1.1 Build 207)  -->
  <defs>
    <style>
      .st0 {
        fill: none;
      }

      .st1 {
        fill: #555;
      }
    </style>
  </defs>
  <g id="g29073">
    <path id="path29069" class="st1" d="M11.5,14c-.133,0-.261-.051-.355-.145l-3.065-3.07-1.665,2.5c-.108.166-.304.252-.5.22-.191-.028-.349-.165-.405-.35L2.51,3.155c-.102-.257.023-.547.28-.649.114-.045.24-.047.355-.006l10,3c.185.056.322.214.35.405.032.196-.054.392-.22.5l-2.5,1.665,3.07,3.065c.196.194.197.511.003.707,0,0-.002.002-.003.003l-2,2c-.09.095-.214.15-.345.155ZM11.5,12.795l1.295-1.295-3.58-3.575,2.625-1.75L3.745,3.745l2.43,8.095,1.75-2.625,3.575,3.58Z"/>
    <rect id="rect29071" class="st0" x="0" y="0" width="16" height="16"/>
  </g>
</svg>