<?xml version="1.0" encoding="UTF-8"?>
<svg id="icon" xmlns="http://www.w3.org/2000/svg" version="1.1" viewBox="0 0 32 32">
  <!-- Generator: Adobe Illustrator 29.6.0, SVG Export Plug-In . SVG Version: 2.1.1 Build 207)  -->
  <defs>
    <style>
      .st0 {
        fill: none;
      }

      .st1 {
        fill: #aaa;
      }
    </style>
  </defs>
  <rect id="_Transparent_Rectangle_" class="st0" y="0" width="15.999999" height="15.999999"/>
  <path class="st1" d="M30.397,5.159l-3.414-3.414-2.155,2.155-1.225-1.225-1.414,1.414,1.225,1.225-5.454,5.454v2l-1.936,1.935,1.414,1.414,1.935-1.935h2l5.454-5.454,1.209,1.209,1.414-1.414-1.209-1.209,2.155-2.155h.001ZM26.983,4.574l.586.585-.741.741-.586-.586.741-.741h0ZM20.546,12.183h-.586v-.586l4.868-4.868.586.586-4.868,4.869h0Z"/>
  <path class="st1" d="M19.029,17.355c.351.885.549,1.847.549,2.856,0,4.295-3.494,7.789-7.789,7.789s-7.789-3.494-7.789-7.789,3.494-7.789,7.789-7.789c1.086,0,2.12.225,3.06.628l1.499-1.498c-1.362-.719-2.911-1.13-4.558-1.13-5.406,0-9.789,4.383-9.789,9.789s4.383,9.789,9.789,9.789,9.789-4.383,9.789-9.789c0-1.571-.379-3.051-1.037-4.367l-1.512,1.511Z"/>
</svg>