<?xml version="1.0" encoding="UTF-8"?>
<svg id="icon" xmlns="http://www.w3.org/2000/svg" version="1.1" viewBox="0 0 32 32" width="15.999999" height="15.999999">
  <!-- Generator: Adobe Illustrator 29.6.0, SVG Export Plug-In . SVG Version: 2.1.1 Build 207)  -->
  <defs>
    <style>
      .st0 {
        fill: none;
      }

      .st1 {
        fill: #555;
      }
    </style>
  </defs>
  <path class="st1" d="M21.707,20.293l-5-5c-.195-.195-.451-.293-.707-.293s-.512.098-.707.293L2,28.586l1.414,1.414,12.586-12.586,3.586,3.586-5.586,5.586,1.414,1.414,2.292-2.292,4.001-4.001c.195-.195.293-.451.293-.707s-.098-.512-.293-.707Z"/>
  <path class="st1" d="M28.586,9l-5.586,5.586-6.001-6.002c-.392-.392-.907-.587-1.422-.584-.51.002-1.019.197-1.406.584l-6.17,6.175,1.414,1.414,6.17-6.175,6.708,6.708c.195.195.451.293.707.293s.512-.098.707-.293l6.293-6.293-1.414-1.414h0Z"/>
  <path class="st1" d="M22.5,9c-1.93,0-3.5-1.57-3.5-3.5s1.57-3.5,3.5-3.5,3.5,1.57,3.5,3.5-1.57,3.5-3.5,3.5ZM22.5,4c-.827,0-1.5.673-1.5,1.5s.673,1.5,1.5,1.5,1.5-.673,1.5-1.5-.673-1.5-1.5-1.5Z"/>
  <rect id="_Transparent_Rectangle_" class="st0" y="0" width="15.999999" height="15.999999"/>
</svg>