<?xml version="1.0" encoding="UTF-8"?>
<svg id="icon" xmlns="http://www.w3.org/2000/svg" version="1.1" viewBox="0 0 32 32">
  <!-- Generator: Adobe Illustrator 29.6.0, SVG Export Plug-In . SVG Version: 2.1.1 Build 207)  -->
  <defs>
    <style>
      .st0 {
        fill: none;
      }

      .st1 {
        fill: #aaa;
      }
    </style>
  </defs>
  <path class="st1" d="M16,19c-2.346.002-4.537-1.173-5.833-3.129l1.666-1.107c1.527,2.301,4.63,2.929,6.932,1.402.556-.369,1.033-.846,1.402-1.402l1.666,1.107c-1.296,1.956-3.487,3.131-5.833,3.129Z"/>
  <path class="st1" d="M20,8c-1.105,0-2,.895-2,2s.895,2,2,2,2-.895,2-2c.011-1.094-.867-1.989-1.961-2-.013,0-.026,0-.039,0Z"/>
  <path class="st1" d="M12,8c-1.105,0-2,.895-2,2s.895,2,2,2,2-.895,2-2c.011-1.094-.867-1.989-1.961-2-.013,0-.026,0-.039,0Z"/>
  <path class="st1" d="M17.736,30l-1.736-1,4-7h6c1.103.002,1.998-.891,2-1.993,0-.002,0-.005,0-.007V6c.002-1.103-.891-1.998-1.993-2-.002,0-.005,0-.007,0H6c-1.103-.002-1.998.891-2,1.993,0,.002,0,.005,0,.007v14c-.002,1.103.891,1.998,1.993,2,.002,0,.005,0,.007,0h9v2H6c-2.209,0-4-1.79-4-3.999h0V6c0-2.208,1.789-3.999,3.998-4,0,0,.002,0,.002,0h20c2.208,0,3.999,1.789,4,3.998v14.002c0,2.209-1.79,4-3.999,4h-4.837l-3.429,6Z"/>
  <rect id="_Transparent_Rectangle_" class="st0" y="0" width="15.999999" height="15.999999"/>
</svg>