<?xml version="1.0" encoding="UTF-8"?>
<svg id="Layer_1" xmlns="http://www.w3.org/2000/svg" version="1.1" viewBox="0 0 32 32" width="16" height="16">
  <!-- Generator: Adobe Illustrator 29.6.0, SVG Export Plug-In . SVG Version: 2.1.1 Build 207)  -->
  <defs>
    <style>
      .st0 {
        fill: #555;
      }
    </style>
  </defs>
  <path class="st0" d="M23.5,6c-.519,0-1.032.115-1.5.339v-.839c0-1.933-1.566-3.501-3.499-3.501-1.52,0-2.866.98-3.333,2.426-1.699-.922-3.824-.291-4.745,1.408-.278.512-.423,1.085-.423,1.667v8l-.477-.766c-.969-1.672-3.111-2.243-4.783-1.273-1.66.962-2.236,3.081-1.292,4.751,2,4.221,3.616,7.215,5.465,9.086,1.867,1.895,3.987,2.702,7.087,2.702,6.072-.007,10.993-4.928,11-11v-9.5c0-1.933-1.567-3.5-3.5-3.5ZM25,19c-.006,4.968-4.032,8.994-9,9-2.547,0-4.189-.61-5.666-2.106-1.654-1.676-3.176-4.519-5.096-8.571-.011-.025-.024-.049-.037-.073-.414-.718-.168-1.635.549-2.049.718-.414,1.635-.168,2.049.549h0c.005.01.011.02.017.029l2.334,3.75c.291.469.907.614,1.377.323.295-.183.474-.505.473-.852V7.5c0-.828.672-1.5,1.5-1.5s1.5.672,1.5,1.5v7.5c0,.552.448,1,1,1s1-.448,1-1V5.5c0-.828.672-1.5,1.5-1.5s1.5.672,1.5,1.5v9.5c0,.552.448,1,1,1s1-.448,1-1v-5.5c0-.828.672-1.5,1.5-1.5s1.5.672,1.5,1.5v9.5Z"/>
</svg>