<?xml version="1.0" encoding="UTF-8"?>
<svg id="svg19713" xmlns="http://www.w3.org/2000/svg" xmlns:svg="http://www.w3.org/2000/svg" version="1.1" viewBox="0 0 16 16" width="15.999999" height="15.999999">
  <!-- Generator: Adobe Illustrator 29.6.0, SVG Export Plug-In . SVG Version: 2.1.1 Build 207)  -->
  <defs>
    <style>
      .st0 {
        fill: none;
      }

      .st1 {
        fill: #aaa;
      }
    </style>
  </defs>
  <g id="g29081">
    <path id="path29077" class="st1" d="M8.002,1c-3.86,0-7.002,3.142-7.002,7.002s3.142,6.998,7.002,6.998,6.996-3.138,6.996-6.998S11.862,1,8.002,1ZM8.002,2c3.32,0,5.996,2.682,5.996,6.002s-2.676,5.998-5.996,5.998-6.002-2.678-6.002-5.998,2.682-6.002,6.002-6.002ZM7.5,4l-2.5,7h1l.5-1.5h3l.5,1.5h1l-2.5-7h-1ZM8,5l1.164,3.5h-2.328l1.164-3.5Z"/>
    <rect id="rect29079" class="st0" x="0" y="0" width="16" height="16"/>
  </g>
</svg>