<?xml version="1.0" encoding="UTF-8" standalone="no"?>
<!-- Created with Inkscape (http://www.inkscape.org/) -->

<svg
   width="15.999999"
   height="15.999999"
   viewBox="0 0 4.233329 4.233332"
   version="1.1"
   id="svg19713"
   xml:space="preserve"
   xmlns="http://www.w3.org/2000/svg"
   xmlns:svg="http://www.w3.org/2000/svg"><defs
     id="defs19710"><style
       id="style36518">.cls-1{fill:none;}</style><style
       id="style36538">.cls-1{fill:none;}</style><style
       id="style48643">
      .cls-1 {
        fill: none;
      }
    </style><style
       id="style49369">.cls-1{fill:none;}</style><style
       id="style68473">.cls-1{fill:none;}</style><style
       id="style34301">.cls-1{fill:none;}</style><style
       id="style40867">.cls-1{fill:none;}</style><style
       id="style3486">.cls-1{fill:none;}</style><style
       id="style16714">.cls-1{fill:none;}</style><style
       id="style16734">.cls-1{fill:none;}</style><style
       id="style598">.cls-1{fill:none;}</style><style
       id="style938">
      .cls-1 {
        fill: none;
      }
    </style><style
       id="style953">
      .cls-1 {
        fill: none;
      }
    </style><style
       id="style988">
      .cls-1 {
        fill: none;
      }
    </style><style
       id="style6804">.cls-1{fill:none;}</style><style
       id="style8295">.cls-1{fill:none;}</style><style
       id="style9297">.cls-1{fill:none;}</style><style
       id="style10710">
      .cls-1 {
        fill: none;
      }
    </style><style
       id="style616">.cls-1{fill:#000000;}.cls-2{fill:none;}</style><style
       id="style640">.cls-1{fill:none;}</style><style
       id="style732">.cls-1{fill:#000000;}.cls-2{fill:none;}</style><style
       id="style1166">
      .cls-1 {
        fill: none;
      }
    </style><style
       id="style1186">
      .cls-1 {
        fill: none;
      }
    </style><style
       id="style1201">
      .cls-1 {
        fill: none;
      }
    </style><style
       id="style2604">.cls-1{fill:none;}</style><style
       id="style3041">.cls-1{fill:none;}</style><style
       id="style34659">
      .cls-1 {
        fill: none;
      }
    </style><style
       id="style931">.cls-1{fill:#000000;}.cls-2{fill:none;}</style><style
       id="style1772">
      .cls-1 {
        fill: none;
      }
    </style><style
       id="style4214">.cls-1{fill:none;}</style><style
       id="style5886">.cls-1{fill:none;}</style><style
       id="style5923">
      .cls-1 {
        fill: none;
      }
    </style><style
       id="style5938">
      .cls-1 {
        fill: none;
      }
    </style><style
       id="style8494">
      .cls-1 {
        fill: none;
      }
    </style><style
       id="style8509">
      .cls-1 {
        fill: none;
      }
    </style><style
       id="style10257">
      .cls-1 {
        fill: none;
      }
    </style><style
       id="style10280">.cls-1{fill:none;}</style><style
       id="style11171">
      .cls-1 {
        fill: none;
      }
    </style><style
       id="style1997">.cls-1{fill:none;}</style><style
       id="style2928">
      .cls-1 {
        fill: none;
      }
    </style><style
       id="style2943">
      .cls-1 {
        fill: none;
      }
    </style><style
       id="style3863">.cls-1{fill:none;}</style><style
       id="style3880">.cls-1{fill:none;}</style><style
       id="style1078">
      .cls-1 {
        fill: none;
      }
    </style><style
       id="style3954">.cls-1{fill:none;}</style></defs><g
     id="layer9"
     style="display:inline"
     transform="translate(-55.033355,-38.100018)"><g
       id="g49384"
       transform="matrix(0.13229167,0,0,0.13229167,59.260072,38.100017)"
       style="stroke-width:4"><path
         id="path48647"
         style="fill:#6e6e6e;fill-opacity:1;stroke-width:0.264583"
         d="M 34.395827,0.26458292 A 0.26486085,0.26486085 0 0 0 34.131244,0.52916625 V 1.0583329 h 0.264583 V 0.52916625 h 0.529167 V 0.26458292 Z m 1.058333,0 v 0.26458333 h 0.529167 V 0.26458292 Z m 1.058334,0 V 0.52916625 H 37.04166 V 1.0583329 h 0.264584 V 0.52916625 A 0.26486085,0.26486085 0 0 0 37.04166,0.26458292 Z M 35.196295,1.1906246 A 0.13229152,0.13229152 0 0 0 35.06297,1.36064 l 0.79375,2.6458333 a 0.13229152,0.13229152 0 0 0 0.236678,0.035657 l 0.439766,-0.6593913 0.811837,0.8118367 a 0.13185496,0.13185496 0 0 0 0.09353,0.038757 0.13185496,0.13185496 0 0 0 0.09353,-0.038757 l 0.529166,-0.5291666 a 0.13221215,0.13221215 0 0 0 0,-0.1870687 L 37.2494,2.6665035 37.908791,2.226737 a 0.13229152,0.13229152 0 0 0 -0.03514,-0.236678 l -2.645833,-0.79375 a 0.13229152,0.13229152 0 0 0 -0.03152,-0.00568 z m 0.190686,0.3296956 2.140955,0.642338 -0.694015,0.4625041 0.946712,0.9467122 -0.342098,0.342098 -0.946712,-0.9467122 -0.462504,0.6940145 z m -1.255737,0.067179 v 0.5291666 h 0.264583 V 1.5874996 Z m 0,1.0583333 v 0.5291666 a 0.26486085,0.26486085 0 0 0 0.264583,0.2645834 h 0.529167 V 3.1749995 H 34.395827 V 2.6458329 Z"
         transform="matrix(7.559055,0,0,7.559055,-287.95,0)" /><rect
         id="_Transparent_Rectangle_"
         data-name="&lt;Transparent Rectangle&gt;"
         class="cls-1"
         width="15.999999"
         height="15.999999"
         x="33.866669"
         y="8.9999997e-07"
         style="fill:none;stroke-width:0.264583"
         transform="matrix(7.559055,0,0,7.559055,-287.95,0)" /></g></g><style
     type="text/css"
     id="style578">
	.st0{fill:none;}
</style><style
     type="text/css"
     id="style968">
	.st0{fill:none;}
</style><style
     type="text/css"
     id="style3690">
	.st0{fill:none;}
</style><style
     type="text/css"
     id="style5365">
	.st0{fill:none;}
</style><style
     type="text/css"
     id="style596">
	.st0{fill:none;}
</style><style
     type="text/css"
     id="style660">
	.st0{fill:none;}
</style><style
     type="text/css"
     id="style5861">
	.st0{fill:none;}
</style><style
     type="text/css"
     id="style25784">
	.st0{fill:none;}
</style></svg>
