<?xml version="1.0" encoding="UTF-8"?>
<svg id="svg19713" xmlns="http://www.w3.org/2000/svg" xmlns:svg="http://www.w3.org/2000/svg" version="1.1" viewBox="0 0 16 16" width="15.999999" height="15.999999">
  <!-- Generator: Adobe Illustrator 29.6.0, SVG Export Plug-In . SVG Version: 2.1.1 Build 207)  -->
  <defs>
    <style>
      .st0 {
        fill: none;
      }

      .st1 {
        fill: #555;
      }
    </style>
  </defs>
  <g id="g29089">
    <path id="path29085" class="st1" d="M2,1c-.552,0-.999.448-1,1v2h1V2h2v-1H2ZM6,1v1h2v-1h-2ZM10,1v1h2v2h1V2c0-.552-.448-.999-1-1h-2ZM5.025,4.5c-.276-.014-.511.199-.524.475-.003.057.004.114.02.168l3,10c.079.265.358.415.622.336.111-.033.208-.104.272-.201l1.662-2.492,3.068,3.068c.094.094.221.147.353.146.133,0,.26-.053.353-.146l2-2c.195-.195.195-.511,0-.707,0,0,0,0,0,0l-3.068-3.068,2.492-1.662c.23-.153.292-.464.138-.693-.064-.096-.16-.168-.271-.201l-10-3c-.039-.012-.079-.019-.119-.021h0ZM5.746,5.746l8.092,2.428-2.623,1.748,3.578,3.578-1.293,1.293-3.578-3.578-1.748,2.623-2.428-8.092ZM1,6v2h1v-2H1ZM1,10v2c0,.552.448.999,1,1h2v-1H2v-2H1Z"/>
    <rect id="rect29087" class="st0" x="0" y="0" width="16" height="16"/>
  </g>
</svg>