<?xml version="1.0" encoding="UTF-8"?>
<svg id="svg19713" xmlns="http://www.w3.org/2000/svg" xmlns:svg="http://www.w3.org/2000/svg" version="1.1" viewBox="0 0 16 16">
  <!-- Generator: Adobe Illustrator 29.6.0, SVG Export Plug-In . SVG Version: 2.1.1 Build 207)  -->
  <defs>
    <style>
      .st0 {
        fill: none;
      }

      .st1 {
        fill: #555;
      }
    </style>
  </defs>
  <g id="g29105">
    <path id="path29101" class="st1" d="M3.5,2l-2.5,7h1l.5-1.5h3l.5,1.5h1l-2.5-7h-1ZM4,3l1.165,3.5h-2.33l1.165-3.5ZM11,8c-1.727.053-3.257,1.131-3.889,2.739l-.111.261.111.261c.632,1.609,2.161,2.686,3.889,2.739,1.727-.053,3.257-1.131,3.889-2.739l.111-.261-.111-.261c-.632-1.609-2.161-2.686-3.889-2.739ZM11,9c1.104.001,1.999.896,2,2,0,1.078-.854,1.962-1.932,1.999-2.703.084-2.773-3.991-.068-3.999ZM11,10c-.552,0-1,.448-1,1s.448,1,1,1,1-.448,1-1-.448-1-1-1Z"/>
    <rect id="rect29103" class="st0" x="0" y="0" width="16" height="16"/>
  </g>
</svg>