<?xml version="1.0" encoding="UTF-8"?>
<svg id="svg19713" xmlns="http://www.w3.org/2000/svg" xmlns:svg="http://www.w3.org/2000/svg" version="1.1" viewBox="0 0 16 16">
  <!-- Generator: Adobe Illustrator 29.6.0, SVG Export Plug-In . SVG Version: 2.1.1 Build 207)  -->
  <defs>
    <style>
      .st0 {
        fill: none;
      }

      .st1 {
        fill: #aaa;
      }
    </style>
  </defs>
  <g id="g29113">
    <path id="path29109" class="st1" d="M13.293,2L2,13.293l.707.707L14,2.707l-.707-.707ZM4.012,2.049c-1.354.272-2.231,1.589-1.959,2.943.234,1.167,1.258,2.007,2.448,2.008,1.38-.002,2.498-1.12,2.5-2.5,0-1.381-1.12-2.5-2.501-2.499-.164,0-.327.016-.488.048ZM4.5,3c.828,0,1.499.672,1.5,1.5,0,.828-.672,1.5-1.5,1.5-.828,0-1.5-.672-1.5-1.5s.672-1.5,1.5-1.5h0ZM11.012,9.049c-1.354.272-2.231,1.589-1.959,2.943.234,1.167,1.258,2.007,2.448,2.008,1.38-.002,2.498-1.12,2.5-2.5,0-1.381-1.12-2.5-2.501-2.499-.164,0-.327.016-.488.048ZM11.5,10c.828,0,1.499.672,1.5,1.5,0,.828-.672,1.5-1.5,1.5s-1.5-.672-1.5-1.5.672-1.5,1.5-1.5h0Z"/>
    <rect id="rect29111" class="st0" x="0" y="0" width="16" height="16"/>
  </g>
</svg>