<?xml version="1.0" encoding="UTF-8"?>
<svg id="svg19713" xmlns="http://www.w3.org/2000/svg" xmlns:svg="http://www.w3.org/2000/svg" version="1.1" viewBox="0 0 16 16">
  <!-- Generator: Adobe Illustrator 29.6.0, SVG Export Plug-In . SVG Version: 2.1.1 Build 207)  -->
  <defs>
    <style>
      .st0 {
        fill: none;
      }

      .st1 {
        fill: #aaa;
      }
    </style>
  </defs>
  <g id="g29121">
    <path id="path29117" class="st1" d="M6,2c-.167.001-.322.085-.414.225l-.855,1.275H1.5c-.276,0-.5.224-.5.5v8.5c0,.276.224.5.5.5h13c.276,0,.5-.224.5-.5V4c0-.276-.224-.5-.5-.5h-3.23l-.855-1.275c-.092-.139-.247-.224-.414-.225h-4ZM6.27,3h3.461l.855,1.275c.092.139.247.224.414.225h3v7.5H2v-7.5h3c.167-.001.322-.085.414-.225l.855-1.275ZM7.414,5.059c-1.624.326-2.677,1.907-2.351,3.531.281,1.4,1.509,2.408,2.937,2.41,1.657,0,3-1.343,3-3,0-1.657-1.344-3-3.001-2.999-.196,0-.392.019-.585.058ZM8,6c1.105,0,2,.895,2,2s-.895,2-2,2-2-.895-2-2,.895-2,2-2Z"/>
    <rect id="rect29119" class="st0" x="0" y="0" width="16" height="16"/>
  </g>
</svg>