<?xml version="1.0" encoding="UTF-8"?>
<svg id="icon" xmlns="http://www.w3.org/2000/svg" version="1.1" viewBox="0 0 32 32" width="15.999999" height="15.999999">
  <!-- Generator: Adobe Illustrator 29.6.0, SVG Export Plug-In . SVG Version: 2.1.1 Build 207)  -->
  <defs>
    <style>
      .st0 {
        fill: none;
      }

      .st1 {
        fill: #555;
      }
    </style>
  </defs>
  <path class="st1" d="M7.7,4.7c-1.147.88-2.158,1.925-3,3.1l1.6,1.2c.734-1.019,1.61-1.928,2.6-2.7l-1.2-1.6Z"/>
  <path class="st1" d="M4.6,12.3l-1.9-.6c-.483,1.381-.72,2.837-.7,4.3h2c-.004-1.258.199-2.508.6-3.7Z"/>
  <path class="st1" d="M2.7,20.4c.464,1.394,1.138,2.71,2,3.9l1.6-1.2c-.723-1.012-1.296-2.124-1.7-3.3l-1.9.6Z"/>
  <path class="st1" d="M7.8,27.3c1.19.862,2.506,1.536,3.9,2l.6-1.9c-1.176-.404-2.288-.977-3.3-1.7l-1.2,1.6Z"/>
  <path class="st1" d="M11.7,2.7l.6,1.9c1.192-.401,2.442-.604,3.7-.6V2c-1.463-.02-2.919.217-4.3.7Z"/>
  <path class="st1" d="M24.2,27.3c1.178-.878,2.222-1.922,3.1-3.1l-1.6-1.2c-.744,1.044-1.656,1.956-2.7,2.7l1.2,1.6Z"/>
  <path class="st1" d="M27.4,19.7l1.9.6c.435-1.393.671-2.841.7-4.3h-2c.004,1.258-.199,2.508-.6,3.7Z"/>
  <path class="st1" d="M29.2,11.6c-.464-1.394-1.138-2.71-2-3.9l-1.6,1.2c.723,1.012,1.296,2.124,1.7,3.3l1.9-.6Z"/>
  <path class="st1" d="M24.1,4.6c-1.19-.862-2.506-1.536-3.9-2l-.6,1.9c1.176.404,2.288.977,3.3,1.7l1.2-1.6Z"/>
  <path class="st1" d="M20.3,29.3l-.6-1.9c-1.192.401-2.442.604-3.7.6v2c1.453-.087,2.894-.321,4.3-.7Z"/>
  <path class="st1" d="M16,26c-5.523,0-10-4.477-10-10s4.477-10,10-10,10,4.477,10,10c-.006,5.52-4.48,9.994-10,10ZM16,8c-4.418,0-8,3.582-8,8s3.582,8,8,8,8-3.582,8-8c-.005-4.416-3.584-7.995-8-8Z"/>
  <rect id="_Transparent_Rectangle" class="st0" y="0" width="15.999999" height="15.999999"/>
</svg>