<?xml version="1.0" encoding="UTF-8" standalone="no"?>
<!-- Created with Inkscape (http://www.inkscape.org/) -->

<svg
   width="15.999999"
   height="15.999999"
   viewBox="0 0 4.233333 4.233333"
   version="1.1"
   id="svg19713"
   xml:space="preserve"
   xmlns="http://www.w3.org/2000/svg"
   xmlns:svg="http://www.w3.org/2000/svg"><defs
     id="defs19710"><style
       id="style36518">.cls-1{fill:none;}</style><style
       id="style36538">.cls-1{fill:none;}</style><style
       id="style48643">
      .cls-1 {
        fill: none;
      }
    </style><style
       id="style49369">.cls-1{fill:none;}</style><style
       id="style68473">.cls-1{fill:none;}</style><style
       id="style34301">.cls-1{fill:none;}</style><style
       id="style40867">.cls-1{fill:none;}</style><style
       id="style3486">.cls-1{fill:none;}</style><style
       id="style16714">.cls-1{fill:none;}</style><style
       id="style16734">.cls-1{fill:none;}</style><style
       id="style598">.cls-1{fill:none;}</style><style
       id="style938">
      .cls-1 {
        fill: none;
      }
    </style><style
       id="style953">
      .cls-1 {
        fill: none;
      }
    </style><style
       id="style988">
      .cls-1 {
        fill: none;
      }
    </style><style
       id="style6804">.cls-1{fill:none;}</style><style
       id="style8295">.cls-1{fill:none;}</style><style
       id="style9297">.cls-1{fill:none;}</style><style
       id="style10710">
      .cls-1 {
        fill: none;
      }
    </style><style
       id="style616">.cls-1{fill:#000000;}.cls-2{fill:none;}</style><style
       id="style640">.cls-1{fill:none;}</style><style
       id="style732">.cls-1{fill:#000000;}.cls-2{fill:none;}</style><style
       id="style1166">
      .cls-1 {
        fill: none;
      }
    </style><style
       id="style1186">
      .cls-1 {
        fill: none;
      }
    </style><style
       id="style1201">
      .cls-1 {
        fill: none;
      }
    </style><style
       id="style2604">.cls-1{fill:none;}</style><style
       id="style3041">.cls-1{fill:none;}</style><style
       id="style34659">
      .cls-1 {
        fill: none;
      }
    </style><style
       id="style931">.cls-1{fill:#000000;}.cls-2{fill:none;}</style><style
       id="style1772">
      .cls-1 {
        fill: none;
      }
    </style><style
       id="style4214">.cls-1{fill:none;}</style><style
       id="style5886">.cls-1{fill:none;}</style><style
       id="style5923">
      .cls-1 {
        fill: none;
      }
    </style><style
       id="style5938">
      .cls-1 {
        fill: none;
      }
    </style><style
       id="style8494">
      .cls-1 {
        fill: none;
      }
    </style><style
       id="style8509">
      .cls-1 {
        fill: none;
      }
    </style><style
       id="style10257">
      .cls-1 {
        fill: none;
      }
    </style><style
       id="style10280">.cls-1{fill:none;}</style><style
       id="style11171">
      .cls-1 {
        fill: none;
      }
    </style><style
       id="style1997">.cls-1{fill:none;}</style><style
       id="style2928">
      .cls-1 {
        fill: none;
      }
    </style><style
       id="style2943">
      .cls-1 {
        fill: none;
      }
    </style><style
       id="style3863">.cls-1{fill:none;}</style><style
       id="style3880">.cls-1{fill:none;}</style><style
       id="style1078">
      .cls-1 {
        fill: none;
      }
    </style><style
       id="style3954">.cls-1{fill:none;}</style></defs><g
     id="g29139"
     transform="translate(-122.76676,-38.100014)"><g
       id="g29137"
       transform="translate(118.53343,33.866681)"><path
         id="path29133"
         style="color:#000000;display:inline;fill:#afb1b3;fill-opacity:1;stroke-width:1;paint-order:stroke fill markers"
         d="M 5.2782308,4.7625 C 4.9937342,4.7697953 4.7625,5.0055254 4.7625,5.2916666 c 0,0.2906837 0.2384815,0.5291667 0.5291666,0.5291667 0.097777,0 0.1898225,-0.027 0.2687175,-0.073897 l 1.3926798,1.3926798 c -0.04696,0.078934 -0.073897,0.1708679 -0.073897,0.2687175 0,0.2906836 0.2384816,0.5291666 0.5291667,0.5291666 0.2906836,0 0.5291666,-0.238483 0.5291666,-0.5291666 0,-0.2906831 -0.238483,-0.5291667 -0.5291666,-0.5291667 -0.097607,0 -0.1893988,0.026636 -0.2682007,0.073381 L 5.746936,5.5598673 C 5.793761,5.4810163 5.820833,5.3893634 5.820833,5.2916666 5.820833,5.0009835 5.5823464,4.7625 5.2916663,4.7625 c -0.00454,0 -0.00892,-1.158e-4 -0.013435,0 z m 1.7332275,0 V 5.0270833 H 7.6729166 V 5.2916666 H 7.1437499 A 0.2645837,0.2645837 0 0 0 6.8791666,5.55625 v 0.2645833 a 0.2645837,0.2645837 0 0 0 0.2645833,0.2645833 h 0.79375 V 5.0270833 A 0.26488797,0.26488797 0 0 0 7.6729166,4.7625 Z M 5.2916666,5.0270833 c 0.1476901,0 0.2645834,0.1168913 0.2645834,0.2645833 0,0.1476927 -0.1168933,0.2645834 -0.2645834,0.2645834 -0.147695,0 -0.2645833,-0.1168907 -0.2645833,-0.2645834 0,-0.147692 0.1168883,-0.2645833 0.2645833,-0.2645833 z M 7.1437499,5.55625 H 7.6729166 V 5.8208333 H 7.1437499 Z m 0.2645834,1.5874999 c 0.1476925,0 0.2645833,0.1168913 0.2645833,0.2645834 0,0.1476925 -0.1168908,0.2645833 -0.2645833,0.2645833 -0.1476921,0 -0.2645834,-0.1168908 -0.2645834,-0.2645833 0,-0.1476921 0.1168913,-0.2645834 0.2645834,-0.2645834 z" /><rect
         style="fill:none;fill-opacity:1;stroke-width:0.264583;paint-order:stroke fill markers"
         id="rect29135"
         width="4.2333331"
         height="4.2333331"
         x="4.2333331"
         y="4.2333331" /></g></g><style
     type="text/css"
     id="style578">
	.st0{fill:none;}
</style><style
     type="text/css"
     id="style968">
	.st0{fill:none;}
</style><style
     type="text/css"
     id="style3690">
	.st0{fill:none;}
</style><style
     type="text/css"
     id="style5365">
	.st0{fill:none;}
</style><style
     type="text/css"
     id="style596">
	.st0{fill:none;}
</style><style
     type="text/css"
     id="style660">
	.st0{fill:none;}
</style><style
     type="text/css"
     id="style5861">
	.st0{fill:none;}
</style><style
     type="text/css"
     id="style25784">
	.st0{fill:none;}
</style></svg>
