<?xml version="1.0" encoding="UTF-8"?>
<svg id="svg19713" xmlns="http://www.w3.org/2000/svg" xmlns:svg="http://www.w3.org/2000/svg" version="1.1" viewBox="0 0 16 16">
  <!-- Generator: Adobe Illustrator 29.6.0, SVG Export Plug-In . SVG Version: 2.1.1 Build 207)  -->
  <defs>
    <style>
      .st0 {
        fill: #555;
      }
    </style>
  </defs>
  <g id="g52331">
    <path id="path40933" class="st0" d="M3.911,2c-1.065.028-1.93.919-1.93,2,0,1.099.893,2,1.981,2,.366,0,.71-.102,1.006-.279l5.212,5.264c-.176.298-.277.646-.277,1.016,0,1.099.893,2,1.981,2s1.981-.901,1.981-2-.893-2-1.981-2c-.365,0-.709.101-1.004.277l-5.214-5.264c.175-.298.277-.644.277-1.014,0-1.099-.893-2-1.981-2-.017,0-.033,0-.05,0ZM10.398,2v1h2.476v1h-1.981c-.547,0-.99.448-.99,1v1c0,.552.443,1,.99,1h2.971v-4c0-.552-.444-.999-.99-1h-2.476ZM3.961,3c.553,0,.99.442.99,1s-.437,1-.99,1-.99-.442-.99-1,.437-1,.99-1ZM10.893,5h1.981v1h-1.981v-1ZM11.883,11c.553,0,.99.442.99,1s-.437,1-.99,1-.99-.442-.99-1,.437-1,.99-1Z"/>
  </g>
</svg>