<?xml version="1.0" encoding="UTF-8"?>
<svg id="icon" xmlns="http://www.w3.org/2000/svg" version="1.1" viewBox="0 0 32 32" width="15.999999" height="15.999999">
  <!-- Generator: Adobe Illustrator 29.6.0, SVG Export Plug-In . SVG Version: 2.1.1 Build 207)  -->
  <defs>
    <style>
      .st0 {
        fill: none;
      }

      .st1 {
        fill: #aaa;
      }
    </style>
  </defs>
  <path class="st1" d="M12.1,2c-1.918-.007-3.795.55-5.4,1.6l6.4,6.4c.882.753.987,2.078.234,2.961-.011.013-.023.026-.034.039-.863.775-2.191.703-2.966-.161-.012-.013-.023-.026-.034-.039L3.7,6.4c-1.141,1.679-1.735,3.67-1.7,5.7.022,5.569,4.531,10.078,10.1,10.1.876.005,1.749-.096,2.6-.3l6.7,6.7c1.961,1.961,5.139,1.961,7.1,0s1.961-5.139,0-7.1l-6.7-6.7c.204-.851.305-1.724.3-2.6.11-5.522-4.276-10.088-9.798-10.198-.067-.001-.135-.002-.202-.002ZM20.1,12.1c-.001.711-.102,1.417-.3,2.1l-.3,1.1.8.8,6.7,6.7c.577.546.902,1.306.9,2.1.023.798-.306,1.566-.9,2.1-1.105,1.16-2.94,1.205-4.1.1-.034-.033-.067-.066-.1-.1l-6.7-6.7-.8-.8-1.1.3c-.683.198-1.389.299-2.1.3-2.125-.006-4.166-.83-5.7-2.3-1.569-1.476-2.44-3.546-2.4-5.7.001-.743.102-1.483.3-2.2l4.4,4.4c1.547,1.684,4.166,1.794,5.85.247.017-.016.034-.031.05-.047,1.575-1.658,1.508-4.278-.15-5.853-.017-.016-.033-.032-.05-.047l-4.4-4.4c.647-.205,1.322-.306,2-.3,2.125.006,4.166.83,5.7,2.3,1.535,1.581,2.396,3.696,2.4,5.9Z"/>
  <rect id="_Transparent_Rectangle_" class="st0" y="0" width="15.999999" height="15.999999"/>
</svg>