<?xml version="1.0" encoding="UTF-8"?>
<svg id="icon" xmlns="http://www.w3.org/2000/svg" version="1.1" viewBox="0 0 32 32" width="15.999999" height="15.999999">
  <!-- Generator: Adobe Illustrator 29.6.0, SVG Export Plug-In . SVG Version: 2.1.1 Build 207)  -->
  <defs>
    <style>
      .st0 {
        fill: none;
      }

      .st1 {
        fill: #555;
      }
    </style>
  </defs>
  <polygon class="st1" points="2 7 2 9 9 9 9 25 11 25 11 9 18 9 18 7 2 7"/>
  <rect id="_Transparent_Rectangle_" class="st0" y="0" width="15.999999" height="15.999999"/>
  <circle class="st1" cx="22" cy="19" r="2"/>
  <path class="st1" d="M29.777,18.479c-1.263-3.217-4.322-5.372-7.777-5.479-3.455.106-6.514,2.261-7.777,5.479l-.223.521.223.521c1.263,3.217,4.322,5.372,7.777,5.479,3.455-.106,6.514-2.261,7.777-5.479l.223-.521-.223-.521ZM22,23c-2.209,0-4-1.791-4-4s1.791-4,4-4,4,1.791,4,4c-.002,2.208-1.792,3.998-4,4Z"/>
</svg>