<?xml version="1.0" encoding="UTF-8"?>
<svg id="icon" xmlns="http://www.w3.org/2000/svg" version="1.1" viewBox="0 0 32 32" width="15.999999" height="15.999999">
  <!-- Generator: Adobe Illustrator 29.6.0, SVG Export Plug-In . SVG Version: 2.1.1 Build 207)  -->
  <defs>
    <style>
      .st0 {
        fill: none;
      }

      .st1 {
        fill: #aaa;
      }
    </style>
  </defs>
  <path class="st1" d="M26,28H6c-1.104-.001-1.999-.896-2-2v-15c.001-1.104.896-1.999,2-2h5.667c.433,0,.854.141,1.201.4l3.466,2.6h9.667c1.104.001,1.999.896,2,2v12c-.001,1.104-.896,1.999-2,2ZM11.667,11h-5.668l.002,15h20v-12h-10.333l-4-3Z"/>
  <path class="st1" d="M28,9h-10.333l-4-3h-7.667v-2h7.667c.433,0,.854.141,1.201.4l3.466,2.6h9.667v2Z"/>
  <rect id="_Transparent_Rectangle_" class="st0" y="0" width="15.999999" height="15.999999"/>
</svg>