<?xml version="1.0" encoding="UTF-8"?>
<svg id="icon" xmlns="http://www.w3.org/2000/svg" version="1.1" viewBox="0 0 32 32" width="15.999999" height="15.999999">
  <!-- Generator: Adobe Illustrator 29.6.0, SVG Export Plug-In . SVG Version: 2.1.1 Build 207)  -->
  <defs>
    <style>
      .st0 {
        fill: none;
      }

      .st1 {
        fill: #555;
      }
    </style>
  </defs>
  <path class="st1" d="M30,8h-4.1c-.5-2.3-2.5-4-4.9-4s-4.4,1.7-4.9,4H2v2h14.1c.5,2.3,2.5,4,4.9,4s4.4-1.7,4.9-4h4.1v-2ZM21,12c-1.7,0-3-1.3-3-3s1.3-3,3-3,3,1.3,3,3-1.3,3-3,3Z"/>
  <path class="st1" d="M2,24h4.1c.5,2.3,2.5,4,4.9,4s4.4-1.7,4.9-4h14.1v-2h-14.1c-.5-2.3-2.5-4-4.9-4s-4.4,1.7-4.9,4H2v2ZM11,20c1.7,0,3,1.3,3,3s-1.3,3-3,3-3-1.3-3-3,1.3-3,3-3Z"/>
  <rect id="_Transparent_Rectangle_" class="st0" y="0" width="15.999999" height="15.999999"/>
</svg>