<?xml version="1.0" encoding="UTF-8"?>
<svg id="icon" xmlns="http://www.w3.org/2000/svg" version="1.1" viewBox="0 0 16 16" width="16" height="16">
  <!-- Generator: Adobe Illustrator 29.6.0, SVG Export Plug-In . SVG Version: 2.1.1 Build 207)  -->
  <defs>
    <style>
      .st0 {
        fill: none;
      }

      .st1 {
        fill: #aaa;
      }
    </style>
  </defs>
  <rect id="_Transparent_Rectangle_" class="st0" y="0" width="16" height="16"/>
  <g>
    <polygon class="st1" points="6 1 6 2 8 2 10 2 10 1 8 1 6 1"/>
    <path class="st1" d="M1,2v2h1v-2h2v-1h-2c-.552,0-.999.448-1,1Z"/>
    <polygon class="st1" points="6 14 6 15 8 15 10 15 10 14 8 14 6 14"/>
    <polygon class="st1" points="2 8 2 6 1 6 1 8 1 10 2 10 2 8"/>
    <path class="st1" d="M2,12h-1v2c0,.552.448,1,1,1h2v-1h-2v-2Z"/>
    <path class="st1" d="M14,14h-2v1h2c.552,0,1-.448,1-1v-2h-1v2Z"/>
    <polygon class="st1" points="14 8 14 10 15 10 15 8 15 6 14 6 14 8"/>
    <path class="st1" d="M14,1h-2v1h2v2h1v-2c0-.552-.448-.999-1-1Z"/>
  </g>
  <path class="st1" d="M11.44,4.56v.957s-2.667,2.667-2.667,2.667l-.293.293v2.962h-.96v-2.962l-.293-.293-2.667-2.667v-.957h6.88M11.7,3.56h-7.4c-.409,0-.74.331-.74.74v1.328c0,.196.079.384.218.522l2.742,2.742v2.808c0,.409.331.74.74.74h1.48c.409,0,.74-.331.74-.74v-2.808l2.742-2.742c.139-.138.218-.326.218-.522v-1.328c0-.409-.331-.74-.74-.74h0Z"/>
</svg>