<?xml version="1.0" encoding="UTF-8"?>
<svg id="icon" xmlns="http://www.w3.org/2000/svg" version="1.1" viewBox="0 0 32 32" width="15.999999" height="15.999999">
  <!-- Generator: Adobe Illustrator 29.6.0, SVG Export Plug-In . SVG Version: 2.1.1 Build 207)  -->
  <defs>
    <style>
      .st0 {
        fill: none;
      }

      .st1 {
        fill: #aaa;
      }
    </style>
  </defs>
  <path class="st1" d="M20,2h-8c-5.514-.009-9.991,4.454-10,9.968-.006,3.59,1.917,6.907,5.035,8.687-.01.115-.035.226-.035.345.006,1.783,1.194,3.347,2.911,3.83-.394,1.846-2.023,3.167-3.911,3.17h-2v2h2c2.97-.005,5.49-2.182,5.928-5.12,1.433-.346,2.559-1.453,2.93-2.88h5.142c5.523,0,10-4.477,10-10S25.523,2,20,2ZM11,23c-1.105,0-2-.895-2-2s.895-2,2-2,2,.895,2,2c-.001,1.104-.896,1.999-2,2ZM20,20h-5.142c-.544-2.132-2.713-3.42-4.845-2.876-.939.239-1.758.813-2.305,1.613-3.726-2.364-4.83-7.301-2.465-11.027,1.468-2.313,4.018-3.713,6.757-3.709h8c4.418,0,8,3.582,8,8s-3.582,8-8,8Z"/>
  <rect id="_Transparent_Rectangle_" class="st0" y="0" width="15.999999" height="15.999999"/>
</svg>