<?xml version="1.0" encoding="UTF-8" standalone="no"?>
<!-- Created with Inkscape (http://www.inkscape.org/) -->

<svg
   width="15.999999"
   height="15.999999"
   viewBox="0 0 4.2333333 4.2333333"
   version="1.1"
   id="svg19713"
   xml:space="preserve"
   xmlns="http://www.w3.org/2000/svg"
   xmlns:svg="http://www.w3.org/2000/svg"><defs
     id="defs19710"><style
       id="style36518">.cls-1{fill:none;}</style><style
       id="style36538">.cls-1{fill:none;}</style><style
       id="style48643">
      .cls-1 {
        fill: none;
      }
    </style><style
       id="style49369">.cls-1{fill:none;}</style><style
       id="style68473">.cls-1{fill:none;}</style><style
       id="style34301">.cls-1{fill:none;}</style><style
       id="style40867">.cls-1{fill:none;}</style><style
       id="style3486">.cls-1{fill:none;}</style><style
       id="style16714">.cls-1{fill:none;}</style><style
       id="style16734">.cls-1{fill:none;}</style><style
       id="style598">.cls-1{fill:none;}</style><style
       id="style938">
      .cls-1 {
        fill: none;
      }
    </style><style
       id="style953">
      .cls-1 {
        fill: none;
      }
    </style><style
       id="style988">
      .cls-1 {
        fill: none;
      }
    </style><style
       id="style6804">.cls-1{fill:none;}</style><style
       id="style8295">.cls-1{fill:none;}</style><style
       id="style9297">.cls-1{fill:none;}</style><style
       id="style10710">
      .cls-1 {
        fill: none;
      }
    </style><style
       id="style616">.cls-1{fill:#000000;}.cls-2{fill:none;}</style><style
       id="style640">.cls-1{fill:none;}</style><style
       id="style732">.cls-1{fill:#000000;}.cls-2{fill:none;}</style><style
       id="style1166">
      .cls-1 {
        fill: none;
      }
    </style><style
       id="style1186">
      .cls-1 {
        fill: none;
      }
    </style><style
       id="style1201">
      .cls-1 {
        fill: none;
      }
    </style><style
       id="style2604">.cls-1{fill:none;}</style><style
       id="style3041">.cls-1{fill:none;}</style><style
       id="style34659">
      .cls-1 {
        fill: none;
      }
    </style><style
       id="style931">.cls-1{fill:#000000;}.cls-2{fill:none;}</style><style
       id="style1772">
      .cls-1 {
        fill: none;
      }
    </style><style
       id="style4214">.cls-1{fill:none;}</style><style
       id="style5886">.cls-1{fill:none;}</style><style
       id="style5923">
      .cls-1 {
        fill: none;
      }
    </style><style
       id="style5938">
      .cls-1 {
        fill: none;
      }
    </style><style
       id="style8494">
      .cls-1 {
        fill: none;
      }
    </style><style
       id="style8509">
      .cls-1 {
        fill: none;
      }
    </style><style
       id="style10257">
      .cls-1 {
        fill: none;
      }
    </style><style
       id="style10280">.cls-1{fill:none;}</style><style
       id="style11171">
      .cls-1 {
        fill: none;
      }
    </style><style
       id="style1997">.cls-1{fill:none;}</style><style
       id="style2928">
      .cls-1 {
        fill: none;
      }
    </style><style
       id="style2943">
      .cls-1 {
        fill: none;
      }
    </style><style
       id="style3863">.cls-1{fill:none;}</style><style
       id="style3880">.cls-1{fill:none;}</style><style
       id="style1078">
      .cls-1 {
        fill: none;
      }
    </style><style
       id="style3954">.cls-1{fill:none;}</style></defs><g
     id="g1103"
     transform="translate(-59.279901,71.966669)"
     style="display:inline"><g
       id="g1101"
       transform="matrix(0.13229167,0,0,0.13229167,59.279901,-71.966669)"
       style="stroke-width:2"><path
         d="M 30,8 H 25.9 C 25.4,5.7 23.4,4 21,4 18.6,4 16.6,5.7 16.1,8 H 2 v 2 h 14.1 c 0.5,2.3 2.5,4 4.9,4 2.4,0 4.4,-1.7 4.9,-4 H 30 Z m -9,4 c -1.7,0 -3,-1.3 -3,-3 0,-1.7 1.3,-3 3,-3 1.7,0 3,1.3 3,3 0,1.7 -1.3,3 -3,3 z"
         id="path1095"
         style="fill:#6e6e6e;fill-opacity:1;stroke-width:2" /><path
         d="m 2,24 h 4.1 c 0.5,2.3 2.5,4 4.9,4 2.4,0 4.4,-1.7 4.9,-4 H 30 V 22 H 15.9 C 15.4,19.7 13.4,18 11,18 8.6,18 6.6,19.7 6.1,22 H 2 Z m 9,-4 c 1.7,0 3,1.3 3,3 0,1.7 -1.3,3 -3,3 -1.7,0 -3,-1.3 -3,-3 0,-1.7 1.3,-3 3,-3 z"
         id="path1097"
         style="fill:#6e6e6e;fill-opacity:1;stroke-width:2" /><rect
         id="rect1099"
         class="st0"
         width="15.999999"
         height="15.999999"
         x="0"
         y="0"
         style="stroke-width:2" /></g></g><style
     type="text/css"
     id="style578">
	.st0{fill:none;}
</style><style
     type="text/css"
     id="style968">
	.st0{fill:none;}
</style><style
     type="text/css"
     id="style3690">
	.st0{fill:none;}
</style><style
     type="text/css"
     id="style5365">
	.st0{fill:none;}
</style><style
     type="text/css"
     id="style596">
	.st0{fill:none;}
</style><style
     type="text/css"
     id="style660">
	.st0{fill:none;}
</style><style
     type="text/css"
     id="style5861">
	.st0{fill:none;}
</style><style
     type="text/css"
     id="style25784">
	.st0{fill:none;}
</style></svg>
