<?xml version="1.0" encoding="UTF-8"?>
<svg id="icon" xmlns="http://www.w3.org/2000/svg" version="1.1" viewBox="0 0 16 16" width="16" height="16">
  <!-- Generator: Adobe Illustrator 29.6.0, SVG Export Plug-In . SVG Version: 2.1.1 Build 207)  -->
  <defs>
    <style>
      .st0 {
        fill: none;
      }

      .st1 {
        fill: #555;
      }
    </style>
  </defs>
  <path class="st1" d="M15,12v-1h-1.05c-.064-.313-.189-.611-.366-.877l.745-.745-.707-.707-.745.745c-.266-.177-.564-.302-.877-.366v-1.05h-1v1.05c-.313.064-.611.189-.877.366l-.745-.745-.707.707.745.745c-.177.266-.302.564-.366.877h-1.05v1h1.05c.064.313.189.611.366.877l-.745.745.707.707.745-.745c.266.177.564.302.877.366v1.05h1v-1.05c.313-.064.611-.189.877-.366l.745.745.707-.707-.745-.745c.177-.266.302-.564.366-.877h1.05ZM11.5,13c-.828,0-1.5-.672-1.5-1.5s.672-1.5,1.5-1.5,1.5.672,1.5,1.5c-.001.828-.672,1.499-1.5,1.5Z"/>
  <path class="st1" d="M11.749,4.542l-3.396-3.396c-.094-.094-.221-.146-.354-.146H3c-.55,0-1,.45-1,1v12c0,.55.45,1,1,1h4v-1h-4V2h4v3c0,.551.449,1,1,1h3.146c.347,0,.656-.207.788-.527.133-.32.06-.686-.185-.93ZM8,5v-2.793l2.792,2.793s-2.792,0-2.792,0Z"/>
  <rect id="_Transparent_Rectangle_" class="st0" y="0" width="16" height="16"/>
</svg>