<?xml version="1.0" encoding="UTF-8"?>
<svg id="icon" xmlns="http://www.w3.org/2000/svg" version="1.1" viewBox="0 0 32 32" width="15.999999" height="15.999999">
  <!-- Generator: Adobe Illustrator 29.6.0, SVG Export Plug-In . SVG Version: 2.1.1 Build 207)  -->
  <defs>
    <style>
      .st0 {
        fill: none;
      }

      .st1 {
        fill: #555;
      }
    </style>
  </defs>
  <circle class="st1" cx="10" cy="12" r="2"/>
  <circle class="st1" cx="16" cy="9" r="2"/>
  <circle class="st1" cx="22" cy="12" r="2"/>
  <circle class="st1" cx="23" cy="18" r="2"/>
  <circle class="st1" cx="19" cy="23" r="2"/>
  <path class="st1" d="M16.54,2C8.814,1.702,2.309,7.723,2.01,15.45c-.007.183-.011.367-.01.55,0,2.662,2.158,4.82,4.82,4.82.429,0,.856-.057,1.27-.17l1.12-.31c1.598-.436,3.248.506,3.684,2.104.071.259.106.527.106.796v3.76c0,1.657,1.343,3,3,3,7.732.006,14.005-6.258,14.01-13.99,0-.184-.003-.367-.01-.55-.301-7.306-6.154-13.159-13.46-13.46ZM24.65,24.31c-2.256,2.362-5.383,3.696-8.65,3.69-.552,0-1-.448-1-1v-3.76c0-2.761-2.239-5-5-5-.449,0-.897.061-1.33.18l-1.12.31c-1.504.403-3.051-.49-3.454-1.994-.064-.24-.097-.488-.096-.736-.005-6.627,5.363-12.004,11.991-12.009.16,0,.32.003.479.009,6.229.324,11.206,5.301,11.53,11.53.139,3.266-1.073,6.445-3.35,8.79v-.01Z"/>
  <rect id="_Transparent_Rectangle_" class="st0" y="0" width="15.999999" height="15.999999"/>
</svg>