<?xml version="1.0" encoding="UTF-8"?>
<svg id="icon" xmlns="http://www.w3.org/2000/svg" version="1.1" viewBox="0 0 32 32">
  <!-- Generator: Adobe Illustrator 29.6.0, SVG Export Plug-In . SVG Version: 2.1.1 Build 207)  -->
  <defs>
    <style>
      .st0 {
        fill: none;
      }

      .st1 {
        fill: #aaa;
      }
    </style>
  </defs>
  <path class="st1" d="M31.707,19.293l-3-3c-.391-.391-1.023-.391-1.414,0l-9.293,9.293v4.414h4.414l9.293-9.293c.391-.391.391-1.023,0-1.414ZM21.586,28h-1.586v-1.586l5-5,1.586,1.586-5,5ZM28,21.586l-1.586-1.586,1.586-1.586,1.586,1.586-1.586,1.586Z"/>
  <path class="st1" d="M16,22c-3.364,0-6-2.636-6-6s2.636-6,6-6,6,2.636,6,6-2.636,6-6,6ZM16,12c-2.28,0-4,1.72-4,4s1.72,4,4,4,4-1.72,4-4-1.72-4-4-4Z"/>
  <path class="st1" d="M27.547,12l1.732-1-2.335-4.044c-.365-.633-1.033-1-1.732-1-.213,0-.429.034-.641.106l-2.434.823c-.418-.281-.856-.535-1.312-.758l-.504-2.519c-.187-.935-1.008-1.608-1.961-1.608h-4.721c-.953,0-1.774.673-1.961,1.608l-.504,2.519c-.459.225-.906.469-1.327.753l-2.419-.818c-.211-.072-.427-.106-.641-.106-.699,0-1.367.368-1.732,1.001l-2.361,4.088c-.477.826-.304,1.873.412,2.502l1.931,1.697c-.017.252-.038.502-.038.757,0,.258.01.513.028.766l-1.921,1.688c-.716.629-.888,1.677-.412,2.502l2.361,4.088c.365.633,1.033,1,1.732,1,.213,0,.43-.034.641-.106l2.434-.823c.418.282.856.535,1.312.758l.504,2.519c.187.935,1.008,1.608,1.961,1.608h2.36v-2h-2.36l-.71-3.551c-.975-.356-1.903-.906-2.695-1.571l-3.447,1.166-2.36-4.088,2.725-2.395c-.184-1.043-.191-2.083-.007-3.128l-2.718-2.389,2.361-4.088,3.427,1.159c.803-.676,1.729-1.205,2.714-1.564l.71-3.551h4.721l.71,3.551c.975.356,1.902.906,2.695,1.571l3.447-1.166,2.335,4.044h0Z"/>
  <rect id="_Transparent_Rectangle_" class="st0" y="0" width="32" height="32"/>
</svg>