<?xml version="1.0" encoding="UTF-8"?>
<svg id="icon" xmlns="http://www.w3.org/2000/svg" version="1.1" viewBox="0 0 16 16" width="16" height="16">
  <!-- Generator: Adobe Illustrator 29.6.0, SVG Export Plug-In . SVG Version: 2.1.1 Build 207)  -->
  <defs>
    <style>
      .st0 {
        fill: none;
      }

      .st1 {
        fill: #555;
      }
    </style>
  </defs>
  <path class="st1" d="M15.853,9.646l-1.5-1.5c-.196-.195-.512-.195-.707,0l-4.647,4.646v2.207h2.207l4.647-4.647c.195-.196.195-.512,0-.707ZM10.793,14h-.793v-.793l2.5-2.5.793.793-2.5,2.5ZM14,10.793l-.793-.793.793-.793.793.793-.793.793Z"/>
  <path class="st1" d="M8,11c-1.682,0-3-1.318-3-3s1.318-3,3-3,3,1.318,3,3-1.318,3-3,3ZM8,6c-1.14,0-2,.86-2,2s.86,2,2,2,2-.86,2-2-.86-2-2-2Z"/>
  <path class="st1" d="M13.773,6l.866-.5-1.168-2.022c-.182-.316-.517-.5-.866-.5-.106,0-.215.017-.321.053l-1.217.411c-.209-.141-.428-.267-.656-.379l-.252-1.259c-.094-.467-.504-.804-.981-.804h-2.361c-.477,0-.887.337-.981.804l-.252,1.259c-.229.112-.453.234-.663.377l-1.209-.409c-.105-.036-.214-.053-.32-.053-.349,0-.684.184-.866.5l-1.18,2.044c-.238.413-.152.937.206,1.251l.965.848c-.009.126-.019.251-.019.378,0,.129.005.257.014.383l-.96.844c-.358.314-.444.838-.206,1.251l1.18,2.044c.182.316.516.5.866.5.106,0,.215-.017.32-.053l1.217-.411c.209.141.428.267.656.379l.252,1.259c.094.467.504.804.981.804h1.18v-1h-1.18l-.355-1.776c-.488-.178-.951-.453-1.347-.785l-1.723.583-1.18-2.044,1.362-1.198c-.092-.521-.095-1.042-.003-1.564l-1.359-1.194,1.18-2.044,1.713.579c.401-.338.864-.602,1.357-.782l.355-1.775h2.361l.355,1.775c.488.178.951.453,1.347.786l1.724-.583,1.167,2.022h0Z"/>
  <rect id="_Transparent_Rectangle_" class="st0" y="0" width="16" height="16"/>
</svg>