<?xml version="1.0" encoding="UTF-8"?>
<svg id="icon" xmlns="http://www.w3.org/2000/svg" version="1.1" viewBox="0 0 32 32">
  <!-- Generator: Adobe Illustrator 29.6.0, SVG Export Plug-In . SVG Version: 2.1.1 Build 207)  -->
  <defs>
    <style>
      .st0 {
        fill: none;
      }

      .st1 {
        fill: #555;
      }
    </style>
  </defs>
  <rect id="_Transparent_Rectangle_" class="st0" y="0" width="15.999999" height="15.999999"/>
  <path class="st1" d="M10,19c1.654,0,3,1.346,3,3s-1.346,3-3,3-3-1.346-3-3,1.346-3,3-3M10,17c-2.761,0-5,2.239-5,5s2.239,5,5,5,5-2.239,5-5-2.239-5-5-5h0Z"/>
  <path class="st1" d="M17.304,5c-4.775,0-8.735,3.455-9.538,8h2.037c.775-3.429,3.841-6,7.501-6,4.243,0,7.696,3.452,7.696,7.696,0,3.66-2.571,6.726-6,7.501v2.037c4.545-.803,8-4.763,8-9.538,0-5.355-4.341-9.696-9.696-9.696Z"/>
</svg>