<svg xmlns="http://www.w3.org/2000/svg" width="18" height="18" viewBox="0 0 512 512"><path fill="goldenrod" d="M256 0C114.6 0 0 114.6 0 256s114.6 256 256 256s256-114.6 256-256S397.4 0 256 0zM362.1 365.8c-3.266 1.506-6.687 2.229-10.05 2.229c-9.078 0-17.75-5.18-21.81-14l-12.03-26.18H193.8l-12.03 26.18c-5.576 12.09-19.76 17.36-31.86 11.77c-12.03-5.559-17.28-19.91-11.73-31.99l95.99-208.1c7.842-17.08 35.75-17.08 43.59 0l95.99 208.1C379.3 345.9 374.1 360.2 362.1 365.8zM215.1 279.6h80.05L256 192.5L215.1 279.6z"/></svg>