<svg xmlns="http://www.w3.org/2000/svg" width="18" height="18" viewBox="0 0 512 512"><path fill="chocolate" d="M256 0C114.6 0 0 114.6 0 256s114.6 256 256 256s256-114.6 256-256S397.4 0 256 0zM255.1 336c21.09 0 40.92-8.281 55.86-23.38c9.328-9.375 24.55-9.5 33.94-.125c9.422 9.312 9.484 24.5 .1562 33.94C321 370.7 289.1 384 255.1 384c0 0 .0156 0 0 0c-78.95 0-127-66.33-127-128c-.0078-61.11 47.87-128 127-128c.0156 0 0 0 0 0c33.98 0 65.95 13.34 89.96 37.56C354.4 175 354.3 190.2 344.9 199.5c-9.391 9.375-24.61 9.242-33.94-.1328C296 184.3 276.2 176 255.1 176C205.7 176 176 217.9 176 256C176 293.9 205.6 336 255.1 336z"/></svg>