<?xml version="1.0" encoding="UTF-8"?>
<svg id="icon" xmlns="http://www.w3.org/2000/svg" version="1.1" viewBox="0 0 32 32">
  <!-- Generator: Adobe Illustrator 29.6.0, SVG Export Plug-In . SVG Version: 2.1.1 Build 207)  -->
  <defs>
    <style>
      .st0 {
        fill: none;
      }

      .st1 {
        fill: #aaa;
      }
    </style>
  </defs>
  <rect id="_Transparent_Rectangle_" class="st0" y="0" width="15.999999" height="15.999999"/>
  <path class="st1" d="M17.414,16l6.567-6.567c.61.367,1.307.563,2.019.567,2.209,0,4-1.791,4-4s-1.791-4-4-4-4,1.791-4,4c.004.712.2,1.409.567,2.019l-6.567,6.567-7.981,7.981c-.61-.367-1.307-.563-2.019-.567-2.209,0-4,1.791-4,4s1.791,4,4,4,4-1.791,4-4c-.004-.712-.2-1.409-.567-2.019l7.981-7.981ZM26,4c1.105,0,2,.895,2,2s-.895,2-2,2-2-.895-2-2c.001-1.104.896-1.999,2-2ZM6,28c-1.105,0-2-.895-2-2s.895-2,2-2,2,.895,2,2c-.001,1.104-.896,1.999-2,2Z"/>
</svg>