<?xml version="1.0" encoding="UTF-8"?>
<svg id="icon" xmlns="http://www.w3.org/2000/svg" version="1.1" viewBox="0 0 32 32">
  <!-- Generator: Adobe Illustrator 29.6.0, SVG Export Plug-In . SVG Version: 2.1.1 Build 207)  -->
  <defs>
    <style>
      .st0 {
        fill: none;
      }

      .st1 {
        fill: #aaa;
      }
    </style>
  </defs>
  <path class="st1" d="M18,28h-4c-1.105,0-2-.895-2-2v-7.59l-7.41-7.41c-.376-.373-.588-.88-.59-1.41v-3.59c0-1.105.895-2,2-2h20c1.105,0,2,.895,2,2v3.59c-.002.53-.214,1.037-.59,1.41l-7.41,7.41v7.59c0,1.105-.895,2-2,2ZM6,6v3.59l8,8v8.41h4v-8.41l8-8v-3.59H6Z"/>
  <rect id="_Transparent_Rectangle_" class="st0" y="0" width="32" height="32"/>
</svg>