<?xml version="1.0" encoding="UTF-8" standalone="no"?>
<!-- Created with Inkscape (http://www.inkscape.org/) -->

<svg
   width="15.999999"
   height="15.999999"
   viewBox="0 0 4.233333 4.233333"
   version="1.1"
   id="svg19713"
   inkscape:version="1.2 (dc2aedaf03, 2022-05-15)"
   sodipodi:docname="new-icons.svg"
   xml:space="preserve"
   xmlns:inkscape="http://www.inkscape.org/namespaces/inkscape"
   xmlns:sodipodi="http://sodipodi.sourceforge.net/DTD/sodipodi-0.dtd"
   xmlns="http://www.w3.org/2000/svg"
   xmlns:svg="http://www.w3.org/2000/svg"><sodipodi:namedview
     id="namedview19715"
     pagecolor="#ffffff"
     bordercolor="#000000"
     borderopacity="0.25"
     inkscape:showpageshadow="false"
     inkscape:pageopacity="0.0"
     inkscape:pagecheckerboard="0"
     inkscape:deskcolor="#d1d1d1"
     inkscape:document-units="px"
     showgrid="true"
     inkscape:zoom="3.920673"
     inkscape:cx="114.39363"
     inkscape:cy="-5.4837524"
     inkscape:window-width="958"
     inkscape:window-height="1008"
     inkscape:window-x="953"
     inkscape:window-y="0"
     inkscape:window-maximized="0"
     inkscape:current-layer="layer7"><inkscape:grid
       type="xygrid"
       id="grid19834"
       empspacing="16"
       color="#737373"
       opacity="0.14901961"
       originx="0"
       originy="0" /></sodipodi:namedview><defs
     id="defs19710"><style
       id="style36518">.cls-1{fill:none;}</style><style
       id="style36538">.cls-1{fill:none;}</style></defs><g
     inkscape:groupmode="layer"
     id="layer5"
     inkscape:label="brush"
     transform="translate(-12.7)"><g
       id="g37122"><path
         d="m 13.229167,3.4395833 h 3.174999 v 0.5291666 h -3.174999 z"
         fill="#afb1b3"
         id="path36423"
         style="stroke-width:0.132292" /><path
         d="m 16.13961,1.9235209 c 9.26e-4,-0.03352 -0.0109,-0.066146 -0.03307,-0.091281 L 14.971464,0.57282303 c -0.0069,-0.006456 -0.01445,-0.0122158 -0.02249,-0.0171979 V 0.26458347 H 14.684391 V 0.66145845 L 13.271516,1.9499792 c -0.02572,0.023723 -0.041,0.056668 -0.04249,0.091628 -0.0015,0.034957 0.01093,0.069083 0.03455,0.094903 l 1.13374,1.2594166 c 0.02344,0.026061 0.05627,0.041778 0.09128,0.043656 h 0.0066 c 0.03324,2.381e-4 0.06536,-0.012038 0.08996,-0.034396 L 15.875026,2.2225 v 0.555625 c 0,0.035084 0.01392,0.068739 0.03873,0.093557 0.02482,0.024791 0.05845,0.038735 0.09356,0.038735 0.03508,0 0.06871,-0.013944 0.09353,-0.038735 0.02482,-0.024818 0.03876,-0.058473 0.03876,-0.093557 z M 14.505797,3.1141458 13.549328,2.0558125 14.684391,1.0146772 v 0.5728229 h 0.264583 V 0.94323968 l 0.871813,0.96969782 z"
         fill="#afb1b3"
         id="path36425"
         style="stroke-width:0.132292" /><rect
         style="fill:none;fill-opacity:1;stroke-width:0.264583;paint-order:stroke fill markers"
         id="rect37076"
         width="4.2333331"
         height="4.2333331"
         x="12.7"
         y="0" /></g></g></svg>
