<?xml version="1.0" encoding="UTF-8"?>
<svg id="icon" xmlns="http://www.w3.org/2000/svg" version="1.1" viewBox="0 0 32 32">
  <!-- Generator: Adobe Illustrator 29.6.0, SVG Export Plug-In . SVG Version: 2.1.1 Build 207)  -->
  <defs>
    <style>
      .st0 {
        fill: none;
      }

      .st1 {
        fill: #aaa;
      }
    </style>
  </defs>
  <path class="st1" d="M25.342,10.06L3.342,2.06c-.519-.189-1.093.079-1.282.598-.08.221-.08.463,0,.684l8,22c.142.39.509.652.924.659h.016c.409,0,.777-.249.929-.629l3.841-9.602,9.602-3.841c.513-.205.763-.786.558-1.299-.106-.265-.319-.472-.587-.569h0ZM14.628,14.071h0l-.398.159-.159.398h0l-3.027,7.568L4.672,4.672l17.524,6.373-7.568,3.027Z"/>
  <rect id="_Transparent_Rectangle_" class="st0" y="0" width="32" height="32"/>
  <path class="st1" d="M31.707,19.293l-3-3c-.391-.391-1.023-.391-1.414,0l-9.293,9.293v4.414h4.414l9.293-9.293c.391-.391.391-1.023,0-1.414ZM21.586,28h-1.586v-1.586l5-5,1.586,1.586-5,5ZM28,21.586l-1.586-1.586,1.586-1.586,1.586,1.586-1.586,1.586Z"/>
</svg>