<?xml version="1.0" encoding="UTF-8" standalone="no"?>
<!-- Created with Inkscape (http://www.inkscape.org/) -->

<svg
   width="15.999999"
   height="15.999999"
   viewBox="0 0 4.233333 4.233333"
   version="1.1"
   id="svg19713"
   inkscape:version="1.2 (dc2aedaf03, 2022-05-15)"
   sodipodi:docname="new-icons.svg"
   xml:space="preserve"
   xmlns:inkscape="http://www.inkscape.org/namespaces/inkscape"
   xmlns:sodipodi="http://sodipodi.sourceforge.net/DTD/sodipodi-0.dtd"
   xmlns="http://www.w3.org/2000/svg"
   xmlns:svg="http://www.w3.org/2000/svg"><sodipodi:namedview
     id="namedview19715"
     pagecolor="#ffffff"
     bordercolor="#000000"
     borderopacity="0.25"
     inkscape:showpageshadow="false"
     inkscape:pageopacity="0.0"
     inkscape:pagecheckerboard="0"
     inkscape:deskcolor="#d1d1d1"
     inkscape:document-units="px"
     showgrid="true"
     inkscape:zoom="3.920673"
     inkscape:cx="114.39363"
     inkscape:cy="-5.4837524"
     inkscape:window-width="958"
     inkscape:window-height="1008"
     inkscape:window-x="953"
     inkscape:window-y="0"
     inkscape:window-maximized="0"
     inkscape:current-layer="layer7"><inkscape:grid
       type="xygrid"
       id="grid19834"
       empspacing="16"
       color="#737373"
       opacity="0.14901961"
       originx="0"
       originy="0" /></sodipodi:namedview><defs
     id="defs19710"><style
       id="style36518">.cls-1{fill:none;}</style><style
       id="style36538">.cls-1{fill:none;}</style></defs><g
     inkscape:groupmode="layer"
     id="layer4"
     inkscape:label="heatmap"
     transform="translate(-16.933332)"><g
       id="g37187"><path
         d="m 19.711458,2.9104163 c 0.14613,0 0.264583,-0.1184539 0.264583,-0.2645833 0,-0.146124 -0.118453,-0.2645832 -0.264583,-0.2645832 -0.146124,0 -0.264583,0.1184592 -0.264583,0.2645832 0,0.1461294 0.118459,0.2645833 0.264583,0.2645833 z"
         fill="#afb1b3"
         id="path36403"
         style="stroke-width:0.132292" /><path
         d="M 18.785417,1.8520832 C 18.931541,1.8520832 19.05,1.733624 19.05,1.5875 c 0,-0.1461241 -0.118459,-0.2645833 -0.264583,-0.2645833 -0.146124,0 -0.264583,0.1184592 -0.264583,0.2645833 0,0.146124 0.118459,0.2645832 0.264583,0.2645832 z"
         fill="#afb1b3"
         id="path36405"
         style="stroke-width:0.132292" /><path
         d="m 20.769791,2.645833 c 0.07305,0 0.132292,-0.05923 0.132292,-0.1322916 0,-0.073062 -0.05924,-0.1322916 -0.132292,-0.1322916 -0.07305,0 -0.132291,0.05923 -0.132291,0.1322916 0,0.073062 0.05924,0.1322916 0.132291,0.1322916 z"
         fill="#afb1b3"
         id="path36407"
         style="stroke-width:0.132292" /><path
         d="m 20.439062,3.9687493 c -0.09157,0 -0.181107,-0.027146 -0.257228,-0.078026 -0.07615,-0.050879 -0.135493,-0.1231899 -0.17055,-0.2078037 -0.03503,-0.084614 -0.04421,-0.1776941 -0.02635,-0.2675201 0.01789,-0.089826 0.06197,-0.1723231 0.126736,-0.2370666 0.06474,-0.06477 0.14724,-0.1088496 0.237066,-0.1267354 0.08983,-0.017859 0.182907,-0.00868 0.267521,0.026353 0.08461,0.035057 0.156924,0.094403 0.207803,0.1705504 0.05088,0.076121 0.07803,0.1656556 0.07803,0.2572278 -1.32e-4,0.1227667 -0.04897,0.2404533 -0.135758,0.3272631 -0.08681,0.086783 -0.204496,0.1356253 -0.327263,0.1357576 z m 0,-0.6614581 c -0.03924,0 -0.0776,0.011642 -0.110252,0.033443 -0.03262,0.021802 -0.05805,0.052811 -0.07308,0.089059 -0.01503,0.036248 -0.01894,0.076147 -0.0113,0.114644 0.0077,0.038497 0.02656,0.073872 0.05432,0.1015999 0.02775,0.027755 0.0631,0.046673 0.1016,0.054319 0.0385,0.00765 0.0784,0.00373 0.114644,-0.011298 0.03627,-0.015002 0.06726,-0.040455 0.08906,-0.073078 0.0218,-0.032623 0.03344,-0.071014 0.03344,-0.1102519 -8e-5,-0.052599 -0.02101,-0.1030287 -0.05821,-0.1402291 -0.0372,-0.0372 -0.08763,-0.058129 -0.140229,-0.058208 z m -1.653645,0.6614581 c -0.09966,-5.29e-5 -0.197228,-0.028548 -0.281252,-0.082153 -0.17984,0.080963 -0.380839,0.1023937 -0.573704,0.061145 C 17.737596,3.9064929 17.562944,3.8047342 17.431957,3.6572819 17.300972,3.5098297 17.220502,3.3244097 17.20227,3.1280096 17.18404,2.9316359 17.229,2.7345743 17.330606,2.5655214 c 0.101602,-0.1690449 0.254537,-0.3012201 0.436512,-0.3772692 0.181978,-0.076047 0.383484,-0.09199 0.575156,-0.045506 0.191672,0.046482 0.36349,0.1529635 0.490413,0.3039241 0.126924,0.1509606 0.202317,0.3385184 0.215196,0.5353155 0.101211,0.057759 0.180473,0.1473993 0.225433,0.2548995 0.04496,0.1075266 0.0531,0.2268801 0.02314,0.3395132 -0.02995,0.1126066 -0.09632,0.2121693 -0.188757,0.2831306 -0.09243,0.070961 -0.205747,0.1093787 -0.322283,0.1092199 z m -0.249238,-0.400579 0.07131,0.065484 c 0.02875,0.026697 0.0631,0.046646 0.100536,0.058394 0.03744,0.011748 0.07703,0.014975 0.115879,0.00945 0.03885,-0.0055 0.07597,-0.019632 0.108667,-0.041328 0.03269,-0.021696 0.06013,-0.05043 0.0803,-0.084085 0.02017,-0.033655 0.03258,-0.071385 0.03631,-0.110437 0.0037,-0.039079 -0.0013,-0.078475 -0.01475,-0.1153319 -0.01344,-0.036856 -0.03495,-0.070273 -0.06294,-0.097764 -0.028,-0.02749 -0.06178,-0.048366 -0.09888,-0.061145 l -0.09141,-0.032147 0.004,-0.112051 C 18.786396,2.9012088 18.739379,2.7588895 18.651411,2.6423802 18.563442,2.5258604 18.43945,2.4416621 18.2987,2.4028689 c -0.14075,-0.038796 -0.290372,-0.030009 -0.425614,0.02499 -0.135244,0.054996 -0.248531,0.1531275 -0.32226,0.2791459 -0.07373,0.126021 -0.103767,0.2728382 -0.08545,0.4176976 0.01832,0.1448328 0.08397,0.2795851 0.186751,0.3832753 0.10278,0.1036902 0.236934,0.1705239 0.381611,0.1901031 0.144677,0.019606 0.291775,-0.00913 0.418433,-0.081756 z M 20.108333,2.1166692 C 19.897884,2.1164231 19.696139,2.0327195 19.547337,1.8839153 19.398536,1.735111 19.314829,1.533361 19.314583,1.3229194 c 1.1e-5,-0.023548 0.0012,-0.047083 0.0036,-0.070512 -0.08157,-0.045556 -0.149452,-0.1121145 -0.196606,-0.19277 -0.04715,-0.080653 -0.07186,-0.17245805 -0.07155,-0.26588505 1.75e-4,-0.14028998 0.05598,-0.27478294 0.155183,-0.37398314 0.0992,-0.0992002 0.233694,-0.15500875 0.373984,-0.15518338 0.09342,-3.1062e-4 0.185234,0.0243946 0.265879,0.0715486 0.08067,0.047154 0.147214,0.11503815 0.192776,0.19660653 0.02394,-0.002249 0.04736,-0.003572 0.07051,-0.003572 0.210529,0 0.412406,0.0836268 0.561261,0.23248402 0.148854,0.14885719 0.232489,0.35075012 0.232489,0.56126582 0,0.2105156 -0.08364,0.4124085 -0.232489,0.5612657 -0.148855,0.1488572 -0.350732,0.2324841 -0.561261,0.2324841 z M 19.579167,0.52916959 c -0.07015,7.144e-5 -0.137406,0.0279691 -0.18701,0.0775732 -0.0496,0.0496041 -0.0775,0.11686113 -0.07757,0.18701009 3e-6,0.0567769 0.01845,0.11201662 0.05257,0.15739794 0.03412,0.045384 0.08206,0.0784489 0.136604,0.0942207 l 0.119327,0.035719 -0.02844,0.1213114 c -0.02485,0.1068387 -0.01584,0.2187627 0.0258,0.3202463 0.04162,0.1014862 0.113797,0.1874996 0.206533,0.2461074 0.09271,0.058608 0.201375,0.086905 0.310912,0.080968 0.109511,-0.00594 0.214498,-0.045818 0.300329,-0.1141069 0.08583,-0.068289 0.148298,-0.1615995 0.178726,-0.2669909 0.0304,-0.1053888 0.02725,-0.217633 -0.009,-0.3211565 C 20.571698,1.0439432 20.504099,0.95427067 20.41459,0.8908871 20.32506,0.8275062 20.218031,0.7935575 20.108335,0.7937533 c -0.04067,4.6832e-4 -0.08115,0.005617 -0.12065,0.0153458 L 19.866506,0.8374095 19.830786,0.71834703 C 19.815016,0.66380323 19.781946,0.61586335 19.736566,0.5817427 19.691186,0.547622 19.635945,0.5291726 19.579166,0.52917 Z M 17.79323,1.455211 c -0.117743,0 -0.232839,-0.034914 -0.330737,-0.1003273 -0.0979,-0.065416 -0.174202,-0.1583901 -0.219261,-0.2671683 -0.04506,-0.10878072 -0.05685,-0.22847554 -0.03388,-0.34395555 0.02297,-0.11548001 0.07967,-0.22155409 0.162925,-0.3048105 0.08326,-0.0832564 0.189331,-0.13995396 0.304811,-0.16292508 0.11548,-0.0229693 0.235175,-0.0111813 0.343955,0.0338772 0.108778,0.0450585 0.201753,0.12136169 0.267169,0.21926015 0.06541,0.0978984 0.100327,0.21299481 0.100327,0.33073701 C 18.388367,1.0177305 18.32559,1.169051 18.213986,1.2806548 18.102382,1.3922587 17.951061,1.4550364 17.79323,1.455211 Z m 0,-0.92604141 c -0.06541,0 -0.129355,0.0193966 -0.183743,0.0557371 -0.05439,0.0363432 -0.09678,0.0879951 -0.121811,0.14842857 -0.02503,0.0604308 -0.03158,0.12693117 -0.01882,0.19108467 0.01276,0.0641561 0.04426,0.12308677 0.09051,0.16933857 0.04625,0.046254 0.105182,0.077753 0.169338,0.090514 0.06415,0.012761 0.130654,0.00621 0.191088,-0.01882 0.06043,-0.025032 0.112085,-0.067421 0.148426,-0.1218114 0.03634,-0.0543878 0.05574,-0.11832962 0.05574,-0.18374254 -1.06e-4,-0.0876829 -0.03498,-0.17174364 -0.09698,-0.23374344 -0.062,-0.0620024 -0.146064,-0.0968798 -0.233746,-0.0969856 z"
         fill="#afb1b3"
         id="path36409"
         style="stroke-width:0.132292" /><rect
         style="fill:none;fill-opacity:1;stroke-width:0.264583;paint-order:stroke fill markers"
         id="rect37180"
         width="4.2333331"
         height="4.2333331"
         x="16.933332"
         y="0" /></g></g></svg>
