<?xml version="1.0" encoding="UTF-8"?>
<svg id="svg19713" xmlns="http://www.w3.org/2000/svg" xmlns:svg="http://www.w3.org/2000/svg" version="1.1" viewBox="0 0 16 16">
  <!-- Generator: Adobe Illustrator 29.6.0, SVG Export Plug-In . SVG Version: 2.1.1 Build 207)  -->
  <defs>
    <style>
      .st0 {
        fill: none;
      }

      .st1 {
        fill: #555;
      }
    </style>
  </defs>
  <g id="g2979">
    <g id="g2977">
      <path id="path2973" class="st1" d="M3.223,1c-.138.002-.276.016-.412.043-.436.087-.838.301-1.152.615-.315.315-.528.716-.615,1.152-.087.436-.041.89.129,1.301.17.411.458.763.828,1.01.37.247.805.379,1.25.379.597,0,1.168-.238,1.59-.66.422-.422.66-.993.66-1.59,0-.445-.132-.88-.379-1.25-.247-.37-.599-.658-1.01-.828-.283-.117-.586-.175-.889-.172ZM10,1c-.53,0-1.039.211-1.414.586s-.585.884-.586,1.414c-.001.353.093.701.271,1.006.178.305.434.556.742.729-.009.089-.014.177-.014.266,0,.795.316,1.559.879,2.121.562.562,1.326.878,2.121.879.796,0,1.558-.316,2.121-.879.563-.563.879-1.325.879-2.121s-.316-1.558-.879-2.121c-.563-.563-1.325-.879-2.121-.879-.087,0-.175.005-.266.014-.172-.308-.424-.566-.729-.744-.305-.178-.653-.271-1.006-.27h0ZM3.25,2c.331,0,.648.133.883.367.234.234.367.551.367.883,0,.247-.074.49-.211.695-.137.206-.332.364-.561.459-.228.095-.48.12-.723.072s-.466-.167-.641-.342c-.175-.175-.294-.398-.342-.641-.048-.242-.022-.494.072-.723.095-.228.253-.423.459-.561.206-.137.448-.211.695-.211h0ZM10,2c.215,0,.424.07.596.199.172.129.296.309.355.516l.135.449.459-.105c.149-.037.301-.057.455-.059.415,0,.82.128,1.158.367.338.24.593.577.73.969.137.391.148.817.033,1.215-.115.398-.351.752-.676,1.01-.324.258-.721.407-1.135.43-.414.022-.823-.083-1.174-.305-.351-.222-.624-.546-.781-.93-.157-.384-.192-.807-.098-1.211l.107-.459-.451-.135c-.206-.06-.387-.184-.516-.355-.129-.172-.199-.381-.199-.596,0-.265.106-.52.293-.707.187-.187.442-.293.707-.293h0ZM6.975,5c-.54.014-.975.456-.975,1,0,.552.448,1,1,1s1-.448,1-1-.448-1-1-1c-.009,0-.017,0-.025,0h0ZM4.5,8c-.46,0-.92.092-1.35.271-.688.287-1.264.787-1.648,1.426-.384.639-.555,1.383-.486,2.125.069.742.374,1.443.869,2,.495.557,1.156.942,1.885,1.098.729.156,1.488.076,2.168-.23.318.203.686.31,1.063.311.44,0,.869-.144,1.219-.412.349-.268.6-.645.713-1.07.113-.426.082-.877-.088-1.283-.17-.406-.469-.747-.852-.965-.049-.744-.335-1.451-.814-2.021-.48-.571-1.129-.975-1.854-1.15-.272-.066-.548-.098-.824-.098ZM4.451,8.992c.238-.004.476.026.709.09.532.147,1.002.464,1.334.904.332.44.51.979.506,1.531l-.015.424.346.121c.14.048.267.127.373.23.106.104.187.23.238.369.051.139.069.288.055.436-.014.148-.06.291-.137.418-.076.127-.179.236-.303.318-.124.082-.265.135-.412.156-.147.021-.296.009-.437-.035-.142-.044-.27-.12-.379-.221l-.27-.248-.318.182c-.479.274-1.035.383-1.582.309-.547-.074-1.053-.327-1.442-.719-.388-.392-.636-.9-.705-1.447-.069-.547.044-1.104.322-1.58.279-.476.708-.847,1.219-1.055.288-.117.592-.178.898-.184h0ZM10.475,9c-.54.014-.975.456-.975,1,0,.552.448,1,1,1s1-.448,1-1-.448-1-1-1c-.009,0-.017,0-.025,0h0ZM14.475,9c-.264.013-.475.232-.475.5,0,.276.224.5.5.5s.5-.224.5-.5-.224-.5-.5-.5c-.009,0-.017,0-.025,0h0ZM13.293,11.5c-.128-.003-.257.008-.385.033-.34.068-.652.234-.896.479-.245.245-.411.557-.479.896-.068.34-.033.692.1,1.012.133.32.357.593.645.785.288.192.627.295.973.295.464,0,.908-.186,1.236-.514.328-.328.513-.772.514-1.236,0-.346-.103-.685-.295-.973-.192-.288-.465-.512-.785-.645-.2-.083-.413-.127-.627-.133h0ZM13.25,12.5c.199,0,.389.08.529.221.141.141.22.33.221.529,0,.148-.045.293-.127.416-.082.123-.199.221-.336.277-.137.057-.288.072-.434.043-.146-.029-.28-.1-.385-.205-.105-.105-.176-.239-.205-.385-.029-.146-.014-.297.043-.434.057-.137.154-.254.277-.336.123-.082.268-.127.416-.127h0Z"/>
      <rect id="rect2975" class="st0" x="0" y="0" width="16" height="16"/>
    </g>
  </g>
</svg>