<?xml version="1.0" encoding="UTF-8" standalone="no"?>
<!-- Created with Inkscape (http://www.inkscape.org/) -->

<svg
   width="15.999999"
   height="15.999999"
   viewBox="0 0 4.233333 4.233333"
   version="1.1"
   id="svg19713"
   xml:space="preserve"
   xmlns="http://www.w3.org/2000/svg"
   xmlns:svg="http://www.w3.org/2000/svg"><defs
     id="defs19710"><style
       id="style36518">.cls-1{fill:none;}</style><style
       id="style36538">.cls-1{fill:none;}</style><style
       id="style48643">
      .cls-1 {
        fill: none;
      }
    </style><style
       id="style49369">.cls-1{fill:none;}</style><style
       id="style68473">.cls-1{fill:none;}</style><style
       id="style34301">.cls-1{fill:none;}</style><style
       id="style40867">.cls-1{fill:none;}</style><style
       id="style3486">.cls-1{fill:none;}</style><style
       id="style16714">.cls-1{fill:none;}</style><style
       id="style16734">.cls-1{fill:none;}</style><style
       id="style598">.cls-1{fill:none;}</style><style
       id="style938">
      .cls-1 {
        fill: none;
      }
    </style><style
       id="style953">
      .cls-1 {
        fill: none;
      }
    </style><style
       id="style988">
      .cls-1 {
        fill: none;
      }
    </style><style
       id="style6804">.cls-1{fill:none;}</style><style
       id="style8295">.cls-1{fill:none;}</style><style
       id="style9297">.cls-1{fill:none;}</style><style
       id="style10710">
      .cls-1 {
        fill: none;
      }
    </style><style
       id="style616">.cls-1{fill:#000000;}.cls-2{fill:none;}</style><style
       id="style640">.cls-1{fill:none;}</style><style
       id="style732">.cls-1{fill:#000000;}.cls-2{fill:none;}</style><style
       id="style1166">
      .cls-1 {
        fill: none;
      }
    </style><style
       id="style1186">
      .cls-1 {
        fill: none;
      }
    </style><style
       id="style1201">
      .cls-1 {
        fill: none;
      }
    </style><style
       id="style2604">.cls-1{fill:none;}</style><style
       id="style3041">.cls-1{fill:none;}</style><style
       id="style34659">
      .cls-1 {
        fill: none;
      }
    </style><style
       id="style931">.cls-1{fill:#000000;}.cls-2{fill:none;}</style><style
       id="style1772">
      .cls-1 {
        fill: none;
      }
    </style><style
       id="style4214">.cls-1{fill:none;}</style><style
       id="style5886">.cls-1{fill:none;}</style><style
       id="style5923">
      .cls-1 {
        fill: none;
      }
    </style><style
       id="style5938">
      .cls-1 {
        fill: none;
      }
    </style><style
       id="style8494">
      .cls-1 {
        fill: none;
      }
    </style><style
       id="style8509">
      .cls-1 {
        fill: none;
      }
    </style><style
       id="style10257">
      .cls-1 {
        fill: none;
      }
    </style><style
       id="style10280">.cls-1{fill:none;}</style><style
       id="style11171">
      .cls-1 {
        fill: none;
      }
    </style><style
       id="style1997">.cls-1{fill:none;}</style><style
       id="style2928">
      .cls-1 {
        fill: none;
      }
    </style><style
       id="style2943">
      .cls-1 {
        fill: none;
      }
    </style><style
       id="style3863">.cls-1{fill:none;}</style><style
       id="style3880">.cls-1{fill:none;}</style><style
       id="style1078">
      .cls-1 {
        fill: none;
      }
    </style><style
       id="style3954">.cls-1{fill:none;}</style></defs><g
     id="layer4"
     style="display:inline"
     transform="translate(-55.033333)"><g
       id="g3937"><path
         id="path36403"
         style="fill:#6e6e6e;fill-opacity:1;stroke-width:0.132292"
         d="m 55.885832,0.26448712 c -0.03645,4.3475e-4 -0.07295,0.004191 -0.109037,0.0113688 -0.11548,0.0229711 -0.221631,0.0795244 -0.304891,0.16278076 -0.08326,0.0832563 -0.139811,0.18941105 -0.162781,0.30489094 -0.02297,0.1154799 -0.01095,0.23538443 0.03411,0.34416508 0.04506,0.1087781 0.121208,0.2017512 0.219108,0.2671671 0.0979,0.065413 0.212986,0.1002523 0.330729,0.1002523 0.157831,-1.746e-4 0.309042,-0.063063 0.420646,-0.1746663 0.111604,-0.1116037 0.174495,-0.2628145 0.174667,-0.4206462 0,-0.11774209 -0.03484,-0.23283087 -0.100253,-0.33072917 -0.06542,-0.0978983 -0.158392,-0.17404959 -0.26717,-0.21910805 -0.07479,-0.0309777 -0.15494,-0.0464317 -0.235128,-0.0454753 z m 1.793173,0 c -0.14029,1.7463e-4 -0.274938,0.0558292 -0.374138,0.1550293 -0.0992,0.0992001 -0.154854,0.23384752 -0.155029,0.37413736 -3.1e-4,0.0934269 0.02468,0.18548071 0.07183,0.26613362 0.04715,0.080655 0.114801,0.1471972 0.196371,0.1927531 -0.0024,0.023429 -0.0036,0.046732 -0.0036,0.07028 2.46e-4,0.2104413 0.08374,0.4124019 0.232544,0.561206 0.148802,0.1488041 0.350757,0.2322979 0.561206,0.232544 0.210529,0 0.412351,-0.083687 0.561206,-0.232544 0.148849,-0.148857 0.232544,-0.3506907 0.232544,-0.561206 0,-0.2105155 -0.08369,-0.41234906 -0.232544,-0.5612061 -0.148855,-0.14885708 -0.350677,-0.23254395 -0.561206,-0.23254395 -0.02315,0 -0.04634,0.001368 -0.07028,0.003617 -0.04556,-0.0815683 -0.112083,-0.14973325 -0.192753,-0.1968872 -0.08065,-0.047154 -0.172714,-0.0716241 -0.266133,-0.0713135 z m -1.785938,0.26458333 c 0.08768,1.058e-4 0.171578,0.0351494 0.233577,0.0971517 0.062,0.0619997 0.09705,0.14589466 0.09715,0.23357748 0,0.0654128 -0.01947,0.12958035 -0.05581,0.18396807 -0.03634,0.05439 -0.08788,0.096408 -0.148312,0.1214396 -0.06043,0.02503 -0.127053,0.031881 -0.191203,0.01912 -0.06415,-0.012761 -0.123248,-0.04418 -0.169498,-0.090434 -0.04625,-0.046252 -0.07767,-0.1053427 -0.09043,-0.16949873 -0.01276,-0.0641534 -0.0059,-0.13077206 0.01912,-0.1912028 0.02503,-0.0604334 0.06705,-0.1119682 0.12144,-0.14831136 0.05439,-0.0363405 0.118558,-0.0558106 0.183968,-0.0558106 z m 1.785938,0 c 0.05678,2.6e-6 0.112233,0.0185893 0.157613,0.05271 0.04538,0.0341206 0.07828,0.081882 0.09405,0.13642578 l 0.03566,0.1188558 0.12144,-0.0279053 c 0.0395,-0.009729 0.07974,-0.0150346 0.120406,-0.0155029 0.109696,-1.958e-4 0.216912,0.0337709 0.306441,0.0971517 0.08951,0.0633835 0.15702,0.15278907 0.19327,0.25631507 0.03625,0.1035234 0.03918,0.2160387 0.0088,0.3214274 -0.03043,0.1053913 -0.09297,0.1988782 -0.1788,0.2671671 -0.08583,0.068289 -0.190729,0.1077482 -0.30024,0.1136882 -0.109537,0.00594 -0.217866,-0.022007 -0.310576,-0.080615 -0.09274,-0.058608 -0.165085,-0.1444938 -0.206705,-0.2459799 -0.04164,-0.1014835 -0.05069,-0.2135552 -0.02584,-0.3203938 L 57.722944,1.080975 57.603572,1.045318 c -0.05454,-0.015772 -0.102306,-0.048667 -0.136426,-0.094051 -0.03412,-0.0453813 -0.05271,-0.10083627 -0.05271,-0.15761312 7e-5,-0.0701489 0.02792,-0.13746463 0.07752,-0.18706868 0.0496,-0.0496041 0.116919,-0.0774432 0.187069,-0.0775147 z M 56.878537,1.3228205 c -0.142968,0.00362 -0.257866,0.1207425 -0.257866,0.2645833 0,0.1461238 0.11846,0.2645833 0.264584,0.2645833 0.146123,0 0.264583,-0.1184595 0.264583,-0.2645833 0,-0.146124 -0.11846,-0.2645833 -0.264583,-0.2645833 -0.0023,0 -0.0044,-5.75e-5 -0.0067,0 z m -0.654741,0.79375 c -0.121824,5.9e-6 -0.243348,0.024301 -0.357084,0.07183 -0.181975,0.076049 -0.334547,0.2081932 -0.436149,0.3772379 -0.101606,0.1690528 -0.146904,0.3658661 -0.128674,0.5622396 0.01823,0.1963999 0.09897,0.3817146 0.22996,0.5291667 0.130987,0.1474521 0.305813,0.2491732 0.498677,0.2904215 0.192865,0.041249 0.393769,0.019985 0.573609,-0.060978 0.08402,0.053605 0.18146,0.082113 0.28112,0.082166 0.116535,1.588e-4 0.230031,-0.038076 0.32246,-0.1090373 0.09244,-0.070961 0.158669,-0.1705804 0.188619,-0.2831868 0.02996,-0.112633 0.02171,-0.2319877 -0.02325,-0.3395142 C 57.32812,3.1294154 57.248982,3.0393929 57.147771,2.9816339 57.134892,2.784837 57.059204,2.5977433 56.93228,2.4467828 56.805357,2.2958224 56.633543,2.1888906 56.441871,2.1424087 c -0.07188,-0.017432 -0.14498,-0.025842 -0.218075,-0.025838 z m -0.01292,0.2625162 c 0.06303,-0.00113 0.126007,0.0068 0.187586,0.023771 0.140749,0.038793 0.264981,0.1227422 0.35295,0.2392619 0.08797,0.1165091 0.135037,0.2591427 0.133842,0.4051432 l -0.0041,0.1121378 0.09147,0.032039 c 0.0371,0.012779 0.0707,0.033488 0.0987,0.060978 0.02799,0.027491 0.0496,0.060812 0.06305,0.097669 0.01345,0.036857 0.01817,0.076159 0.01447,0.1152384 -0.0037,0.039052 -0.016,0.076933 -0.03617,0.1105876 -0.02017,0.033655 -0.04741,0.062537 -0.0801,0.084233 -0.0327,0.021696 -0.07019,0.035841 -0.109037,0.041341 -0.03885,0.00553 -0.07831,0.00245 -0.115755,-0.0093 -0.03744,-0.011748 -0.0715,-0.031697 -0.100252,-0.058394 l -0.07131,-0.065629 -0.08423,0.048059 C 56.425332,3.6888486 56.278087,3.7174773 56.13341,3.6978716 55.988686,3.6782906 55.85477,3.6113906 55.75199,3.5077 55.649209,3.4040099 55.583758,3.2696103 55.565438,3.1247776 c -0.01832,-0.1448592 0.01154,-0.2920414 0.08527,-0.4180623 0.07373,-0.1260183 0.187217,-0.2240568 0.32246,-0.2790527 0.07607,-0.030937 0.156677,-0.047127 0.237712,-0.048576 z m 1.593701,0.00207 c -0.142968,0.00362 -0.257865,0.1207426 -0.257865,0.2645833 0,0.1461293 0.118459,0.2645833 0.264583,0.2645833 0.14613,0 0.264584,-0.118454 0.264584,-0.2645833 0,-0.1461238 -0.118454,-0.2645833 -0.264584,-0.2645833 -0.0023,0 -0.0044,-5.75e-5 -0.0067,0 z m 1.058334,0 c -0.06989,0.00354 -0.125574,0.061513 -0.125574,0.1322916 0,0.073062 0.05924,0.1322917 0.132292,0.1322917 0.07305,0 0.132291,-0.05923 0.132291,-0.1322917 0,-0.073062 -0.05924,-0.1322916 -0.132291,-0.1322916 -0.0023,0 -0.0045,-1.143e-4 -0.0067,0 z M 58.550268,3.042615 c -0.03398,-8.449e-4 -0.06812,0.00209 -0.101802,0.00879 -0.08983,0.017886 -0.172455,0.061837 -0.237195,0.1266073 -0.06477,0.064743 -0.108718,0.1473689 -0.126607,0.2371948 -0.01786,0.089826 -0.0087,0.18307 0.02635,0.2676839 0.03506,0.084614 0.09438,0.1568603 0.170533,0.2077393 0.07612,0.05088 0.165778,0.078031 0.257348,0.078031 0.122767,-1.323e-4 0.240302,-0.049126 0.327112,-0.135909 0.08679,-0.08681 0.135777,-0.2043453 0.135909,-0.3271119 0,-0.091572 -0.02715,-0.1812277 -0.07803,-0.2573486 -0.05088,-0.076147 -0.12313,-0.1354753 -0.207739,-0.1705322 -0.05288,-0.021896 -0.109245,-0.033732 -0.165882,-0.03514 z m -0.01137,0.2645833 c 0.0526,7.9e-5 0.102844,0.021194 0.140043,0.058394 0.0372,0.0372 0.05832,0.087444 0.0584,0.1400431 0,0.039238 -0.01179,0.077448 -0.03359,0.1100708 -0.0218,0.032623 -0.05261,0.058379 -0.08888,0.073381 -0.03624,0.015028 -0.07622,0.019019 -0.114722,0.011369 -0.0385,-0.00765 -0.07405,-0.026505 -0.101803,-0.05426 -0.02776,-0.027728 -0.04656,-0.063306 -0.05426,-0.1018025 -0.0076,-0.038497 -0.0037,-0.078474 0.01137,-0.1147217 0.01503,-0.036248 0.04076,-0.067082 0.07338,-0.088884 0.03265,-0.021801 0.07083,-0.03359 0.11007,-0.03359 z" /><rect
         style="fill:none;stroke-width:0.264583;paint-order:stroke fill markers"
         id="rect3326"
         width="4.2333331"
         height="4.2333331"
         x="55.033333"
         y="-3.2919067e-07" /></g></g><style
     type="text/css"
     id="style578">
	.st0{fill:none;}
</style><style
     type="text/css"
     id="style968">
	.st0{fill:none;}
</style><style
     type="text/css"
     id="style3690">
	.st0{fill:none;}
</style><style
     type="text/css"
     id="style5365">
	.st0{fill:none;}
</style><style
     type="text/css"
     id="style596">
	.st0{fill:none;}
</style><style
     type="text/css"
     id="style660">
	.st0{fill:none;}
</style><style
     type="text/css"
     id="style5861">
	.st0{fill:none;}
</style><style
     type="text/css"
     id="style25784">
	.st0{fill:none;}
</style></svg>
