<?xml version="1.0" encoding="UTF-8"?>
<svg id="svg19713" xmlns="http://www.w3.org/2000/svg" xmlns:svg="http://www.w3.org/2000/svg" version="1.1" viewBox="0 0 16 16">
  <!-- Generator: Adobe Illustrator 29.6.0, SVG Export Plug-In . SVG Version: 2.1.1 Build 207)  -->
  <defs>
    <style>
      .st0 {
        fill: none;
      }

      .st1 {
        fill: #aaa;
      }
    </style>
  </defs>
  <g id="g2789">
    <g id="g2787">
      <path id="path2783" class="st1" d="M14.415,11.589l-2.915-2.92v-2.165c0-.066-.012-.131-.037-.192-.025-.061-.062-.116-.108-.163L6.355,1.149c-.046-.047-.102-.084-.163-.109-.061-.025-.126-.038-.192-.038s-.131.013-.192.038c-.061.025-.116.063-.163.109L1.145,5.649c-.047.046-.084.102-.109.163-.025.061-.038.126-.038.192s.013.131.038.192c.025.061.063.116.109.163l5,5c.047.046.102.083.163.108.061.025.126.037.192.037h2.17l2.915,2.92c.375.375.884.586,1.415.586s1.04-.211,1.415-.586c.375-.375.586-.884.586-1.415s-.211-1.04-.586-1.415v-.005ZM3,5.209l1.145,1.15.71-.71-1.15-1.145.795-.795,2.145,2.15.71-.71-2.15-2.145.795-.795,3.295,3.295-3.795,3.795-3.295-3.295.795-.795ZM13.705,13.709c-.187.186-.441.291-.705.291s-.518-.105-.705-.291l-3.065-3.06c-.107-.073-.228-.123-.355-.145h-2.17l-.5-.5,3.795-3.795.5.5v2.17c0,.131.053.257.145.35l3.06,3.07c.186.187.291.441.291.705s-.105.518-.291.705h0Z"/>
      <rect id="rect2785" class="st0" x="0" y="0" width="16" height="16"/>
    </g>
  </g>
</svg>