<?xml version="1.0" encoding="UTF-8" standalone="no"?>
<!-- Created with Inkscape (http://www.inkscape.org/) -->

<svg
   width="15.999999"
   height="15.999999"
   viewBox="0 0 4.233333 4.233333"
   version="1.1"
   id="svg19713"
   xml:space="preserve"
   xmlns="http://www.w3.org/2000/svg"
   xmlns:svg="http://www.w3.org/2000/svg"><defs
     id="defs19710"><style
       id="style36518">.cls-1{fill:none;}</style><style
       id="style36538">.cls-1{fill:none;}</style><style
       id="style48643">
      .cls-1 {
        fill: none;
      }
    </style><style
       id="style49369">.cls-1{fill:none;}</style><style
       id="style68473">.cls-1{fill:none;}</style><style
       id="style34301">.cls-1{fill:none;}</style><style
       id="style40867">.cls-1{fill:none;}</style><style
       id="style3486">.cls-1{fill:none;}</style><style
       id="style16714">.cls-1{fill:none;}</style><style
       id="style16734">.cls-1{fill:none;}</style><style
       id="style598">.cls-1{fill:none;}</style><style
       id="style938">
      .cls-1 {
        fill: none;
      }
    </style><style
       id="style953">
      .cls-1 {
        fill: none;
      }
    </style><style
       id="style988">
      .cls-1 {
        fill: none;
      }
    </style><style
       id="style6804">.cls-1{fill:none;}</style><style
       id="style8295">.cls-1{fill:none;}</style><style
       id="style9297">.cls-1{fill:none;}</style><style
       id="style10710">
      .cls-1 {
        fill: none;
      }
    </style><style
       id="style616">.cls-1{fill:#000000;}.cls-2{fill:none;}</style><style
       id="style640">.cls-1{fill:none;}</style><style
       id="style732">.cls-1{fill:#000000;}.cls-2{fill:none;}</style><style
       id="style1166">
      .cls-1 {
        fill: none;
      }
    </style><style
       id="style1186">
      .cls-1 {
        fill: none;
      }
    </style><style
       id="style1201">
      .cls-1 {
        fill: none;
      }
    </style><style
       id="style2604">.cls-1{fill:none;}</style><style
       id="style3041">.cls-1{fill:none;}</style><style
       id="style34659">
      .cls-1 {
        fill: none;
      }
    </style><style
       id="style931">.cls-1{fill:#000000;}.cls-2{fill:none;}</style><style
       id="style1772">
      .cls-1 {
        fill: none;
      }
    </style><style
       id="style4214">.cls-1{fill:none;}</style><style
       id="style5886">.cls-1{fill:none;}</style><style
       id="style5923">
      .cls-1 {
        fill: none;
      }
    </style><style
       id="style5938">
      .cls-1 {
        fill: none;
      }
    </style><style
       id="style8494">
      .cls-1 {
        fill: none;
      }
    </style><style
       id="style8509">
      .cls-1 {
        fill: none;
      }
    </style><style
       id="style10257">
      .cls-1 {
        fill: none;
      }
    </style><style
       id="style10280">.cls-1{fill:none;}</style><style
       id="style11171">
      .cls-1 {
        fill: none;
      }
    </style><style
       id="style1997">.cls-1{fill:none;}</style><style
       id="style2928">
      .cls-1 {
        fill: none;
      }
    </style><style
       id="style2943">
      .cls-1 {
        fill: none;
      }
    </style><style
       id="style3863">.cls-1{fill:none;}</style><style
       id="style3880">.cls-1{fill:none;}</style><style
       id="style1078">
      .cls-1 {
        fill: none;
      }
    </style><style
       id="style3954">.cls-1{fill:none;}</style></defs><g
     id="layer6"
     style="display:inline"
     transform="translate(-42.333351,0.00272863)"><g
       id="g37193"
       transform="translate(21.166685,-0.00272863)"><path
         d="M 24.980634,3.0663105 24.209376,2.293721 V 1.7208993 c 7.9e-5,-0.017409 -0.0033,-0.034668 -0.0098,-0.050787 -0.0066,-0.016118 -0.0163,-0.030779 -0.02855,-0.04314 L 22.848089,0.3040587 c -0.0123,-0.0123984 -0.02693,-0.0222408 -0.04305,-0.0289586 -0.01612,-0.006715 -0.03341,-0.0101732 -0.05088,-0.0101732 -0.01747,0 -0.03476,0.003458 -0.05088,0.0101732 -0.01612,0.006718 -0.03075,0.0165602 -0.04305,0.0289586 l -1.190623,1.1906224 c -0.0124,0.012298 -0.02224,0.026929 -0.02896,0.04305 -0.0067,0.016121 -0.01017,0.033412 -0.01017,0.050877 0,0.017465 0.0035,0.034755 0.01017,0.050877 0.0067,0.016121 0.01656,0.030752 0.02896,0.04305 l 1.322914,1.3229217 c 0.01236,0.01225 0.02702,0.02196 0.04314,0.028548 0.01612,0.00656 0.03338,0.0099 0.05079,0.00982 h 0.574145 l 0.771266,0.7725816 c 0.0993,0.099298 0.233944,0.155072 0.374385,0.155072 0.140414,0 0.275086,-0.055774 0.374384,-0.155072 0.0993,-0.099298 0.155072,-0.2339705 0.155072,-0.3743845 0,-0.1404406 -0.05577,-0.2750867 -0.155072,-0.3743846 z m -3.02022,-1.6880458 0.302948,0.3042701 0.187853,-0.1878537 -0.30427,-0.3029473 0.210343,-0.21034326 0.56753,0.56885296 0.187854,-0.1878538 -0.568853,-0.56753 0.210344,-0.21034328 0.8718,0.87180018 -1.004092,1.0040915 -0.8718,-0.8718001 z m 2.832367,2.2489613 c -0.04958,0.049265 -0.116628,0.076941 -0.186531,0.076941 -0.0699,0 -0.136975,-0.027675 -0.186531,-0.076941 L 23.608765,2.8176028 c -0.02819,-0.019394 -0.06022,-0.032491 -0.09393,-0.038365 H 22.940693 L 22.808402,2.646939 23.812494,1.6428474 23.944793,1.7751388 v 0.5741446 c 1.32e-4,0.034705 0.01392,0.067963 0.03836,0.092604 l 0.809624,0.812277 c 0.04926,0.049556 0.07694,0.1166281 0.07694,0.1865308 0,0.069903 -0.02767,0.1369481 -0.07694,0.1865309 z"
         fill="#afb1b3"
         id="path36437"
         style="fill:#6e6e6e;fill-opacity:1;stroke-width:0.132292" /><rect
         style="fill:none;fill-opacity:1;stroke-width:0.264583;paint-order:stroke fill markers"
         id="rect37189"
         width="4.2333331"
         height="4.2333331"
         x="21.166666"
         y="0" /></g></g><style
     type="text/css"
     id="style578">
	.st0{fill:none;}
</style><style
     type="text/css"
     id="style968">
	.st0{fill:none;}
</style><style
     type="text/css"
     id="style3690">
	.st0{fill:none;}
</style><style
     type="text/css"
     id="style5365">
	.st0{fill:none;}
</style><style
     type="text/css"
     id="style596">
	.st0{fill:none;}
</style><style
     type="text/css"
     id="style660">
	.st0{fill:none;}
</style><style
     type="text/css"
     id="style5861">
	.st0{fill:none;}
</style><style
     type="text/css"
     id="style25784">
	.st0{fill:none;}
</style></svg>
