<?xml version="1.0" encoding="UTF-8" standalone="no"?>
<!-- Created with Inkscape (http://www.inkscape.org/) -->

<svg
   width="15.999999"
   height="15.999999"
   viewBox="0 0 4.2333333 4.2333333"
   version="1.1"
   id="svg19713"
   inkscape:version="1.2 (dc2aedaf03, 2022-05-15)"
   sodipodi:docname="new-icons.svg"
   xml:space="preserve"
   xmlns:inkscape="http://www.inkscape.org/namespaces/inkscape"
   xmlns:sodipodi="http://sodipodi.sourceforge.net/DTD/sodipodi-0.dtd"
   xmlns="http://www.w3.org/2000/svg"
   xmlns:svg="http://www.w3.org/2000/svg"><sodipodi:namedview
     id="namedview19715"
     pagecolor="#ffffff"
     bordercolor="#000000"
     borderopacity="0.25"
     inkscape:showpageshadow="false"
     inkscape:pageopacity="0.0"
     inkscape:pagecheckerboard="0"
     inkscape:deskcolor="#d1d1d1"
     inkscape:document-units="px"
     showgrid="true"
     inkscape:zoom="3.920673"
     inkscape:cx="114.39363"
     inkscape:cy="-5.4837524"
     inkscape:window-width="958"
     inkscape:window-height="1008"
     inkscape:window-x="953"
     inkscape:window-y="0"
     inkscape:window-maximized="0"
     inkscape:current-layer="layer7"><inkscape:grid
       type="xygrid"
       id="grid19834"
       empspacing="16"
       color="#737373"
       opacity="0.14901961"
       originx="0"
       originy="0" /></sodipodi:namedview><defs
     id="defs19710"><style
       id="style36518">.cls-1{fill:none;}</style><style
       id="style36538">.cls-1{fill:none;}</style></defs><g
     inkscape:label="shortest path"
     inkscape:groupmode="layer"
     id="layer1"><g
       id="g36788"
       transform="scale(0.50000002)"
       style="stroke-width:2"><path
         id="path19836"
         style="color:#000000;display:inline;fill:#afb1b3;fill-opacity:1;stroke-width:2;paint-order:stroke fill markers"
         d="m 2.1166666,1.0583333 c -0.581365,0 -1.058333,0.477485 -1.058333,1.05885 0,0.581366 0.476968,1.058333 1.058333,1.058333 0.195178,0 0.378816,-0.05382 0.536402,-0.147277 l 2.786393,2.784842 c -0.09379,0.157791 -0.148312,0.341363 -0.148312,0.536919 0,0.581366 0.477485,1.05885 1.058851,1.05885 0.581366,0 1.058333,-0.477484 1.058333,-1.05885 0,-0.581366 -0.476967,-1.058851 -1.058333,-1.058851 -0.195303,0 -0.378749,0.05423 -0.536402,0.147795 l -2.785359,-2.785876 c 0.09346,-0.157586 0.147277,-0.340707 0.147277,-0.535885 0,-0.581365 -0.477483,-1.05885 -1.05885,-1.05885 z m 4.233334,0 c -0.581366,0 -1.058851,0.477485 -1.058851,1.05885 0,0.581366 0.477485,1.058333 1.058851,1.058333 0.581366,0 1.058333,-0.476967 1.058333,-1.058333 0,-0.581365 -0.476967,-1.05885 -1.058333,-1.05885 z m 0,0.529167 c 0.295384,0 0.529166,0.234299 0.529166,0.529683 0,0.295385 -0.233782,0.529167 -0.529166,0.529167 -0.295384,0 -0.529167,-0.233782 -0.529167,-0.529167 0,-0.295384 0.233783,-0.529683 0.529167,-0.529683 z m -2.645834,0.264583 v 0.529167 h 1.058334 v -0.529167 z m 2.38125,1.852083 v 1.058334 h 0.529167 v -1.058334 z" /><rect
         style="display:inline;fill:none;fill-opacity:1;stroke:none;stroke-width:1.05833;stroke-dashoffset:1.16;stroke-opacity:1;paint-order:stroke fill markers"
         id="rect36680"
         width="8.4666662"
         height="8.4666662"
         x="0"
         y="0" /></g></g></svg>
