<?xml version="1.0" encoding="UTF-8" standalone="no"?>
<!-- Created with Inkscape (http://www.inkscape.org/) -->

<svg
   width="15.99"
   height="15.99"
   viewBox="0 0 4.233333 4.233333"
   version="1.1"
   id="svg19713"
   inkscape:version="1.2 (dc2aedaf03, 2022-05-15)"
   sodipodi:docname="new-icons.svg"
   xml:space="preserve"
   xmlns:inkscape="http://www.inkscape.org/namespaces/inkscape"
   xmlns:sodipodi="http://sodipodi.sourceforge.net/DTD/sodipodi-0.dtd"
   xmlns="http://www.w3.org/2000/svg"
   xmlns:svg="http://www.w3.org/2000/svg"><sodipodi:namedview
     id="namedview19715"
     pagecolor="#ffffff"
     bordercolor="#000000"
     borderopacity="0.25"
     inkscape:showpageshadow="false"
     inkscape:pageopacity="0.0"
     inkscape:pagecheckerboard="0"
     inkscape:deskcolor="#d1d1d1"
     inkscape:document-units="px"
     showgrid="true"
     inkscape:zoom="3.920673"
     inkscape:cx="114.39363"
     inkscape:cy="-5.4837524"
     inkscape:window-width="958"
     inkscape:window-height="1008"
     inkscape:window-x="953"
     inkscape:window-y="0"
     inkscape:window-maximized="0"
     inkscape:current-layer="layer7"><inkscape:grid
       type="xygrid"
       id="grid19834"
       empspacing="16"
       color="#737373"
       opacity="0.14901961"
       originx="0"
       originy="0" /></sodipodi:namedview><defs
     id="defs19710"><style
       id="style36518">.cls-1{fill:none;}</style><style
       id="style36538">.cls-1{fill:none;}</style></defs><g
     inkscape:groupmode="layer"
     id="layer7"
     inkscape:label="sizer"
     transform="translate(-25.4)"><g
       id="g37206"><path
         id="path37199"
         style="display:inline;fill:#afb1b3;stroke-width:2"
         transform="matrix(0.13229166,0,0,0.13229166,25.4,9e-8)"
         d="M 8.83,15 11.41,12.41 10,11 5,16 10,21 11.41,19.59 8.83,17 H 23.17 L 20.59,19.59 22,21 27,16 22,11 20.59,12.41 23.17,15 Z" /><path
         style="color:#000000;fill:#afb1b3;stroke-dashoffset:1.16;-inkscape-stroke:none;paint-order:stroke fill markers"
         d="m 27.517578,0.26367188 c -1.021309,0 -1.853515,0.83220632 -1.853516,1.85351562 0,1.0213093 0.832207,1.8515625 1.853516,1.8515625 1.021309,0 1.851563,-0.8302532 1.851563,-1.8515625 0,-1.0213093 -0.830254,-1.85351562 -1.851563,-1.85351562 z m 0,0.26562499 c 0.878318,0 1.585938,0.70957243 1.585938,1.58789063 0,0.8783182 -0.70762,1.5878906 -1.585938,1.5878906 -0.878318,0 -1.587891,-0.7095724 -1.587891,-1.5878906 0,-0.8783182 0.709573,-1.58789063 1.587891,-1.58789063 z"
         id="path36933" /><rect
         style="fill:none;fill-opacity:1;stroke-width:0.264583;paint-order:stroke fill markers"
         id="rect37201"
         width="4.2333331"
         height="4.2333331"
         x="25.4"
         y="0" /></g></g></svg>
