<?xml version="1.0" encoding="UTF-8"?>
<svg id="svg19713" xmlns="http://www.w3.org/2000/svg" xmlns:svg="http://www.w3.org/2000/svg" version="1.1" viewBox="0 0 16 16" width="15.999999" height="15.999999">
  <!-- Generator: Adobe Illustrator 29.6.0, SVG Export Plug-In . SVG Version: 2.1.1 Build 207)  -->
  <defs>
    <style>
      .st0 {
        fill: none;
      }

      .st1 {
        fill: #aaa;
      }
    </style>
  </defs>
  <g id="g23813">
    <g id="g23811">
      <path id="path23807" class="st1" d="M11.813,11.294c-.849.009-1.664-.335-2.25-.95l-1.55-1.6-1.55,1.6c-1.259,1.25-3.291,1.25-4.55,0-.58-.645-.9-1.482-.9-2.35-.006-.878.336-1.723.95-2.35,1.232-1.243,3.239-1.251,4.481-.019.006.006.013.012.019.019l1.55,1.6,1.55-1.6c1.232-1.243,3.239-1.251,4.481-.019.006.006.013.012.019.019,1.25,1.317,1.25,3.383,0,4.7-.599.595-1.405.936-2.25.95ZM8.713,7.994l1.55,1.65c.859.85,2.241.85,3.1,0,.85-.936.85-2.364,0-3.3-.859-.85-2.241-.85-3.1,0l-1.55,1.65ZM4.213,5.694c-.585-.011-1.148.225-1.55.65-.867.929-.867,2.371,0,3.3.859.85,2.241.85,3.1,0l1.55-1.65-1.55-1.65c-.421-.398-.972-.629-1.55-.65Z"/>
      <rect id="rect23809" class="st0" y="0" width="16" height="16"/>
    </g>
  </g>
</svg>