<?xml version="1.0" encoding="UTF-8"?>
<svg id="svg19713" xmlns="http://www.w3.org/2000/svg" xmlns:svg="http://www.w3.org/2000/svg" version="1.1" viewBox="0 0 16 16">
  <!-- Generator: Adobe Illustrator 29.6.0, SVG Export Plug-In . SVG Version: 2.1.1 Build 207)  -->
  <defs>
    <style>
      .st0 {
        fill: none;
      }

      .st1 {
        fill: #555;
      }
    </style>
  </defs>
  <g id="g23842">
    <g id="g23840">
      <path id="path23820" class="st1" d="M9.999,6.999c-1.651,0-2.997,1.35-2.997,3.001s1.346,3.001,2.997,3.001,3.001-1.35,3.001-3.001-1.35-3.001-3.001-3.001ZM9.999,7.999c1.11,0,2,.89,2,2s-.89,2-2,2-1.997-.89-1.997-2,.886-2,1.997-2Z"/>
      <path id="path23822" class="st1" d="M7.5,3.002c-.823,0-1.499.676-1.499,1.499s.676,1.499,1.499,1.499c.823,0,1.499-.676,1.499-1.499s-.676-1.499-1.499-1.499ZM7.5,3.998c.282,0,.498.22.498.502s-.216.498-.498.498-.498-.216-.498-.498.216-.502.498-.502Z"/>
      <path id="path23824" class="st1" d="M13,5c0,.552-.448,1-1,1h0c-.552,0-1-.448-1-1h0c0-.552.448-1,1-1h0c.552,0,1,.448,1,1h0Z"/>
      <path id="path23826" class="st1" d="M6,12c0,.552-.448,1-1,1h0c-.552,0-1-.448-1-1h0c0-.552.448-1,1-1h0c.552,0,1,.448,1,1h0Z"/>
      <path id="path23828" class="st1" d="M5,8c0,.552-.448,1-1,1h0c-.552,0-1-.448-1-1h0c0-.552.448-1,1-1h0c.552,0,1,.448,1,1h0Z"/>
      <path id="path23830" class="st1" d="M2,1c-.552,0-.999.448-1,1v2h1V2h2V1h-2ZM6,1v1h4s0-1,0-1h-4ZM12,1v1h2v2h1V2c0-.552-.448-.999-1-1h-2ZM1,6v4h1v-4s-1,0-1,0ZM1,12v2c0,.552.448.999,1,1h2v-1h-2v-2h-1Z"/>
      <rect id="rect23832" class="st1" x="14" y="6" width="1" height="4"/>
      <rect id="rect23834" class="st1" x="6" y="14" width="4" height="1"/>
      <path id="path23836" class="st1" d="M14,15c.552,0,.999-.448,1-1v-2h-1v2h-2v1h2Z"/>
      <rect id="rect23838" class="st0" x="0" y="0" width="16" height="16"/>
    </g>
  </g>
</svg>