<?xml version="1.0" encoding="UTF-8" standalone="no"?>
<!-- Created with Inkscape (http://www.inkscape.org/) -->

<svg
   width="15.999999"
   height="15.999999"
   viewBox="0 0 4.23333 4.23333"
   version="1.1"
   id="svg19713"
   xml:space="preserve"
   xmlns="http://www.w3.org/2000/svg"
   xmlns:svg="http://www.w3.org/2000/svg"><defs
     id="defs19710"><style
       id="style36518">.cls-1{fill:none;}</style><style
       id="style36538">.cls-1{fill:none;}</style><style
       id="style48643">
      .cls-1 {
        fill: none;
      }
    </style><style
       id="style49369">.cls-1{fill:none;}</style><style
       id="style68473">.cls-1{fill:none;}</style><style
       id="style34301">.cls-1{fill:none;}</style><style
       id="style40867">.cls-1{fill:none;}</style><style
       id="style3486">.cls-1{fill:none;}</style><style
       id="style16714">.cls-1{fill:none;}</style><style
       id="style16734">.cls-1{fill:none;}</style><style
       id="style598">.cls-1{fill:none;}</style><style
       id="style938">
      .cls-1 {
        fill: none;
      }
    </style><style
       id="style953">
      .cls-1 {
        fill: none;
      }
    </style><style
       id="style988">
      .cls-1 {
        fill: none;
      }
    </style><style
       id="style6804">.cls-1{fill:none;}</style><style
       id="style8295">.cls-1{fill:none;}</style><style
       id="style9297">.cls-1{fill:none;}</style><style
       id="style10710">
      .cls-1 {
        fill: none;
      }
    </style><style
       id="style616">.cls-1{fill:#000000;}.cls-2{fill:none;}</style><style
       id="style640">.cls-1{fill:none;}</style><style
       id="style732">.cls-1{fill:#000000;}.cls-2{fill:none;}</style><style
       id="style1166">
      .cls-1 {
        fill: none;
      }
    </style><style
       id="style1186">
      .cls-1 {
        fill: none;
      }
    </style><style
       id="style1201">
      .cls-1 {
        fill: none;
      }
    </style><style
       id="style2604">.cls-1{fill:none;}</style><style
       id="style3041">.cls-1{fill:none;}</style><style
       id="style34659">
      .cls-1 {
        fill: none;
      }
    </style><style
       id="style931">.cls-1{fill:#000000;}.cls-2{fill:none;}</style><style
       id="style1772">
      .cls-1 {
        fill: none;
      }
    </style><style
       id="style4214">.cls-1{fill:none;}</style><style
       id="style5886">.cls-1{fill:none;}</style><style
       id="style5923">
      .cls-1 {
        fill: none;
      }
    </style><style
       id="style5938">
      .cls-1 {
        fill: none;
      }
    </style><style
       id="style8494">
      .cls-1 {
        fill: none;
      }
    </style><style
       id="style8509">
      .cls-1 {
        fill: none;
      }
    </style><style
       id="style10257">
      .cls-1 {
        fill: none;
      }
    </style><style
       id="style10280">.cls-1{fill:none;}</style><style
       id="style11171">
      .cls-1 {
        fill: none;
      }
    </style><style
       id="style1997">.cls-1{fill:none;}</style><style
       id="style2928">
      .cls-1 {
        fill: none;
      }
    </style><style
       id="style2943">
      .cls-1 {
        fill: none;
      }
    </style><style
       id="style3863">.cls-1{fill:none;}</style><style
       id="style3880">.cls-1{fill:none;}</style><style
       id="style1078">
      .cls-1 {
        fill: none;
      }
    </style><style
       id="style3954">.cls-1{fill:none;}</style></defs><g
     id="layer77"
     style="display:inline"
     transform="translate(-50.79997,131.23334)"><g
       id="g7927"
       style="display:inline;stroke-width:2.00002"
       transform="matrix(0.49999963,0,0,0.49999963,-76.199936,-148.16666)"><path
         style="color:#000000;fill:#6e6e6e;fill-opacity:1;stroke-width:2.00002;-inkscape-stroke:none;paint-order:stroke fill markers"
         d="m 259.29102,37.570312 c -0.87362,0 -1.58594,0.714274 -1.58594,1.587891 0,0.873617 0.71232,1.587891 1.58594,1.587891 0.87361,0 1.58789,-0.714274 1.58789,-1.587891 0,-0.873617 -0.71428,-1.587891 -1.58789,-1.587891 z m 0,0.529297 c 0.58763,0 1.05859,0.47096 1.05859,1.058594 0,0.587635 -0.47096,1.058594 -1.05859,1.058594 -0.58764,0 -1.05664,-0.470959 -1.05665,-1.058594 0,-0.587634 0.46901,-1.058594 1.05665,-1.058594 z"
         id="circle4159" /><path
         style="color:#000000;fill:#6e6e6e;fill-opacity:1;stroke-width:2.00002;-inkscape-stroke:none;paint-order:stroke fill markers"
         d="m 257.96875,35.455078 c -0.43524,-3e-6 -0.79297,0.357725 -0.79297,0.792969 0,0.435244 0.35773,0.792971 0.79297,0.792969 0.43524,2e-6 0.79297,-0.357725 0.79297,-0.792969 0,-0.435244 -0.35773,-0.792972 -0.79297,-0.792969 z m 0,0.527344 c 0.14926,-10e-7 0.26367,0.116365 0.26367,0.265625 0,0.14926 -0.11441,0.263673 -0.26367,0.263672 -0.14926,10e-7 -0.26367,-0.114412 -0.26367,-0.263672 0,-0.14926 0.11441,-0.265626 0.26367,-0.265625 z"
         id="circle4161" /><path
         id="circle9104"
         style="fill:#6e6e6e;fill-opacity:1;stroke-width:1.05833;paint-order:stroke fill markers"
         d="m 260.87923,36.512501 a 0.52916664,0.52916664 0 0 1 -0.52916,0.529166 0.52916664,0.52916664 0 0 1 -0.52917,-0.529166 0.52916664,0.52916664 0 0 1 0.52917,-0.529167 0.52916664,0.52916664 0 0 1 0.52916,0.529167 z" /><path
         id="circle4165"
         style="fill:#6e6e6e;fill-opacity:1;stroke-width:1.05833;paint-order:stroke fill markers"
         d="m 257.17507,40.216667 a 0.52916664,0.52916664 0 0 1 -0.52917,0.529167 0.52916664,0.52916664 0 0 1 -0.52916,-0.529167 0.52916664,0.52916664 0 0 1 0.52916,-0.529166 0.52916664,0.52916664 0 0 1 0.52917,0.529166 z" /><path
         id="circle4185"
         style="fill:#6e6e6e;fill-opacity:1;stroke-width:1.05833;paint-order:stroke fill markers"
         d="m 256.6459,38.100002 a 0.52916664,0.52916664 0 0 1 -0.52917,0.529167 0.52916664,0.52916664 0 0 1 -0.52917,-0.529167 0.52916664,0.52916664 0 0 1 0.52917,-0.529166 0.52916664,0.52916664 0 0 1 0.52917,0.529166 z" /><path
         id="path4173"
         style="fill:#6e6e6e;fill-opacity:1;stroke-width:0.529164"
         d="m 255.05832,34.395833 c -0.29212,3.06e-4 -0.52886,0.237043 -0.52916,0.529167 v 1.058333 h 0.52916 V 34.925 h 1.05834 v -0.529167 z m 2.11667,0 V 34.925 l 2.11674,3e-6 v -0.529167 z m 3.17507,2e-6 v 0.529167 h 1.05833 v 1.058334 h 0.52917 v -1.058334 c -3.1e-4,-0.292124 -0.23704,-0.528861 -0.52917,-0.529167 z m -5.82083,2.645834 v 2.116667 h 0.52916 l 1e-5,-2.116667 z m 0,3.175 v 1.058333 c 3e-4,0.292124 0.23704,0.528861 0.52916,0.529167 h 1.05834 v -0.529166 h -1.05834 v -1.058334 z" /><rect
         style="fill:#6e6e6e;fill-opacity:1;stroke-width:0.529998;stroke-linejoin:bevel;paint-order:stroke fill markers"
         id="rect4177"
         width="15.999999"
         height="15.999999"
         x="261.40839"
         y="37.041668" /><rect
         style="fill:#6e6e6e;fill-opacity:1;stroke-width:0.529998;stroke-linejoin:bevel;paint-order:stroke fill markers"
         id="rect4179"
         width="15.999999"
         height="15.999999"
         x="257.17508"
         y="41.275002" /><path
         id="path4181"
         style="fill:#6e6e6e;fill-opacity:1;stroke-width:0.529164"
         d="m 261.4084,41.804169 c 0.29212,-3.17e-4 0.52886,-0.237043 0.52917,-0.529167 v -1.058333 h -0.52917 v 1.058333 h -1.05833 v 0.529167 z" /><rect
         style="fill:none;fill-opacity:1;stroke:none;stroke-width:1.05833;paint-order:stroke fill markers"
         id="rect7913"
         width="15.999999"
         height="15.999999"
         x="254"
         y="33.866665" /></g></g><style
     type="text/css"
     id="style578">
	.st0{fill:none;}
</style><style
     type="text/css"
     id="style968">
	.st0{fill:none;}
</style><style
     type="text/css"
     id="style3690">
	.st0{fill:none;}
</style><style
     type="text/css"
     id="style5365">
	.st0{fill:none;}
</style><style
     type="text/css"
     id="style596">
	.st0{fill:none;}
</style><style
     type="text/css"
     id="style660">
	.st0{fill:none;}
</style><style
     type="text/css"
     id="style5861">
	.st0{fill:none;}
</style><style
     type="text/css"
     id="style25784">
	.st0{fill:none;}
</style></svg>
