<?xml version="1.0" encoding="UTF-8"?>
<svg id="icon" xmlns="http://www.w3.org/2000/svg" version="1.1" viewBox="0 0 32 32">
  <!-- Generator: Adobe Illustrator 29.6.0, SVG Export Plug-In . SVG Version: 2.1.1 Build 207)  -->
  <defs>
    <style>
      .st0 {
        fill: none;
      }

      .st1 {
        fill: #555;
      }
    </style>
  </defs>
  <path class="st1" d="M16,3c-5.298,0-11,1.252-11,4v18c0,2.748,5.702,4,11,4s11-1.252,11-4V7c0-2.748-5.702-4-11-4ZM16,5c5.798,0,8.795,1.434,8.997,2-.202.566-3.199,2-8.997,2-5.841,0-8.839-1.456-9-1.982v-.005c.161-.557,3.159-2.013,9-2.013ZM7,9.428c2.128,1.067,5.643,1.572,9,1.572s6.872-.505,9-1.572v3.56c-.161.557-3.159,2.013-9,2.013s-8.849-1.46-9-2v-3.572ZM7,15.428c2.128,1.067,5.643,1.572,9,1.572s6.872-.505,9-1.572v3.56c-.161.557-3.159,2.013-9,2.013s-8.849-1.46-9-2v-3.572ZM16,27c-5.85,0-8.849-1.46-9-2v-3.572c2.128,1.067,5.643,1.572,9,1.572s6.872-.505,9-1.572v3.56c-.161.557-3.159,2.013-9,2.013Z"/>
  <rect id="_Transparent_Rectangle_" class="st0" y="0" width="32" height="32"/>
</svg>