<?xml version="1.0" encoding="UTF-8"?>
<svg id="icon" xmlns="http://www.w3.org/2000/svg" version="1.1" viewBox="0 0 32 32" width="16" height="16">
  <!-- Generator: Adobe Illustrator 29.6.0, SVG Export Plug-In . SVG Version: 2.1.1 Build 207)  -->
  <defs>
    <style>
      .st0 {
        fill: none;
      }

      .st1 {
        fill: #555;
      }
    </style>
  </defs>
  <path class="st1" d="M30,3.414l-1.414-1.414-3.432,3.432c-2.457-2.131-5.654-3.432-9.154-3.432C8.28,2,2,8.28,2,16c0,3.5,1.3,6.697,3.432,9.154l-3.432,3.432,1.414,1.414,3.432-3.432c2.457,2.131,5.654,3.432,9.154,3.432,7.72,0,14-6.28,14-14,0-3.5-1.3-6.697-3.432-9.154,0,0,3.432-3.432,3.432-3.432ZM4,16c0-6.617,5.383-12,12-12,2.949,0,5.649,1.074,7.741,2.845L6.845,23.741c-1.771-2.092-2.845-4.791-2.845-7.741ZM28,16c0,6.617-5.383,12-12,12-2.949,0-5.649-1.074-7.74-2.845L25.155,8.259c1.771,2.092,2.845,4.791,2.845,7.741Z"/>
  <rect id="_Transparent_Rectangle_" class="st0" y="0" width="32" height="32"/>
</svg>