<?xml version="1.0" encoding="UTF-8"?>
<svg id="icon" xmlns="http://www.w3.org/2000/svg" xmlns:xlink="http://www.w3.org/1999/xlink" version="1.1" viewBox="0 0 32 32">
  <!-- Generator: Adobe Illustrator 29.6.0, SVG Export Plug-In . SVG Version: 2.1.1 Build 207)  -->
  <defs>
    <style>
      .st0 {
        fill: url(#linear-gradient);
      }

      .st1 {
        fill: #fff;
      }
    </style>
    <linearGradient id="linear-gradient" x1="4.084" y1="7.607" x2="21.675" y2="18.622" gradientUnits="userSpaceOnUse">
      <stop offset="0" stop-color="#9ca6a4"/>
      <stop offset="1" stop-color="#3a414c"/>
    </linearGradient>
  </defs>
  <path class="st1" d="M9.774,1.472h12.453,0c.743.005,1.116.298,1.771.676h0c.655.378,1.096.555,1.471,1.196h0s6.226,10.785,6.226,10.785h0c.367.646.3,1.115.3,1.872h0c0,.757.067,1.226-.3,1.872h0s-6.226,10.785-6.226,10.785h0c-.375.641-.816.817-1.471,1.196h0c-.655.378-1.028.672-1.771.676h0s-12.453,0-12.453,0h0c-.743-.005-1.116-.298-1.771-.676h0c-.655-.378-1.096-.555-1.471-1.196h0S.305,17.872.305,17.872h0C-.063,17.226.005,16.757.005,16h0c0-.757-.067-1.226.3-1.872h0S6.531,3.343,6.531,3.343h0c.375-.641.816-.817,1.471-1.196h0c.655-.378,1.028-.672,1.771-.676h0Z"/>
  <path class="st0" d="M25.681,16.354c-.062-.284-.159-.546-.289-.786-.13-.24-.298-.462-.505-.664-.207-.202-.407-.341-.599-.418-.193-.077-.409-.115-.649-.115-.212,0-.426.036-.642.108-.216.072-.431.197-.642.375-.212.178-.399.416-.563.715-.192.346-.313.688-.361,1.025l-.664,4.601c-.365-.077-.63-.178-.793-.303-.231-.183-.416-.442-.555-.779-.139-.336-.209-.755-.209-1.255,0-.308.031-.651.094-1.031.062-.38.151-.743.267-1.089.279-.779.716-1.36,1.313-1.745.163-.086.332-.173.505-.26l.043-.26c-.231,0-.474.031-.728.094-.255.063-.502.161-.743.296-.051.03-.101.061-.15.091-.218.039-.617.325-1.194.87l-.049.044c-.902.825-1.617,1.416-2.156,1.767-.535.354-1.011.543-1.433.567-.389.021-.731-.075-1.028-.288-.298-.214-.518-.522-.66-.923-.061-.172-.1-.35-.117-.535-.017-.185-.011-.386.016-.605.741-.453,1.441-.994,2.104-1.622.674-.622,1.329-1.342,1.97-2.16-.034.237-.045.44-.035.61.01.17.04.332.087.484.115.367.324.653.627.858.302.204.658.3,1.068.288.855-.024,1.694-.528,2.533-1.501.86-.959,1.329-2.03,1.397-3.218.321.147.562.306.722.478.159.172.274.396.343.673.108.429.062.859-.135,1.292-.195.435-.534.861-1.017,1.28-.079.076-.187.169-.327.28-.205.154-.297.267-.277.341.006.02.025.042.06.064.034.023.065.034.093.033.063-.002.2-.071.413-.208.213-.136.424-.304.633-.503.415-.389.706-.805.871-1.248.168-.442.196-.892.082-1.353-.092-.368-.26-.676-.508-.923-.248-.248-.573-.432-.977-.553-.013-.053-.026-.116-.038-.189-.012-.073-.02-.119-.025-.139-.141-.55-.436-.968-.884-1.256-.451-.289-1.042-.441-1.774-.454-1.082-.02-2.254.319-3.5,1.026-1.226.72-2.307,1.716-3.234,2.994-.531.78-.9,1.553-1.112,2.316-.205.768-.253,1.515-.147,2.239-.224.074-.428.129-.613.166-.185.036-.367.058-.545.065-.651.025-1.259-.167-1.826-.577-.57-.412-.987-.961-1.25-1.645-.393-1.022-.254-2.043.432-3.052.705-.996,1.803-1.693,3.287-2.096-.017-.007-.037-.011-.059-.011-.403-.06-.688-.091-.858-.093-.618-.006-1.214.132-1.785.416-.567.286-1.032.683-1.393,1.194-.331.484-.524,1.019-.58,1.602-.053.585.035,1.171.261,1.754.338.871.877,1.575,1.614,2.11.731.531,1.505.778,2.325.745.178-.007.353-.025.526-.054.173-.029.355-.069.544-.12.018.05.033.112.045.184.008.022.013.036.016.043l.078.216c.22.612.57,1.095,1.048,1.447.475.351.996.509,1.563.476.46-.026.954-.191,1.484-.493.507-.285,1.025-.681,1.558-1.185-.157.345-.262.708-.313,1.089-.547,1.502-1.122,2.655-1.739,3.447-.748,1.001-1.68,1.557-2.809,1.657-.945.084-1.831-.126-2.665-.634-.841-.513-1.433-1.199-1.772-2.054-.283-.714-.285-1.343-.003-1.885.287-.539.767-.824,1.435-.857.446-.022.844.074,1.194.286.349.211.593.509.734.893.184.501.123.993-.179,1.479-.298.489-.772.845-1.424,1.067.15.042.295.071.435.087.14.016.271.019.395.009.604-.046,1.049-.317,1.339-.812.294-.492.333-1.04.113-1.647-.186-.513-.54-.93-1.062-1.254-.525-.325-1.084-.475-1.673-.448-.799.037-1.362.349-1.684.939-.316.594-.306,1.309.027,2.144.404,1.014,1.09,1.809,2.05,2.38.951.566,1.998.793,3.148.687.903-.083,1.71-.362,2.427-.831.724-.465,1.284-1.063,1.681-1.794.101-.188.201-.417.302-.687.213.461.537.826.977,1.094.327.202.88.38,1.659.534l-.545,3.041h.905s.548-3.056.548-3.056c.5,0,1.059-.164,1.674-.491.472-.25.861-.526,1.169-.83.308-.303.58-.673.816-1.111.236-.438.392-.882.469-1.335.029-.173.048-.303.058-.39.01-.087.014-.212.014-.375,0-.288-.031-.575-.094-.858ZM21.275,12.497c-.79.95-1.597,1.441-2.434,1.463-.251.007-.487-.074-.708-.242-.221-.169-.37-.377-.447-.626-.126-.407-.113-.826.042-1.253.157-.426.449-.839.878-1.239.47-.444.961-.774,1.472-.989.512-.214,1.044-.319,1.592-.316.139,0,.277.011.414.032.137.021.28.051.429.092-.012,1.117-.427,2.142-1.238,3.079ZM13.901,12.985c.302-.701.694-1.377,1.179-2.027.872-1.165,1.764-2.037,2.663-2.621.911-.576,1.773-.855,2.577-.841.565.009,1.032.133,1.399.371.365.237.604.571.716,1.003l.068.259c-.276-.048-.479-.081-.608-.099-.129-.017-.245-.027-.348-.027-1.335-.009-2.839.862-4.457,2.65-.325.379-.571.665-.738.856-.542.634-1.074,1.186-1.599,1.653-.519.471-1.018.849-1.499,1.132.137-.833.353-1.603.647-2.309ZM24.39,18.48c-.058.318-.111.52-.159.606-.155.375-.304.669-.449.88-.068.096-.198.241-.391.433-.328.337-.695.573-1.101.707-.01,0-.222.043-.637.13l.538-3.951c.029-.26.094-.549.195-.868.101-.318.21-.55.326-.694.077-.087.164-.154.26-.202.096-.048.207-.072.333-.072.087,0,.193.029.318.087.125.058.263.19.412.397.15.207.253.411.311.613.058.202.094.358.109.469.014.111.022.291.022.541,0,.298-.029.606-.087.924Z"/>
</svg>