<?xml version="1.0" encoding="UTF-8"?>
<svg id="icon" xmlns="http://www.w3.org/2000/svg" version="1.1" viewBox="0 0 32 32">
  <!-- Generator: Adobe Illustrator 29.6.0, SVG Export Plug-In . SVG Version: 2.1.1 Build 207)  -->
  <defs>
    <style>
      .st0 {
        fill: none;
      }

      .st1 {
        fill: #aaa;
      }
    </style>
  </defs>
  <rect id="_Transparent_Rectangle_" class="st0" y="0" width="15.999999" height="15.999999"/>
  <g>
    <path class="st1" d="M31.695,14.129l-6.226-10.785c-.375-.641-.816-.818-1.471-1.196-.655-.378-1.028-.671-1.771-.676h-12.454c-.743.003-1.116.297-1.771.675-.655.379-1.096.555-1.471,1.196L.305,14.128C-.062,14.774.005,15.243.005,16s-.068,1.226.3,1.872l6.227,10.786c.375.641.816.818,1.471,1.196.655.378,1.028.671,1.771.676h12.453c.743-.004,1.116-.298,1.771-.676.655-.379,1.096-.555,1.471-1.196l6.226-10.785c.367-.646.3-1.115.3-1.872s.067-1.226-.3-1.872ZM25.762,17.589c-.01.087-.029.217-.058.39-.077.453-.233.897-.469,1.335-.236.438-.508.808-.816,1.111-.308.304-.697.58-1.169.83-.615.327-1.174.491-1.674.491l-.548,3.056h-.905l.545-3.041c-.779-.154-1.332-.332-1.659-.534-.44-.268-.764-.633-.977-1.094-.101.27-.201.499-.302.687-.397.731-.957,1.329-1.681,1.794-.717.469-1.524.748-2.427.831-1.15.106-2.197-.121-3.148-.687-.96-.571-1.646-1.366-2.05-2.38-.333-.835-.343-1.55-.027-2.144.322-.59.885-.902,1.684-.939.589-.027,1.148.123,1.673.448.522.324.876.741,1.062,1.254.22.607.181,1.155-.113,1.647-.29.495-.735.766-1.339.812-.124.01-.255.007-.395-.009-.14-.016-.285-.045-.435-.087.652-.222,1.126-.578,1.424-1.067.302-.486.363-.978.179-1.479-.141-.384-.385-.682-.734-.893-.35-.212-.748-.308-1.194-.286-.668.033-1.148.318-1.435.857-.282.542-.28,1.171.003,1.885.339.855.931,1.541,1.772,2.054.834.508,1.72.718,2.665.634,1.129-.1,2.061-.656,2.809-1.657.617-.792,1.192-1.945,1.739-3.447.051-.381.156-.744.313-1.089-.533.504-1.051.9-1.558,1.185-.53.302-1.024.467-1.484.493-.567.033-1.088-.125-1.563-.476-.478-.352-.828-.835-1.048-1.447l-.078-.216c-.003-.007-.008-.021-.016-.043-.012-.072-.027-.134-.045-.184-.189.051-.371.091-.544.12-.173.029-.348.047-.526.054-.82.033-1.594-.214-2.325-.745-.737-.535-1.276-1.239-1.614-2.11-.226-.583-.314-1.169-.261-1.754.056-.583.249-1.118.58-1.602.361-.511.826-.908,1.393-1.194.571-.284,1.167-.422,1.785-.416.17.002.455.033.858.093.022,0,.042.004.059.011-1.484.403-2.582,1.1-3.287,2.096-.686,1.009-.825,2.03-.432,3.052.263.684.68,1.233,1.25,1.645.567.41,1.175.602,1.826.577.178-.007.36-.029.545-.065.185-.037.389-.092.613-.166-.106-.724-.058-1.471.147-2.239.212-.763.581-1.536,1.112-2.316.927-1.278,2.008-2.274,3.234-2.994,1.246-.707,2.418-1.046,3.5-1.026.732.013,1.323.165,1.774.454.448.288.743.706.884,1.256.005.02.013.066.025.139.012.073.025.136.038.189.404.121.729.305.977.553.248.247.416.555.508.923.114.461.086.911-.082,1.353-.165.443-.456.859-.871,1.248-.209.199-.42.367-.633.503-.213.137-.35.206-.413.208-.028,0-.059-.01-.093-.033-.035-.022-.054-.044-.06-.064-.02-.074.072-.187.277-.341.14-.111.248-.204.327-.28.483-.419.822-.845,1.017-1.28.197-.433.243-.863.135-1.292-.069-.277-.184-.501-.343-.673-.16-.172-.401-.331-.722-.478-.068,1.188-.537,2.259-1.397,3.218-.839.973-1.678,1.477-2.533,1.501-.41.012-.766-.084-1.068-.288-.303-.205-.512-.491-.627-.858-.047-.152-.077-.314-.087-.484-.01-.17,0-.373.035-.61-.641.818-1.296,1.538-1.97,2.16-.663.628-1.363,1.169-2.104,1.622-.027.219-.033.42-.016.605.017.185.056.363.117.535.142.401.362.709.66.923.297.213.639.309,1.028.288.422-.024.898-.213,1.433-.567.539-.351,1.254-.942,2.156-1.767l.049-.044c.577-.545.976-.831,1.194-.87.049-.03.099-.061.15-.091.241-.135.488-.233.743-.296.254-.063.497-.094.728-.094l-.043.26c-.173.087-.342.174-.505.26-.597.385-1.034.966-1.313,1.745-.116.346-.205.709-.267,1.089-.063.38-.094.723-.094,1.031,0,.5.07.919.209,1.255.139.337.324.596.555.779.163.125.428.226.793.303l.664-4.601c.048-.337.169-.679.361-1.025.164-.299.351-.537.563-.715.211-.178.426-.303.642-.375s.43-.108.642-.108c.24,0,.456.038.649.115.192.077.392.216.599.418.207.202.375.424.505.664.13.24.227.502.289.786v.002c.064.283.095.57.095.858,0,.163-.004.288-.014.375Z"/>
    <path class="st1" d="M21.67,9.295c-.548-.003-1.08.102-1.592.316-.511.215-1.002.545-1.472.989-.429.4-.721.813-.878,1.239-.155.427-.168.846-.042,1.253.077.249.226.457.447.626.221.168.457.249.708.242.837-.022,1.644-.513,2.434-1.463h0c.811-.936,1.226-1.961,1.238-3.078-.149-.041-.292-.071-.429-.092-.137-.021-.275-.032-.414-.032Z"/>
    <path class="st1" d="M16.352,12.509c.167-.191.413-.477.738-.856,1.618-1.788,3.122-2.659,4.457-2.65.103,0,.219.01.348.027.129.018.332.051.608.099l-.068-.259c-.112-.432-.351-.766-.716-1.003-.367-.238-.834-.362-1.399-.371-.804-.014-1.666.265-2.577.841-.899.584-1.791,1.456-2.663,2.621-.485.65-.877,1.326-1.179,2.027-.294.706-.51,1.476-.647,2.309.481-.283.98-.661,1.499-1.132.525-.467,1.057-1.019,1.599-1.653Z"/>
    <path class="st1" d="M24.346,16.546c-.058-.202-.161-.406-.311-.613-.149-.207-.287-.339-.412-.397s-.231-.087-.318-.087c-.126,0-.237.024-.333.072s-.183.115-.26.202c-.116.144-.225.376-.326.694-.101.319-.166.608-.195.868l-.538,3.951c.415-.087.627-.13.637-.13.406-.134.773-.37,1.101-.707.193-.192.323-.337.391-.433.145-.211.294-.505.449-.88.048-.086.101-.288.159-.606.058-.318.087-.626.087-.924,0-.25-.008-.43-.022-.541-.015-.111-.051-.267-.109-.469Z"/>
  </g>
</svg>