<?xml version="1.0" encoding="UTF-8"?>
<svg id="icon" xmlns="http://www.w3.org/2000/svg" version="1.1" viewBox="0 0 32 32">
  <!-- Generator: Adobe Illustrator 29.6.0, SVG Export Plug-In . SVG Version: 2.1.1 Build 207)  -->
  <defs>
    <style>
      .st0 {
        fill: none;
      }

      .st1 {
        fill: #555;
      }
    </style>
  </defs>
  <path class="st1" d="M23.499,9.085l-6.792-6.792c-.188-.188-.442-.293-.707-.293H6c-1.1,0-2,.9-2,2v24c0,1.1.9,2,2,2h8v-2H6V4h8v6c0,1.102.897,2,2,2h6.292c.693,0,1.312-.414,1.577-1.054.266-.641.12-1.371-.37-1.861ZM16,10v-5.586l5.585,5.586h-5.585Z"/>
  <rect id="_Transparent_Rectangle_" class="st0" y="0" width="15.999999" height="15.999999"/>
  <g>
    <path class="st1" d="M25.078,19.144c-.28-.001-.552.052-.814.162-.261.11-.512.278-.752.506-.219.204-.369.416-.449.633-.079.219-.086.433-.021.641.039.127.116.234.229.32.113.086.233.127.362.124.428-.011.84-.262,1.244-.748.414-.479.627-1.003.633-1.574-.076-.021-.149-.036-.219-.047-.07-.01-.14-.016-.211-.016Z"/>
    <path class="st1" d="M22.36,20.788c.085-.098.211-.244.377-.438.827-.914,1.596-1.359,2.279-1.355.052,0,.112.005.178.014.066.009.17.026.311.05l-.035-.132c-.058-.221-.18-.392-.366-.513-.187-.122-.426-.185-.715-.19-.411-.007-.852.136-1.318.43-.46.299-.915.744-1.361,1.34-.248.333-.449.678-.603,1.036-.15.361-.261.754-.331,1.18.246-.144.501-.338.767-.579.268-.239.54-.521.817-.845Z"/>
    <path class="st1" d="M30.357,22.572c0-.387.034-.627-.153-.957h0s-3.183-5.514-3.183-5.514h0c-.192-.328-.417-.418-.752-.611h0c-.335-.193-.526-.343-.905-.346h-6.366,0c-.38.002-.57.152-.905.346h0c-.335.193-.56.284-.752.611h0s-3.183,5.514-3.183,5.514h0c-.188.33-.153.57-.153.957h0c0,.387-.034.627.153.957h0l3.183,5.514h0c.192.328.417.418.752.611h0c.335.193.526.343.905.346h0,6.366c.38-.002.57-.152.905-.346h0c.335-.193.56-.284.752-.611h0s3.183-5.514,3.183-5.514h0c.188-.33.153-.57.153-.957h0ZM27.17,23.384c-.005.044-.015.111-.03.199-.039.231-.119.459-.24.682-.121.224-.26.413-.417.568-.158.155-.357.296-.598.424-.315.167-.6.251-.856.251l-.28,1.562h-.463s.279-1.555.279-1.555c-.398-.079-.681-.17-.848-.273-.224-.137-.391-.324-.499-.559-.052.138-.103.255-.154.351-.203.374-.489.679-.859.917-.367.24-.779.382-1.241.425-.588.054-1.124-.062-1.61-.351-.491-.292-.841-.699-1.048-1.217-.17-.427-.176-.792-.014-1.096.165-.302.453-.461.861-.48.301-.014.587.063.855.229.267.165.448.379.543.641.113.31.093.591-.058.842-.148.253-.376.392-.685.415-.063.005-.131.003-.202-.005-.071-.008-.146-.023-.222-.044.333-.114.575-.296.728-.546.154-.248.186-.5.092-.756-.072-.196-.197-.348-.375-.456-.179-.108-.382-.157-.61-.146-.342.017-.587.162-.734.438-.144.277-.143.599.002.964.173.437.476.788.906,1.05.426.26.879.367,1.362.324.578-.052,1.054-.336,1.436-.847.316-.405.61-.995.889-1.762.026-.195.08-.38.16-.557-.272.258-.538.46-.797.606-.271.154-.523.239-.759.252-.29.017-.556-.064-.799-.243-.245-.18-.423-.427-.536-.74l-.04-.11s-.004-.011-.008-.022c-.006-.037-.014-.068-.023-.094-.097.026-.19.047-.278.061-.089.015-.178.024-.269.028-.419.017-.815-.109-1.188-.381-.377-.273-.653-.633-.825-1.078-.116-.298-.161-.597-.133-.897.029-.298.127-.571.296-.819.185-.261.422-.464.712-.61.292-.145.597-.216.913-.213.086,0,.233.017.438.048.011,0,.021.002.03.006-.759.206-1.32.562-1.681,1.071-.35.516-.421,1.038-.221,1.56.134.35.348.63.639.841.29.21.6.308.933.295.091-.003.184-.014.279-.033.095-.018.199-.047.313-.085-.054-.37-.03-.752.075-1.145.108-.39.297-.785.569-1.184.474-.654,1.026-1.163,1.653-1.531.637-.361,1.236-.534,1.79-.524.374.007.676.084.907.232.229.147.38.361.452.642.003.01.007.034.013.071.006.037.012.069.019.096.206.062.373.156.499.283.126.126.213.284.259.472.058.235.044.466-.042.692-.085.227-.233.439-.445.638-.107.102-.214.188-.323.257-.109.07-.179.106-.211.106-.014,0-.03-.005-.048-.017-.018-.012-.028-.023-.031-.033-.01-.038.037-.096.141-.174.071-.057.127-.104.167-.143.247-.214.421-.432.52-.654.101-.222.124-.441.069-.661-.036-.142-.094-.256-.176-.344-.082-.088-.205-.169-.369-.244-.035.608-.275,1.155-.714,1.645-.429.498-.858.755-1.295.768-.21.006-.392-.043-.546-.147-.155-.105-.262-.251-.32-.439-.024-.078-.039-.16-.045-.247-.005-.087,0-.191.018-.312-.328.418-.663.787-1.007,1.104-.339.321-.697.598-1.076.829-.014.112-.017.215-.008.309.009.094.029.186.06.274.073.205.185.363.338.472.152.109.327.158.526.147.216-.012.459-.109.733-.29.276-.18.641-.482,1.102-.904l.025-.022c.295-.278.499-.425.611-.445.025-.015.051-.031.077-.046.123-.069.249-.119.38-.151.13-.032.254-.048.372-.048l-.022.133c-.089.044-.175.089-.258.133-.305.197-.529.494-.671.892-.059.177-.105.363-.136.557-.032.194-.048.37-.048.527,0,.256.036.469.107.641.071.172.166.305.284.398.084.064.219.116.406.155l.339-2.352c.025-.172.086-.347.184-.524.084-.153.18-.274.288-.365.108-.091.218-.155.328-.192.111-.037.22-.055.328-.055.123,0,.234.02.332.059.098.039.2.111.306.214.106.103.192.216.258.339.066.123.116.257.148.402.032.145.048.291.048.439,0,.084-.003.148-.007.192Z"/>
    <path class="st1" d="M26.447,22.851c-.03-.103-.083-.208-.159-.314-.076-.106-.147-.173-.211-.203-.064-.029-.118-.044-.163-.044-.064,0-.121.012-.17.037-.049.025-.094.059-.133.104-.059.074-.115.192-.166.355-.052.163-.085.311-.1.444l-.275,2.02c.212-.044.321-.066.326-.066.207-.069.395-.189.563-.361.099-.098.165-.172.2-.221.074-.108.151-.258.23-.45.025-.044.052-.148.081-.31.03-.162.044-.32.044-.472,0-.128-.004-.22-.011-.277-.007-.057-.026-.137-.055-.24Z"/>
  </g>
</svg>