<?xml version="1.0" encoding="UTF-8"?>
<svg id="icon" xmlns="http://www.w3.org/2000/svg" version="1.1" viewBox="0 0 32 32" width="15.999999" height="15.999999">
  <!-- Generator: Adobe Illustrator 29.6.0, SVG Export Plug-In . SVG Version: 2.1.1 Build 207)  -->
  <defs>
    <style>
      .st0 {
        fill: none;
      }

      .st1 {
        fill: #aaa;
      }
    </style>
  </defs>
  <rect id="_Transparent_Rectangle" class="st0" y="0" width="15.999999" height="15.999999"/>
  <g>
    <path class="st1" d="M21.664,9.296c-.548-.003-1.08.102-1.592.316-.51.215-1.001.544-1.471.989-.429.4-.721.813-.878,1.239-.154.428-.168.846-.042,1.253.077.249.226.457.447.626.22.168.456.249.708.242.837-.022,1.643-.512,2.433-1.463.81-.937,1.226-1.961,1.237-3.078-.149-.041-.292-.071-.429-.092-.137-.02-.275-.031-.414-.032Z"/>
    <path class="st1" d="M16.348,12.51c.167-.191.412-.477.738-.856,1.617-1.788,3.122-2.658,4.456-2.649.103,0,.218.01.348.027.129.018.332.05.608.099l-.068-.259c-.113-.432-.351-.766-.716-1.003-.367-.238-.833-.362-1.398-.371-.804-.013-1.666.265-2.577.841-.899.584-1.79,1.455-2.662,2.62-.485.65-.877,1.326-1.179,2.027-.294.706-.51,1.475-.647,2.308.481-.282.98-.66,1.499-1.131.524-.467,1.056-1.019,1.598-1.653Z"/>
    <path class="st1" d="M31.987,16c0-.756.067-1.226-.3-1.871h0s-6.225-10.782-6.225-10.782h0c-.375-.641-.816-.817-1.471-1.195h0c-.655-.378-1.028-.671-1.771-.676h-12.45,0c-.742.005-1.115.298-1.771.676h0c-.655.378-1.095.555-1.471,1.195h0S.305,14.129.305,14.129h0C-.063,14.774.005,15.244.005,16h0c0,.756-.067,1.226.3,1.871h0l6.225,10.782h0c.375.641.816.817,1.471,1.195h0c.655.378,1.028.671,1.771.676h0,12.45c.742-.005,1.115-.298,1.771-.676h0c.655-.378,1.095-.555,1.471-1.195h0s6.225-10.782,6.225-10.782h0c.367-.645.3-1.115.3-1.871h0ZM25.753,17.587c-.01.087-.029.216-.058.389-.077.452-.233.897-.469,1.334-.236.438-.508.808-.815,1.111-.308.303-.698.579-1.169.829-.616.327-1.174.491-1.674.491l-.548,3.054h-.905s.545-3.04.545-3.04c-.779-.154-1.332-.332-1.659-.534-.439-.268-.764-.633-.976-1.093-.101.27-.202.499-.302.687-.396.73-.956,1.329-1.68,1.793-.717.47-1.524.748-2.427.831-1.15.106-2.197-.121-3.148-.687-.96-.571-1.645-1.366-2.049-2.38-.333-.834-.343-1.55-.027-2.143.322-.59.885-.902,1.684-.939.589-.027,1.148.122,1.673.448.522.323.876.741,1.062,1.253.22.607.181,1.155-.112,1.647-.29.495-.735.766-1.339.812-.124.009-.255.006-.395-.009-.14-.016-.285-.045-.435-.087.652-.222,1.125-.578,1.423-1.067.302-.486.363-.978.179-1.478-.141-.384-.385-.681-.734-.893-.35-.212-.748-.308-1.193-.286-.668.033-1.148.317-1.435.856-.282.542-.28,1.171.003,1.885.339.855.931,1.541,1.772,2.053.833.508,1.719.718,2.664.634,1.129-.101,2.06-.656,2.809-1.657.617-.793,1.192-1.945,1.739-3.446.051-.381.156-.744.313-1.088-.533.504-1.051.9-1.558,1.185-.53.302-1.023.467-1.483.493-.567.032-1.088-.126-1.563-.476-.478-.352-.828-.835-1.048-1.447l-.078-.216c-.003-.007-.008-.021-.016-.043-.012-.072-.027-.134-.045-.184-.19.051-.371.092-.544.12-.173.029-.349.047-.526.054-.82.033-1.593-.214-2.324-.744-.737-.534-1.276-1.238-1.614-2.109-.226-.583-.314-1.168-.261-1.753.056-.583.249-1.117.58-1.602.361-.51.825-.908,1.393-1.193.571-.284,1.167-.422,1.785-.416.169.002.455.033.857.093.022,0,.041.004.059.011-1.484.402-2.582,1.099-3.286,2.095-.685,1.009-.824,2.029-.432,3.051.263.684.68,1.233,1.25,1.645.566.41,1.174.602,1.825.577.178-.007.36-.028.545-.065.185-.036.389-.091.613-.165-.106-.724-.058-1.471.147-2.239.212-.763.581-1.535,1.112-2.315.926-1.278,2.007-2.274,3.233-2.993,1.246-.706,2.417-1.045,3.5-1.025.731.013,1.323.165,1.773.454.448.288.743.706.884,1.256.005.02.013.066.025.139.011.073.024.136.038.189.403.121.729.306.977.553.247.247.416.554.507.923.114.46.086.911-.082,1.352-.165.443-.456.859-.871,1.248-.209.199-.419.367-.632.503-.213.137-.35.206-.412.208-.028,0-.059-.01-.093-.033-.034-.023-.054-.044-.06-.064-.02-.074.072-.187.277-.341.139-.111.248-.204.326-.28.483-.419.823-.845,1.017-1.28.197-.433.243-.863.135-1.292-.07-.277-.184-.501-.343-.673-.16-.172-.4-.331-.722-.477-.068,1.189-.537,2.259-1.397,3.217-.839.973-1.677,1.477-2.532,1.501-.41.012-.766-.084-1.068-.288-.303-.205-.512-.491-.627-.858-.048-.152-.077-.314-.087-.484-.01-.17,0-.374.035-.61-.641.818-1.296,1.538-1.969,2.16-.663.628-1.363,1.169-2.104,1.622-.027.219-.033.42-.016.605.017.185.056.363.117.535.142.401.362.709.66.923.297.214.639.309,1.028.288.422-.023.898-.212,1.433-.567.539-.351,1.254-.943,2.155-1.767l.049-.044c.577-.545.976-.831,1.194-.87.049-.03.099-.06.15-.091.24-.135.488-.233.743-.296.255-.062.497-.094.728-.094l-.043.26c-.173.087-.341.173-.505.26-.596.384-1.034.966-1.312,1.745-.116.346-.204.709-.267,1.089-.063.38-.094.723-.094,1.031,0,.5.07.918.209,1.254.139.337.325.596.555.779.163.125.428.226.793.303l.664-4.599c.048-.337.168-.679.361-1.025.163-.298.351-.537.563-.715.212-.178.426-.303.642-.375.216-.072.43-.108.642-.108.24,0,.457.038.649.115.192.077.392.216.599.418.207.202.375.423.505.664.13.24.226.502.289.786.063.284.094.57.094.858,0,.164-.005.289-.014.375Z"/>
    <path class="st1" d="M24.34,16.545c-.058-.202-.162-.406-.311-.613-.149-.207-.287-.339-.412-.397-.125-.058-.232-.087-.318-.087-.125,0-.236.024-.333.072-.096.048-.183.116-.26.202-.116.145-.224.376-.325.694-.101.318-.166.607-.195.867l-.538,3.95c.415-.087.627-.13.637-.13.405-.134.772-.37,1.101-.707.193-.192.323-.337.391-.433.145-.212.294-.505.449-.88.048-.087.101-.288.159-.606.058-.317.087-.625.087-.923,0-.25-.007-.431-.022-.541-.014-.111-.051-.267-.108-.469Z"/>
  </g>
</svg>