<?xml version="1.0" encoding="UTF-8"?>
<svg id="icon" xmlns="http://www.w3.org/2000/svg" version="1.1" viewBox="0 0 32 32">
  <!-- Generator: Adobe Illustrator 29.6.0, SVG Export Plug-In . SVG Version: 2.1.1 Build 207)  -->
  <defs>
    <style>
      .st0 {
        fill: none;
      }

      .st1 {
        fill: #555;
      }
    </style>
  </defs>
  <path class="st1" d="M16,18H6c-1.105,0-2-.895-2-2V6c0-1.105.895-2,2-2h10c1.105,0,2,.895,2,2v10c0,1.105-.895,2-2,2ZM6,6v10h10V6H6Z"/>
  <path class="st1" d="M26,12v4h-4v-4h4M26,10h-4c-1.105,0-2,.895-2,2v4c0,1.105.895,2,2,2h4c1.105,0,2-.895,2-2v-4c0-1.105-.895-2-2-2Z"/>
  <path class="st1" d="M26,22v4h-4v-4h4M26,20h-4c-1.105,0-2,.895-2,2v4c0,1.105.895,2,2,2h4c1.105,0,2-.895,2-2v-4c0-1.105-.895-2-2-2Z"/>
  <path class="st1" d="M16,22v4h-4v-4h4M16,20h-4c-1.105,0-2,.895-2,2v4c0,1.105.895,2,2,2h4c1.105,0,2-.895,2-2v-4c0-1.105-.895-2-2-2Z"/>
  <g id="_Transparent_Rectangle_">
    <rect class="st0" y="0" width="15.999999" height="15.999999"/>
  </g>
</svg>