<?xml version="1.0" encoding="UTF-8"?>
<svg id="Layer_1" xmlns="http://www.w3.org/2000/svg" version="1.1" viewBox="0 0 32 32">
  <!-- Generator: Adobe Illustrator 29.6.0, SVG Export Plug-In . SVG Version: 2.1.1 Build 207)  -->
  <defs>
    <style>
      .st0 {
        fill: none;
      }

      .st1 {
        fill: #555;
      }
    </style>
  </defs>
  <path class="st1" d="M20,16c0,2.761,2.239,5,5,5s5-2.239,5-5c0-.155-.036-.308-.105-.447l-3.999-7.997c-.014-.028-.029-.055-.045-.082-.182-.295-.504-.475-.851-.475h-6.178c-.306-.847-.974-1.513-1.822-1.816V2h-2v3.184c-.848.303-1.516.969-1.822,1.816h-6.178c-.379,0-.725.214-.894.553L2.106,15.553c-.069.139-.106.292-.106.447,0,2.761,2.239,5,5,5s5-2.239,5-5c0-.155-.036-.308-.106-.447l-3.276-6.553h4.56c.306.847.974,1.513,1.822,1.815v17.185H6v2h20v-2h-9V10.816c.848-.303,1.516-.969,1.822-1.816h4.56l-3.276,6.553c-.069.139-.106.292-.105.447ZM7,19c-1.267-.004-2.394-.805-2.815-2h5.63c-.421,1.195-1.548,1.996-2.815,2ZM9.382,15h-4.764l2.382-4.764,2.382,4.764ZM16,9c-.552,0-1-.448-1-1s.448-1,1-1,1,.448,1,1c0,.552-.448,1-1,1ZM25,19c-1.267-.004-2.394-.805-2.815-2h5.63c-.421,1.195-1.548,1.996-2.815,2ZM25,10.236l2.382,4.764h-4.764l2.382-4.764Z"/>
  <rect id="_Transparent_Rectangle_" class="st0" y="0" width="15.999999" height="15.999999"/>
</svg>