<?xml version="1.0" encoding="UTF-8"?>
<svg id="Layer_1" xmlns="http://www.w3.org/2000/svg" version="1.1" viewBox="0 0 32 32">
  <!-- Generator: Adobe Illustrator 29.6.0, SVG Export Plug-In . SVG Version: 2.1.1 Build 207)  -->
  <defs>
    <style>
      .st0 {
        fill: none;
      }

      .st1 {
        fill: #aaa;
      }
    </style>
  </defs>
  <circle class="st1" cx="11" cy="15.5" r="1.5"/>
  <path class="st1" d="M12,12h-2v-4h2c1.105,0,2-.895,2-2s-.895-2-2-2h-2c-1.104.001-1.999.896-2,2v.5h-2v-.5c.002-2.208,1.792-3.998,4-4h2c2.209,0,4,1.791,4,4s-1.791,4-4,4v2Z"/>
  <path class="st1" d="M22.448,21.034c3.885-4.65,3.265-11.568-1.384-15.453-.362-.303-.744-.582-1.142-.836l-.999,1.73c4.158,2.72,5.324,8.296,2.603,12.454s-8.296,5.324-12.454,2.603c-2.541-1.663-4.072-4.495-4.071-7.532h-2c-.005,6.07,4.913,10.995,10.983,11,2.577.002,5.072-.901,7.051-2.552l7.552,7.552,1.414-1.414-7.552-7.552Z"/>
  <rect id="_Transparent_Rectangle_" class="st0" y="0" width="15.999999" height="15.999999"/>
</svg>