<?xml version="1.0" encoding="UTF-8"?>
<svg id="icon" xmlns="http://www.w3.org/2000/svg" version="1.1" viewBox="0 0 32 32">
  <!-- Generator: Adobe Illustrator 29.6.0, SVG Export Plug-In . SVG Version: 2.1.1 Build 207)  -->
  <defs>
    <style>
      .st0 {
        fill: none;
      }

      .st1 {
        fill: #aaa;
      }
    </style>
  </defs>
  <rect class="st1" x="20" y="18" width="6" height="2"/>
  <rect class="st1" x="24" y="26" width="6" height="2"/>
  <rect class="st1" x="22" y="22" width="6" height="2"/>
  <path class="st1" d="M17.003,20c-.014-1.716-.927-3.3-2.404-4.173l7.402-12.827-1.731-1-7.576,13.126c-1.89-.422-3.864.144-5.243,1.503-3.744,3.611-3.454,12.053-3.44,12.411.021.537.463.96,1,.96h14.991c.552,0,1-.448,1-1,0-.315-.148-.611-.4-.8-3.54-2.656-3.598-8.146-3.598-8.2ZM11.93,16.997c1.663.018,3.017,1.341,3.074,3.003,0,.038.002.208.017.469l-5.899-2.624c.785-.647,1.797-.953,2.809-.848ZM15.449,28c-.799-.814-1.308-1.868-1.449-3h-2c.072,1.064.404,2.095.968,3h-2.223c-.411-1.298-.662-2.641-.745-4h-2c.065,1.355.288,2.697.665,4h-2.665c.031-1.836.29-5.892,1.803-8.553l7.533,3.35c.362,1.879,1.134,3.656,2.261,5.203h-2.147Z"/>
  <rect id="_Transparent_Rectangle_" class="st0" y="0" width="32" height="32"/>
</svg>