<?xml version="1.0" encoding="UTF-8"?>
<svg id="icon" xmlns="http://www.w3.org/2000/svg" version="1.1" viewBox="0 0 32 32" width="15.999999" height="15.999999">
  <!-- Generator: Adobe Illustrator 29.6.0, SVG Export Plug-In . SVG Version: 2.1.1 Build 207)  -->
  <defs>
    <style>
      .st0 {
        fill: none;
      }

      .st1 {
        fill: #aaa;
      }
    </style>
  </defs>
  <path class="st1" d="M27,22.141v-4.141c0-1.105-.895-2-2-2h-8v-4h2c1.104-.001,1.999-.896,2-2V4c-.001-1.104-.896-1.999-2-2h-6c-1.104.001-1.999.896-2,2v6c.001,1.104.896,1.999,2,2h2v4H7c-1.105,0-2,.895-2,2v4.142c-2.139.552-3.425,2.734-2.873,4.873.552,2.139,2.734,3.425,4.873,2.873,2.139-.552,3.425-2.734,2.873-4.873-.364-1.409-1.464-2.509-2.873-2.873v-4.142h8v4.142c-2.139.552-3.425,2.734-2.873,4.873.552,2.139,2.734,3.425,4.873,2.873,2.139-.552,3.425-2.734,2.873-4.873-.364-1.409-1.464-2.509-2.873-2.873v-4.142h8v4.141c-2.139.552-3.425,2.734-2.873,4.873.552,2.139,2.734,3.425,4.873,2.873,2.139-.552,3.425-2.734,2.873-4.873-.364-1.409-1.464-2.509-2.873-2.873ZM13,4h6v6s-6,0-6,0V4ZM8,26c0,1.105-.895,2-2,2s-2-.895-2-2,.895-2,2-2c1.104.001,1.999.896,2,2ZM18,26c0,1.105-.895,2-2,2s-2-.895-2-2,.895-2,2-2c1.104.001,1.999.896,2,2ZM26,28c-1.105,0-2-.895-2-2s.895-2,2-2,2,.895,2,2c-.001,1.104-.896,1.999-2,2Z"/>
  <rect id="_Transparent_Rectangle_" class="st0" y="0" width="15.999999" height="15.999999"/>
</svg>