<?xml version="1.0" encoding="UTF-8"?>
<svg id="icon" xmlns="http://www.w3.org/2000/svg" version="1.1" viewBox="0 0 32 32" width="15.999999" height="15.999999">
  <!-- Generator: Adobe Illustrator 29.6.0, SVG Export Plug-In . SVG Version: 2.1.1 Build 207)  -->
  <defs>
    <style>
      .st0 {
        fill: none;
      }

      .st1 {
        fill: #aaa;
      }
    </style>
  </defs>
  <path class="st1" d="M24,14h-12v-6c0-2.209,1.791-4,4-4s4,1.791,4,4h2c0-3.314-2.686-6-6-6s-6,2.686-6,6v6h-2c-1.105,0-2,.895-2,2v12c0,1.105.895,2,2,2h16c1.105,0,2-.895,2-2v-12c0-1.105-.895-2-2-2ZM24,28H8v-12h16v12Z"/>
  <rect id="_Transparent_Rectangle_" class="st0" y="0" width="15.999999" height="15.999999"/>
</svg>