<?xml version="1.0" encoding="UTF-8"?>
<svg id="icon" xmlns="http://www.w3.org/2000/svg" version="1.1" viewBox="0 0 32 32">
  <!-- Generator: Adobe Illustrator 29.6.0, SVG Export Plug-In . SVG Version: 2.1.1 Build 207)  -->
  <defs>
    <style>
      .st0 {
        fill: none;
      }

      .st1 {
        fill: #aaa;
      }
    </style>
  </defs>
  <path class="st1" d="M28,2h-5v2h5v24h-5v2h5c1.103-.003,1.997-.897,2-2V4c-.003-1.103-.897-1.997-2-2Z"/>
  <path class="st1" d="M14,17h-6c-.521-.031-.969.365-1,.886-.002.038-.002.076,0,.114v6c-.031.521.365.969.886,1,.038.002.076.002.114,0h6c.521.031.969-.365,1-.886.002-.038.002-.076,0-.114v-6c.031-.521-.365-.969-.886-1-.038-.002-.076-.002-.114,0ZM13,23h-4v-4h4v4Z"/>
  <path class="st1" d="M25,24v-6c.031-.521-.365-.969-.886-1-.038-.002-.076-.002-.114,0h-6c-.521-.031-.969.365-1,.886-.002.038-.002.076,0,.114v6c-.031.521.365.969.886,1,.038.002.076.002.114,0h6c.552-.001.999-.448,1-1ZM23,23h-4v-4h4v4Z"/>
  <path class="st1" d="M14,7h-6c-.521-.031-.969.365-1,.886-.002.038-.002.076,0,.114v6c-.031.521.365.969.886,1,.038.002.076.002.114,0h6c.521.031.969-.365,1-.886.002-.038.002-.076,0-.114v-6c.031-.521-.365-.969-.886-1-.038-.002-.076-.002-.114,0ZM13,13h-4v-4h4v4Z"/>
  <path class="st1" d="M18,15h6c.521.031.969-.365,1-.886.002-.038.002-.076,0-.114v-6c.031-.521-.365-.969-.886-1-.038-.002-.076-.002-.114,0h-6c-.521-.031-.969.365-1,.886-.002.038-.002.076,0,.114v6c.001.552.448.999,1,1ZM19,9h4v4h-4v-4Z"/>
  <path class="st1" d="M4,4h5V2h-5c-1.103.003-1.997.897-2,2v24c.003,1.103.897,1.997,2,2h5v-2h-5V4Z"/>
  <rect id="_Transparent_Rectangle_" class="st0" y="0" width="32" height="32"/>
</svg>