<?xml version="1.0" encoding="UTF-8"?>
<svg id="icon" xmlns="http://www.w3.org/2000/svg" version="1.1" viewBox="0 0 32 32" width="15.999999" height="15.999999">
  <!-- Generator: Adobe Illustrator 29.6.0, SVG Export Plug-In . SVG Version: 2.1.1 Build 207)  -->
  <defs>
    <style>
      .st0 {
        fill: none;
      }

      .st1 {
        fill: #aaa;
      }
    </style>
  </defs>
  <path class="st1" d="M20,6c-1.377,0-2.739.287-4,.842-5.058-2.215-10.955.089-13.17,5.148-2.215,5.058.089,10.955,5.148,13.17,2.557,1.12,5.466,1.12,8.023,0,5.06,2.21,10.954-.1,13.164-5.16,2.21-5.06-.1-10.954-5.16-13.164-1.263-.552-2.626-.836-4.004-.836ZM12,24c-4.418.015-8.012-3.554-8.028-7.972-.015-4.418,3.554-8.012,7.972-8.028.61-.002,1.218.066,1.812.202-4.307,3.433-5.016,9.708-1.583,14.015.467.585.998,1.117,1.583,1.583-.577.131-1.166.198-1.757.2ZM20,24c-.591-.001-1.181-.069-1.757-.2,4.307-3.433,5.016-9.708,1.583-14.015-.467-.585-.998-1.117-1.583-1.583,4.309-.971,8.589,1.734,9.56,6.043.971,4.309-1.734,8.589-6.043,9.56-.578.13-1.168.196-1.76.196Z"/>
  <rect id="_Transparent_Rectangle_" class="st0" y="0" width="15.999999" height="15.999999"/>
</svg>