<?xml version="1.0" encoding="UTF-8"?>
<svg id="icon" xmlns="http://www.w3.org/2000/svg" version="1.1" viewBox="0 0 32 32" width="15.999999" height="15.999999">
  <!-- Generator: Adobe Illustrator 29.6.0, SVG Export Plug-In . SVG Version: 2.1.1 Build 207)  -->
  <defs>
    <style>
      .st0 {
        fill: none;
      }

      .st1 {
        fill: #aaa;
      }
    </style>
  </defs>
  <path id="inner-path" class="st0" d="M16,9.075c3.825,2.206,5.137,7.094,2.931,10.919-.702,1.218-1.713,2.229-2.931,2.931-3.825-2.206-5.137-7.094-2.931-10.919.702-1.218,1.713-2.229,2.931-2.931M16,6.838c-5.06,2.207-7.373,8.097-5.167,13.157,1.008,2.313,2.854,4.158,5.167,5.167,5.06-2.207,7.373-8.097,5.167-13.157-1.008-2.313-2.854-4.158-5.167-5.167Z"/>
  <path class="st1" d="M10,16c0-3.975,2.356-7.573,6-9.162-5.06-2.213-10.956.095-13.169,5.155-2.213,5.06.095,10.956,5.155,13.169,2.555,1.117,5.459,1.117,8.014,0-3.644-1.59-5.999-5.187-6-9.162Z"/>
  <path class="st1" d="M16,9.075c-3.825,2.206-5.137,7.094-2.931,10.919.702,1.218,1.713,2.229,2.931,2.931,3.825-2.206,5.137-7.094,2.931-10.919-.702-1.218-1.713-2.229-2.931-2.931Z"/>
  <path class="st1" d="M20,6c-1.377,0-2.739.285-4,.838,5.06,2.207,7.373,8.097,5.167,13.157-1.008,2.313-2.854,4.158-5.167,5.167,5.061,2.21,10.955-.101,13.165-5.162,2.21-5.061-.101-10.955-5.162-13.165-1.262-.551-2.625-.836-4.002-.836Z"/>
  <rect id="_Transparent_Rectangle_" class="st0" y="0" width="15.999999" height="15.999999"/>
</svg>