<?xml version="1.0" encoding="UTF-8"?>
<svg id="svg19713" xmlns="http://www.w3.org/2000/svg" xmlns:svg="http://www.w3.org/2000/svg" version="1.1" viewBox="0 0 16 16" width="15.999999" height="15.999999">
  <!-- Generator: Adobe Illustrator 29.6.0, SVG Export Plug-In . SVG Version: 2.1.1 Build 207)  -->
  <defs>
    <style>
      .st0 {
        fill: none;
      }

      .st1 {
        fill: #aaa;
      }
    </style>
  </defs>
  <g id="g23717">
    <g id="g23715">
      <path id="path23711" class="st1" d="M4,2c-1.099,0-2,.902-2,2.001s.901,2,2,2c.369,0,.716-.102,1.014-.278l5.266,5.263c-.177.298-.28.645-.28,1.015,0,1.099.902,2.001,2.001,2.001s2-.902,2-2.001-.901-2.001-2-2.001c-.369,0-.716.102-1.014.279l-5.264-5.265c.177-.298.278-.644.278-1.013,0-1.099-.902-2.001-2.001-2.001ZM11,2v2h-2v1h2v2h1v-2h2v-1h-2V2h-1ZM4,3c.558,0,1,.443,1,1.001s-.442,1-1,1-1-.442-1-1,.442-1.001,1-1.001ZM12,11c.558,0,1,.442,1,1s-.442,1-1,1-1-.442-1-1,.442-1,1-1Z"/>
      <rect id="rect23713" class="st0" x="0" y="0" width="16" height="16"/>
    </g>
  </g>
</svg>