<?xml version="1.0" encoding="UTF-8"?>
<svg id="svg19713" xmlns="http://www.w3.org/2000/svg" xmlns:svg="http://www.w3.org/2000/svg" version="1.1" viewBox="0 0 16 16" width="15.999999" height="15.999999">
  <!-- Generator: Adobe Illustrator 29.6.0, SVG Export Plug-In . SVG Version: 2.1.1 Build 207)  -->
  <defs>
    <style>
      .st0 {
        fill: none;
      }

      .st1 {
        fill: #aaa;
      }
    </style>
  </defs>
  <g id="g23703">
    <g id="g23701">
      <path id="path23697" class="st1" d="M12,0v2h-2v1h2v2h1v-2h2v-1h-2V0h-1ZM8,1c-3.866,0-7,3.134-7,7s3.134,7,7,7,7-3.134,7-7c-.004-.335-.031-.669-.08-1h-1.01c.552,3.267-1.649,6.364-4.916,6.916-3.267.552-6.364-1.649-6.916-4.916-.552-3.267,1.649-6.364,4.916-6.916.332-.056.669-.084,1.006-.084v-1Z"/>
      <rect id="rect23699" class="st0" x="0" y="0" width="16" height="16"/>
    </g>
  </g>
</svg>