<?xml version="1.0" encoding="UTF-8"?>
<svg id="icon" xmlns="http://www.w3.org/2000/svg" version="1.1" viewBox="0 0 32 32">
  <!-- Generator: Adobe Illustrator 29.6.0, SVG Export Plug-In . SVG Version: 2.1.1 Build 207)  -->
  <defs>
    <style>
      .st0 {
        fill: none;
      }

      .st1 {
        fill: #555;
      }
    </style>
  </defs>
  <path class="st1" d="M13,17h-6c-1.105,0-2,.895-2,2v6c0,1.105.895,2,2,2h6c1.105,0,2-.895,2-2v-6c0-1.105-.895-2-2-2ZM7,25v-6h6v6h-6Z"/>
  <path class="st1" d="M19,21v2h6c1.105,0,2-.895,2-2V7c0-1.105-.895-2-2-2h-14c-1.105,0-2,.895-2,2v6h2v-6h14v14"/>
  <rect id="_Transparent_Rectangle_" class="st0" y="0" width="15.999999" height="15.999999"/>
</svg>