<?xml version="1.0" encoding="UTF-8"?>
<svg id="icon" xmlns="http://www.w3.org/2000/svg" version="1.1" viewBox="0 0 32 32" width="15.999999" height="15.999999">
  <!-- Generator: Adobe Illustrator 29.6.0, SVG Export Plug-In . SVG Version: 2.1.1 Build 207)  -->
  <defs>
    <style>
      .st0 {
        fill: none;
      }

      .st1 {
        fill: #aaa;
      }
    </style>
  </defs>
  <path class="st1" d="M27,3H5c-1.105,0-2,.895-2,2v22c0,1.105.895,2,2,2h22c1.105,0,2-.895,2-2V5c0-1.105-.895-2-2-2ZM27,5v4H5v-4h22ZM17,11h10v7h-10v-7ZM15,18H5v-7h10v7ZM5,20h10v7H5v-7ZM17,27v-7h10v7h-10Z"/>
  <rect id="_Transparent_Rectangle_" class="st0" y="0" width="15.999999" height="15.999999"/>
</svg>