<?xml version="1.0" encoding="UTF-8"?>
<svg id="icon" xmlns="http://www.w3.org/2000/svg" version="1.1" viewBox="0 0 32 32" width="16" height="16">
  <!-- Generator: Adobe Illustrator 29.6.0, SVG Export Plug-In . SVG Version: 2.1.1 Build 207)  -->
  <defs>
    <style>
      .st0 {
        fill: none;
      }

      .st1 {
        fill: #aaa;
      }
    </style>
  </defs>
  <path class="st1" d="M31.413,16.342l-7.93-7.92c-.781-.781-2.047-.782-2.828-.002,0,0-.001.001-.002.002l-14,14c-.781.781-.782,2.047-.002,2.828,0,0,.001.001.002.002l4.51,4.58h9.59l10.66-10.66c.781-.781.782-2.047.002-2.828,0,0-.001-.001-.002-.002ZM19.923,27.832h-7.89l-4-4,6.31-6.31,7.93,7.92-2.35,2.39ZM23.683,24.072l-7.92-7.93,6.27-6.31,8,7.93-6.35,6.31Z"/>
  <rect id="_Transparent_Rectangle_" class="st0" y="0" width="32" height="32"/>
  <rect id="_Transparent_Rectangle_1" data-name="_Transparent_Rectangle_" class="st0" y="0" width="32" height="32"/>
  <path class="st1" d="M10,6h-6c-1.104,0-1.999.896-2,2v20c0,1.104.896,1.999,2,2h0v-2h0V8h6v7.348l2-2v-5.348c0-1.104-.896-1.999-2-2Z"/>
</svg>