<?xml version="1.0" encoding="UTF-8"?>
<svg id="icon" xmlns="http://www.w3.org/2000/svg" version="1.1" viewBox="0 0 16 16" width="16" height="16">
  <!-- Generator: Adobe Illustrator 29.6.0, SVG Export Plug-In . SVG Version: 2.1.1 Build 207)  -->
  <defs>
    <style>
      .st0 {
        fill: none;
      }

      .st1 {
        fill: #aaa;
      }
    </style>
  </defs>
  <path class="st1" d="M6,15h-3c-.552,0-.999-.448-1-1V4c0-.552.448-.999,1-1h3c.552,0,.999.448,1,1v10c0,.552-.448,1-1,1ZM3,4v10h3V4h-3Z"/>
  <path class="st1" d="M13,15h-3c-.552,0-.999-.448-1-1V4c0-.552.448-.999,1-1h3c.552,0,.999.448,1,1v10c0,.552-.448,1-1,1Z"/>
  <rect id="_Transparent_Rectangle_" class="st0" width="16" height="16"/>
</svg>