<?xml version="1.0" encoding="UTF-8"?>
<svg id="icon" xmlns="http://www.w3.org/2000/svg" version="1.1" viewBox="0 0 32 32">
  <!-- Generator: Adobe Illustrator 29.6.0, SVG Export Plug-In . SVG Version: 2.1.1 Build 207)  -->
  <defs>
    <style>
      .st0 {
        fill: none;
      }

      .st1 {
        fill: #aaa;
      }
    </style>
  </defs>
  <path class="st1" d="M24,30v-4.1c2.3-.5,4-2.5,4-4.9s-1.7-4.4-4-4.9V2h-2v14.1c-2.3.5-4,2.5-4,4.9s1.7,4.4,4,4.9v4.1h2ZM20,21c0-1.7,1.3-3,3-3s3,1.3,3,3-1.3,3-3,3-3-1.3-3-3Z"/>
  <path class="st1" d="M8,2v4.1c-2.3.5-4,2.5-4,4.9s1.7,4.4,4,4.9v14.1h2v-14.1c2.3-.5,4-2.5,4-4.9s-1.7-4.4-4-4.9V2h-2ZM12,11c0,1.7-1.3,3-3,3s-3-1.3-3-3,1.3-3,3-3,3,1.3,3,3Z"/>
  <g id="_Transparent_Rectangle_">
    <rect class="st0" y="0" width="32" height="32"/>
  </g>
</svg>