<?xml version="1.0" encoding="UTF-8"?>
<svg id="icon" xmlns="http://www.w3.org/2000/svg" version="1.1" viewBox="0 0 32 32">
  <!-- Generator: Adobe Illustrator 29.6.0, SVG Export Plug-In . SVG Version: 2.1.1 Build 207)  -->
  <defs>
    <style>
      .st0 {
        fill: none;
      }

      .st1 {
        fill: #555;
      }
    </style>
  </defs>
  <path class="st1" d="M24,28c-3.314,0-6-2.686-6-6s2.686-6,6-6,6,2.686,6,6c-.004,3.312-2.688,5.996-6,6ZM24,18c-2.209,0-4,1.791-4,4s1.791,4,4,4,4-1.791,4-4c-.002-2.208-1.792-3.998-4-4Z"/>
  <path class="st1" d="M8,28c-3.314,0-6-2.686-6-6s2.686-6,6-6,6,2.686,6,6c-.004,3.312-2.688,5.996-6,6ZM8,18c-2.209,0-4,1.791-4,4s1.791,4,4,4,4-1.791,4-4c-.002-2.208-1.792-3.998-4-4Z"/>
  <path class="st1" d="M16,14c-3.314,0-6-2.686-6-6s2.686-6,6-6,6,2.686,6,6c-.004,3.312-2.688,5.996-6,6ZM16,4c-2.209,0-4,1.791-4,4s1.791,4,4,4,4-1.791,4-4c-.002-2.208-1.792-3.998-4-4Z"/>
  <rect id="_Transparent_Rectangle_" class="st0" y="0" width="32" height="32"/>
</svg>