<?xml version="1.0" encoding="UTF-8"?>
<svg id="icon" xmlns="http://www.w3.org/2000/svg" version="1.1" viewBox="0 0 32 32">
  <!-- Generator: Adobe Illustrator 29.6.0, SVG Export Plug-In . SVG Version: 2.1.1 Build 207)  -->
  <defs>
    <style>
      .st0 {
        fill: none;
      }

      .st1 {
        fill: #aaa;
      }
    </style>
  </defs>
  <path class="st1" d="M20,21h-8c-1.105,0-2-.895-2-2v-2c0-1.105.895-2,2-2h8c1.105,0,2,.895,2,2v2c0,1.105-.895,2-2,2ZM12,17v2h8v-2h-8Z"/>
  <path class="st1" d="M28,4H4c-1.105,0-2,.895-2,2v4c0,1.105.895,2,2,2v16c0,1.105.895,2,2,2h20c1.105,0,2-.895,2-2V12c1.105,0,2-.895,2-2v-4c0-1.105-.895-2-2-2ZM26,28H6V12h20v16ZM28,10H4v-4h24v4Z"/>
  <rect id="_Transparent_Rectangle_" class="st0" y="0" width="15.999999" height="15.999999"/>
</svg>