<?xml version="1.0" encoding="UTF-8"?>
<svg id="Layer_1" xmlns="http://www.w3.org/2000/svg" version="1.1" viewBox="0 0 32 32">
  <!-- Generator: Adobe Illustrator 29.6.0, SVG Export Plug-In . SVG Version: 2.1.1 Build 207)  -->
  <defs>
    <style>
      .st0 {
        fill: #555;
      }
    </style>
  </defs>
  <path class="st0" d="M25,10v4c0,.552-.448,1-1,1s-1-.448-1-1v-3h-3c-.552,0-1-.448-1-1s.448-1,1-1h4c.552,0,1,.448,1,1ZM12,21h-3v-3c0-.552-.448-1-1-1s-1,.448-1,1v4c0,.552.448,1,1,1h4c.552,0,1-.448,1-1s-.448-1-1-1ZM29,7v18c0,1.105-.895,2-2,2H5c-1.105,0-2-.895-2-2V7c0-1.105.895-2,2-2h22c1.105,0,2,.895,2,2ZM27,25V7H5v18h22Z"/>
</svg>