<?xml version="1.0" encoding="UTF-8"?>
<svg id="icon" xmlns="http://www.w3.org/2000/svg" version="1.1" viewBox="0 0 32 32" width="15.999999" height="15.999999">
  <!-- Generator: Adobe Illustrator 29.6.0, SVG Export Plug-In . SVG Version: 2.1.1 Build 207)  -->
  <defs>
    <style>
      .st0 {
        fill: none;
      }

      .st1 {
        fill: #555;
      }
    </style>
  </defs>
  <path class="st1" d="M30,24v-2h-2.101c-.129-.626-.378-1.221-.732-1.753l1.49-1.49-1.414-1.414-1.49,1.49c-.532-.354-1.127-.603-1.753-.732v-2.101h-2v2.101c-.626.129-1.221.378-1.753.732l-1.49-1.49-1.414,1.414,1.49,1.49c-.354.532-.603,1.127-.732,1.753h-2.101v2h2.101c.129.626.378,1.221.732,1.753l-1.49,1.49,1.414,1.414,1.49-1.49c.532.354,1.127.603,1.753.732v2.101h2v-2.101c.626-.129,1.221-.378,1.753-.732l1.49,1.49,1.414-1.414-1.49-1.49c.354-.532.603-1.127.732-1.753h2.101ZM23,26c-1.657,0-3-1.343-3-3s1.343-3,3-3,3,1.343,3,3c-.002,1.656-1.344,2.998-3,3Z"/>
  <path class="st1" d="M23.499,9.085l-6.792-6.792c-.188-.188-.442-.293-.707-.293H6c-1.1,0-2,.9-2,2v24c0,1.1.9,2,2,2h8v-2H6V4h8v6c0,1.102.897,2,2,2h6.292c.693,0,1.312-.414,1.577-1.054.266-.641.12-1.371-.37-1.861ZM16,10v-5.586l5.585,5.586h-5.585Z"/>
  <rect id="_Transparent_Rectangle_" class="st0" y="0" width="15.999999" height="15.999999"/>
</svg>