<?xml version="1.0" encoding="UTF-8"?>
<svg id="svg19713" xmlns="http://www.w3.org/2000/svg" xmlns:svg="http://www.w3.org/2000/svg" version="1.1" viewBox="0 0 16 16" width="15.999999" height="15.999999">
  <!-- Generator: Adobe Illustrator 29.6.0, SVG Export Plug-In . SVG Version: 2.1.1 Build 207)  -->
  <defs>
    <style>
      .st0 {
        fill: none;
      }

      .st1 {
        fill: #555;
      }
    </style>
  </defs>
  <g id="layer71">
    <g id="g2018">
      <path id="path2003" class="st1" d="M6,5h-2.61c1.657-2.546,5.064-3.267,7.61-1.61,1.56,1.015,2.5,2.75,2.5,4.61h1c.004-3.59-2.903-6.503-6.493-6.507-1.935-.002-3.77.858-5.007,2.347v-1.84h-1v4h4v-1Z"/>
      <path id="path2005" class="st1" d="M10,11h2.61c-1.657,2.546-5.064,3.267-7.61,1.61-1.56-1.015-2.5-2.75-2.5-4.61h-1c-.004,3.59,2.903,6.503,6.493,6.507,1.935.002,3.77-.858,5.007-2.347v1.84h1v-4h-4v1Z"/>
      <g id="_Transparent_Rectangle_-765">
        <rect id="rect2007" class="st0" x="0" y="0" width="8" height="8"/>
      </g>
    </g>
  </g>
</svg>