<?xml version="1.0" encoding="UTF-8"?>
<svg id="icon" xmlns="http://www.w3.org/2000/svg" version="1.1" viewBox="0 0 32 32">
  <!-- Generator: Adobe Illustrator 29.6.0, SVG Export Plug-In . SVG Version: 2.1.1 Build 207)  -->
  <defs>
    <style>
      .st0 {
        fill: none;
      }

      .st1 {
        fill: #aaa;
      }
    </style>
  </defs>
  <path class="st1" d="M16,4c6.6,0,12,5.4,12,12s-5.4,12-12,12-12-5.4-12-12S9.4,4,16,4M16,2C8.3,2,2,8.3,2,16s6.3,14,14,14,14-6.3,14-14S23.7,2,16,2Z"/>
  <polygon class="st1" points="24 15 17 15 17 8 15 8 15 15 8 15 8 17 15 17 15 24 17 24 17 17 24 17 24 15"/>
  <rect id="_Transparent_Rectangle_" class="st0" y="0" width="15.999999" height="15.999999"/>
</svg>