<?xml version="1.0" encoding="UTF-8"?>
<svg id="icon" xmlns="http://www.w3.org/2000/svg" version="1.1" viewBox="0 0 32 32">
  <!-- Generator: Adobe Illustrator 29.6.0, SVG Export Plug-In . SVG Version: 2.1.1 Build 207)  -->
  <defs>
    <style>
      .st0 {
        fill: none;
      }

      .st1 {
        fill: #aaa;
      }
    </style>
  </defs>
  <path class="st1" d="M16,2C8.2,2,2,8.2,2,16s6.2,14,14,14,14-6.2,14-14S23.8,2,16,2ZM16,28c-6.6,0-12-5.4-12-12S9.4,4,16,4s12,5.4,12,12-5.4,12-12,12Z"/>
  <rect id="_Transparent_Rectangle_" class="st0" y="0" width="15.999999" height="15.999999"/>
  <polygon class="st1" points="21.4 23 16 17.6 10.6 23 9 21.4 14.4 16 9 10.6 10.6 9 16 14.4 21.4 9 23 10.6 17.6 16 23 21.4 21.4 23"/>
</svg>