<?xml version="1.0" encoding="UTF-8" standalone="no"?>
<!-- Created with Inkscape (http://www.inkscape.org/) -->

<svg
   width="16"
   height="16"
   viewBox="0 0 4.2333333 4.2333333"
   version="1.1"
   id="svg19713"
   xml:space="preserve"
   xmlns="http://www.w3.org/2000/svg"
   xmlns:svg="http://www.w3.org/2000/svg"><defs
     id="defs19710"><style
       id="style36518">.cls-1{fill:none;}</style><style
       id="style36538">.cls-1{fill:none;}</style><style
       id="style48643">
      .cls-1 {
        fill: none;
      }
    </style><style
       id="style49369">.cls-1{fill:none;}</style><style
       id="style68473">.cls-1{fill:none;}</style><style
       id="style34301">.cls-1{fill:none;}</style><style
       id="style40867">.cls-1{fill:none;}</style><style
       id="style3486">.cls-1{fill:none;}</style><style
       id="style16714">.cls-1{fill:none;}</style><style
       id="style16734">.cls-1{fill:none;}</style><style
       id="style598">.cls-1{fill:none;}</style><style
       id="style938">
      .cls-1 {
        fill: none;
      }
    </style><style
       id="style953">
      .cls-1 {
        fill: none;
      }
    </style><style
       id="style988">
      .cls-1 {
        fill: none;
      }
    </style><style
       id="style6804">.cls-1{fill:none;}</style><style
       id="style8295">.cls-1{fill:none;}</style><style
       id="style9297">.cls-1{fill:none;}</style><style
       id="style10710">
      .cls-1 {
        fill: none;
      }
    </style><style
       id="style616">.cls-1{fill:#000000;}.cls-2{fill:none;}</style><style
       id="style640">.cls-1{fill:none;}</style><style
       id="style732">.cls-1{fill:#000000;}.cls-2{fill:none;}</style><style
       id="style1166">
      .cls-1 {
        fill: none;
      }
    </style><style
       id="style1186">
      .cls-1 {
        fill: none;
      }
    </style><style
       id="style1201">
      .cls-1 {
        fill: none;
      }
    </style><style
       id="style2604">.cls-1{fill:none;}</style><style
       id="style3041">.cls-1{fill:none;}</style><style
       id="style34659">
      .cls-1 {
        fill: none;
      }
    </style><style
       id="style931">.cls-1{fill:#000000;}.cls-2{fill:none;}</style><style
       id="style1772">
      .cls-1 {
        fill: none;
      }
    </style><style
       id="style4214">.cls-1{fill:none;}</style><style
       id="style5886">.cls-1{fill:none;}</style><style
       id="style5923">
      .cls-1 {
        fill: none;
      }
    </style><style
       id="style5938">
      .cls-1 {
        fill: none;
      }
    </style><style
       id="style8494">
      .cls-1 {
        fill: none;
      }
    </style><style
       id="style8509">
      .cls-1 {
        fill: none;
      }
    </style><style
       id="style10257">
      .cls-1 {
        fill: none;
      }
    </style><style
       id="style10280">.cls-1{fill:none;}</style><style
       id="style11171">
      .cls-1 {
        fill: none;
      }
    </style><style
       id="style1997">.cls-1{fill:none;}</style><style
       id="style2928">
      .cls-1 {
        fill: none;
      }
    </style><style
       id="style2943">
      .cls-1 {
        fill: none;
      }
    </style><style
       id="style3863">.cls-1{fill:none;}</style><style
       id="style3880">.cls-1{fill:none;}</style><style
       id="style1078">
      .cls-1 {
        fill: none;
      }
    </style><style
       id="style3954">.cls-1{fill:none;}</style></defs><g
     id="layer41"
     style="display:inline"
     transform="translate(-76.200004,46.568006)"><g
       id="g1184"
       transform="matrix(0.13229167,0,0,0.13229167,76.200004,-46.568006)"
       style="stroke-width:2"><path
         id="path1172"
         style="fill:#6e6e6e;fill-opacity:1;stroke-width:2"
         d="M 15.999987,1.9984081 A 11,11 0 0 0 4.9999877,12.998408 10.8888,10.8888 0 0 0 7.2148314,19.59997 c 0,0 0.3036626,0.396025 0.3515625,0.453125 l 8.4335931,9.945312 8.4375,-9.953125 c 0.0447,-0.053 0.347656,-0.445312 0.347656,-0.445312 v -0.0039 a 10.8844,10.8844 0 0 0 2.214844,-6.597656 11,11 0 0 0 -11,-10.9999999 z M 14.91405,4.0648142 a 9,9 0 0 1 10.085937,8.9335938 8.901,8.901 0 0 1 -1.8125,5.394531 c -5e-4,8e-4 -0.233444,0.308081 -0.277344,0.363281 l -6.910156,8.152343 -6.9023431,-8.140624 c -0.0532,-0.0662 -0.2841563,-0.370394 -0.2851563,-0.371094 A 8.9054,8.9054 0 0 1 6.9999877,12.998408 9,9 0 0 1 14.91405,4.0648142 Z m 0.109375,4.0312499 a 5,5 0 0 0 0.976562,9.9023439 5.0057,5.0057 0 0 0 5,-5 5,5 0 0 0 -5.976562,-4.9023439 z m 0.976562,1.9023437 a 3.0033,3.0033 0 0 1 3,3.0000002 3,3 0 1 1 -3,-3.0000002 z" /><rect
         id="_Transparent_Rectangle_-48"
         data-name="&lt;Transparent Rectangle&gt;"
         class="cls-1"
         width="32"
         height="32"
         transform="rotate(-90,16,16)"
         x="0"
         y="0"
         style="fill:none;stroke-width:2" /></g></g><style
     type="text/css"
     id="style578">
	.st0{fill:none;}
</style><style
     type="text/css"
     id="style968">
	.st0{fill:none;}
</style><style
     type="text/css"
     id="style3690">
	.st0{fill:none;}
</style><style
     type="text/css"
     id="style5365">
	.st0{fill:none;}
</style><style
     type="text/css"
     id="style596">
	.st0{fill:none;}
</style><style
     type="text/css"
     id="style660">
	.st0{fill:none;}
</style><style
     type="text/css"
     id="style5861">
	.st0{fill:none;}
</style><style
     type="text/css"
     id="style25784">
	.st0{fill:none;}
</style></svg>
