<?xml version="1.0" encoding="UTF-8"?>
<svg id="svg19713" xmlns="http://www.w3.org/2000/svg" xmlns:svg="http://www.w3.org/2000/svg" version="1.1" viewBox="0 0 16 16">
  <!-- Generator: Adobe Illustrator 29.6.0, SVG Export Plug-In . SVG Version: 2.1.1 Build 207)  -->
  <defs>
    <style>
      .st0 {
        fill: none;
      }

      .st1 {
        fill: #aaa;
      }
    </style>
  </defs>
  <g id="g26381">
    <path id="path26377" class="st1" d="M8,.999C4.962.999,2.5,3.462,2.5,6.499c-.002,1.192.387,2.351,1.107,3.301,0,0,.152.198.176.227l4.217,4.973,4.219-4.977c.022-.026.174-.223.174-.223v-.002c.72-.949,1.109-2.108,1.107-3.299,0-3.038-2.462-5.5-5.5-5.5ZM7.457,2.032c2.467-.3,4.71,1.457,5.01,3.924.022.18.033.361.033.543.001.974-.317,1.922-.906,2.697,0,0-.117.154-.139.182l-3.455,4.076-3.451-4.07c-.027-.033-.142-.185-.143-.186-.589-.776-.908-1.725-.906-2.699,0-2.275,1.698-4.192,3.957-4.467ZM7.512,4.048c-1.354.272-2.231,1.589-1.959,2.943.234,1.167,1.258,2.007,2.448,2.008,1.38-.002,2.498-1.12,2.5-2.5,0-1.381-1.12-2.5-2.501-2.499-.164,0-.327.016-.488.048ZM8,4.999c.828,0,1.499.672,1.5,1.5,0,.828-.672,1.5-1.5,1.5s-1.5-.672-1.5-1.5.672-1.5,1.5-1.5Z"/>
    <rect id="rect26379" class="st0" y="0" width="16" height="16"/>
  </g>
</svg>