<?xml version="1.0" encoding="UTF-8"?>
<svg id="icon" xmlns="http://www.w3.org/2000/svg" version="1.1" viewBox="0 0 32 32">
  <!-- Generator: Adobe Illustrator 29.6.0, SVG Export Plug-In . SVG Version: 2.1.1 Build 207)  -->
  <defs>
    <style>
      .st0 {
        fill: none;
      }

      .st1 {
        fill: #aaa;
      }
    </style>
  </defs>
  <path class="st1" d="M30,23v-2h-2.09c-.15-.891-.5-1.735-1.024-2.471l1.478-1.479-1.414-1.414-1.479,1.479c-.735-.524-1.58-.875-2.471-1.025v-2.09h-2v2.09c-.891.15-1.736.5-2.471,1.024l-1.479-1.478-1.414,1.414,1.479,1.479c-.524.735-.875,1.58-1.025,2.471h-2.09v2h2.09c.15.891.5,1.735,1.024,2.471l-1.478,1.479,1.414,1.414,1.479-1.479c.735.524,1.58.875,2.471,1.025v2.09h2v-2.09c.891-.15,1.736-.5,2.471-1.024l1.479,1.478,1.414-1.414-1.479-1.479c.524-.735.875-1.58,1.025-2.471h2.09ZM22,26c-2.209,0-4-1.791-4-4s1.791-4,4-4,4,1.791,4,4c-.002,2.208-1.792,3.998-4,4Z"/>
  <path class="st1" d="M28,6c0-1.105-.895-2-2-2h-4V2h-2v2h-8V2h-2v2h-4c-1.105,0-2,.895-2,2v20c0,1.105.895,2,2,2h4v-2h-4V6h4v2h2v-2h8v2h2v-2h4v6h2v-6Z"/>
  <rect id="_Transparent_Rectangle_" class="st0" y="0" width="15.999999" height="15.999999"/>
</svg>