<?xml version="1.0" encoding="UTF-8"?>
<svg id="icon" xmlns="http://www.w3.org/2000/svg" version="1.1" viewBox="0 0 32 32">
  <!-- Generator: Adobe Illustrator 29.6.0, SVG Export Plug-In . SVG Version: 2.1.1 Build 207)  -->
  <defs>
    <style>
      .st0 {
        fill: none;
      }

      .st1 {
        fill: #aaa;
      }
    </style>
  </defs>
  <polygon class="st1" points="17 22 17 14 13 14 13 16 15 16 15 22 12 22 12 24 20 24 20 22 17 22"/>
  <path class="st1" d="M16,8c-.828,0-1.5.672-1.5,1.5s.672,1.5,1.5,1.5,1.5-.672,1.5-1.5-.672-1.5-1.5-1.5Z"/>
  <path class="st1" d="M16,30c-7.732,0-14-6.268-14-14S8.268,2,16,2s14,6.268,14,14-6.268,14-14,14ZM16,4c-6.627,0-12,5.373-12,12s5.373,12,12,12,12-5.373,12-12S22.627,4,16,4Z"/>
  <rect id="_Transparent_Rectangle_" class="st0" y="0" width="15.999999" height="15.999999"/>
</svg>