<?xml version="1.0" encoding="UTF-8" standalone="no"?>
<svg
   width="32"
   height="32"
   viewBox="0 0 24 24"
   version="1.1"
   id="svg102"
   xmlns="http://www.w3.org/2000/svg"
   xmlns:svg="http://www.w3.org/2000/svg">
  <defs
     id="defs106" />
  <path
     fill="#ffffff"
     d="M 0,0.73577864 H 16.384641 C 15.461847,0.79790004 14.557105,1.0362973 13.705989,1.3941588 11.747839,2.2033293 10.065784,3.5901753 8.7442447,5.2329401 8.0274598,6.1095415 7.4508462,7.1029522 7.0521014,8.1632629 6.6294639,9.2846326 6.4807974,10.509539 6.6448614,11.69781 5.8059576,11.980806 4.8783848,12.115138 4.018243,11.842228 2.2581378,11.29641 0.98650841,9.5230306 0.96845607,7.6901849 0.98810123,6.3904149 1.6820552,5.1809068 2.6266184,4.3218268 3.5775531,3.4446945 4.7897159,2.911088 6.0241788,2.5675622 5.5410127,2.4937599 5.0541299,2.415179 4.5640614,2.4364171 3.2669462,2.4889813 1.9942549,3.0693117 1.1213701,4.0329891 0.45980424,4.7465883 0.06636897,5.6943372 0,6.6633242 Z"
     id="path86"
     style="stroke-width:0.0530951" />
  <path
     fill="#050708"
     d="m 16.384641,0.73577864 h 0.771473 c 0.855894,0.059998 1.761167,0.27556396 2.394061,0.89199896 0.47414,0.4406899 0.727404,1.0703987 0.805985,1.7038242 0.457149,0.1449499 0.90368,0.3594543 1.244551,0.704573 0.519271,0.5044042 0.755544,1.2461438 0.747049,1.959212 -0.01752,0.8171349 -0.405116,1.5848911 -0.938723,2.1880523 -0.427416,0.4810423 -0.927572,0.9031489 -1.493567,1.2116315 -0.11734,0.06743 -0.282997,0.124243 -0.387064,0.0021 -0.09557,-0.09982 0.01858,-0.2277779 0.09026,-0.3026421 0.211849,-0.1959012 0.450777,-0.3610271 0.65891,-0.5611959 0.620681,-0.5468799 1.191985,-1.2026053 1.433568,-2.009652 C 21.899101,5.8992813 21.823175,5.1920535 21.478587,4.6350851 21.230632,4.2352785 20.80481,3.9990049 20.394384,3.7967123 c -0.05256,0.8070467 -0.246893,1.607191 -0.595197,2.3383116 -0.383878,0.825099 -0.951997,1.5498482 -1.584891,2.1986713 -0.611121,0.629712 -1.343835,1.1877424 -2.207693,1.4064944 -0.656787,0.16194 -1.398527,0.125305 -1.977795,-0.252202 C 13.625815,9.2357856 13.327951,8.8306693 13.190966,8.3772365 13.041768,7.9296441 13.052918,7.4475399 13.11292,6.985081 c -1.457993,1.8620478 -3.166597,3.557908 -5.1783729,4.815733 -0.1778688,0.968987 0.1762761,2.088233 1.0104012,2.659537 0.5245804,0.36795 1.2195967,0.416266 1.8211647,0.230965 0.728466,-0.219283 1.359236,-0.665814 1.959212,-1.120309 0.826161,-0.638204 1.601351,-1.338529 2.369106,-2.045226 0.342465,-0.298395 0.681743,-0.616435 1.094823,-0.816073 0.263883,-0.09716 0.493254,-0.265476 0.753952,-0.370073 0.479445,-0.20601 1.00084,-0.304767 1.521704,-0.316448 -0.02017,0.117872 -0.04035,0.235212 -0.06053,0.353083 -0.324942,0.164064 -0.664752,0.309545 -0.945625,0.545288 -0.774658,0.609533 -1.265789,1.516398 -1.51162,2.458306 -0.232557,0.87554 -0.369011,1.786653 -0.311668,2.694049 0.04672,0.738555 0.281404,1.50047 0.815011,2.034077 0.304766,0.307421 0.740146,0.415736 1.147386,0.5129 0.27875,-1.90771 0.55219,-3.815951 0.827223,-5.724192 0.09292,-0.795896 0.443876,-1.558343 0.971111,-2.159911 0.58564,-0.654664 1.515337,-0.9753594 2.378133,-0.7948354 0.567588,0.1035354 1.022083,0.5049354 1.382068,0.9339444 0.517147,0.615904 0.770942,1.411801 0.84262,2.20345 v 0.953058 c -0.121057,1.234994 -0.654664,2.413176 -1.463834,3.348182 -0.55803,0.63608 -1.278532,1.108627 -2.036731,1.472329 -0.577144,0.278219 -1.206323,0.480512 -1.852491,0.482104 -0.236273,1.304018 -0.463521,2.61016 -0.705634,3.913115 h -1.171811 c 0.238397,-1.296584 0.465645,-2.595292 0.700856,-3.892408 -0.575023,-0.119463 -1.152167,-0.249547 -1.696923,-0.472547 -0.731121,-0.293615 -1.330034,-0.88138 -1.666659,-1.591262 -0.476794,1.388439 -1.491443,2.560781 -2.754577,3.296679 -1.273753,0.768818 -2.8039562,1.056595 -4.2768165,0.918017 C 5.4746437,21.349451 3.9502812,20.556209 2.8873158,19.353603 2.3250378,18.709027 1.9039931,17.943926 1.6544457,17.12626 1.4627721,16.49602 1.4070222,15.800474 1.6316152,15.171296 1.8429341,14.539463 2.3558335,14.015945 2.988728,13.804094 c 0.8548323,-0.285121 1.815855,-0.225654 2.6335208,0.151322 0.6849277,0.311138 1.3056104,0.811295 1.6613481,1.484011 0.3175091,0.611656 0.4502471,1.349148 0.2341498,2.015493 -0.1842403,0.54157 -0.5532518,1.040665 -1.0773012,1.291805 -0.6026303,0.288837 -1.3077342,0.277157 -1.9390359,0.09186 0.7305896,-0.25114 1.4245436,-0.692892 1.8301907,-1.366669 0.3392783,-0.519271 0.4698923,-1.187208 0.2665379,-1.782405 -0.1757456,-0.597324 -0.621745,-1.098012 -1.1850849,-1.35924 -0.627054,-0.30158 -1.3730413,-0.332375 -2.0314214,-0.116809 -0.5654637,0.186364 -1.013587,0.655195 -1.2164106,1.21057 -0.198045,0.504404 -0.1964521,1.068275 -0.063714,1.589139 0.3121996,1.232869 1.1240249,2.312294 2.1779642,3.013151 1.0077465,0.69767 2.2427403,1.078363 3.4708317,0.997658 0.9923488,-0.04566 1.9693009,-0.407771 2.7397108,-1.03748 0.729528,-0.592541 1.287559,-1.366138 1.76276,-2.17053 0.584579,-1.003499 1.036949,-2.077083 1.443128,-3.16288 0.06106,-0.154507 0.08442,-0.319102 0.114684,-0.481042 0.0669,-0.357862 0.184773,-0.703511 0.326535,-1.038011 -0.709882,0.66953 -1.491973,1.276939 -2.374414,1.702762 -0.631302,0.302112 -1.340653,0.487414 -2.0425728,0.394497 C 8.8822922,15.135191 8.1299336,14.645654 7.6005747,14.003202 7.1843084,13.487647 6.9172397,12.865372 6.7537066,12.226638 5.7587029,12.501671 4.6723756,12.551579 3.6938315,12.185223 1.6693124,11.428086 0.17680694,9.4386086 0,7.2861306 V 6.6633242 C 0.06636897,5.6943372 0.45980424,4.7465883 1.1213701,4.0329891 1.9942549,3.0693117 3.2669462,2.4889813 4.5640614,2.4364171 5.0541299,2.4151789 5.5410127,2.4937604 6.0241788,2.5675622 4.7897159,2.911088 3.5775531,3.4446945 2.6266184,4.3218268 1.6820552,5.1809068 0.98810123,6.3904149 0.96845607,7.6901849 0.98650861,9.5230306 2.2581378,11.29641 4.018243,11.842228 4.8783848,12.115138 5.8059576,11.980806 6.6448614,11.69781 6.4807974,10.509539 6.6294639,9.2846326 7.0521014,8.1632629 7.4508462,7.1029522 8.0274598,6.1095415 8.7442447,5.2329401 10.065784,3.5901753 11.747839,2.2033293 13.705989,1.3941588 14.557105,1.0362973 15.461847,0.79790004 16.384641,0.73577864 Z"
     id="path88"
     style="stroke-width:0.0530951" />
  <path
     fill="#ffffff"
     d="M 17.156114,0.73577864 H 23.99902 V 13.079346 c -0.07168,-0.791649 -0.325473,-1.587546 -0.842621,-2.20345 -0.359984,-0.429009 -0.81448,-0.830409 -1.382067,-0.9339444 -0.862797,-0.180524 -1.792493,0.1401714 -2.378133,0.7948354 -0.527235,0.601568 -0.878194,1.364015 -0.971111,2.159911 -0.275033,1.908241 -0.548473,3.816482 -0.827223,5.724192 -0.40724,-0.09716 -0.84262,-0.205479 -1.147386,-0.5129 -0.533607,-0.533607 -0.768287,-1.295522 -0.815011,-2.034077 -0.05734,-0.907396 0.07911,-1.818509 0.311668,-2.694049 0.245831,-0.941908 0.736962,-1.848773 1.51162,-2.458306 0.280873,-0.235743 0.620683,-0.381224 0.945625,-0.545288 0.02017,-0.117871 0.04036,-0.235211 0.06053,-0.353083 -0.520867,0.01168 -1.042262,0.110438 -1.521711,0.316448 -0.260697,0.104597 -0.490069,0.272909 -0.753951,0.370073 -0.413081,0.199638 -0.752359,0.517678 -1.094823,0.816073 -0.767756,0.706697 -1.542946,1.407022 -2.369107,2.045226 -0.599976,0.454495 -1.230746,0.901026 -1.959212,1.120309 -0.601566,0.185301 -1.2965822,0.136985 -1.8211625,-0.230965 -0.8341252,-0.571304 -1.1882701,-1.69055 -1.0104012,-2.659537 2.0117758,-1.257825 3.7203797,-2.9536852 5.1783727,-4.815733 -0.06,0.4624589 -0.07114,0.9445631 0.07805,1.3921555 0.136986,0.4534328 0.434849,0.8585491 0.837842,1.1107511 0.579268,0.377507 1.321008,0.414142 1.977795,0.252202 0.863859,-0.218752 1.596573,-0.7767824 2.207698,-1.4064912 0.632894,-0.648823 1.201013,-1.3735722 1.584891,-2.1986712 0.348304,-0.7311207 0.542633,-1.531265 0.595197,-2.3383116 0.410426,0.2022926 0.836248,0.4385661 1.084203,0.8383728 0.344588,0.5569684 0.420514,1.2641962 0.232557,1.8885954 -0.241583,0.8070468 -0.812887,1.4627722 -1.43357,2.0096526 -0.208133,0.2001688 -0.447061,0.3652947 -0.65891,0.5612159 -0.07168,0.074864 -0.185834,0.2028233 -0.09026,0.3026423 0.104067,0.122119 0.269724,0.06531 0.387064,-0.0021 C 20.481468,9.0866119 20.981624,8.6645053 21.40904,8.183463 21.942645,7.5803012 22.33024,6.8125449 22.347761,5.9954101 22.356261,5.2823419 22.119983,4.5406023 21.600712,4.0361981 21.25984,3.6910561 20.813309,3.4765517 20.35616,3.3316018 20.277579,2.6981763 20.024315,2.0684675 19.550175,1.6277776 18.917281,1.0113426 18.012008,0.79577624 17.156114,0.73577864 Z"
     id="path90"
     style="stroke-width:0.0530951" />
  <path
     fill="#ffffff"
     d="m 14.834793,1.6081324 c 0.950934,-0.4263543 2.032483,-0.62386836 3.060937,-0.3923734 0.610063,0.1343308 1.206853,0.4592733 1.548786,0.9960655 0.201231,0.2920235 0.287776,0.6397969 0.370073,0.979075 C 19.254435,3.0932045 18.685255,2.976926 18.115013,3.0581617 16.840729,3.2110757 15.702899,3.8928178 14.717452,4.6802193 13.869522,5.3635542 13.109731,6.1504248 12.413122,6.9861429 11.288035,8.3161771 10.094455,9.6101066 8.675752,10.63325 8.4601855,10.785103 8.2403715,10.932707 8.0115313,11.064384 8.1655073,10.130971 8.4060284,9.2102999 8.7553947,8.3305127 9.2762584,7.0307428 10.053572,5.8483132 10.946633,4.7752597 12.022872,3.4882326 13.283352,2.295184 14.834793,1.6081324 Z"
     id="path92"
     style="stroke-width:0.0530951" />
  <path
     fill="#ffffff"
     d="m 17.683349,3.5264611 c 0.70882,-0.1491974 1.454277,-0.1566308 2.151947,0.052564 -0.01327,1.2318081 -0.454494,2.4386615 -1.189332,3.4225151 -0.514492,0.683335 -1.093229,1.3369366 -1.814793,1.8073599 -0.51927,0.3382162 -1.126149,0.5638705 -1.751609,0.5617465 C 14.542769,9.3589656 14.056418,9.0037594 13.795189,8.5482028 13.527059,8.027339 13.503166,7.400285 13.669885,6.8438476 13.857842,6.2136078 14.254463,5.6651346 14.723293,5.2122328 15.532464,4.3988147 16.548174,3.7547701 17.683349,3.5264611 Z"
     id="path94"
     style="stroke-width:0.0530951" />
  <path
     fill="#ffffff"
     d="m 0,7.2861306 c 0.17680694,2.152478 1.6693124,4.1419554 3.6938315,4.8990924 0.9785441,0.366356 2.0648714,0.316448 3.0598751,0.04142 0.1635331,0.638735 0.4306018,1.26101 0.8468681,1.776564 0.5293589,0.642453 1.2817175,1.13199 2.119559,1.228092 0.7019193,0.09292 1.4112703,-0.09239 2.0425723,-0.394497 0.882441,-0.425823 1.664533,-1.033232 2.374415,-1.702762 -0.141763,0.334499 -0.259635,0.680149 -0.326535,1.038011 -0.03027,0.161939 -0.05363,0.326535 -0.114685,0.481042 -0.406178,1.085796 -0.858549,2.15938 -1.443127,3.16288 -0.475202,0.804392 -1.033232,1.577989 -1.76276,2.17053 C 9.7196036,20.61621 8.7426518,20.978319 7.750303,21.023981 6.5222116,21.104682 5.2872178,20.723989 4.2794713,20.026319 3.225532,19.325462 2.4137067,18.246037 2.1015071,17.013168 1.9687692,16.492304 1.9671763,15.928433 2.1652213,15.424029 c 0.2028236,-0.555375 0.6509469,-1.024206 1.2164106,-1.21057 0.6583801,-0.215566 1.4043674,-0.184771 2.0314214,0.116809 0.5633399,0.261228 1.0093393,0.761916 1.1850844,1.359237 0.2033545,0.595197 0.07274,1.263134 -0.2665379,1.782405 -0.4056471,0.673777 -1.0996011,1.115529 -1.8301907,1.36667 0.6313017,0.185302 1.3364056,0.196982 1.9390359,-0.09186 0.5240494,-0.251135 0.8930609,-0.75023 1.0773012,-1.2918 C 7.7338435,16.788575 7.6011056,16.051083 7.2835964,15.439427 6.9278587,14.766711 6.307176,14.266554 5.6222483,13.955416 4.8045825,13.57844 3.8435598,13.518973 2.9887275,13.804094 2.355833,14.015945 1.8429336,14.539463 1.6316148,15.171296 c -0.2245926,0.629178 -0.1688427,1.324724 0.02283,1.954964 0.2495473,0.817666 0.670592,1.582767 1.23287,2.227343 1.0629654,1.202606 2.5873279,1.995848 4.1870856,2.15301 1.4728603,0.138578 3.0030646,-0.149199 4.2768166,-0.918017 1.263134,-0.735898 2.277782,-1.90824 2.754576,-3.296679 0.336624,0.709882 0.935538,1.297647 1.666659,1.591262 0.544756,0.223 1.1219,0.353084 1.696921,0.472547 -0.235211,1.297116 -0.462459,2.595824 -0.700856,3.892408 H 0 Z"
     id="path96"
     style="stroke-width:0.0530951" />
  <path
     fill="#ffffff"
     d="m 19.91547,11.940454 c 0.12849,-0.290962 0.371136,-0.543694 0.686521,-0.622806 0.304235,-0.08602 0.637142,0.02496 0.868636,0.230963 0.51821,0.486884 0.796429,1.182962 0.860142,1.882756 0.04407,0.798551 -0.0207,1.609846 -0.253264,2.377601 -0.19008,0.460867 -0.387064,0.927574 -0.687582,1.328442 -0.493785,0.584047 -1.084204,1.131459 -1.828598,1.365608 -0.270254,0.06106 -0.542632,0.112562 -0.813949,0.166719 0.225655,-1.638517 0.448123,-3.277034 0.670592,-4.915551 0.0738,-0.6244 0.229371,-1.244021 0.497502,-1.813732 z"
     id="path98"
     style="stroke-width:0.0530951" />
  <path
     fill="#ffffff"
     d="m 22.535186,17.380586 c 0.80917,-0.935006 1.342777,-2.113188 1.463834,-3.348182 v 9.21573 h -6.05869 c 0.242113,-1.302955 0.469361,-2.609097 0.705634,-3.913115 0.646168,-0.0016 1.275347,-0.203885 1.852491,-0.482104 0.758199,-0.363702 1.478701,-0.836249 2.036731,-1.472329 z"
     id="path100"
     style="stroke-width:0.0530951" />
</svg>
