<?xml version="1.0" encoding="UTF-8"?>
<svg id="svg102" xmlns="http://www.w3.org/2000/svg" xmlns:svg="http://www.w3.org/2000/svg" version="1.1" viewBox="0 0 32 32" width="32" height="32">
  <!-- Generator: Adobe Illustrator 29.6.0, SVG Export Plug-In . SVG Version: 2.1.1 Build 207)  -->
  <defs>
    <style>
      .st0 {
        fill: #555;
      }
    </style>
  </defs>
  <path class="st0" d="M30.875,14.501c-.48-.572-1.086-1.107-1.843-1.245-1.15-.241-2.39.187-3.171,1.06-.703.802-1.171,1.819-1.295,2.88-.367,2.544-.731,5.089-1.103,7.632-.543-.13-1.123-.274-1.53-.684-.711-.711-1.024-1.727-1.087-2.712-.076-1.21.105-2.425.416-3.592.328-1.256.983-2.465,2.015-3.278.375-.314.828-.508,1.261-.727.027-.157.054-.314.081-.471-.694.016-1.39.147-2.029.422-.348.139-.653.364-1.005.493-.551.266-1.003.69-1.46,1.088-1.024.942-2.057,1.876-3.159,2.727-.8.606-1.641,1.201-2.612,1.494-.802.247-1.729.183-2.428-.308-1.112-.762-1.584-2.254-1.347-3.546,2.682-1.677,4.961-3.938,6.904-6.421-.08.617-.095,1.259.104,1.856.183.605.58,1.145,1.117,1.481.772.503,1.761.552,2.637.336,1.152-.292,2.129-1.036,2.944-1.875.844-.865,1.601-1.831,2.113-2.932.464-.975.724-2.042.794-3.118.547.27,1.115.585,1.446,1.118.459.743.561,1.686.31,2.518-.322,1.076-1.084,1.95-1.911,2.68-.277.267-.596.487-.879.748-.096.1-.248.27-.12.404.139.163.36.087.516-.003.755-.411,1.422-.974,1.991-1.615.711-.804,1.228-1.828,1.252-2.917.011-.951-.304-1.94-.996-2.612-.455-.46-1.05-.746-1.659-.939-.105-.845-.442-1.684-1.075-2.272-.844-.822-2.051-1.109-3.192-1.189h-1.029c-1.23.083-2.437.401-3.572.878-2.611,1.079-4.854,2.928-6.616,5.118-.956,1.169-1.725,2.493-2.256,3.907-.564,1.495-.762,3.128-.543,4.713-1.119.377-2.355.556-3.502.193-2.347-.728-4.042-3.092-4.066-5.536.026-1.733.951-3.346,2.211-4.491,1.268-1.169,2.884-1.881,4.53-2.339-.644-.098-1.293-.203-1.947-.175-1.729.07-3.426.844-4.59,2.129C.613,6.33.088,7.594,0,8.886v.83c.236,2.87,2.226,5.523,4.925,6.532,1.305.488,2.753.422,4.08.055.218.852.574,1.681,1.129,2.369.706.857,1.709,1.509,2.826,1.637.936.124,1.882-.123,2.723-.526,1.177-.568,2.219-1.378,3.166-2.27-.189.446-.346.907-.435,1.384-.04.216-.072.435-.153.641-.542,1.448-1.145,2.879-1.924,4.217-.634,1.073-1.378,2.104-2.35,2.894-1.027.84-2.33,1.322-3.653,1.383-1.637.108-3.284-.4-4.628-1.33-1.405-.935-2.488-2.374-2.904-4.018-.177-.694-.179-1.446.085-2.119.27-.74.868-1.366,1.622-1.614.878-.287,1.872-.246,2.709.156.751.348,1.346,1.016,1.58,1.812.271.794.097,1.684-.355,2.377-.541.898-1.466,1.487-2.44,1.822.842.247,1.782.263,2.585-.122.699-.335,1.191-1,1.436-1.722.288-.888.111-1.872-.312-2.687-.474-.897-1.302-1.564-2.215-1.979-1.09-.503-2.372-.582-3.511-.202-.844.282-1.528.98-1.81,1.823-.299.839-.225,1.766.03,2.607.333,1.09.894,2.11,1.644,2.97,1.417,1.603,3.45,2.661,5.583,2.871,1.964.185,4.004-.199,5.702-1.224,1.684-.981,3.037-2.544,3.673-4.396.449.946,1.247,1.73,2.222,2.122.726.297,1.496.471,2.263.63-.314,1.729-.617,3.461-.934,5.19h1.562c.323-1.737.626-3.479.941-5.217.862-.002,1.701-.272,2.47-.643,1.011-.485,1.972-1.115,2.716-1.963,1.079-1.247,1.79-2.818,1.952-4.464v-1.271c-.096-1.056-.434-2.117-1.124-2.938v-.002ZM24.861,9.335c-.686.911-1.458,1.783-2.42,2.41-.692.451-1.502.752-2.336.749-.716-.016-1.364-.489-1.712-1.097-.358-.694-.389-1.531-.167-2.272.251-.84.779-1.572,1.405-2.175,1.079-1.085,2.433-1.943,3.947-2.248.945-.199,1.939-.209,2.869.07-.018,1.642-.606,3.252-1.586,4.563ZM11.674,11.107c.694-1.733,1.731-3.31,2.922-4.74,1.435-1.716,3.116-3.307,5.184-4.223,1.268-.568,2.71-.832,4.081-.523.813.179,1.609.612,2.065,1.328.268.389.384.853.493,1.305-.747-.13-1.506-.285-2.266-.177-1.699.204-3.216,1.113-4.53,2.163-1.131.911-2.144,1.96-3.072,3.075-1.5,1.773-3.092,3.499-4.983,4.863-.287.202-.581.399-.886.575.205-1.245.526-2.472.992-3.645h0ZM29.437,21.079c-.253.615-.516,1.237-.917,1.771-.658.779-1.446,1.509-2.438,1.821-.36.081-.724.15-1.085.222.301-2.185.597-4.369.894-6.554.098-.833.306-1.659.663-2.418.171-.388.495-.725.915-.83.406-.115.85.033,1.158.308.691.649,1.062,1.577,1.147,2.51.059,1.065-.028,2.146-.338,3.17h0Z"/>
</svg>