<?xml version="1.0" encoding="UTF-8"?>
<svg id="icon" xmlns="http://www.w3.org/2000/svg" version="1.1" viewBox="0 0 32 32">
  <!-- Generator: Adobe Illustrator 29.6.0, SVG Export Plug-In . SVG Version: 2.1.1 Build 207)  -->
  <defs>
    <style>
      .st0 {
        fill: none;
      }

      .st1 {
        fill: #555;
      }
    </style>
  </defs>
  <rect id="_x3C_Transparent_Rectangle_x3E_" class="st0" y="0" width="32" height="32"/>
  <polygon class="st1" points="31.232 29.819 24.932 23.529 30.522 23.529 30.522 21.529 21.522 21.529 21.522 30.529 23.522 30.529 23.522 24.939 29.812 31.239 31.232 29.819"/>
  <path class="st1" d="M21.519,20.118l-1.358-1.358c.354-.532.603-1.127.732-1.753h3.285c.552,1.562,2.266,2.381,3.828,1.828,1.562-.552,2.381-2.266,1.828-3.828s-2.266-2.381-3.828-1.828c-.854.302-1.526.974-1.828,1.828h-3.285c-.129-.626-.377-1.221-.732-1.753l3.814-3.814c.61.367,1.307.563,2.019.567,2.209,0,4-1.791,4-4s-1.791-4-4-4-4,1.791-4,4c.004.712.2,1.409.567,2.019l-3.814,3.814c-1.667-1.111-3.839-1.111-5.506,0l-2.547-2.547c.726-1.507.093-3.317-1.414-4.043-1.507-.726-3.317-.093-4.043,1.414-.726,1.507-.093,3.317,1.414,4.043.831.4,1.798.4,2.629,0l2.547,2.547c-1.111,1.667-1.111,3.839,0,5.506l-3.814,3.814c-.61-.367-1.307-.563-2.019-.567-2.209,0-4,1.791-4,4s1.791,4,4,4,4-1.791,4-4c-.004-.712-.2-1.409-.567-2.019l3.814-3.814c1.667,1.111,3.839,1.111,5.506,0l1.358,1.358,1.414-1.414ZM12.994,16.006c0-1.657,1.343-3,3-3s3,1.343,3,3-1.343,3-3,3c-1.656-.002-2.998-1.344-3-3ZM5.994,28.006c-1.105,0-2-.895-2-2s.895-2,2-2,2,.895,2,2c-.001,1.104-.896,1.999-2,2ZM27.994,6.006c0,1.105-.895,2-2,2s-2-.895-2-2,.895-2,2-2c1.104.001,1.999.896,2,2Z"/>
</svg>