<?xml version="1.0" encoding="UTF-8"?>
<svg id="icon" xmlns="http://www.w3.org/2000/svg" version="1.1" viewBox="0 0 32 32" width="16" height="16">
  <!-- Generator: Adobe Illustrator 29.6.0, SVG Export Plug-In . SVG Version: 2.1.1 Build 207)  -->
  <defs>
    <style>
      .st0 {
        fill: none;
      }

      .st1 {
        fill: #555;
      }
    </style>
  </defs>
  <path class="st1" d="M26,6c-1.819.006-3.404,1.239-3.858,3h-4.212c-.55-4.382-4.549-7.488-8.931-6.937C4.618,2.613,1.512,6.611,2.062,10.993c.455,3.626,3.311,6.482,6.938,6.937v4.211c-2.139.552-3.425,2.734-2.873,4.873.552,2.139,2.734,3.425,4.873,2.873,2.139-.552,3.425-2.734,2.873-4.873-.364-1.409-1.464-2.509-2.873-2.873v-4.211c1.421-.179,2.768-.738,3.898-1.619l3.669,3.67c-.367.61-.563,1.307-.567,2.018,0,2.209,1.791,4,4,4s4-1.791,4-4-1.791-4-4-4c-.712.004-1.409.2-2.019.567l-3.669-3.669c.881-1.13,1.44-2.476,1.619-3.898h4.212c.556,2.134,2.737,3.414,4.871,2.858,2.134-.556,3.414-2.737,2.858-4.871-.459-1.761-2.051-2.99-3.871-2.987ZM12,26c0,1.105-.895,2-2,2s-2-.895-2-2,.895-2,2-2c1.104.001,1.999.896,2,2ZM10,16c-3.314,0-6-2.686-6-6s2.686-6,6-6,6,2.686,6,6c-.004,3.312-2.688,5.996-6,6ZM24,22c0,1.105-.895,2-2,2s-2-.895-2-2,.895-2,2-2c1.104.001,1.999.896,2,2ZM26,12c-1.105,0-2-.895-2-2s.895-2,2-2,2,.895,2,2c-.001,1.104-.896,1.999-2,2Z"/>
  <rect id="_Transparent_Rectangle_" class="st0" y="0" width="32" height="32"/>
</svg>