<?xml version="1.0" encoding="UTF-8"?>
<svg id="Layer_1" xmlns="http://www.w3.org/2000/svg" version="1.1" viewBox="0 0 32 32" width="16" height="16">
  <!-- Generator: Adobe Illustrator 29.6.0, SVG Export Plug-In . SVG Version: 2.1.1 Build 207)  -->
  <defs>
    <style>
      .st0 {
        fill: #555;
      }
    </style>
  </defs>
  <path class="st0" d="M27,5H5c-1.105,0-2,.895-2,2v18c0,1.105.895,2,2,2h22c1.105,0,2-.895,2-2V7c0-1.105-.895-2-2-2ZM27,7v12.844l-3.259-3.257c-.781-.781-2.047-.781-2.828,0h0s-2.5,2.5-2.5,2.5l-5.5-5.5c-.781-.78-2.047-.78-2.828,0l-5.085,5.085V7h22ZM5,21.5l6.5-6.5,10,10H5v-3.5ZM27,25h-2.671l-4.5-4.5,2.5-2.5,4.671,4.673v2.327ZM18,12.5c0-.828.672-1.5,1.5-1.5s1.5.672,1.5,1.5-.672,1.5-1.5,1.5-1.5-.672-1.5-1.5Z"/>
</svg>