<?xml version="1.0" encoding="UTF-8"?>
<svg id="svg1" xmlns="http://www.w3.org/2000/svg" xmlns:xlink="http://www.w3.org/1999/xlink" xmlns:rdf="http://www.w3.org/1999/02/22-rdf-syntax-ns#" xmlns:dc="http://purl.org/dc/elements/1.1/" xmlns:cc="http://creativecommons.org/ns#" version="1.1" viewBox="0 0 640 480">
  <!-- Generator: Adobe Illustrator 29.6.0, SVG Export Plug-In . SVG Version: 2.1.1 Build 207)  -->
  <defs>
    <style>
      .st0 {
        fill: none;
      }

      .st1 {
        fill: #c00;
      }

      .st2 {
        fill: #fff;
      }

      .st3 {
        fill: #006;
      }

      .st4 {
        clip-path: url(#clippath);
      }
    </style>
    <clipPath id="clippath">
      <rect class="st0" x="0" y="0" width="640.003" height="480"/>
    </clipPath>
  </defs>
  <g class="st4">
    <g id="flag">
      <g id="g578">
        <rect id="rect124" class="st3" x="-160" y="0" width="960.019" height="480.009"/>
        <g id="g584">
          <path id="path146" class="st2" d="M-160,0v53.667l852.689,426.344h107.33v-53.665L-52.67.002h-107.33V0ZM800.019,0v53.665L-52.67,480.009h-107.33v-53.665L692.689,0h107.33Z"/>
          <path id="path136" class="st2" d="M240.008,0v480.009h160.003V0h-160.003ZM-160,160.003v160.003h960.019v-160.003H-160Z"/>
          <path id="path141" class="st1" d="M-160,192.004v96.002h960.019v-96.002H-160ZM272.008,0v480.009h96.002V0h-96.002Z"/>
          <path id="path150" class="st1" d="M-160,480.009l320.006-160.003h71.553L-88.447,480.009h-71.553ZM-160,0L160.006,160.003h-71.553L-160,35.778V0ZM408.459,160.003L728.465,0h71.553l-320.006,160.003h-71.553ZM800.019,480.009l-320.006-160.003h71.553l248.453,124.226v35.777Z"/>
        </g>
      </g>
    </g>
  </g>
</svg>