<?xml version="1.0" encoding="UTF-8"?>
<svg id="icon" xmlns="http://www.w3.org/2000/svg" version="1.1" viewBox="0 0 42.666 32">
  <!-- Generator: Adobe Illustrator 29.6.0, SVG Export Plug-In . SVG Version: 2.1.1 Build 207)  -->
  <defs>
    <style>
      .st0 {
        fill: none;
      }

      .st1 {
        fill: #ad1519;
      }

      .st2 {
        fill: #db4446;
      }

      .st3 {
        fill: #0039f0;
      }

      .st4 {
        fill: #005bbf;
      }

      .st5 {
        fill: #ed72aa;
      }

      .st6 {
        fill: #ccc;
      }

      .st7 {
        fill: #fff;
      }

      .st8 {
        fill: #058e6e;
      }

      .st9 {
        fill: #ffd691;
      }

      .st10 {
        fill: #c8b100;
      }

      .st11 {
        fill: #ffc400;
      }

      .st12 {
        fill: #c60b1e;
      }
    </style>
  </defs>
  <rect id="_Transparent_Rectangle_" class="st0" x="0" y="0" width="42.666" height="32"/>
  <sodipodi:namedview id="namedview3756" bordercolor="#666666" borderopacity="1" gridtolerance="10" guidetolerance="10" objecttolerance="10" pagecolor="#ffffff" showgrid="false"/>
  <g id="g5561">
    <rect id="rect4838" class="st12" x=".015" y="0" width="42.667" height="32"/>
    <rect id="rect4840" class="st11" x=".015" y="8" width="42.667" height="16"/>
    <g id="coa">
      <g id="supporters">
        <g id="crown_left">
          <path id="path4845" class="st1" d="M9.571,14.223s-.029,0-.045-.01-.064-.061-.064-.061l-.039-.031-.035-.054s-.042-.076-.023-.134c.019-.058.052-.079.081-.096.029-.017.09-.038.09-.038,0,0,.048-.024.064-.027.016-.004.074-.02.074-.02,0,0,.016-.01.032-.017.016-.007.039-.007.052-.01.013-.004.045-.015.064-.017.03-.001.077.006.093.006s.071.003.093.003c.022,0,.102-.007.125-.007.022,0,.039-.003.064,0,.026.004.071.02.084.028.013.007.09.038.119.048s.1.024.132.041c.032.017.052.046.068.07.016.024.019.05.026.067.006.017.006.054,0,.071-.006.017-.029.052-.029.052l-.035.065-.045.041s-.032.035-.058.031c-.026-.003-.286-.055-.453-.055s-.435.055-.435.055h0,0Z"/>
          <g id="g4847">
            <ellipse id="ellipse4849" class="st10" cx="10.008" cy="13.804" rx=".079" ry=".16"/>
            <ellipse id="ellipse4851" class="st10" cx="10.009" cy="13.804" rx=".036" ry=".147"/>
            <circle id="ellipse4853" class="st10" cx="10.009" cy="13.635" r=".053"/>
            <path id="path4855" class="st10" d="M10.082,13.615v.037h-.144v-.037h.053v-.084h-.035v-.036h.035v-.036h.034v.036h.035v.036h-.035v.084h.056"/>
            <path id="path4857" class="st0" d="M10.024,13.581c.028.008.045.039.037.069-.008.03-.037.047-.065.039s-.045-.039-.037-.069c.005-.019.019-.033.037-.039"/>
            <path id="path4859" class="st10" d="M10.009,14.213h-.274l-.006-.076-.013-.079-.013-.098c-.076-.112-.145-.186-.168-.17.006-.02.013-.036.027-.045.067-.045.205.063.309.239.009.016.018.032.026.048h.226c.008-.016.017-.032.026-.048.104-.177.242-.284.309-.239.015.01.021.025.027.045-.023-.015-.092.058-.168.17l-.013.098-.013.079-.006.076h-.275Z"/>
            <path id="path4861" class="st0" d="M9.546,13.788c.052-.034.172.073.269.239M10.472,13.788c-.052-.034-.171.073-.269.239"/>
          </g>
          <g id="crown_pt1">
            <path id="path4864" class="st10" d="M9.605,14.352c-.011-.036-.033-.069-.033-.069.111-.036.265-.06.436-.06.171,0,.327.024.437.06,0,0-.013.024-.03.058-.01.019-.022.052-.022.052-.1-.035-.229-.052-.387-.052-.159,0-.311.022-.39.055.001,0-.006-.02-.013-.044h0"/>
            <path id="path4866" class="st10" d="M10.008,14.511c.138,0,.291-.024.347-.04.038-.013.06-.031.056-.054-.002-.01-.01-.019-.021-.024-.083-.03-.232-.051-.382-.051s-.3.021-.382.051c-.011.005-.019.014-.021.024-.004.022.018.041.056.054.056.016.209.04.348.04h0Z"/>
            <path id="path4868" class="st10" d="M10.453,14.213l-.034-.034s-.032.022-.073.015c-.04-.007-.053-.062-.053-.062,0,0-.045.043-.082.04-.037-.004-.061-.04-.061-.04,0,0-.04.033-.076.029-.035-.004-.069-.053-.069-.053,0,0-.036.051-.071.055-.035.003-.064-.035-.064-.035,0,0-.016.038-.061.046s-.084-.04-.084-.04c0,0-.026.047-.056.059-.031.012-.071-.017-.071-.017,0,0-.007.017-.011.028-.005.01-.018.012-.018.012l.01.03c.11-.036.259-.058.428-.058s.323.022.433.059l.011-.035h0Z"/>
            <path id="path4870" class="st10" d="M10.009,14.047l.016.003c-.003.008-.003.015-.003.024,0,.037.028.067.064.067.028,0,.052-.02.06-.047,0,0,.006-.024.009-.024.002,0,.002.026.003.026.004.034.031.057.063.057.035,0,.063-.03.063-.068,0-.003,0-.005,0-.008l.02-.022.011.028c-.004.009-.006.019-.006.029,0,.036.027.065.06.065.021,0,.039-.012.05-.029l.013-.019v.023c0,.022.008.042.028.045,0,0,.022.002.052-.024.03-.026.046-.048.046-.048l.002.027s-.029.054-.055.07c-.014.01-.036.02-.054.016-.018-.003-.031-.02-.038-.039-.013.009-.029.014-.046.014-.036,0-.068-.022-.081-.055-.016.02-.039.032-.066.032-.029,0-.055-.015-.072-.037-.016.017-.038.028-.062.028-.031,0-.06-.018-.076-.044-.016.026-.044.044-.076.044-.024,0-.046-.01-.062-.028-.016.022-.043.037-.071.037-.027,0-.05-.012-.067-.032-.013.033-.045.055-.081.055-.016,0-.032-.005-.045-.014-.007.019-.02.036-.039.039-.017.004-.039-.006-.053-.016-.027-.017-.058-.07-.058-.07l.004-.027s.016.022.046.048.052.024.052.024c.019-.003.028-.024.028-.045v-.023l.013.019c.011.017.029.029.05.029.034,0,.06-.029.06-.065,0-.011-.001-.02-.006-.029l.011-.028.02.022s0,.005,0,.008c0,.038.028.068.063.068.031,0,.059-.023.063-.057,0,0,0-.026.002-.026.003,0,.008.025.009.024.008.027.032.047.06.047.035,0,.063-.03.063-.067,0-.009,0-.017-.003-.024l.016-.003h0,0Z"/>
            <path id="path4872" class="st10" d="M10.008,14.223c-.171,0-.325.024-.436.06-.007.003-.016-.004-.019-.011-.002-.008.003-.018.01-.02.111-.038.269-.063.445-.063s.335.024.445.063c.007.003.013.012.01.02-.002.007-.011.013-.019.011-.111-.036-.266-.06-.437-.06h0Z"/>
            <path id="path4874" class="st10" d="M9.426,14.144s-.022-.031-.037-.047c-.011-.012-.039-.021-.039-.021,0-.005.016-.018.033-.018.01,0,.02.004.026.013l.002-.013s.014.003.02.02c.007.019.003.046.003.046,0,0-.003.013-.008.019h0Z"/>
            <path id="path4876" class="st10" d="M9.533,14.094l-.006.042-.08.01-.012-.008.002-.015.06-.056.035.026"/>
            <path id="path4878" class="st10" d="M9.427,14.128c.007-.008.02-.006.03.004.01.01.014.024.007.032-.007.008-.02.006-.03-.004-.01-.01-.014-.024-.007-.032Z"/>
            <path id="path4880" class="st10" d="M9.573,14.136c-.003-.012,0-.024.007-.027.008-.002.017.006.021.017.003.012,0,.024-.008.027-.007.003-.016-.005-.02-.017h0Z"/>
            <path id="path4882" class="st10" d="M9.61,14.083l.029.031.069-.042.005-.013-.01-.011-.08-.008-.014.044"/>
            <path id="path4884" class="st10" d="M9.69,13.937l-.038.041.049.073.013.006.01-.012.017-.088-.051-.02"/>
            <path id="path4886" class="st10" d="M9.82,14.035l-.015.04-.08-.008-.01-.01.006-.014.069-.041.03.033"/>
            <circle id="ellipse4888" class="st10" cx="9.715" cy="14.058" r=".028"/>
            <path id="path4890" class="st10" d="M9.849,14.077c-.002-.013.004-.024.012-.025s.016.008.017.021c.002.012-.004.024-.012.024-.008.001-.016-.008-.017-.02h0Z"/>
            <path id="path4892" class="st10" d="M9.901,14.031l.023.036.076-.027.008-.012-.009-.013-.076-.025-.023.04"/>
            <path id="path4894" class="st10" d="M10.008,13.898l-.049.033.036.088.013.009.013-.009.036-.088-.049-.033"/>
            <path id="path4896" class="st10" d="M10.115,14.031l-.022.036-.076-.027-.008-.012.008-.013.076-.025.022.04"/>
            <circle id="ellipse4898" class="st10" cx="10.008" cy="14.029" r=".028"/>
            <path id="path4900" class="st10" d="M10.169,14.077c.001-.013-.005-.024-.013-.025s-.016.008-.017.021c-.001.012.004.024.012.024.008.001.016-.008.018-.02h0Z"/>
            <path id="path4902" class="st10" d="M10.197,14.035l.015.04.08-.008.01-.01-.006-.014-.069-.041-.03.033"/>
            <path id="path4904" class="st10" d="M10.327,13.937l.038.041-.049.073-.013.006-.01-.012-.017-.088.051-.02"/>
            <path id="path4906" class="st10" d="M10.407,14.083l-.029.031-.069-.042-.006-.013.011-.011.08-.008.014.044"/>
            <circle id="ellipse4908" class="st10" cx="10.303" cy="14.058" r=".028"/>
            <path id="path4910" class="st10" d="M10.445,14.136c.003-.012,0-.024-.007-.027-.008-.002-.017.006-.021.017-.003.012,0,.024.008.027.007.003.016-.005.02-.017h0Z"/>
            <path id="path4912" class="st10" d="M10.581,14.144s.022-.031.038-.047c.011-.012.038-.021.038-.021,0-.005-.016-.018-.033-.018-.01,0-.02.004-.026.013l-.002-.013s-.014.003-.02.02c-.006.019-.002.046-.002.046,0,0,.002.013.007.019h0Z"/>
            <path id="path4914" class="st10" d="M10.473,14.094l.006.042.08.01.012-.008-.003-.015-.06-.056-.035.026"/>
            <path id="path4916" class="st10" d="M10.581,14.128c-.006-.008-.02-.006-.03.004s-.014.024-.007.032c.007.008.02.006.031-.004.01-.01.013-.024.006-.032h0Z"/>
          </g>
          <g id="crown_pt2">
            <path id="path4919" class="st1" d="M9.575,14.355l.018-.032.037.008-.022.036-.033-.012"/>
            <path id="path4921" class="st8" d="M9.734,14.324l-.039.007c-.01.001-.02-.006-.022-.017-.001-.011.006-.02.015-.022l.04-.006.04-.007c.01-.001.019.006.021.016.001.011-.006.021-.015.022l-.04.007"/>
            <circle id="ellipse4923" class="st7" cx="9.867" cy="14.291" r=".025"/>
            <path id="path4925" class="st1" d="M10.01,14.303h-.055c-.01,0-.019-.009-.019-.02s.008-.02.018-.02h.112c.011,0,.019.009.019.02s-.009.02-.019.02h-.056"/>
            <circle id="ellipse4927" class="st7" cx="10.15" cy="14.291" r=".025"/>
            <path id="path4929" class="st8" d="M10.283,14.324l.039.007c.01.001.02-.006.022-.017.001-.011-.005-.02-.015-.022l-.04-.006-.04-.007c-.01-.001-.02.006-.021.016-.002.011.005.021.015.022l.04.007"/>
            <path id="path4931" class="st1" d="M10.439,14.357l-.014-.034-.038.004.018.038.034-.008"/>
            <path id="path4933" class="st1" d="M10.008,14.474c-.138,0-.263-.014-.358-.042.095-.028.22-.044.358-.045.139,0,.265.017.36.045-.096.028-.221.042-.36.042Z"/>
            <path id="path4935" class="st0" d="M10.072,14.469v-.074M10.039,14.472v-.079M10.016,14.473v-.081"/>
            <path id="path4937" class="st0" d="M9.995,14.474v-.081"/>
            <path id="path4939" class="st0" d="M9.975,14.474v-.081"/>
            <path id="path4941" class="st0" d="M9.957,14.474v-.081"/>
            <path id="path4943" class="st0" d="M9.938,14.474v-.081"/>
            <path id="path4945" class="st0" d="M9.922,14.474v-.081"/>
            <path id="path4947" class="st0" d="M9.891,14.469v-.074M9.906,14.47v-.077"/>
            <path id="path4949" class="st0" d="M9.862,14.466v-.068M9.877,14.468v-.072"/>
            <path id="path4951" class="st0" d="M9.823,14.462v-.06M9.836,14.463v-.063M9.849,14.465v-.065"/>
            <path id="path4953" class="st0" d="M9.81,14.461v-.058"/>
            <path id="path4955" class="st0" d="M9.798,14.459v-.054"/>
            <path id="path4957" class="st0" d="M9.784,14.457v-.05"/>
            <path id="path4959" class="st0" d="M9.756,14.452v-.04M9.77,14.455v-.045"/>
            <path id="path4961" class="st0" d="M9.742,14.449v-.035"/>
            <path id="path4963" class="st0" d="M9.729,14.447v-.029"/>
            <path id="path4965" class="st0" d="M9.715,14.443v-.023"/>
            <path id="path4967" class="st0" d="M9.7,14.441v-.017"/>
            <path id="path4969" class="st0" d="M9.685,14.437v-.008"/>
          </g>
        </g>
        <g id="pillar_left">
          <g id="g4972">
            <path id="path4974" class="st4" d="M10.896,21.164c-.088,0-.166-.021-.224-.056-.057-.033-.134-.052-.22-.052-.086,0-.165.02-.222.053-.057.034-.137.055-.223.055-.088,0-.166-.023-.224-.058-.057-.031-.133-.051-.216-.051-.086,0-.163.019-.22.052-.058.035-.138.056-.225.056v.154c.087,0,.167-.022.225-.056.057-.033.133-.052.22-.052.082,0,.159.02.216.051.057.034.136.058.224.058.086,0,.166-.021.223-.055.057-.033.137-.054.222-.054.085,0,.163.02.22.053.058.035.135.056.222.056v-.154h.001Z"/>
            <path id="path4976" class="st6" d="M10.896,21.318c-.088,0-.166-.021-.224-.056-.057-.033-.134-.053-.22-.053-.086,0-.165.02-.222.054-.057.034-.137.055-.223.055-.088,0-.166-.024-.224-.058-.057-.031-.133-.051-.216-.051-.086,0-.163.019-.22.052-.058.034-.138.056-.225.056v.154c.087,0,.167-.022.225-.056.057-.033.133-.052.22-.052.082,0,.159.02.216.051.057.035.136.058.224.058.086,0,.166-.022.223-.055s.137-.054.222-.054c.085,0,.163.02.22.054.058.034.135.055.222.055v-.154"/>
            <path id="path4978" class="st4" d="M10.896,21.472c-.088,0-.166-.021-.224-.055-.057-.033-.134-.054-.22-.054-.086,0-.165.02-.222.054s-.137.055-.223.055c-.088,0-.166-.023-.224-.058-.057-.031-.133-.051-.216-.051-.086,0-.163.019-.22.052-.058.034-.138.056-.225.056v.154c.087,0,.167-.022.225-.056.057-.033.133-.051.22-.051.082,0,.159.019.216.051.057.035.136.057.224.057.086,0,.166-.02.223-.054.057-.033.137-.053.222-.053.085,0,.163.02.22.052.058.035.135.055.222.055v-.154"/>
            <path id="path4980" class="st6" d="M10.895,21.78c-.088,0-.164-.021-.222-.056-.057-.033-.134-.052-.22-.052-.086,0-.165.02-.222.053s-.137.055-.223.055c-.088,0-.166-.024-.224-.058-.057-.032-.133-.051-.216-.051-.086,0-.163.019-.22.052-.058.034-.138.056-.225.056v-.154c.087,0,.167-.023.225-.058.057-.033.133-.051.22-.051.082,0,.159.019.216.051.057.035.136.057.224.057.086,0,.166-.02.223-.054.057-.033.137-.053.222-.053.085,0,.163.02.22.052.058.035.136.055.224.055v.155"/>
            <path id="path4982" class="st4" d="M10.895,21.935c-.088,0-.164-.021-.222-.055-.057-.033-.134-.054-.22-.054-.086,0-.165.02-.222.054s-.137.055-.223.055c-.088,0-.166-.024-.224-.058-.057-.032-.133-.051-.216-.051-.086,0-.163.019-.22.052-.058.034-.138.056-.225.056v-.153c.087,0,.167-.024.225-.058.057-.033.133-.052.22-.052.082,0,.159.019.216.051.057.034.136.058.224.058.086,0,.166-.022.223-.055s.137-.053.222-.053c.085,0,.163.02.22.052.058.035.135.056.224.056v.154h-.001Z"/>
          </g>
          <g id="g4984">
            <path id="path4986" class="st10" d="M9.51,20.53c.003.013.007.026.007.04,0,.093-.072.168-.16.168h1.305c-.088,0-.16-.075-.16-.168,0-.013.002-.026.005-.04-.007.003-.016.004-.025.004h-.949c-.007,0-.016-.001-.023-.004h0Z"/>
            <path id="path4988" class="st10" d="M9.534,20.433h.949c.032,0,.058.022.058.05s-.026.051-.058.051h-.949c-.032,0-.058-.023-.058-.051s.026-.05.058-.05Z"/>
            <path id="path4990" class="st10" d="M9.36,21.111h1.301v-.373h-1.301v.373h0Z"/>
          </g>
          <path id="path4992" class="st6" d="M9.546,20.372h.924v-5.096h-.924v5.096Z"/>
          <path id="path4994" class="st0" d="M10.205,15.283v5.085M10.309,15.283v5.085"/>
          <g id="g4996">
            <path id="path4998" class="st10" d="M9.377,14.872h1.268v-.374h-1.268v.374h0Z"/>
            <path id="path5000" class="st10" d="M9.51,15.121c.008-.004.014-.004.023-.004h.949c.01,0,.018.002.026.005-.033-.012-.056-.045-.056-.084s.026-.073.059-.085c-.008.003-.019.005-.028.005h-.95c-.01,0-.019,0-.027-.004h.005c.034.013.053.047.053.084,0,.036-.022.072-.055.084h0Z"/>
            <path id="path5002" class="st10" d="M9.534,15.116h.949c.032,0,.058.022.058.05,0,.028-.026.051-.058.051h-.949c-.032,0-.058-.022-.058-.051,0-.028.026-.05.058-.05Z"/>
            <path id="path5004" class="st10" d="M9.534,14.872h.95c.032,0,.059.019.059.042,0,.024-.026.043-.059.043h-.95c-.032,0-.058-.019-.058-.043,0-.023.026-.042.058-.042Z"/>
          </g>
        </g>
        <g id="ribbon_left">
          <path id="path5007" class="st1" d="M9.258,19.112c-.129.083-.216.169-.202.212.007.039.048.068.106.112.092.072.148.201.104.26.076-.069.125-.172.125-.287,0-.12-.051-.228-.133-.297h0Z"/>
          <path id="path5009" class="st1" d="M11.415,17.182c-.201-.093-.544-.163-.938-.178-.136.001-.287.016-.443.045-.553.104-.975.353-.941.555,0,.004.002.013.003.017,0,0-.207-.525-.21-.545-.037-.225.43-.5,1.044-.616.193-.036.381-.051.544-.049.393,0,.734.057.94.143l.002.628"/>
          <path id="path5011" class="st1" d="M9.545,17.822c-.257-.02-.431-.098-.452-.218-.016-.096.071-.203.226-.3.069.009.147.019.228.019l-.002.499"/>
          <path id="path5013" class="st1" d="M10.472,17.432c.16.028.28.072.34.127l.006.011c.028.066-.112.206-.348.363l.002-.501"/>
          <path id="path5015" class="st1" d="M8.97,18.805c-.024-.082.226-.247.579-.393.162-.065.295-.132.46-.214.491-.244.853-.525.809-.627l-.005-.011c.026.024.067.527.067.527.044.093-.287.37-.74.613-.144.078-.45.205-.594.262-.258.1-.514.291-.491.361l-.086-.518h0s0,0,0,0Z"/>
        </g>
        <g id="crown_right">
          <path id="path5018" class="st1" d="M18.495,14.107s-.042.05-.073.057c-.03.006-.069-.031-.069-.031,0,0-.027.033-.061.041-.034.009-.08-.042-.08-.042,0,0-.032.051-.061.063-.029.012-.064-.015-.064-.015,0,0-.013.025-.037.039-.01.006-.027-.003-.027-.003l-.034-.024-.039-.046-.035-.015s-.016-.058-.018-.068c-.001-.01-.005-.036-.005-.036-.007-.042.049-.09.131-.11.047-.012.088-.012.117-.001.032-.031.101-.052.182-.052.073,0,.138.017.173.045.035-.028.099-.045.172-.045.081,0,.149.022.181.052.03-.01.071-.011.118.001.081.02.138.068.131.11,0,0-.003.026-.005.036-.002.01-.018.068-.018.068l-.035.015-.039.046-.033.024s-.017.009-.027.003c-.024-.013-.038-.039-.038-.039,0,0-.035.027-.064.015-.029-.012-.061-.063-.061-.063,0,0-.047.051-.081.042-.034-.008-.061-.041-.061-.041,0,0-.039.038-.069.031-.031-.007-.072-.057-.072-.057h0Z"/>
          <g id="g5020">
            <ellipse id="ellipse5022" class="st10" cx="18.493" cy="13.837" rx=".079" ry=".125"/>
            <ellipse id="ellipse5024" class="st10" cx="18.495" cy="13.837" rx=".036" ry=".116"/>
            <circle id="ellipse5026" class="st10" cx="18.494" cy="13.693" r=".053"/>
            <path id="path5028" class="st10" d="M18.568,13.673v.037h-.144v-.037h.053v-.083h-.035v-.037h.035v-.037h.035v.037h.035v.037h-.035v.083h.056"/>
            <path id="path5030" class="st0" d="M18.51,13.64c.028.009.044.041.035.07s-.038.046-.066.037-.044-.041-.035-.07c.005-.019.019-.033.037-.038"/>
          </g>
          <g id="g5032">
            <path id="path5034" class="st0" d="M17.901,14.079c-.007-.021-.013-.045-.013-.069,0-.102.072-.184.161-.184.028,0,.055.008.078.024"/>
            <path id="path5036" class="st0" d="M18.189,13.948c-.009-.017-.016-.035-.016-.054,0-.074.068-.133.15-.133.035,0,.068.011.094.029"/>
            <path id="path5038" class="st0" d="M18.798,13.949c.009-.017.014-.036.014-.056,0-.074-.067-.133-.15-.133-.035,0-.068.011-.093.029"/>
            <path id="path5040" class="st0" d="M19.084,14.079c.007-.021.012-.045.012-.069,0-.102-.072-.184-.16-.184-.028,0-.055.008-.079.024"/>
            <circle id="ellipse5042" class="st0" cx="17.853" cy="13.996" r=".026"/>
            <circle id="ellipse5044" class="st0" cx="17.863" cy="13.894" r=".026"/>
            <circle id="ellipse5046" class="st0" cx="17.921" cy="13.818" r=".026"/>
            <circle id="ellipse5048" class="st0" cx="17.998" cy="13.776" r=".026"/>
            <circle id="ellipse5050" class="st0" cx="18.08" cy="13.78" r=".026"/>
            <circle id="ellipse5052" class="st7" cx="18.13" cy="13.893" r=".026"/>
            <circle id="ellipse5054" class="st0" cx="18.144" cy="13.797" r=".026"/>
            <circle id="ellipse5056" class="st0" cx="18.208" cy="13.737" r=".026"/>
            <circle id="ellipse5058" class="st0" cx="18.289" cy="13.708" r=".026"/>
            <circle id="ellipse5060" class="st0" cx="18.371" cy="13.711" r=".026"/>
            <circle id="ellipse5062" class="st0" cx="18.614" cy="13.711" r=".026"/>
            <circle id="ellipse5064" class="st0" cx="18.696" cy="13.708" r=".026"/>
            <circle id="ellipse5066" class="st0" cx="18.776" cy="13.737" r=".026"/>
            <circle id="ellipse5068" class="st0" cx="18.841" cy="13.797" r=".026"/>
            <circle id="ellipse5070" class="st7" cx="18.855" cy="13.893" r=".026"/>
            <circle id="ellipse5072" class="st0" cx="18.905" cy="13.78" r=".026"/>
            <circle id="ellipse5074" class="st0" cx="18.988" cy="13.776" r=".026"/>
            <circle id="ellipse5076" class="st0" cx="19.064" cy="13.818" r=".026"/>
            <circle id="ellipse5078" class="st0" cx="19.122" cy="13.894" r=".026"/>
            <circle id="ellipse5080" class="st0" cx="19.132" cy="13.996" r=".026"/>
          </g>
          <g id="use5082">
            <g id="crown_pt11">
              <path id="path48641" class="st10" d="M18.091,14.352c-.011-.036-.033-.069-.033-.069.111-.036.265-.06.436-.06.171,0,.327.024.437.06,0,0-.013.024-.03.058-.01.019-.022.052-.022.052-.1-.035-.229-.052-.387-.052-.159,0-.311.022-.39.055.001,0-.006-.02-.013-.044h0"/>
              <path id="path48661" class="st10" d="M18.494,14.511c.138,0,.291-.024.347-.04.038-.013.06-.031.056-.054-.002-.01-.01-.019-.021-.024-.083-.03-.232-.051-.382-.051s-.3.021-.382.051c-.011.005-.019.014-.021.024-.004.022.018.041.056.054.056.016.209.04.348.04h0Z"/>
              <path id="path48681" class="st10" d="M18.939,14.213l-.034-.034s-.032.022-.073.015c-.04-.007-.053-.062-.053-.062,0,0-.045.043-.082.04-.037-.004-.061-.04-.061-.04,0,0-.04.033-.076.029-.035-.004-.069-.053-.069-.053,0,0-.036.051-.071.055-.035.003-.064-.035-.064-.035,0,0-.016.038-.061.046-.045.008-.084-.04-.084-.04,0,0-.026.047-.056.059-.031.012-.071-.017-.071-.017,0,0-.007.017-.011.028-.005.01-.018.012-.018.012l.01.03c.11-.036.259-.058.428-.058s.323.022.433.059l.011-.035h0,0Z"/>
              <path id="path48701" class="st10" d="M18.495,14.047l.016.003c-.003.008-.003.015-.003.024,0,.037.028.067.064.067.028,0,.052-.02.06-.047,0,0,.006-.024.009-.024.002,0,.002.026.003.026.004.034.031.057.063.057.035,0,.063-.03.063-.068,0-.003,0-.005,0-.008l.02-.022.011.028c-.004.009-.006.019-.006.029,0,.036.027.065.06.065.021,0,.039-.012.05-.029l.013-.019v.023c0,.022.008.042.028.045,0,0,.022.002.052-.024.03-.026.046-.048.046-.048l.002.027s-.029.054-.055.07c-.014.01-.036.02-.054.016-.018-.003-.031-.02-.038-.039-.013.009-.029.014-.046.014-.036,0-.068-.022-.081-.055-.016.02-.039.032-.066.032-.029,0-.055-.015-.072-.037-.016.017-.038.028-.062.028-.031,0-.06-.018-.076-.044-.016.026-.044.044-.076.044-.024,0-.046-.01-.062-.028-.016.022-.043.037-.071.037-.027,0-.05-.012-.067-.032-.013.033-.045.055-.081.055-.016,0-.032-.005-.045-.014-.007.019-.02.036-.039.039-.017.004-.039-.006-.053-.016-.027-.017-.058-.07-.058-.07l.004-.027s.016.022.046.048.052.024.052.024c.019-.003.028-.024.028-.045v-.023l.013.019c.011.017.029.029.05.029.034,0,.06-.029.06-.065,0-.011-.001-.02-.006-.029l.011-.028.02.022s0,.005,0,.008c0,.038.028.068.063.068.031,0,.059-.023.063-.057,0,0,0-.026.002-.026.003,0,.008.025.009.024.008.027.032.047.06.047.035,0,.063-.03.063-.067,0-.009,0-.017-.003-.024l.016-.003h0,0Z"/>
              <path id="path48721" class="st10" d="M18.494,14.223c-.171,0-.325.024-.436.06-.007.003-.016-.004-.019-.011-.002-.008.003-.018.01-.02.111-.038.269-.063.445-.063s.335.024.445.063c.007.003.013.012.01.02-.002.007-.011.013-.019.011-.111-.036-.266-.06-.437-.06h0Z"/>
              <path id="path48741" class="st10" d="M17.912,14.144s-.022-.031-.037-.047c-.011-.012-.039-.021-.039-.021,0-.005.016-.018.033-.018.01,0,.02.004.026.013l.002-.013s.014.003.02.02c.007.019.003.046.003.046,0,0-.003.013-.008.019h0Z"/>
              <path id="path48761" class="st10" d="M18.019,14.094l-.006.042-.08.01-.012-.008.002-.015.06-.056.035.026"/>
              <path id="path48781" class="st10" d="M17.913,14.128c.007-.008.02-.006.03.004.01.01.014.024.007.032-.007.008-.02.006-.03-.004-.01-.01-.014-.024-.007-.032Z"/>
              <path id="path48801" class="st10" d="M18.059,14.136c-.003-.012,0-.024.007-.027.008-.002.017.006.021.017.003.012,0,.024-.008.027-.007.003-.016-.005-.02-.017h0Z"/>
              <path id="path48821" class="st10" d="M18.096,14.083l.029.031.069-.042.005-.013-.01-.011-.08-.008-.014.044"/>
              <path id="path48841" class="st10" d="M18.176,13.937l-.038.041.049.073.013.006.01-.012.017-.088-.051-.02"/>
              <path id="path48861" class="st10" d="M18.306,14.035l-.015.04-.08-.008-.01-.01.006-.014.069-.041.03.033"/>
              <circle id="ellipse48881" class="st10" cx="18.201" cy="14.058" r=".028"/>
              <path id="path48901" class="st10" d="M18.335,14.077c-.002-.013.004-.024.012-.025s.016.008.017.021c.002.012-.004.024-.012.024-.008.001-.016-.008-.017-.02h0Z"/>
              <path id="path48921" class="st10" d="M18.387,14.031l.023.036.076-.027.008-.012-.009-.013-.076-.025-.023.04"/>
              <path id="path48941" class="st10" d="M18.494,13.898l-.049.033.036.088.013.009.013-.009.036-.088-.049-.033"/>
              <path id="path48961" class="st10" d="M18.601,14.031l-.022.036-.076-.027-.008-.012.008-.013.076-.025.022.04"/>
              <circle id="ellipse48981" class="st10" cx="18.494" cy="14.029" r=".028"/>
              <path id="path49001" class="st10" d="M18.655,14.077c.001-.013-.005-.024-.013-.025s-.016.008-.017.021c-.001.012.004.024.012.024.008.001.016-.008.018-.02h0Z"/>
              <path id="path49021" class="st10" d="M18.683,14.035l.015.04.08-.008.01-.01-.006-.014-.069-.041-.03.033"/>
              <path id="path49041" class="st10" d="M18.813,13.937l.038.041-.049.073-.013.006-.01-.012-.017-.088.051-.02"/>
              <path id="path49061" class="st10" d="M18.893,14.083l-.029.031-.069-.042-.006-.013.011-.011.08-.008.014.044"/>
              <circle id="ellipse49081" class="st10" cx="18.789" cy="14.058" r=".028"/>
              <path id="path49101" class="st10" d="M18.931,14.136c.003-.012,0-.024-.007-.027-.008-.002-.017.006-.021.017-.003.012,0,.024.008.027.007.003.016-.005.02-.017h0Z"/>
              <path id="path49121" class="st10" d="M19.067,14.144s.022-.031.038-.047c.011-.012.038-.021.038-.021,0-.005-.016-.018-.033-.018-.01,0-.02.004-.026.013l-.002-.013s-.014.003-.02.02c-.006.019-.002.046-.002.046,0,0,.002.013.007.019h0Z"/>
              <path id="path49141" class="st10" d="M18.959,14.094l.006.042.08.01.012-.008-.003-.015-.06-.056-.035.026"/>
              <path id="path49161" class="st10" d="M19.067,14.128c-.006-.008-.02-.006-.03.004s-.014.024-.007.032c.007.008.02.006.031-.004.01-.01.013-.024.006-.032h0Z"/>
            </g>
          </g>
          <g id="use5084">
            <g id="crown_pt21">
              <path id="path49191" class="st1" d="M18.061,14.355l.018-.032.037.008-.022.036-.033-.012"/>
              <path id="path49211" class="st8" d="M18.22,14.324l-.039.007c-.01.001-.02-.006-.022-.017-.001-.011.006-.02.015-.022l.04-.006.04-.007c.01-.001.019.006.021.016.001.011-.006.021-.015.022l-.04.007"/>
              <circle id="ellipse49231" class="st7" cx="18.353" cy="14.291" r=".025"/>
              <path id="path49251" class="st1" d="M18.496,14.303h-.055c-.01,0-.019-.009-.019-.02s.008-.02.018-.02h.112c.011,0,.019.009.019.02s-.009.02-.019.02h-.056"/>
              <circle id="ellipse49271" class="st7" cx="18.636" cy="14.291" r=".025"/>
              <path id="path49291" class="st8" d="M18.769,14.324l.039.007c.01.001.02-.006.022-.017.001-.011-.005-.02-.015-.022l-.04-.006-.04-.007c-.01-.001-.02.006-.021.016-.002.011.005.021.015.022l.04.007"/>
              <path id="path49311" class="st1" d="M18.925,14.357l-.014-.034-.038.004.018.038.034-.008"/>
              <path id="path49331" class="st1" d="M18.494,14.474c-.138,0-.263-.014-.358-.042.095-.028.22-.044.358-.045.139,0,.265.017.36.045-.096.028-.221.042-.36.042Z"/>
              <path id="path49351" class="st0" d="M18.559,14.469v-.074M18.526,14.472v-.079M18.502,14.473v-.081"/>
              <path id="path49371" class="st0" d="M18.481,14.474v-.081"/>
              <path id="path49391" class="st0" d="M18.461,14.474v-.081"/>
              <path id="path49411" class="st0" d="M18.443,14.474v-.081"/>
              <path id="path49431" class="st0" d="M18.424,14.474v-.081"/>
              <path id="path49451" class="st0" d="M18.408,14.474v-.081"/>
              <path id="path49471" class="st0" d="M18.377,14.469v-.074M18.392,14.47v-.077"/>
              <path id="path49491" class="st0" d="M18.348,14.466v-.068M18.363,14.468v-.072"/>
              <path id="path49511" class="st0" d="M18.309,14.462v-.06M18.323,14.463v-.063M18.336,14.465v-.065"/>
              <path id="path49531" class="st0" d="M18.296,14.461v-.058"/>
              <path id="path49551" class="st0" d="M18.284,14.459v-.054"/>
              <path id="path49571" class="st0" d="M18.27,14.457v-.05"/>
              <path id="path49591" class="st0" d="M18.242,14.452v-.04M18.257,14.455v-.045"/>
              <path id="path49611" class="st0" d="M18.228,14.449v-.035"/>
              <path id="path49631" class="st0" d="M18.215,14.447v-.029"/>
              <path id="path49651" class="st0" d="M18.201,14.443v-.023"/>
              <path id="path49671" class="st0" d="M18.187,14.441v-.017"/>
              <path id="path49691" class="st0" d="M18.171,14.437v-.008"/>
            </g>
          </g>
        </g>
        <g id="pillar_right">
          <g id="pillar_left1">
            <g id="g49721">
              <path id="path49741" class="st4" d="M19.382,21.164c-.088,0-.166-.021-.224-.056-.057-.033-.134-.052-.22-.052-.086,0-.165.02-.222.053-.057.034-.137.055-.223.055-.088,0-.166-.023-.224-.058-.057-.031-.133-.051-.216-.051-.086,0-.163.019-.22.052-.058.035-.138.056-.225.056v.154c.087,0,.167-.022.225-.056.057-.033.133-.052.22-.052.082,0,.159.02.216.051.057.034.136.058.224.058.086,0,.166-.021.223-.055.057-.033.137-.054.222-.054.085,0,.163.02.22.053.058.035.135.056.222.056v-.154h.001Z"/>
              <path id="path49761" class="st6" d="M19.382,21.318c-.088,0-.166-.021-.224-.056-.057-.033-.134-.053-.22-.053-.086,0-.165.02-.222.054-.057.034-.137.055-.223.055-.088,0-.166-.024-.224-.058-.057-.031-.133-.051-.216-.051-.086,0-.163.019-.22.052-.058.034-.138.056-.225.056v.154c.087,0,.167-.022.225-.056.057-.033.133-.052.22-.052.082,0,.159.02.216.051.057.035.136.058.224.058.086,0,.166-.022.223-.055s.137-.054.222-.054c.085,0,.163.02.22.054.058.034.135.055.222.055v-.154"/>
              <path id="path49781" class="st4" d="M19.382,21.472c-.088,0-.166-.021-.224-.055-.057-.033-.134-.054-.22-.054-.086,0-.165.02-.222.054s-.137.055-.223.055c-.088,0-.166-.023-.224-.058-.057-.031-.133-.051-.216-.051-.086,0-.163.019-.22.052-.058.034-.138.056-.225.056v.154c.087,0,.167-.022.225-.056.057-.033.133-.051.22-.051.082,0,.159.019.216.051.057.035.136.057.224.057.086,0,.166-.02.223-.054.057-.033.137-.053.222-.053.085,0,.163.02.22.052.058.035.135.055.222.055v-.154"/>
              <path id="path49801" class="st6" d="M19.381,21.78c-.088,0-.164-.021-.222-.056-.057-.033-.134-.052-.22-.052-.086,0-.165.02-.222.053s-.137.055-.223.055c-.088,0-.166-.024-.224-.058-.057-.032-.133-.051-.216-.051-.086,0-.163.019-.22.052-.058.034-.138.056-.225.056v-.154c.087,0,.167-.023.225-.058.057-.033.133-.051.22-.051.082,0,.159.019.216.051.057.035.136.057.224.057.086,0,.166-.02.223-.054.057-.033.137-.053.222-.053.085,0,.163.02.22.052.058.035.136.055.224.055v.155"/>
              <path id="path49821" class="st4" d="M19.381,21.935c-.088,0-.164-.021-.222-.055-.057-.033-.134-.054-.22-.054-.086,0-.165.02-.222.054s-.137.055-.223.055c-.088,0-.166-.024-.224-.058-.057-.032-.133-.051-.216-.051-.086,0-.163.019-.22.052-.058.034-.138.056-.225.056v-.153c.087,0,.167-.024.225-.058.057-.033.133-.052.22-.052.082,0,.159.019.216.051.057.034.136.058.224.058.086,0,.166-.022.223-.055s.137-.053.222-.053c.085,0,.163.02.22.052.058.035.135.056.224.056v.154h-.001Z"/>
            </g>
            <g id="g49841">
              <path id="path49861" class="st10" d="M17.997,20.53c.003.013.007.026.007.04,0,.093-.072.168-.16.168h1.305c-.088,0-.16-.075-.16-.168,0-.013.002-.026.005-.04-.007.003-.016.004-.025.004h-.949c-.007,0-.016-.001-.023-.004h0Z"/>
              <path id="path49881" class="st10" d="M18.02,20.433h.949c.032,0,.058.022.058.05s-.026.051-.058.051h-.949c-.032,0-.058-.023-.058-.051s.026-.05.058-.05Z"/>
              <path id="path49901" class="st10" d="M17.846,21.111h1.301v-.373h-1.301v.373h0Z"/>
            </g>
            <path id="path49921" class="st6" d="M18.032,20.372h.924v-5.096h-.924v5.096Z"/>
            <path id="path49941" class="st0" d="M18.691,15.283v5.085M18.795,15.283v5.085"/>
            <g id="g49961">
              <path id="path49981" class="st10" d="M17.863,14.872h1.268v-.374h-1.268v.374h0Z"/>
              <path id="path50001" class="st10" d="M17.997,15.121c.008-.004.014-.004.023-.004h.949c.01,0,.018.002.026.005-.033-.012-.056-.045-.056-.084s.026-.073.059-.085c-.008.003-.019.005-.028.005h-.95c-.01,0-.019,0-.027-.004h.005c.034.013.053.047.053.084,0,.036-.022.072-.055.084h0Z"/>
              <path id="path50021" class="st10" d="M18.02,15.116h.949c.032,0,.058.022.058.05,0,.028-.026.051-.058.051h-.949c-.032,0-.058-.022-.058-.051,0-.028.026-.05.058-.05Z"/>
              <path id="path50041" class="st10" d="M18.02,14.872h.95c.032,0,.059.019.059.042,0,.024-.026.043-.059.043h-.95c-.032,0-.058-.019-.058-.043,0-.023.026-.042.058-.042Z"/>
            </g>
          </g>
        </g>
        <g id="ribbon_right">
          <g id="ribbon_left1">
            <path id="path50071" class="st1" d="M19.248,19.112c.129.083.216.169.202.212-.007.039-.048.068-.106.112-.092.072-.148.201-.104.26-.076-.069-.125-.172-.125-.287,0-.12.051-.228.133-.297h0Z"/>
            <path id="path50091" class="st1" d="M17.091,17.182c.201-.093.544-.163.938-.178.136.001.287.016.443.045.553.104.975.353.941.555,0,.004-.002.013-.003.017,0,0,.207-.525.21-.545.037-.225-.43-.5-1.044-.616-.193-.036-.381-.051-.544-.049-.393,0-.734.057-.94.143l-.002.628"/>
            <path id="path50111" class="st1" d="M18.961,17.822c.257-.02.431-.098.452-.218.016-.096-.071-.203-.226-.3-.069.009-.147.019-.228.019l.002.499"/>
            <path id="path50131" class="st1" d="M18.034,17.432c-.16.028-.28.072-.34.127l-.006.011c-.028.066.112.206.348.363l-.002-.501"/>
            <path id="path50151" class="st1" d="M19.536,18.805c.024-.082-.226-.247-.579-.393-.162-.065-.295-.132-.46-.214-.491-.244-.853-.525-.809-.627l.005-.011c-.026.024-.067.527-.067.527-.044.093.287.37.74.613.144.078.45.205.594.262.258.1.514.291.491.361l.086-.518h0s0,0,0,0Z"/>
          </g>
        </g>
        <g id="plus_ultra">
          <path id="path5089" class="st10" d="M9.482,16.938c.113-.046.187-.101.151-.201-.023-.064-.081-.076-.169-.04l-.154.063.139.386c.015-.008.031-.015.046-.022.016-.006.032-.012.048-.017l-.061-.169h0s0,0,0,0ZM9.415,16.751l.039-.016c.032-.013.069.006.085.051.012.034.009.072-.028.099-.012.008-.026.015-.04.021l-.056-.156"/>
          <path id="path5091" class="st10" d="M9.844,16.59c-.016.005-.032.01-.049.014-.016.003-.034.006-.05.008l.08.402.249-.056c-.003-.008-.007-.017-.008-.024-.002-.009-.002-.018-.002-.026-.044.014-.092.029-.148.042l-.072-.359"/>
          <path id="path5093" class="st10" d="M10.343,16.936c.047-.146.104-.285.16-.427-.01.002-.02.004-.031.004s-.021,0-.031,0c-.03.103-.067.205-.106.307-.047-.097-.098-.191-.138-.289-.019.003-.039.006-.059.008-.019.001-.04,0-.059.001.072.132.141.263.207.399.009-.002.018-.004.028-.005.009,0,.019,0,.028.001"/>
          <path id="path5095" class="st10" d="M10.864,16.627c.009-.02.018-.038.027-.057-.014-.014-.055-.035-.103-.04-.102-.012-.16.039-.167.108-.015.145.188.132.179.228-.004.041-.043.058-.084.053-.046-.005-.08-.034-.086-.076h-.013c-.007.024-.016.048-.027.072.03.022.069.034.105.038.104.012.183-.035.191-.111.013-.138-.192-.145-.184-.227.003-.034.027-.056.08-.051.038.004.061.028.072.061h.01"/>
          <path id="path5097" class="st10" d="M17.667,16.959c.035-.149.08-.293.125-.44-.01.003-.02.006-.03.007-.01.002-.02.003-.031.003-.021.105-.05.211-.081.316-.055-.092-.114-.182-.161-.275-.019.004-.039.01-.058.013s-.039.004-.059.007c.082.124.162.249.239.378.009-.003.018-.006.028-.008.009-.001.019-.001.028-.002"/>
          <path id="path5099" class="st10" d="M18.019,16.522c-.016,0-.034.003-.05.002-.017,0-.034-.003-.051-.004l-.007.41.255.005c-.002-.008-.003-.018-.003-.026s.002-.017.004-.026c-.046.003-.096.006-.154.005l.006-.367"/>
          <path id="path5101" class="st10" d="M18.419,16.589c.041.004.08.012.119.02,0-.008-.002-.017-.001-.026,0-.008.003-.017.006-.025l-.345-.032c0,.009.002.017.001.026,0,.009-.003.017-.006.026.035-.001.078-.001.126.003l-.03.369c.016,0,.034,0,.05.002.017.001.034.004.05.007l.03-.369"/>
          <path id="path5103" class="st10" d="M18.561,16.994c.016.003.034.006.05.01.016.004.032.01.048.015l.041-.188h.005c.009.027.022.058.028.077l.051.142c.02.004.04.007.06.012.02.005.04.012.059.018l-.018-.043c-.027-.064-.056-.129-.08-.193.064.003.113-.023.125-.081.009-.04-.006-.071-.039-.098-.025-.02-.073-.03-.104-.038l-.139-.034-.088.403M18.74,16.647c.04.01.09.017.09.068,0,.013-.002.022-.003.031-.013.06-.053.081-.121.058l.034-.157"/>
          <path id="path5105" class="st10" d="M19.219,17.117c-.003.044-.01.088-.018.134.017.009.035.017.051.028.017.01.032.022.049.033l.034-.463c-.008-.004-.015-.008-.023-.012-.007-.004-.014-.01-.021-.015l-.363.259c.01.005.02.01.029.016.01.006.018.012.027.018.031-.029.063-.052.099-.083l.136.084h0s0,0,0,0ZM19.116,17.011l.121-.088-.014.154-.107-.066"/>
        </g>
      </g>
      <g id="crown_crest">
        <path id="path5108" class="st1" d="M14.217,11.694c.378,0,.715.063.934.161.125.064.294.111.478.139.141.021.274.025.39.015.155-.004.379.047.604.159.185.093.341.205.444.314l-.089.09-.026.253-.245.315-.122.117-.29.26-.148.013-.045.144-1.872-.247-1.878.247-.045-.144-.148-.013-.289-.26-.122-.117-.245-.315-.025-.253-.09-.09c.104-.109.258-.221.444-.314.225-.111.449-.163.604-.159.116.01.249.006.39-.015.184-.028.353-.075.478-.139.22-.097.537-.161.915-.161h0Z"/>
        <g id="g5110">
          <path id="path5112" class="st10" d="M12.834,12.251l.079.071.118-.218c-.128-.088-.216-.242-.216-.417,0-.02.001-.039.003-.058.012-.278.313-.507.694-.507.198,0,.377.061.503.159.003-.043.007-.08.012-.119-.138-.091-.319-.146-.515-.146-.439,0-.782.281-.798.612-.002.02-.003.039-.003.059,0,.177.072.337.185.447l-.063.116"/>
          <path id="path5114" class="st10" d="M12.839,12.253c-.15-.126-.243-.297-.243-.485,0-.216.126-.41.317-.538-.118.107-.189.245-.2.399-.002.02-.003.039-.003.059,0,.177.072.337.185.447l-.057.118"/>
          <path id="path5116" class="st10" d="M11.518,12.473c-.084-.106-.135-.243-.135-.392,0-.09.019-.176.052-.253.121-.28.502-.484.953-.484.123,0,.241.015.349.043-.024.029-.043.062-.061.095-.09-.02-.187-.031-.288-.031-.414,0-.76.181-.86.426-.027.062-.042.132-.042.205,0,.148.062.282.159.372l-.15.275-.08-.072.103-.184h0Z"/>
          <path id="path5118" class="st10" d="M11.671,11.551c-.109.077-.191.172-.237.278-.033.077-.052.163-.052.253,0,.149.051.286.135.392l-.091.166c-.087-.125-.138-.273-.138-.429,0-.269.152-.504.382-.659h0Z"/>
          <path id="path5120" class="st10" d="M14.239,10.961c.1,0,.187.074.207.175.013.088.022.189.023.296,0,.012,0,.022,0,.033,0,.013.002.026.003.039.003.225.032.424.072.545l-.305.329-.309-.329c.041-.122.069-.32.073-.545,0-.013.002-.026.002-.039,0-.011,0-.022,0-.033.002-.107.01-.207.023-.296.02-.1.11-.175.21-.175h0Z"/>
          <path id="path5122" class="st10" d="M14.239,11.068c.052,0,.096.037.106.089.013.084.021.179.023.28,0,.01,0,.02,0,.031,0,.013.002.025.002.038.003.212.03.4.069.515l-.201.214-.201-.214c.038-.115.065-.303.069-.515,0-.013.002-.025.002-.038,0-.01,0-.02,0-.031.002-.101.01-.196.023-.28.01-.052.058-.089.11-.089h0Z"/>
          <path id="path5124" class="st10" d="M15.642,12.251l-.079.071-.118-.218c.129-.088.217-.242.217-.417,0-.02-.001-.039-.003-.058-.012-.278-.313-.507-.694-.507-.199,0-.377.061-.503.159-.003-.043-.007-.08-.013-.119.139-.091.319-.146.515-.146.439,0,.782.281.798.612.002.02.003.039.003.059,0,.177-.072.337-.186.447l.063.116"/>
          <path id="path5126" class="st10" d="M15.637,12.253c.15-.126.243-.297.243-.485,0-.216-.126-.41-.317-.538.118.107.189.245.2.399.002.02.003.039.003.059,0,.177-.072.337-.186.447l.058.118"/>
          <path id="path5128" class="st10" d="M16.958,12.473c.084-.106.135-.243.135-.392,0-.09-.019-.176-.052-.253-.122-.28-.502-.484-.953-.484-.123,0-.241.015-.35.043.024.029.043.062.062.095.09-.02.187-.031.288-.031.414,0,.759.181.86.426.027.062.042.132.042.205,0,.148-.062.282-.159.372l.15.275.081-.072-.103-.184h0Z"/>
          <path id="path5130" class="st10" d="M16.805,11.551c.109.077.191.172.237.278.033.077.052.163.052.253,0,.149-.052.286-.135.392l.091.166c.087-.125.137-.273.137-.429,0-.269-.152-.504-.381-.659h0Z"/>
          <ellipse id="ellipse5132" class="st4" cx="14.24" cy="10.707" rx=".252" ry=".269"/>
          <path id="path5134" class="st10" d="M14.174,9.955v.145h-.138v.147h.138v.423h-.174c-.002.013-.013.024-.013.038,0,.037.007.073.02.105,0,.001.001.001.002.002h.462s.001,0,.002-.002c.013-.032.02-.068.02-.105,0-.014-.011-.024-.013-.038h-.168v-.423h.138v-.147h-.138v-.145h-.138,0Z"/>
        </g>
        <g id="g5136">
          <ellipse id="ellipse5138" class="st7" cx="14.239" cy="12.092" rx=".109" ry=".115"/>
          <ellipse id="ellipse5140" class="st7" cx="14.239" cy="11.866" rx=".109" ry=".115"/>
          <ellipse id="ellipse5142" class="st7" cx="14.239" cy="11.622" rx=".086" ry=".092"/>
          <ellipse id="ellipse5144" class="st7" cx="14.239" cy="11.404" rx=".063" ry=".067"/>
          <circle id="ellipse5146" class="st7" cx="14.239" cy="11.212" r=".05"/>
          <ellipse id="ellipse5148" class="st7" cx="11.332" cy="12.715" rx=".063" ry=".067"/>
          <ellipse id="ellipse5150" class="st7" cx="11.247" cy="12.545" rx=".063" ry=".067"/>
          <ellipse id="ellipse5152" class="st7" cx="11.19" cy="12.348" rx=".063" ry=".067"/>
          <ellipse id="ellipse5154" class="st7" cx="11.182" cy="12.137" rx=".063" ry=".067"/>
          <ellipse id="ellipse5156" class="st7" cx="11.228" cy="11.93" rx=".063" ry=".067"/>
          <ellipse id="ellipse5158" class="st7" cx="11.325" cy="11.741" rx=".063" ry=".067"/>
          <ellipse id="ellipse5160" class="st7" cx="11.453" cy="11.585" rx=".063" ry=".067"/>
          <ellipse id="ellipse5162" class="st7" cx="11.602" cy="11.457" rx=".063" ry=".067"/>
          <ellipse id="ellipse5164" class="st7" cx="11.779" cy="11.351" rx=".063" ry=".067"/>
          <ellipse id="ellipse5166" class="st7" cx="11.963" cy="11.276" rx=".063" ry=".067"/>
          <ellipse id="ellipse5168" class="st7" cx="12.169" cy="11.235" rx=".063" ry=".067"/>
          <ellipse id="ellipse5170" class="st7" cx="12.365" cy="11.223" rx=".063" ry=".067"/>
          <ellipse id="ellipse5172" class="st7" cx="12.557" cy="11.231" rx=".063" ry=".067"/>
          <ellipse id="ellipse5174" class="st7" cx="12.77" cy="12.18" rx=".063" ry=".067"/>
          <ellipse id="ellipse5176" class="st7" cx="12.663" cy="12.01" rx=".063" ry=".067"/>
          <ellipse id="ellipse5178" class="st7" cx="12.607" cy="11.824" rx=".063" ry=".067"/>
          <ellipse id="ellipse5180" class="st7" cx="12.614" cy="11.62" rx=".063" ry=".067"/>
          <ellipse id="ellipse5182" class="st7" cx="12.653" cy="11.416" rx=".063" ry=".067"/>
          <ellipse id="ellipse5184" class="st7" cx="12.749" cy="11.231" rx=".063" ry=".067"/>
          <ellipse id="ellipse5186" class="st7" cx="12.894" cy="11.102" rx=".063" ry=".067"/>
          <ellipse id="ellipse5188" class="st7" cx="13.064" cy="10.996" rx=".063" ry=".067"/>
          <ellipse id="ellipse5190" class="st7" cx="13.253" cy="10.932" rx=".063" ry=".067"/>
          <ellipse id="ellipse5192" class="st7" cx="13.448" cy="10.895" rx=".063" ry=".067"/>
          <ellipse id="ellipse5194" class="st7" cx="13.639" cy="10.898" rx=".063" ry=".067"/>
          <ellipse id="ellipse5196" class="st7" cx="13.838" cy="10.936" rx=".063" ry=".067"/>
          <ellipse id="ellipse5198" class="st7" cx="14.022" cy="11.007" rx=".063" ry=".067"/>
          <ellipse id="ellipse5200" class="st7" cx="14.453" cy="11.007" rx=".063" ry=".067"/>
          <ellipse id="ellipse5202" class="st7" cx="14.637" cy="10.936" rx=".063" ry=".067"/>
          <ellipse id="ellipse5204" class="st7" cx="14.836" cy="10.898" rx=".063" ry=".067"/>
          <ellipse id="ellipse5206" class="st7" cx="15.028" cy="10.895" rx=".063" ry=".067"/>
          <ellipse id="ellipse5208" class="st7" cx="15.223" cy="10.932" rx=".063" ry=".067"/>
          <ellipse id="ellipse5210" class="st7" cx="15.411" cy="10.996" rx=".063" ry=".067"/>
          <ellipse id="ellipse5212" class="st7" cx="15.582" cy="11.102" rx=".063" ry=".067"/>
          <ellipse id="ellipse5214" class="st7" cx="15.727" cy="11.231" rx=".063" ry=".067"/>
          <ellipse id="ellipse5216" class="st7" cx="15.823" cy="11.416" rx=".063" ry=".067"/>
          <ellipse id="ellipse5218" class="st7" cx="15.862" cy="11.62" rx=".063" ry=".067"/>
          <ellipse id="ellipse5220" class="st7" cx="15.869" cy="11.824" rx=".063" ry=".067"/>
          <ellipse id="ellipse5222" class="st7" cx="15.812" cy="12.01" rx=".063" ry=".067"/>
          <ellipse id="ellipse5224" class="st7" cx="15.706" cy="12.18" rx=".063" ry=".067"/>
          <ellipse id="ellipse5226" class="st7" cx="15.919" cy="11.231" rx=".063" ry=".067"/>
          <ellipse id="ellipse5228" class="st7" cx="16.111" cy="11.223" rx=".063" ry=".067"/>
          <ellipse id="ellipse5230" class="st7" cx="16.306" cy="11.235" rx=".063" ry=".067"/>
          <ellipse id="ellipse5232" class="st7" cx="16.512" cy="11.276" rx=".063" ry=".067"/>
          <ellipse id="ellipse5234" class="st7" cx="16.697" cy="11.351" rx=".063" ry=".067"/>
          <ellipse id="ellipse5236" class="st7" cx="16.874" cy="11.457" rx=".063" ry=".067"/>
          <ellipse id="ellipse5238" class="st7" cx="17.023" cy="11.585" rx=".063" ry=".067"/>
          <ellipse id="ellipse5240" class="st7" cx="17.151" cy="11.741" rx=".063" ry=".067"/>
          <ellipse id="ellipse5242" class="st7" cx="17.247" cy="11.93" rx=".063" ry=".067"/>
          <ellipse id="ellipse5244" class="st7" cx="17.293" cy="12.137" rx=".063" ry=".067"/>
          <ellipse id="ellipse5246" class="st7" cx="17.286" cy="12.348" rx=".063" ry=".067"/>
          <ellipse id="ellipse5248" class="st7" cx="17.229" cy="12.545" rx=".063" ry=".067"/>
          <ellipse id="ellipse5250" class="st7" cx="17.144" cy="12.715" rx=".063" ry=".067"/>
        </g>
        <g id="g5252">
          <path id="path5254" class="st10" d="M14.245,14.476c-.697-.001-1.323-.094-1.769-.245-.032-.012-.049-.045-.048-.08,0-.033.016-.064.048-.075.446-.151,1.071-.244,1.769-.245.698.001,1.323.094,1.769.245.031.011.048.042.047.075.002.035-.015.068-.047.08-.446.151-1.071.244-1.769.245"/>
          <path id="path5256" class="st10" d="M14.241,13.83c-.706.002-1.34.101-1.786.256.037-.02.034-.072-.013-.205-.056-.162-.142-.155-.142-.155.493-.164,1.179-.266,1.943-.268.765.001,1.456.104,1.95.268,0,0-.087-.007-.143.155-.046.133-.049.185-.012.205-.446-.155-1.092-.254-1.798-.256"/>
          <path id="path5258" class="st10" d="M14.244,13.459c-.764.001-1.451.104-1.943.268-.033.011-.068-.003-.079-.038s.007-.076.04-.086c.496-.171,1.199-.278,1.982-.28.783.002,1.49.109,1.985.28.033.011.051.051.04.086s-.046.049-.079.038c-.493-.164-1.182-.266-1.947-.268"/>
          <path id="path5260" class="st10" d="M14.248,12.786l.07.014c-.011.032-.014.067-.014.104,0,.164.126.298.28.298.124,0,.23-.086.266-.205.005.003.027-.108.039-.106.01.001.009.115.013.113.018.15.14.252.277.252.154,0,.279-.133.279-.298,0-.012,0-.024-.002-.036l.088-.097.047.124c-.019.039-.026.083-.026.13,0,.157.119.284.267.284.093,0,.174-.05.222-.126l.056-.08v.098c0,.099.037.188.122.204,0,0,.098.006.229-.109.13-.115.202-.211.202-.211l.011.115s-.108.189-.226.266c-.065.042-.163.086-.241.072-.082-.015-.141-.09-.171-.175-.059.039-.128.062-.202.062-.16,0-.303-.099-.36-.247-.073.09-.176.144-.296.144-.127,0-.244-.065-.317-.164-.072.074-.17.12-.278.12-.141,0-.267-.078-.338-.195-.071.117-.197.195-.338.195-.108,0-.205-.045-.277-.12-.073.099-.19.164-.317.164-.12,0-.222-.054-.295-.144-.057.148-.2.247-.36.247-.075,0-.143-.023-.202-.062-.031.086-.089.16-.172.175-.077.014-.175-.03-.24-.072-.118-.077-.226-.266-.226-.266l.011-.115s.072.095.203.211c.13.116.229.109.229.109.086-.016.123-.104.123-.204v-.098s.056.08.056.08c.048.076.13.126.222.126.147,0,.267-.127.267-.284,0-.047-.007-.091-.026-.13l.047-.124.088.097c-.001.012-.002.024-.002.036,0,.164.125.298.279.298.138,0,.259-.102.278-.252.003.002.003-.112.013-.113.011-.001.034.109.038.106.036.119.142.205.266.205.154,0,.279-.133.279-.298,0-.037-.002-.072-.014-.104l.073-.014"/>
          <path id="path5262" class="st10" d="M11.868,13.204c-.006-.024-.02-.048-.041-.068-.045-.044-.105-.051-.134-.016-.004.004-.007.011-.01.016,0,0-.063-.133-.137-.178-.073-.045-.199-.033-.199-.033,0-.102.074-.185.17-.185.056,0,.109.026.141.071l.013-.068s.077.017.113.116-.003.243-.003.243c0,0,.019-.061.048-.103.029-.041.103-.086.142-.106.038-.02.078-.051.078-.051,0,0,.002.012.003.039.002.033,0,.053,0,.053.071-.011.153.003.218.031-.028.061-.08.118-.149.147,0,0,.025.023.047.048.019.022.025.031.025.031,0,0-.048.008-.072.012-.024.003-.105.018-.153.014-.035-.003-.075-.009-.099-.014"/>
          <path id="path5264" class="st1" d="M11.693,13.121c.03-.035.089-.028.134.016.046.043.058.106.029.14-.029.035-.089.027-.134-.016-.045-.044-.058-.106-.029-.14"/>
          <path id="path5266" class="st7" d="M12.325,13.178c-.016-.053-.002-.106.032-.117.034-.012.075.021.091.074s.002.106-.032.118c-.034.012-.075-.022-.091-.075"/>
          <path id="path5268" class="st10" d="M12.878,12.919c-.019-.017-.034-.041-.038-.069s0-.056.013-.079c0,0-.05-.028-.104-.044-.041-.012-.113-.013-.135-.013-.022-.001-.065-.002-.065-.002,0,0,.004.011.016.035.015.029.028.048.028.048-.072.019-.134.072-.172.134.056.044.131.07.205.062,0,0-.007.022-.011.055-.003.028-.003.039-.003.039,0,0,.04-.017.061-.025.02-.008.088-.035.122-.061.046-.035.084-.08.084-.08"/>
          <path id="path5270" class="st10" d="M12.853,12.266c.06.043.113.115.131.194,0,0,.007-.016.04-.038.034-.021.062-.02.062-.02,0,0-.01.062-.014.084-.005.022-.005.088-.018.148-.013.06-.036.108-.036.108-.024-.022-.056-.033-.09-.026-.033.006-.06.028-.075.058,0,0-.038-.037-.069-.088-.031-.052-.053-.114-.064-.133-.012-.019-.041-.074-.041-.074,0,0,.027-.012.065-.003.038.008.05.02.05.02-.008-.082.016-.168.059-.23"/>
          <path id="path5272" class="st10" d="M13.04,12.888c.013-.022.018-.051.014-.079s-.018-.052-.038-.068c0,0,.038-.045.084-.081.034-.026.102-.052.122-.061.02-.008.061-.026.061-.026,0,0,0,.012-.003.039-.005.033-.011.056-.011.056.074-.009.149.019.205.063-.039.062-.101.115-.173.133,0,0,.013.018.028.047.012.025.016.036.016.036,0,0-.044-.001-.065-.002-.022,0-.094,0-.135-.013-.054-.016-.105-.044-.105-.044"/>
          <ellipse id="ellipse5274" class="st1" cx="12.949" cy="12.829" rx=".123" ry=".132"/>
          <path id="path5276" class="st7" d="M13.54,12.913c-.006-.056.018-.104.053-.109.036-.004.07.036.076.092.006.055-.017.104-.053.109-.035.004-.069-.036-.076-.092"/>
          <path id="path5278" class="st10" d="M14.151,12.789c-.018-.023-.03-.052-.03-.085,0-.032.011-.062.029-.084,0,0-.051-.043-.108-.072-.044-.022-.124-.038-.148-.043-.024-.005-.073-.015-.073-.015,0,0,.002.013.011.043.011.036.023.06.023.06-.084.005-.162.052-.217.113.055.06.133.106.217.112,0,0-.011.023-.023.06-.009.029-.011.043-.011.043,0,0,.048-.01.073-.015.024-.005.104-.02.148-.043.057-.029.109-.071.109-.071"/>
          <path id="path5280" class="st10" d="M14.243,12.055c.06.061.105.151.111.244,0,0,.011-.017.052-.034.042-.017.073-.01.073-.01,0,0-.022.067-.031.091-.01.024-.022.098-.048.162-.025.064-.06.113-.06.113-.023-.029-.057-.048-.095-.048-.039,0-.072.019-.095.048,0,0-.035-.049-.06-.113-.026-.064-.038-.138-.048-.162s-.032-.091-.032-.091c0,0,.032-.006.073.01s.052.034.052.034c.006-.093.049-.184.108-.244"/>
          <path id="path5282" class="st10" d="M14.337,12.789c.019-.023.03-.052.03-.085,0-.032-.011-.062-.029-.084,0,0,.051-.043.108-.072.043-.022.123-.038.148-.043.024-.005.072-.015.072-.015,0,0-.001.013-.011.043-.011.036-.023.06-.023.06.084.005.163.052.217.113-.054.06-.133.106-.217.112,0,0,.011.023.023.06.009.029.011.043.011.043l-.072-.015c-.024-.005-.105-.02-.148-.043-.057-.029-.109-.071-.109-.071"/>
          <ellipse id="ellipse5284" class="st1" cx="14.245" cy="12.704" rx=".123" ry=".132"/>
          <path id="path5286" class="st7" d="M14.952,12.913c.006-.056-.017-.104-.053-.109-.036-.004-.07.036-.076.092-.006.055.018.104.053.109.036.004.07-.036.076-.092"/>
          <path id="path5288" class="st10" d="M15.453,12.888c-.013-.022-.018-.051-.014-.079.005-.028.019-.052.038-.068,0,0-.038-.045-.084-.081-.035-.026-.102-.052-.123-.061-.02-.008-.06-.026-.06-.026,0,0,0,.012.003.039.005.033.011.056.011.056-.073-.009-.148.019-.205.063.039.062.101.115.172.133,0,0-.013.018-.028.047-.013.025-.016.036-.016.036l.065-.002c.022,0,.094,0,.135-.013.054-.016.105-.044.105-.044"/>
          <path id="path5290" class="st10" d="M15.64,12.266c-.06.043-.113.115-.131.194,0,0-.007-.016-.04-.038-.033-.021-.062-.02-.062-.02,0,0,.01.062.015.084.005.022.005.088.018.148.013.06.036.108.036.108.024-.022.056-.033.089-.026.034.006.06.028.076.058,0,0,.038-.037.069-.088.031-.052.052-.114.064-.133.012-.019.041-.074.041-.074,0,0-.027-.012-.065-.003-.038.008-.05.02-.05.02.009-.082-.016-.168-.059-.23"/>
          <path id="path5292" class="st10" d="M15.615,12.919c.019-.017.034-.041.038-.069.005-.028,0-.056-.013-.079,0,0,.05-.028.104-.044.041-.012.113-.013.134-.013.022-.001.065-.002.065-.002,0,0-.003.011-.016.035-.015.029-.028.048-.028.048.072.019.133.072.172.134-.056.044-.131.07-.205.062,0,0,.006.022.011.055.003.028.003.039.003.039,0,0-.04-.017-.06-.025-.02-.008-.088-.035-.123-.061-.045-.035-.084-.08-.084-.08"/>
          <ellipse id="ellipse5294" class="st1" cx="15.544" cy="12.829" rx=".123" ry=".132"/>
          <path id="path5296" class="st7" d="M16.169,13.178c.016-.053.002-.106-.032-.117-.034-.012-.075.021-.092.074-.016.053-.002.106.032.118.034.012.075-.022.092-.075"/>
          <path id="path5298" class="st10" d="M16.624,13.204c.006-.024.02-.048.041-.068.045-.044.105-.051.134-.016.004.004.008.011.01.016,0,0,.063-.133.137-.178s.199-.033.199-.033c0-.102-.075-.185-.171-.185-.056,0-.109.026-.141.071l-.013-.068s-.077.017-.113.116c-.035.099.003.243.003.243,0,0-.019-.061-.048-.103-.029-.041-.103-.086-.142-.106-.039-.02-.078-.051-.078-.051,0,0-.002.012-.003.039-.001.033.001.053.001.053-.071-.011-.154.003-.218.031.027.061.08.118.148.147,0,0-.024.023-.047.048-.019.022-.024.031-.024.031,0,0,.048.008.072.012.024.003.105.018.152.014.036-.003.075-.009.099-.014"/>
          <path id="path5300" class="st1" d="M16.8,13.121c-.029-.035-.089-.028-.134.016-.045.043-.058.106-.029.14.029.035.089.027.134-.016.045-.044.058-.106.029-.14"/>
        </g>
        <g id="g5302">
          <path id="path5304" class="st1" d="M14.244,14.372c-.629,0-1.199-.083-1.632-.209.433-.126,1.002-.203,1.632-.204.63.001,1.202.078,1.635.204-.433.126-1.005.208-1.635.209h0Z"/>
          <path id="path5306" class="st0" d="M14.694,14.354v-.385M14.522,14.367l.002-.408M14.397,14.372v-.415"/>
          <path id="path5308" class="st0" d="M14.291,14.377v-.42"/>
          <path id="path5310" class="st0" d="M14.189,14.377v-.42"/>
          <path id="path5312" class="st0" d="M14.093,14.377v-.42"/>
          <path id="path5314" class="st0" d="M13.998,14.377v-.42"/>
          <path id="path5316" class="st0" d="M13.914,14.377v-.42"/>
          <path id="path5318" class="st0" d="M13.752,14.354l-.002-.382M13.829,14.359v-.4"/>
          <path id="path5320" class="st0" d="M13.603,14.337v-.352M13.679,14.347l-.002-.375"/>
          <path id="path5322" class="st0" d="M13.403,14.317v-.31M13.469,14.322v-.325M13.536,14.332v-.338"/>
          <path id="path5324" class="st0" d="M13.333,14.314v-.3"/>
          <path id="path5326" class="st0" d="M13.268,14.299v-.279"/>
          <path id="path5328" class="st0" d="M13.198,14.292v-.26"/>
          <path id="path5330" class="st0" d="M13.055,14.269l-.002-.206M13.128,14.279v-.232"/>
          <path id="path5332" class="st0" d="M12.981,14.252v-.182"/>
          <path id="path5334" class="st0" d="M12.914,14.237v-.151"/>
          <path id="path5336" class="st0" d="M12.84,14.216v-.118"/>
          <path id="path5338" class="st0" d="M12.764,14.207v-.088"/>
          <path id="path5340" class="st0" d="M12.685,14.186v-.043"/>
          <path id="path5342" class="st0" d="M12.537,14.186c.441-.14,1.04-.225,1.707-.227.667.001,1.269.087,1.71.227"/>
          <path id="path5344" class="st1" d="M12.343,13.898l.069-.102.192.028-.153.125-.108-.051"/>
          <path id="path5346" class="st7" d="M12.759,13.778c0-.037.028-.067.063-.067s.063.029.063.067c0,.036-.028.067-.063.067s-.063-.03-.063-.067"/>
          <path id="path5348" class="st8" d="M13.306,13.764l-.134.017c-.035.004-.067-.021-.071-.058-.005-.036.02-.07.055-.074l.135-.018.138-.018c.034-.004.065.021.069.058s-.02.07-.055.074l-.137.018"/>
          <path id="path5350" class="st7" d="M13.699,13.654c0-.037.028-.067.063-.067.034,0,.063.029.063.067,0,.036-.028.067-.063.067-.035,0-.063-.03-.063-.067"/>
          <path id="path5352" class="st1" d="M14.245,13.706h-.187c-.034,0-.063-.029-.063-.066,0-.037.028-.067.063-.067h.378c.035,0,.063.029.063.067,0,.036-.029.066-.063.066h-.189"/>
          <path id="path5354" class="st7" d="M14.667,13.654c0-.037.028-.067.063-.067.035,0,.063.029.063.067,0,.036-.028.067-.063.067-.034,0-.063-.03-.063-.067"/>
          <path id="path5356" class="st8" d="M15.185,13.764l.134.017c.034.004.067-.021.071-.058s-.02-.07-.055-.074l-.135-.018-.138-.018c-.035-.004-.065.021-.069.058-.005.036.02.07.055.074l.137.018"/>
          <path id="path5358" class="st7" d="M15.606,13.778c0-.037.028-.067.063-.067s.063.029.063.067c0,.036-.028.067-.063.067s-.063-.03-.063-.067"/>
          <path id="path5360" class="st1" d="M16.147,13.898l-.069-.102-.192.028.153.125.108-.051"/>
        </g>
      </g>
      <g id="shield">
        <g id="Granada">
          <path id="path5364" class="st6" d="M14.265,22.037c-.744,0-1.482-.205-2.102-.547-.457-.255-.76-.768-.76-1.356v-2.131h5.713v2.131c0,.588-.303,1.101-.76,1.356-.62.342-1.346.547-2.091.547h0Z"/>
          <path id="path5366" class="st9" d="M14.402,21.091c.119.04.179.14.179.257,0,.152-.131.268-.302.268s-.308-.115-.308-.268c0-.115.057-.243.175-.252,0,0-.003-.012-.014-.032-.013-.015-.036-.042-.036-.042,0,0,.045-.01.071.001.026.012.044.03.044.03,0,0,.012-.028.03-.049.017-.021.04-.034.04-.034,0,0,.026.024.035.041.009.017.014.038.014.038,0,0,.024-.022.045-.031.021-.01.048-.017.048-.017,0,0-.007.029-.013.044s-.008.046-.008.046"/>
          <path id="path5368" class="st8" d="M14.255,21.78s-.226-.172-.324-.195c-.126-.03-.267-.006-.328-.01.002.002.073.06.105.095.031.035.136.106.195.122.183.052.352-.013.352-.013"/>
          <path id="path5370" class="st8" d="M14.32,21.796s.144-.17.296-.193c.179-.028.297.017.366.037.002,0-.057.031-.089.056-.031.024-.112.1-.236.102-.124.002-.261-.015-.283-.011-.023.004-.056.01-.056.01"/>
          <path id="path5372" class="st1" d="M14.276,21.586c-.057-.06-.092-.144-.092-.238,0-.093.035-.178.093-.237.056.06.092.144.092.237,0,.094-.035.179-.092.238"/>
          <path id="path5374" class="st8" d="M14.219,21.933s.035-.097.038-.181c.003-.07-.009-.139-.009-.139h.046s.022.074.022.139c0,.065-.01.152-.01.152,0,0-.031.005-.042.011-.011.006-.046.019-.046.019"/>
        </g>
        <g id="Aragon">
          <path id="path5377" class="st1" d="M14.255,20.132c0,.842-.635,1.524-1.425,1.524s-1.431-.682-1.431-1.524v-2.134h2.856v2.134"/>
          <path id="path5379" class="st10" d="M11.394,20.104c.009.449.168.784.326,1.003v-3.166h-.322l-.004,2.163h0Z"/>
          <path id="path5381" class="st10" d="M12.023,21.391c.089.053.212.142.343.177l-.009-3.645h-.335v3.468h0Z"/>
          <path id="path5383" class="st10" d="M12.66,21.648c.131.015.228.012.334,0v-3.725h-.334v3.725Z"/>
          <path id="path5385" class="st10" d="M13.288,21.568c.131-.029.279-.121.343-.168v-3.477h-.335l-.009,3.645h0Z"/>
          <path id="path5387" class="st10" d="M13.942,21.071c.139-.14.27-.456.318-.817l.008-2.332h-.334l.008,3.149h0Z"/>
        </g>
        <g id="Navarre">
          <path id="path5390" class="st1" d="M17.118,17.998v2.134c0,.842-.642,1.524-1.432,1.524s-1.431-.682-1.431-1.524v-2.134h2.863"/>
          <path id="chains_half" class="st10" d="M15.529,19.593c.003-.009.007-.017.011-.026l-.242-.303-.095.046-.174-.217.057-.093-.304-.383s-.011.001-.015.003l.002.257.1.032v.285l-.1.031-.002.261c.048.017.084.056.099.107h.183s.029-.106.029-.106h.269l.028.107h.155,0ZM15.132,18.409v.103h.157v-.103h-.157ZM14.716,19.713c.036,0,.066-.031.066-.07s-.03-.071-.066-.071c-.037,0-.067.032-.067.071s.03.07.067.07ZM15.626,19.09l-.1-.031v-.285l.1-.032v-.123c-.049-.016-.087-.056-.102-.107h-.152l-.029.107h-.268l-.029-.107h-.176c-.005.014-.01.027-.016.039l.306.381.095-.045.174.218-.057.093.238.297c.005-.003.01-.005.016-.008v-.397s.001,0,.001,0ZM15.214,19.001l-.073.067.101.127.073-.067-.101-.126ZM15.669,21.317c-.071-.004-.128-.058-.143-.129-.095-.015-.185-.042-.269-.083l.048-.092c.073.035.151.058.232.071.018-.042.049-.074.09-.09v-.36s-.1-.031-.1-.031v-.285l.1-.031v-.489s-.007-.003-.011-.006l-.226.283.057.092-.174.218-.095-.045-.188.235c.032.056.031.128-.006.182.053.067.115.127.184.176l-.048.092c-.081-.057-.154-.127-.216-.206-.049.017-.106.007-.148-.032-.065-.06-.073-.164-.017-.233l.008-.01c-.039-.1-.066-.207-.075-.32h.097c.008.097.029.188.062.274.028-.004.057,0,.083.01l.189-.236-.057-.093.174-.218.095.046.227-.284c-.005-.009-.009-.019-.012-.029h-.157s-.028.108-.028.108h-.269l-.029-.107h-.184c-.015.048-.051.086-.096.103v.259s-.098,0-.098,0v-.257c-.063-.021-.109-.084-.109-.158,0-.074.047-.138.109-.159v-.259s-.1-.031-.1-.031v-.285l.1-.032v-.259c-.061-.022-.105-.084-.105-.157,0-.092.069-.165.155-.165.069,0,.128.047.148.114h.176l.029-.107h.268l.029.107h.152c.02-.066.078-.113.146-.114l.004.536h-.048v.167h.048v1.382h-.046v.167h.044l-.003.77h0ZM15.332,20.145l-.073-.067-.101.127.073.067.101-.127ZM14.766,18.965h-.096v.167s.096,0,.096,0v-.167ZM15.287,19.695v-.102h-.162v.102h.162ZM14.684,20.316l-.1-.025-.014-.285.1-.037v.164c0,.063.005.123.015.183h0ZM14.767,19.962l.1.026s.005.184.003.142c-.002-.047.011.143.011.143l-.1.037c-.01-.058-.014-.118-.014-.179v-.17s0,0,0,0ZM15.382,21.046l.022-.109c-.086-.031-.167-.076-.237-.134l-.072.071c.084.074.181.133.287.172h0ZM15.334,21.138l-.074.078c-.084-.035-.163-.081-.234-.135l.022-.113c.085.072.183.13.287.17h0Z"/>
          <g id="use5393">
            <path id="chains_half1" class="st10" d="M15.814,19.593c-.003-.009-.007-.017-.011-.026l.242-.303.095.046.174-.217-.057-.093.304-.383s.011.001.015.003l-.002.257-.1.032v.285l.1.031.002.261c-.048.017-.084.056-.099.107h-.183s-.029-.106-.029-.106h-.269l-.028.107h-.155,0ZM16.211,18.409v.103h-.157v-.103h.157ZM16.626,19.713c-.036,0-.066-.031-.066-.07s.03-.071.066-.071c.037,0,.067.032.067.071s-.03.07-.067.07ZM15.716,19.09l.1-.031v-.285l-.1-.032v-.123c.049-.016.087-.056.102-.107h.152l.029.107h.268l.029-.107h.176c.005.014.01.027.016.039l-.306.381-.095-.045-.174.218.057.093-.238.297c-.005-.003-.01-.005-.016-.008v-.397s-.001,0-.001,0ZM16.129,19.001l.073.067-.101.127-.073-.067.101-.126ZM15.674,21.317c.071-.004.128-.058.143-.129.095-.015.185-.042.269-.083l-.048-.092c-.073.035-.151.058-.232.071-.018-.042-.049-.074-.09-.09v-.36s.1-.031.1-.031v-.285l-.1-.031v-.489s.007-.003.011-.006l.226.283-.057.092.174.218.095-.045.188.235c-.032.056-.031.128.006.182-.053.067-.115.127-.184.176l.048.092c.081-.057.154-.127.216-.206.049.017.106.007.148-.032.065-.06.073-.164.017-.233l-.008-.01c.039-.1.066-.207.075-.32h-.097c-.008.097-.029.188-.062.274-.028-.004-.057,0-.083.01l-.189-.236.057-.093-.174-.218-.095.046-.227-.284c.005-.009.009-.019.012-.029h.157s.028.108.028.108h.269l.029-.107h.184c.015.048.051.086.096.103v.259s.098,0,.098,0v-.257c.063-.021.109-.084.109-.158,0-.074-.047-.138-.109-.159v-.259s.1-.031.1-.031v-.285l-.1-.032v-.259c.061-.022.105-.084.105-.157,0-.092-.069-.165-.155-.165-.069,0-.128.047-.148.114h-.176l-.029-.107h-.268l-.029.107h-.152c-.02-.066-.078-.113-.146-.114l-.004.536h.048v.167h-.048v1.382h.046v.167h-.044l.003.77h0ZM16.01,20.145l.073-.067.101.127-.073.067-.101-.127ZM16.577,18.965h.096v.167s-.096,0-.096,0v-.167ZM16.055,19.695v-.102h.162v.102h-.162ZM16.658,20.316l.1-.025.014-.285-.1-.037v.164c0,.063-.005.123-.015.183h0ZM16.575,19.962l-.1.026s-.005.184-.003.142c.002-.047-.011.143-.011.143l.1.037c.01-.058.014-.118.014-.179v-.17s0,0,0,0ZM15.96,21.046l-.022-.109c.086-.031.167-.076.237-.134l.072.071c-.084.074-.181.133-.287.172h0ZM16.009,21.138l.074.078c.084-.035.163-.081.234-.135l-.022-.113c-.085.072-.183.13-.287.17h0Z"/>
          </g>
          <path id="path5395" class="st8" d="M15.522,19.644c0-.092.07-.166.156-.166s.155.074.155.166c0,.092-.069.165-.155.165s-.156-.074-.156-.165"/>
        </g>
        <g id="Castile">
          <path id="path5398" class="st1" d="M11.399,18h2.855v-3.566h-2.855v3.566h0Z"/>
          <path id="path5400" class="st10" d="M12.379,15.258h-.052v-.059h-.092v.236h.092v.163h-.197v.473h.105v.947h-.21v.488h1.617v-.488h-.21v-.947h.105v-.473h-.197v-.163h.092v-.236h-.092v.059h-.053v-.059h-.092v.059h-.066v-.059h-.092v.236h.092v.163h-.197v-.518h.105v-.237h-.105v.06h-.053v-.06h-.092v.06h-.052v-.06h-.105v.237h.105v.518h-.197v-.163h.092v-.236h-.092v.059h-.052v-.059h-.105v.059h0ZM12.024,17.507h1.617M12.024,17.388h1.617M12.024,17.27h1.617M12.024,17.151h1.617M12.024,17.018h1.617M12.234,16.915h1.196M12.234,16.796h1.196M12.234,16.663h1.196M12.234,16.545h1.196M12.234,16.427h1.196M12.234,16.308h1.196M12.234,16.19h1.196M12.129,16.072h1.407M12.129,15.953h1.407M12.129,15.835h1.407M12.129,15.717h1.407M12.326,15.599h1.012M12.734,15.48h.197M12.734,15.362h.197M12.734,15.244h.197M12.734,15.125h.197M12.629,14.977h.407M12.326,15.48h.21M12.234,15.332h.394M12.234,17.507v-.118M12.234,17.27v-.118M12.129,17.27v.118M12.326,17.388v-.118M12.431,17.507v-.118M12.431,17.27v-.118M12.431,17.018v-.104M12.431,16.796v-.133M12.326,17.151v-.133M12.129,17.151v-.133M12.536,17.018v.133M12.629,17.018v-.104M12.326,16.796v.118M12.536,16.796v.118M12.734,16.796v.118M12.629,16.796v-.133M12.734,16.545v.118M12.734,16.308v.118M12.629,16.19v.118M12.734,16.072v.118M12.536,16.072v.118M12.326,16.072v.118M12.234,15.953v.118M12.431,15.953v.118M12.629,15.953v.118M12.734,15.835v.118M12.536,15.835v.118M12.326,15.835v.118M12.234,15.717v.118M12.629,15.717v.118M12.431,15.48v.118M13.338,15.48h-.21M13.431,15.332h-.395M13.431,17.507v-.118M13.431,17.27v-.118M13.536,17.27v.118M13.338,17.388v-.118M13.233,17.507v-.118M13.233,17.27v-.118M13.233,17.018v-.104M13.233,16.796v-.133M13.338,17.151v-.133M13.536,17.151v-.133M13.128,17.018v.133M13.036,17.018v-.104M13.338,16.796v.118M13.128,16.796v.118M12.931,16.796v.118M13.036,16.796v-.133M12.931,16.545v.118M12.931,16.308v.118M13.036,16.19v.118M12.931,16.072v.118M13.128,16.072v.118M13.338,16.072v.118M13.431,15.953v.118M13.233,15.953v.118M13.036,15.953v.118M12.931,15.835v.118M13.128,15.835v.118M13.338,15.835v.118M13.431,15.717v.118M13.036,15.717v.118M13.233,15.48v.118M12.826,16.796v-.133M12.826,16.308v-.118M12.826,16.545v-.118M12.826,16.072v-.118M12.826,15.835v-.118M12.826,15.48v-.118M12.826,15.244v-.118M12.326,15.436h.21M12.734,15.081h.197M13.128,15.436h.21"/>
          <path id="path5402" class="st10" d="M13.102,17.507v-.311c0-.059-.026-.237-.276-.237-.237,0-.263.178-.263.237v.311h.539Z"/>
          <path id="path5404" class="st10" d="M12.655,17.21l-.131-.015c0-.059.013-.148.053-.177l.118.104c-.013.015-.04.059-.04.088h0Z"/>
          <path id="path5406" class="st10" d="M12.878,17.062l.066-.133c-.026-.015-.079-.029-.118-.029-.026,0-.079.015-.105.029l.065.133h.092Z"/>
          <path id="path5408" class="st10" d="M13.01,17.21l.131-.015c0-.059-.013-.148-.052-.177l-.118.104c.013.015.039.059.039.088Z"/>
          <path id="path5410" class="st10" d="M12.629,16.693v-.326c0-.088-.052-.163-.144-.163s-.144.074-.144.163v.326h.289,0Z"/>
          <path id="path5412" class="st10" d="M13.036,16.693v-.326c0-.088.053-.163.145-.163.092,0,.144.074.144.163v.326h-.29Z"/>
          <path id="path5414" class="st10" d="M12.536,15.894l.013-.296h-.25l.027.296h.21Z"/>
          <path id="path5416" class="st10" d="M12.931,15.894l.026-.296h-.25l.013.296h.21Z"/>
          <path id="path5418" class="st10" d="M13.128,15.894l-.026-.296h.263l-.026.296h-.21,0Z"/>
          <g id="g5420">
            <path id="path5422" class="st3" d="M13.01,17.507v-.266c0-.045-.026-.178-.184-.178-.144,0-.171.133-.171.178v.266h.355Z"/>
            <path id="path5424" class="st3" d="M12.602,16.663v-.281c0-.074-.039-.148-.118-.148s-.118.074-.118.148v.281h.237,0Z"/>
            <path id="path5426" class="st3" d="M13.063,16.663v-.281c0-.074.039-.148.118-.148.079,0,.118.074.118.148v.281h-.237,0Z"/>
          </g>
        </g>
        <g id="Leon">
          <path id="path5429" class="st6" d="M14.253,18h2.863v-3.566h-2.863v3.566h0Z"/>
          <path id="path5431" class="st2" d="M15.712,15.313l.003-.04.005-.022s-.092.008-.14-.007-.092-.038-.137-.08c-.045-.044-.063-.07-.095-.076-.077-.014-.137.026-.137.026,0,0,.058.024.101.084s.09.09.111.098c.034.012.151.003.183.004.032.002.105.012.105.012h0Z"/>
          <g id="g5433">
            <path id="path5435" class="st5" d="M16.14,15.168s0,.046.005.09c.003.043-.013.079-.006.103.006.024.009.042.017.06.008.017.012.06.012.06,0,0-.022-.018-.042-.035-.02-.017-.034-.028-.034-.028,0,0,.004.046.006.066.002.02.013.057.029.079.016.021.049.057.06.085.01.029.008.092.008.092,0,0-.026-.048-.049-.057-.022-.009-.072-.04-.072-.04,0,0,.045.051.045.099,0,.048-.018.102-.018.102,0,0-.02-.044-.047-.072-.027-.029-.064-.058-.064-.058,0,0,.03.075.03.125,0,.051-.009.158-.009.158,0,0-.022-.041-.045-.061-.023-.02-.049-.037-.058-.05-.008-.013.027.041.031.074.004.033.018.15.109.3.053.088.136.241.313.191.177-.05.112-.318.074-.443-.037-.125-.056-.263-.053-.312.002-.048.033-.19.029-.217-.004-.026-.014-.128.008-.21.023-.085.042-.118.054-.154.012-.035.022-.055.026-.086.004-.031.004-.088.004-.088,0,0,.033.068.042.092.008.024.008.096.008.096,0,0,.006-.072.056-.107s.107-.072.121-.092.019-.033.019-.033c0,0-.005.123-.035.171-.02.031-.101.134-.101.134,0,0,.042-.018.07-.019.029-.003.049,0,.049,0,0,0-.035.031-.08.105-.046.074-.027.081-.06.142s-.06.064-.101.101c-.061.056-.028.278-.02.311.009.033.115.305.118.371.002.066.012.213-.091.307-.066.061-.175.061-.2.079-.024.018-.073.072-.073.186,0,.115.036.132.065.161.029.028.066.013.074.035.009.022.013.035.025.048.012.013.02.028.016.052-.005.024-.052.079-.068.118-.016.039-.049.143-.049.158s-.004.063.01.088c0,0,.052.068.016.081-.023.009-.044-.016-.055-.013-.031.009-.047.03-.056.029-.02-.004-.02-.016-.023-.049-.002-.033,0-.046-.01-.046-.013,0-.019.012-.021.029s-.002.057-.016.057-.035-.029-.047-.035c-.013-.006-.047-.013-.049-.031-.002-.017.02-.054.043-.061.023-.006.043-.019.029-.033-.015-.013-.029-.013-.043,0-.014.013-.045.003-.043-.017.002-.02.006-.044.004-.055-.002-.011-.027-.033.006-.052.034-.02.048.017.081.011.033-.006.049-.02.061-.042s.01-.068-.013-.096c-.022-.029-.045-.033-.053-.051-.008-.017-.02-.059-.02-.059,0,0,.006.077.002.088s-.002.057-.002.057c0,0-.022-.029-.041-.051-.018-.022-.037-.088-.037-.088,0,0-.002.061-.002.086,0,.024.024.046.016.055-.009.008-.047-.046-.058-.055-.01-.009-.043-.037-.057-.068s-.025-.074-.029-.09c-.004-.015-.011-.084-.004-.101.01-.026.027-.072.027-.072h-.08c-.043,0-.074-.015-.09.018s-.009.099.012.184c.021.085.033.127.027.142-.006.015-.033.051-.043.057-.011.007-.039.004-.052-.002-.012-.006-.032-.017-.072-.017s-.064.002-.078-.002c-.015-.004-.05-.024-.067-.02s-.045.02-.037.046c.013.039-.012.048-.029.046-.016-.003-.03-.009-.051-.015-.02-.007-.051,0-.047-.027.004-.026.013-.028.023-.047.01-.02.014-.033.002-.035-.014-.001-.029-.003-.04.007-.011.01-.029.033-.043.024-.015-.009-.026-.028-.026-.069,0-.041-.039-.077-.003-.075.035.002.08.031.088.008.008-.022.003-.033-.016-.05s-.043-.028-.018-.049c.026-.022.032-.022.042-.035.01-.012.023-.051.042-.041.035.019.001.047.037.091.035.044.057.06.117.053.059-.007.076-.015.076-.035,0-.019-.005-.052-.007-.067-.001-.013.009-.063.009-.063,0,0-.027.019-.036.038-.007.019-.024.051-.024.051,0,0-.006-.038-.005-.07.001-.019.007-.051.006-.057-.002-.017-.013-.06-.013-.06,0,0-.009.047-.016.06-.006.013-.009.068-.009.068,0,0-.038-.037-.027-.099.007-.048-.007-.111.006-.132.013-.021.043-.105.117-.108.074-.003.131.003.158.002.026-.002.117-.021.117-.021,0,0-.169-.097-.207-.127-.039-.029-.098-.104-.118-.138-.019-.035-.037-.101-.037-.101,0,0-.03.001-.058.019-.027.017-.055.043-.071.063s-.042.067-.042.067c0,0,.005-.06.005-.079s-.003-.055-.003-.055c0,0-.019.082-.057.113-.039.031-.084.074-.084.074,0,0,.005-.045.005-.056,0-.01.01-.063.01-.063,0,0-.027.046-.069.055-.042.008-.103.007-.108.036-.005.029.011.068.002.089s-.031.035-.031.035c0,0-.024-.022-.045-.024-.02-.002-.04.01-.04.01,0,0-.018-.026-.011-.043.006-.017.038-.042.031-.053-.009-.01-.034.004-.05.012-.016.009-.05.017-.047-.012.003-.029.011-.046.003-.067-.008-.02-.003-.034.01-.039.013-.005.064.001.069-.012.005-.013-.013-.031-.047-.039-.034-.009-.05-.031-.032-.05.018-.019.023-.024.031-.041.008-.017.011-.049.042-.033.03.015.024.053.056.065.032.012.108-.005.123-.015s.068-.053.085-.063c.018-.01.092-.072.092-.072,0,0-.043-.034-.06-.051-.016-.017-.044-.058-.059-.067-.014-.008-.085-.039-.109-.041-.024-.001-.098-.031-.098-.031,0,0,.034-.012.045-.022.011-.01.036-.036.049-.034.013.001.016.001.016.001,0,0-.069-.003-.084-.008-.014-.005-.056-.035-.072-.035s-.048.007-.048.007c0,0,.043-.031.079-.038.035-.006.063-.005.063-.005,0,0-.055-.017-.068-.037-.013-.021-.026-.051-.035-.065-.01-.013-.016-.036-.034-.038s-.048.024-.066.022-.031-.014-.032-.043c-.001-.029,0-.019-.006-.035-.007-.015-.032-.051-.009-.06.024-.009.076.005.081-.005.005-.01-.027-.042-.048-.053-.021-.012-.055-.033-.037-.05.018-.017.035-.024.045-.039s.021-.058.042-.045c.02.013.049.081.066.076.016-.005.017-.053.014-.074-.003-.02,0-.056.016-.053s.029.028.055.029c.026.001.064-.007.061.013-.003.02-.018.045-.035.068-.017.023-.026.067-.014.096.011.029.04.076.066.095s.074.033.105.054c.03.022.101.086.125.093s.048.02.048.02c0,0,.027-.013.064-.013s.122.006.154-.009c.032-.015.074-.041.061-.074-.013-.033-.084-.061-.077-.087.006-.026.032-.028.076-.029.043-.001.102.009.114-.06.011-.068.015-.108-.046-.123-.061-.015-.106-.017-.118-.067-.011-.05-.022-.062-.01-.076.013-.013.035-.02.08-.024.046-.004.097-.004.112-.016.014-.012.017-.044.035-.058.018-.013.087-.026.087-.026,0,0,.083.045.159.109.069.058.131.143.131.143"/>
            <path id="path5437" class="st0" d="M15.318,15.577s-.046.015-.063.043c-.021.034-.019.068-.019.068,0,0,.039-.036.089-.021.049.015.055.021.076.019s.072-.022.072-.022c0,0-.042.055-.037.093.005.037.011.054.01.074-.003.046-.034.103-.034.103,0,0,.018-.012.06-.022.042-.01.077-.033.1-.052.022-.019.051-.065.051-.065,0,0-.009.064,0,.091.01.028.013.107.013.107,0,0,.027-.027.048-.04.011-.007.04-.024.051-.045.008-.014.018-.068.018-.068,0,0,.006.058.022.086.016.027.04.111.04.111,0,0,.016-.055.034-.077s.039-.051.04-.068c.002-.017-.005-.054-.005-.054l.022.054M15.257,15.93s.027-.053.053-.07c.026-.017.061-.047.071-.051.009-.003.051-.029.051-.029M15.488,16.109s.062-.035.08-.048c.039-.026.066-.072.066-.072"/>
            <path id="path5439" class="st0" d="M16.09,15.418s-.019-.031-.024-.042c-.005-.01-.013-.031-.013-.031"/>
            <path id="path5441" class="st0" d="M15.848,16.474s.116.081.113.148c-.003.067-.064.154-.064.154"/>
          </g>
          <path id="path5443" d="M15.548,15.119s-.01-.031-.011-.04c-.002-.008-.007-.019-.007-.019,0,0,.05,0,.048.017-.001.017-.016.017-.019.024-.003.007-.011.017-.011.017h0Z"/>
          <path id="path5445" d="M15.776,15.03l-.003-.028s.044,0,.064.017c.032.026.053.065.052.067-.006.006-.031-.017-.048-.024,0,0-.013.003-.026.003-.013,0-.019-.007-.021-.013-.002-.008.002-.019.002-.019l-.019-.003h0Z"/>
          <g id="g5447">
            <path id="path5449" d="M15.55,15.369l.019-.034.019.031-.038.003"/>
            <path id="path5451" d="M15.596,15.368l.023-.034.024.031-.047.003"/>
            <path id="path5453" d="M15.575,15.157l.047.019-.042.024-.005-.043"/>
            <path id="path5455" d="M15.632,15.174l.042.012-.034.029-.008-.041"/>
          </g>
          <g id="g5457">
            <path id="path5459" class="st2" d="M14.913,15.109s.027.022.048.026c.021.003.043.003.047.003.003,0,.01-.035.006-.058-.011-.077-.074-.094-.074-.094,0,0,.019.047.01.068-.013.031-.037.055-.037.055h0Z"/>
            <path id="path5461" class="st2" d="M14.782,15.176s-.024-.049-.076-.043c-.051.007-.085.052-.085.052,0,0,.057-.002.071.008.021.015.027.055.027.055,0,0,.031-.02.04-.035.009-.013.022-.038.022-.038h0Z"/>
            <path id="path5463" class="st2" d="M14.72,15.376s-.044.007-.068.038c-.024.031-.02.09-.02.09,0,0,.028-.035.054-.035.026,0,.066.01.066.01,0,0-.013-.036-.013-.051s-.019-.052-.019-.052h0Z"/>
            <path id="path5465" class="st2" d="M14.866,16.024s-.024-.029-.066-.02c-.042.009-.069.062-.069.062,0,0,.036-.011.057-.005.02.005.035.029.035.029,0,0,.019-.019.026-.029.006-.01.018-.036.018-.036h0Z"/>
            <path id="path5467" class="st2" d="M14.818,16.214s-.035-.006-.066.021c-.03.028-.032.08-.032.08,0,0,.029-.028.052-.024.022.003.049.017.049.017,0,0,.005-.033.006-.041.005-.024-.01-.054-.01-.054h0Z"/>
            <path id="path5469" class="st2" d="M14.9,16.389s-.003.051.019.082c.023.033.064.038.064.038,0,0-.014-.034-.016-.051-.003-.026.019-.048.019-.048,0,0-.021-.024-.042-.024-.021,0-.045.004-.045.004h0Z"/>
            <path id="path5471" class="st2" d="M15.318,16.84s-.029-.041-.069-.04c-.04.002-.082.044-.082.044,0,0,.05-.004.063.014.013.019.026.043.026.043,0,0,.023-.013.032-.022.01-.008.03-.039.03-.039h0Z"/>
            <path id="path5473" class="st2" d="M15.194,17.02s-.053-.009-.079.022c-.026.031-.024.087-.024.087,0,0,.032-.039.061-.036s.061.02.061.02c0,0-.005-.034-.009-.05-.003-.015-.011-.044-.011-.044h0Z"/>
            <path id="path5475" class="st2" d="M15.309,17.21s-.026.041-.007.074c.019.033.06.048.06.048,0,0-.015-.024-.008-.051.005-.022.038-.051.038-.051l-.083-.019h0Z"/>
            <path id="path5477" class="st2" d="M16.014,17.287s-.046-.012-.072.005c-.026.017-.047.089-.047.089,0,0,.042-.04.073-.035.03.005.053.019.053.019,0,0,.005-.029.001-.05-.002-.012-.008-.029-.008-.029h0Z"/>
            <path id="path5479" class="st2" d="M16.037,17.478s-.035.041-.023.076c.013.035.035.07.035.07,0,0-.001-.051.013-.065.021-.02.06-.024.06-.024,0,0-.031-.031-.04-.035-.01-.003-.045-.022-.045-.022h0Z"/>
            <path id="path5481" class="st2" d="M16.214,17.539s-.018.05.016.082c.034.033.063.036.063.036,0,0-.026-.052-.018-.079.009-.029.031-.046.031-.046,0,0-.042-.016-.048-.014-.006.001-.043.02-.043.02h0Z"/>
          </g>
          <g id="g5483">
            <path id="path5485" class="st10" d="M16.107,14.893h-.016s-.008.017-.015.024c-.015.016-.037.018-.049.004-.006-.007-.009-.017-.008-.026-.01.006-.02.006-.029,0-.015-.01-.018-.032-.008-.051.002-.004.003-.009.006-.012v-.02s-.021.005-.021.005l-.006.012c-.013.016-.031.02-.04.011-.005-.004-.008-.017-.007-.017,0,0-.005.006-.01.007-.031.008-.043-.067-.044-.086l-.01.016s.009.045.005.083c-.005.038-.016.076-.016.076.042.012.106.051.169.106.063.054.113.114.133.155,0,0,.033-.02.067-.033.034-.012.077-.013.077-.013l.013-.013c-.018.003-.09.006-.089-.028,0-.005.004-.012.005-.012,0,0-.012,0-.017-.004-.01-.008-.01-.028.001-.044l.01-.008v-.022s-.019.003-.019.003c-.002.003-.006.006-.009.008-.015.015-.037.016-.049.002-.007-.008-.01-.019-.006-.029-.009.003-.018.002-.026-.003-.015-.01-.018-.033-.006-.051.005-.009.016-.02.018-.02l-.004-.019h0Z"/>
            <g id="g5487">
              <path id="path5489" d="M15.979,14.938s.009-.004.013,0,.006.01.003.013c-.003.004-.009.004-.014,0-.004-.003-.006-.01-.003-.013h0Z"/>
              <path id="path5491" d="M16.033,14.988l-.019-.016s-.004-.008-.002-.01c.002-.003.007-.003.01,0l.019.017.019.016s.005.008.002.01c-.002.003-.007.003-.01,0l-.019-.017"/>
              <path id="path5493" d="M15.934,14.912l-.015-.01s-.006-.008-.004-.011.006-.004.01-.001l.015.01.015.01s.005.007.004.01c-.002.003-.006.004-.01.001l-.015-.01"/>
              <path id="path5495" d="M15.875,14.867s.009-.004.014,0c.005.004.006.01.003.014-.003.003-.009.003-.013,0s-.006-.01-.003-.013h0Z"/>
              <path id="path5497" d="M16.093,15.035s.002-.009-.003-.013c-.005-.004-.011-.004-.014,0-.002.003-.001.01.003.013s.01.004.013,0h0Z"/>
              <path id="path5499" d="M16.125,15.077l.013.013s.007.004.01.002c.002-.003.002-.007,0-.01l-.012-.013-.013-.013s-.008-.004-.01-.002c-.003.002-.002.007,0,.01l.012.013"/>
              <path id="path5501" d="M16.18,15.129s.002-.01-.003-.013c-.005-.004-.01-.004-.013,0-.003.004-.002.01.003.014.005.003.01.004.013,0h0Z"/>
            </g>
            <path id="path5503" class="st10" d="M16.023,14.743h-.034s-.006.056-.006.056l.003.009h.009s.043-.033.043-.033l-.015-.032"/>
            <path id="path5505" class="st10" d="M16.023,14.743h-.034s-.006.056-.006.056l.003.009h.009s.043-.033.043-.033l-.015-.032"/>
            <path id="path5507" class="st10" d="M15.932,14.774v.035s.051.008.051.008l.009-.004v-.01s-.031-.045-.031-.045l-.028.017"/>
            <path id="path5509" class="st10" d="M16.04,14.843l-.028.017-.031-.045v-.01s.007-.004.007-.004l.053.007-.002.035"/>
            <path id="path5511" class="st10" d="M15.972,14.8c.005-.008.015-.011.022-.006.008.004.01.015.006.024-.005.008-.015.011-.022.006-.008-.005-.01-.015-.006-.024Z"/>
            <path id="path5513" class="st10" d="M15.85,14.742s-.007-.029-.015-.045c-.005-.012-.022-.028-.022-.028.002-.003.024-.012.049.006.022.02-.002.056-.002.056,0,0-.005.009-.011.012h0Z"/>
            <path id="path5515" class="st10" d="M15.909,14.762l-.024.024-.039-.038.003-.005.002-.01.052-.004.005.034"/>
            <path id="path5517" class="st10" d="M15.843,14.739c.003-.01.01-.015.016-.013.006.003.009.012.006.021s-.01.015-.016.013c-.006-.003-.009-.012-.005-.021h0Z"/>
            <path id="path5519" class="st10" d="M16.152,14.833l-.034-.004-.014.054.003.009h.009s.047-.026.047-.026l-.011-.034"/>
            <path id="path5521" class="st10" d="M16.058,14.85l-.006.035.051.015.009-.003v-.009s-.024-.051-.024-.051l-.03.013"/>
            <path id="path5523" class="st10" d="M16.156,14.935l-.03.013-.024-.05v-.01s.009-.002.009-.002l.051.015-.006.034"/>
            <path id="path5525" class="st10" d="M16.094,14.883c.006-.008.016-.008.023-.003.007.006.009.017.003.024s-.016.008-.023.003c-.007-.006-.008-.017-.002-.024h0Z"/>
            <path id="path5527" class="st10" d="M16.264,14.951l.006.035-.049.019-.009-.003v-.009s.02-.052.02-.052l.032.009"/>
            <path id="path5529" class="st10" d="M16.256,15.053l-.032.008-.018-.053.002-.01h.009s.048.021.048.021l-.01.033"/>
            <path id="path5531" class="st10" d="M16.169,14.954l-.01.033.048.022h.009s.002-.01.002-.01l-.017-.053-.032.008"/>
            <path id="path5533" class="st10" d="M16.223,15.016c.007-.007.007-.018.001-.025-.006-.007-.016-.007-.023-.001-.006.007-.007.018,0,.025.006.007.016.008.023.001h0Z"/>
            <path id="path5535" class="st10" d="M16.301,15.132s.028.002.045.006c.011.003.03.017.03.017.003-.003.007-.027-.016-.051-.022-.018-.05.014-.05.014,0,0-.007.008-.009.013h0Z"/>
            <path id="path5537" class="st10" d="M16.271,15.075l-.016.029.043.033.005-.005.007-.003-.007-.056-.032.002"/>
            <path id="path5539" class="st10" d="M16.306,15.138c.008-.004.012-.014.009-.02s-.013-.006-.02-.001-.011.014-.008.02c.003.006.012.006.02.001h0Z"/>
          </g>
        </g>
        <g id="inescutcheon">
          <ellipse id="ellipse5542" class="st1" cx="14.261" cy="17.985" rx=".925" ry="1.171"/>
          <ellipse id="ellipse5544" class="st4" cx="14.262" cy="17.982" rx=".651" ry=".859"/>
          <g id="fdl">
            <path id="path5547" class="st10" d="M13.954,17.391s-.077.095-.077.183c0,.089.032.163.032.163-.012-.035-.043-.06-.08-.06-.047,0-.085.04-.085.091,0,.014.008.037.014.049l.028.063c.009-.024.031-.036.056-.036.034,0,.061.029.061.065,0,.006,0,.011-.002.016h-.069v.067h.062l-.046.103.061-.027.046.058.048-.058.061.027-.046-.103h.061v-.066h-.069c-.001-.006-.001-.011-.001-.017,0-.036.027-.065.06-.065.025,0,.047.013.056.036l.028-.063c.006-.012.014-.035.014-.049,0-.051-.038-.091-.085-.091-.038,0-.069.025-.08.06,0,0,.032-.074.032-.163,0-.088-.079-.183-.079-.183h0Z"/>
            <path id="path5549" class="st10" d="M13.831,17.991h.248v-.066h-.248v.066Z"/>
          </g>
          <g id="use5551">
            <g id="fdl1">
              <path id="path55471" class="st10" d="M14.559,17.391s-.077.095-.077.183c0,.089.032.163.032.163-.012-.035-.043-.06-.08-.06-.047,0-.085.04-.085.091,0,.014.008.037.014.049l.028.063c.009-.024.031-.036.056-.036.034,0,.061.029.061.065,0,.006,0,.011-.002.016h-.069v.067h.062l-.046.103.061-.027.046.058.048-.058.061.027-.046-.103h.061v-.066h-.069c-.001-.006-.001-.011-.001-.017,0-.036.027-.065.06-.065.025,0,.047.013.056.036l.028-.063c.006-.012.014-.035.014-.049,0-.051-.038-.091-.085-.091-.038,0-.069.025-.08.06,0,0,.032-.074.032-.163,0-.088-.079-.183-.079-.183h0Z"/>
              <path id="path55491" class="st10" d="M14.436,17.991h.248v-.066h-.248v.066Z"/>
            </g>
          </g>
          <g id="use5553">
            <g id="fdl2">
              <path id="path55472" class="st10" d="M14.256,17.976s-.077.095-.077.183c0,.089.032.163.032.163-.012-.035-.043-.06-.08-.06-.047,0-.085.04-.085.091,0,.014.008.037.014.049l.028.063c.009-.024.031-.036.056-.036.034,0,.061.029.061.065,0,.006,0,.011-.002.016h-.069v.067h.062l-.046.103.061-.027.046.058.048-.058.061.027-.046-.103h.061v-.066h-.069c-.001-.006-.001-.011-.001-.017,0-.036.027-.065.06-.065.025,0,.047.013.056.036l.028-.063c.006-.012.014-.035.014-.049,0-.051-.038-.091-.085-.091-.038,0-.069.025-.08.06,0,0,.032-.074.032-.163,0-.088-.079-.183-.079-.183h0Z"/>
              <path id="path55492" class="st10" d="M14.133,18.576h.248v-.066h-.248v.066Z"/>
            </g>
          </g>
        </g>
      </g>
    </g>
  </g>
</svg>