<?xml version="1.0" encoding="UTF-8"?>
<svg id="svg378" xmlns="http://www.w3.org/2000/svg" xmlns:rdf="http://www.w3.org/1999/02/22-rdf-syntax-ns#" xmlns:dc="http://purl.org/dc/elements/1.1/" xmlns:cc="http://creativecommons.org/ns#" version="1.1" viewBox="0 0 640 480">
  <!-- Generator: Adobe Illustrator 29.6.0, SVG Export Plug-In . SVG Version: 2.1.1 Build 207)  -->
  <defs>
    <style>
      .st0, .st1 {
        fill: #fff;
      }

      .st0, .st2, .st3, .st4 {
        fill-rule: evenodd;
      }

      .st5 {
        fill: #309e3a;
      }

      .st6 {
        fill: #229e45;
      }

      .st2 {
        fill: #2b49a3;
      }

      .st7 {
        fill: #f7ffff;
      }

      .st3 {
        fill: #ffffef;
      }

      .st4 {
        fill: #f8e509;
      }
    </style>
  </defs>
  <g id="flag">
    <rect id="rect552" class="st6" y="0" width="640" height="480"/>
    <g id="g3551">
      <path id="path554" class="st4" d="M321.407,435.935l301.482-195.671L319.582,44.064,17.109,240.735l304.298,195.2h0Z"/>
      <path id="path557" class="st2" d="M452.771,240.005c0,70.328-57.104,127.34-127.545,127.34s-127.545-57.012-127.545-127.34,57.104-127.34,127.545-127.34,127.545,57.012,127.545,127.34h0Z"/>
      <polygon id="polygon559" class="st3" points="283.299 316.274 279.358 314 275.265 316.025 276.182 311.476 273.02 308.143 277.541 307.613 279.664 303.533 281.558 307.753 286.017 308.563 282.673 311.694 283.299 316.274"/>
      <polygon id="polygon560" class="st3" points="368.771 337.917 364.831 335.643 360.738 337.668 361.654 333.119 358.493 329.786 363.013 329.256 365.136 325.176 367.03 329.396 371.49 330.206 368.145 333.337 368.771 337.917"/>
      <polygon id="polygon561" class="st3" points="331.93 303.343 328.526 301.379 324.99 303.128 325.782 299.199 323.051 296.319 326.956 295.861 328.79 292.337 330.426 295.982 334.279 296.682 331.389 299.387 331.93 303.343"/>
      <polygon id="polygon562" class="st3" points="418.254 290.912 414.912 288.983 411.44 290.7 412.217 286.842 409.536 284.015 413.37 283.565 415.171 280.105 416.777 283.684 420.56 284.371 417.723 287.027 418.254 290.912"/>
      <polygon id="polygon563" class="st3" points="330.37 265.031 326.43 262.757 322.337 264.782 323.253 260.233 320.091 256.9 324.612 256.37 326.735 252.291 328.629 256.51 333.089 257.32 329.744 260.451 330.37 265.031"/>
      <polygon id="polygon564" class="st3" points="225.129 225.52 221.189 223.246 217.096 225.271 218.012 220.722 214.851 217.389 219.372 216.859 221.494 212.78 223.388 216.999 227.848 217.809 224.503 220.94 225.129 225.52"/>
      <polygon id="polygon565" class="st3" points="237.786 278.08 233.845 275.805 229.752 277.83 230.668 273.282 227.507 269.948 232.028 269.419 234.151 265.339 236.044 269.559 240.504 270.369 237.159 273.5 237.786 278.08"/>
      <polygon id="polygon566" class="st3" points="369.114 206.172 365.633 204.163 362.018 205.951 362.827 201.933 360.034 198.989 364.028 198.521 365.903 194.917 367.576 198.645 371.515 199.36 368.561 202.126 369.114 206.172"/>
      <polygon id="polygon567" class="st3" points="361.896 240.366 359.155 238.784 356.307 240.192 356.945 237.028 354.745 234.709 357.891 234.34 359.367 231.502 360.685 234.438 363.788 235.001 361.461 237.18 361.896 240.366"/>
      <polygon id="polygon568" class="st3" points="219.263 287.603 216.632 286.085 213.899 287.437 214.511 284.4 212.401 282.175 215.419 281.821 216.836 279.097 218.1 281.915 221.078 282.456 218.845 284.546 219.263 287.603"/>
      <polygon id="polygon569" class="st3" points="418.984 299.711 416.84 298.575 414.613 299.586 415.112 297.314 413.392 295.649 415.852 295.385 417.007 293.347 418.037 295.455 420.463 295.859 418.643 297.423 418.984 299.711"/>
      <polygon id="polygon570" class="st3" points="219.263 287.603 216.632 286.085 213.899 287.437 214.511 284.4 212.401 282.175 215.419 281.821 216.836 279.097 218.1 281.915 221.078 282.456 218.845 284.546 219.263 287.603"/>
      <polygon id="polygon571" class="st3" points="219.263 287.603 216.632 286.085 213.899 287.437 214.511 284.4 212.401 282.175 215.419 281.821 216.836 279.097 218.1 281.915 221.078 282.456 218.845 284.546 219.263 287.603"/>
      <polygon id="polygon572" class="st3" points="261.143 287.594 258.512 286.075 255.78 287.427 256.391 284.39 254.281 282.165 257.299 281.811 258.716 279.088 259.981 281.905 262.958 282.446 260.725 284.536 261.143 287.594"/>
      <polygon id="polygon573" class="st3" points="255.939 301.525 253.309 300.007 250.576 301.359 251.188 298.322 249.077 296.097 252.095 295.743 253.513 293.019 254.777 295.837 257.754 296.377 255.521 298.468 255.939 301.525"/>
      <polygon id="polygon574" class="st3" points="342.902 276.164 340.271 274.645 337.539 275.997 338.15 272.961 336.04 270.735 339.058 270.382 340.475 267.658 341.74 270.475 344.717 271.016 342.484 273.106 342.902 276.164"/>
      <polygon id="polygon575" class="st3" points="317.384 276.154 314.753 274.636 312.02 275.988 312.632 272.951 310.521 270.725 313.54 270.372 314.957 267.648 316.221 270.465 319.199 271.006 316.966 273.096 317.384 276.154"/>
      <polygon id="polygon576" class="st3" points="248.167 267.258 246.519 266.306 244.806 267.153 245.19 265.251 243.867 263.856 245.758 263.634 246.646 261.928 247.439 263.693 249.304 264.032 247.905 265.342 248.167 267.258"/>
      <polygon id="polygon577" class="st3" points="415.741 310.728 413.11 309.21 410.377 310.562 410.989 307.525 408.879 305.299 411.897 304.946 413.314 302.222 414.578 305.039 417.556 305.58 415.323 307.67 415.741 310.728"/>
      <polygon id="polygon578" class="st3" points="394.491 313.512 392.312 312.251 390.048 313.374 390.555 310.852 388.807 309.004 391.307 308.71 392.481 306.448 393.528 308.788 395.994 309.237 394.145 310.973 394.491 313.512"/>
      <polygon id="polygon579" class="st3" points="404.516 313.27 402.486 312.097 400.378 313.141 400.85 310.796 399.221 309.078 401.55 308.804 402.643 306.701 403.619 308.877 405.916 309.294 404.193 310.909 404.516 313.27"/>
      <polygon id="polygon580" class="st3" points="433.302 288.149 431.348 287.021 429.317 288.026 429.771 285.769 428.203 284.115 430.446 283.853 431.499 281.829 432.439 283.922 434.651 284.324 432.992 285.877 433.302 288.149"/>
      <polygon id="polygon581" class="st3" points="394.239 327.689 391.686 326.295 389.034 327.536 389.628 324.749 387.579 322.707 390.508 322.382 391.884 319.882 393.111 322.468 396 322.964 393.833 324.883 394.239 327.689"/>
      <polygon id="polygon582" class="st3" points="394.383 339.129 392.054 337.735 389.635 338.976 390.177 336.189 388.308 334.146 390.98 333.822 392.235 331.322 393.354 333.908 395.99 334.404 394.013 336.322 394.383 339.129"/>
      <polygon id="polygon583" class="st3" points="375.084 313.266 373.129 312.137 371.098 313.142 371.553 310.885 369.985 309.232 372.227 308.969 373.281 306.945 374.22 309.038 376.433 309.44 374.773 310.994 375.084 313.266"/>
      <polygon id="polygon584" class="st3" points="356.992 313.266 355.038 312.137 353.007 313.142 353.462 310.885 351.893 309.232 354.136 308.969 355.189 306.945 356.129 309.038 358.341 309.44 356.682 310.994 356.992 313.266"/>
      <polygon id="polygon585" class="st3" points="326.273 286.403 324.318 285.275 322.288 286.279 322.742 284.023 321.174 282.369 323.417 282.106 324.47 280.082 325.409 282.176 327.622 282.578 325.963 284.131 326.273 286.403"/>
      <polygon id="polygon586" class="st3" points="329.696 341.153 328.04 340.197 326.32 341.048 326.706 339.137 325.377 337.736 327.277 337.514 328.169 335.799 328.965 337.572 330.839 337.913 329.433 339.229 329.696 341.153"/>
      <polygon id="polygon587" class="st3" points="283.299 252.597 279.358 250.323 275.265 252.348 276.182 247.8 273.02 244.466 277.541 243.937 279.664 239.857 281.558 244.077 286.017 244.887 282.673 248.018 283.299 252.597"/>
      <path id="path726" class="st0" d="M444.368,285.817c1.944-5.083,4.451-12.749,5.783-19.786-67.743-59.51-143.26-89.994-238.682-83.722-3.421,6.56-6.159,13.424-8.468,20.854,113.062-10.786,195.936,39.27,241.37,82.654h-.003Z"/>
      <path id="path790" class="st5" d="M413.914,252.361l2.42,1.322c-.38.858-.482,1.609-.309,2.249.179.647.624,1.209,1.333,1.689.753.514,1.425.739,2.017.678.599-.06,1.045-.306,1.335-.734.182-.274.258-.563.224-.863-.027-.301-.192-.66-.495-1.075-.209-.28-.719-.873-1.529-1.777-1.04-1.16-1.661-2.139-1.862-2.937-.278-1.122-.109-2.141.51-3.06.4-.591.937-1.031,1.613-1.318.686-.289,1.434-.354,2.24-.198.811.158,1.664.539,2.551,1.144,1.452.986,2.329,2.047,2.628,3.182.306,1.139.119,2.254-.564,3.345l-2.404-1.483c.301-.665.375-1.239.217-1.723-.147-.485-.55-.951-1.209-1.397-.677-.46-1.303-.682-1.875-.663-.37.012-.654.168-.856.469-.186.275-.227.589-.129.942.129.448.667,1.192,1.624,2.234.953,1.039,1.604,1.889,1.95,2.548.355.657.515,1.34.482,2.049-.023.707-.284,1.427-.778,2.161-.448.667-1.052,1.162-1.812,1.493-.759.331-1.571.411-2.437.238-.861-.176-1.795-.606-2.799-1.29-1.462-.991-2.359-2.093-2.686-3.3-.323-1.212-.125-2.522.599-3.925h0Z"/>
      <path id="path791" class="st5" d="M402.436,244.827l2.472,1.221c-.345.872-.417,1.627-.219,2.259.207.638.671,1.184,1.4,1.636.775.482,1.454.68,2.042.596.599-.086,1.035-.346,1.305-.786.174-.28.236-.573.191-.872-.038-.301-.219-.653-.54-1.056-.219-.272-.749-.841-1.598-1.713-1.086-1.118-1.745-2.072-1.977-2.86-.323-1.11-.194-2.134.385-3.078.378-.606.897-1.066,1.559-1.38.676-.316,1.42-.413,2.232-.291.818.128,1.684.474,2.595,1.041,1.492.925,2.409,1.951,2.753,3.073.351,1.127.209,2.247-.427,3.365l-2.464-1.386c.274-.675.326-1.251.149-1.728-.167-.48-.589-.929-1.263-1.349-.698-.433-1.332-.628-1.9-.586-.37.025-.647.195-.838.504-.172.282-.204.594-.09.944.146.443.714,1.165,1.711,2.168.994.999,1.679,1.822,2.051,2.465.381.642.569,1.318.564,2.027.007.709-.227,1.438-.689,2.193-.422.68-1.009,1.202-1.751,1.565-.746.361-1.556.474-2.427.336-.865-.141-1.815-.536-2.847-1.176-1.499-.934-2.439-1.997-2.815-3.191-.375-1.199-.229-2.514.438-3.943h0Z"/>
      <path id="path792" class="st5" d="M388.229,241.02l7.277-11.965,8.837,5.416-1.231,2.025-6.428-3.941-1.616,2.652,5.984,3.668-1.226,2.015-5.984-3.666-1.979,3.256,6.658,4.081-1.228,2.017-9.063-5.557h0Z"/>
      <path id="path795" class="st5" d="M367.538,224.027l1.079-2.101,5.401,2.796-2.546,4.962c-.79.238-1.781.296-2.983.17-1.189-.129-2.295-.457-3.317-.986-1.298-.672-2.29-1.526-2.976-2.571-.683-1.05-1.009-2.205-.974-3.471.038-1.273.363-2.506.977-3.701.664-1.298,1.531-2.309,2.591-3.04,1.056-.727,2.248-1.09,3.568-1.09,1.009-.003,2.104.306,3.29.915,1.542.799,2.578,1.747,3.105,2.845.539,1.097.637,2.281.298,3.555l-2.728-.821c.139-.702.057-1.355-.249-1.956-.296-.606-.806-1.095-1.527-1.469-1.097-.568-2.146-.67-3.155-.306-1,.363-1.852,1.229-2.554,2.601-.761,1.479-1.005,2.759-.731,3.841.278,1.073.945,1.886,2.009,2.437.524.27,1.101.44,1.73.507.639.066,1.221.049,1.753-.05l.811-1.582-2.872-1.485h0Z"/>
      <path id="path804" class="st5" d="M277.296,201.648l2.034-13.868,4.172.618,1.122,9.828,3.861-9.094,4.187.618-2.032,13.87-2.591-.383,1.603-10.918-4.344,10.512-2.685-.398-1.134-11.321-1.601,10.916-2.591-.381h0Z"/>
      <path id="path805" class="st5" d="M263.188,200.01l1.305-13.96,10.307.974-.217,2.361-7.502-.707-.291,3.095,6.979.657-.219,2.353-6.981-.658-.353,3.799,7.763.731-.217,2.354-10.573-.998h0Z"/>
      <g id="g812">
        <path id="path810" class="st5" d="M216.501,191.279c.038-1.427.283-2.62.736-3.577.335-.704.786-1.333,1.346-1.885.567-.552,1.182-.956,1.845-1.212.879-.346,1.887-.504,3.023-.474,2.057.058,3.683.743,4.878,2.056,1.205,1.315,1.775,3.114,1.714,5.394-.062,2.261-.722,4.017-1.983,5.264-1.259,1.241-2.914,1.834-4.963,1.778-2.077-.056-3.708-.736-4.899-2.037-1.191-1.308-1.756-3.078-1.695-5.307h0Z"/>
        <path id="path811" class="st7" d="M219.414,191.252c-.043,1.586.289,2.801.997,3.643.707.837,1.624,1.27,2.747,1.299,1.122.031,2.055-.35,2.794-1.138.745-.796,1.139-2.007,1.184-3.632.043-1.605-.277-2.813-.959-3.623-.678-.809-1.596-1.229-2.758-1.262-1.161-.031-2.108.345-2.842,1.128-.733.777-1.121,1.972-1.163,3.584h0Z"/>
      </g>
      <g id="g815">
        <path id="path808" class="st5" d="M233.052,198.511l.163-14.018,5.933.07c1.494.018,2.574.156,3.244.42.676.256,1.214.709,1.613,1.358s.593,1.386.583,2.216c-.012,1.052-.331,1.918-.954,2.599-.624.675-1.549,1.095-2.777,1.259.605.364,1.104.762,1.491,1.194.396.43.922,1.196,1.584,2.294l1.673,2.753-3.371-.039-2.003-3.074c-.71-1.098-1.199-1.789-1.461-2.072-.265-.29-.545-.488-.842-.594-.297-.111-.769-.171-1.417-.178l-.57-.008-.069,5.852-2.82-.033h0Z"/>
        <path id="path809" class="st1" d="M235.976,190.455l2.086.024c1.353.017,2.198-.031,2.536-.141.337-.112.603-.306.796-.584s.292-.628.299-1.048c.005-.473-.117-.853-.369-1.142-.243-.296-.594-.486-1.05-.567-.229-.034-.915-.059-2.057-.072l-2.2-.025-.041,3.556h0Z"/>
      </g>
      <g id="g818">
        <path id="path806" class="st5" d="M249.003,185.188l5.147.261c1.161.06,2.039.194,2.639.403.805.283,1.485.75,2.037,1.397.553.646.958,1.426,1.219,2.34.258.907.356,2.015.289,3.326-.058,1.153-.252,2.139-.578,2.959-.402,1.001-.939,1.799-1.62,2.397-.51.453-1.189.791-2.034,1.016-.631.166-1.468.222-2.508.169l-5.296-.269.706-14h0Z"/>
        <path id="path807" class="st1" d="M251.706,187.685l-.467,9.274,2.102.106c.785.042,1.356.025,1.709-.046.462-.092.85-.267,1.162-.525.319-.259.588-.695.809-1.309.223-.62.362-1.471.416-2.553s0-1.919-.159-2.509c-.161-.589-.405-1.053-.731-1.396-.326-.342-.748-.583-1.269-.725-.389-.109-1.158-.193-2.306-.251l-1.265-.065h0Z"/>
      </g>
      <g id="g824">
        <path id="path800" class="st5" d="M317.629,210.219l3.26-13.63,4.4,1.061c1.666.402,2.738.732,3.211.991.728.391,1.273.995,1.633,1.809.361.809.412,1.755.152,2.84-.199.837-.518,1.504-.958,2.001-.437.498-.931.853-1.479,1.07-.541.211-1.065.311-1.572.3-.684-.028-1.648-.191-2.889-.491l-1.787-.432-1.23,5.142-2.742-.661Z"/>
        <path id="path801" class="st1" d="M323.086,199.552l-.925,3.868,1.5.362c1.082.26,1.82.363,2.218.308.4-.055.736-.209,1.013-.464.282-.253.472-.581.568-.984.118-.496.073-.939-.14-1.331-.215-.393-.533-.683-.957-.87-.313-.142-.962-.331-1.951-.569l-1.325-.32h0Z"/>
      </g>
      <g id="g827">
        <path id="path798" class="st5" d="M330.606,214.106l4.64-13.22,5.597,1.98c1.408.497,2.387.979,2.937,1.443.559.462.922,1.063,1.093,1.806s.119,1.506-.157,2.286c-.348.992-.927,1.709-1.736,2.153-.807.438-1.818.537-3.033.298.457.54.802,1.076,1.03,1.61.237.536.491,1.431.765,2.683l.703,3.148-3.18-1.125-.912-3.557c-.323-1.27-.563-2.08-.721-2.435-.157-.358-.359-.636-.607-.832-.246-.202-.673-.41-1.286-.627l-.537-.191-1.938,5.521-2.66-.942h0Z"/>
        <path id="path799" class="st1" d="M335.938,207.426l1.968.696c1.275.451,2.089.679,2.444.682.356.004.67-.093.943-.295.272-.2.478-.5.617-.896.156-.446.163-.846.018-1.201-.136-.359-.408-.65-.813-.876-.206-.106-.847-.349-1.925-.731l-2.075-.735-1.177,3.356Z"/>
      </g>
      <g id="g830">
        <path id="path796" class="st5" d="M347.01,213.601c.424-1.364.983-2.445,1.674-3.242.516-.587,1.117-1.071,1.808-1.449.695-.377,1.396-.598,2.101-.665.941-.094,1.953.03,3.038.369,1.965.614,3.344,1.717,4.141,3.308.802,1.593.866,3.479.189,5.658-.67,2.161-1.781,3.67-3.33,4.527-1.547.852-3.301.97-5.259.357-1.982-.619-3.37-1.718-4.164-3.294-.793-1.584-.858-3.441-.197-5.57h0Z"/>
        <path id="path797" class="st1" d="M349.826,214.385c-.471,1.514-.48,2.773-.025,3.778.455.996,1.219,1.663,2.293,1.999,1.073.335,2.071.224,2.996-.335.933-.562,1.641-1.62,2.123-3.172.476-1.535.496-2.783.056-3.75-.431-.962-1.204-1.618-2.313-1.964-1.109-.348-2.123-.244-3.039.311-.915.548-1.612,1.592-2.09,3.133h0Z"/>
      </g>
      <g id="g833">
        <path id="path793" class="st5" d="M374.305,233.12l6.415-12.451,5.271,2.738c1.325.689,2.228,1.3,2.71,1.838.488.534.767,1.181.834,1.941s-.091,1.506-.47,2.243c-.481.934-1.153,1.565-2.017,1.892-.859.322-1.872.279-3.043-.128.378.598.644,1.179.799,1.739.16.564.289,1.484.389,2.764l.261,3.214-2.993-1.555-.416-3.648c-.145-1.304-.269-2.14-.379-2.512-.105-.377-.268-.681-.487-.91-.214-.233-.61-.5-1.185-.798l-.507-.264-2.678,5.197-2.505-1.301h0Z"/>
        <path id="path794" class="st1" d="M380.503,227.226l1.853.962c1.201.625,1.977.962,2.329,1.016.35.054.676-.001.975-.161.297-.162.54-.429.734-.803.216-.418.276-.813.183-1.185-.087-.374-.315-.702-.685-.98-.189-.134-.791-.465-1.807-.992l-1.952-1.014-1.629,3.159Z"/>
      </g>
      <g id="g836">
        <path id="path788" class="st5" d="M426.107,258.704c.796-1.183,1.642-2.056,2.536-2.619.662-.413,1.377-.7,2.146-.863.775-.158,1.508-.168,2.203-.028.928.184,1.863.596,2.804,1.235,1.704,1.157,2.708,2.613,3.014,4.367.31,1.758-.172,3.58-1.447,5.472-1.263,1.873-2.758,2.998-4.488,3.37-1.728.366-3.44-.028-5.14-1.181-1.718-1.168-2.732-2.622-3.04-4.362-.304-1.746.167-3.543,1.413-5.39h0Z"/>
        <path id="path789" class="st1" d="M428.578,260.254c-.886,1.315-1.257,2.518-1.112,3.61.151,1.087.691,1.945,1.621,2.578.931.632,1.92.814,2.967.548,1.055-.269,2.037-1.075,2.944-2.423.896-1.33,1.273-2.521,1.13-3.572-.138-1.048-.688-1.898-1.65-2.552s-1.962-.849-2.999-.583c-1.034.259-1.999,1.059-2.9,2.394h0Z"/>
      </g>
      <path id="path872" class="st5" d="M301.824,204.523l2.248-9.841,7.268,1.676-.378,1.663-5.288-1.218-.504,2.181,4.925,1.135-.381,1.656-4.918-1.132-.614,2.677,5.475,1.261-.378,1.659-7.456-1.718h0Z"/>
    </g>
  </g>
</svg>