<?xml version="1.0" encoding="UTF-8"?>
<svg id="icon" xmlns="http://www.w3.org/2000/svg" version="1.1" viewBox="0 0 42.666 32" width="21.333333" height="15.999999">
  <!-- Generator: Adobe Illustrator 29.6.0, SVG Export Plug-In . SVG Version: 2.1.1 Build 207)  -->
  <defs>
    <style>
      .st0 {
        fill: none;
      }

      .st1, .st2 {
        fill: #fff;
      }

      .st1, .st3, .st4, .st5 {
        fill-rule: evenodd;
      }

      .st6 {
        fill: #309e3a;
      }

      .st7 {
        fill: #229e45;
      }

      .st3 {
        fill: #2b49a3;
      }

      .st8 {
        fill: #f7ffff;
      }

      .st4 {
        fill: #ffffef;
      }

      .st5 {
        fill: #f8e509;
      }
    </style>
  </defs>
  <rect id="_Transparent_Rectangle_" class="st0" x="0" y="0" width="42.666" height="32"/>
  <sodipodi:namedview id="namedview3756" bordercolor="#666666" borderopacity="1" gridtolerance="10" guidetolerance="10" objecttolerance="10" pagecolor="#ffffff" showgrid="false"/>
  <g id="flag">
    <rect id="rect552" class="st7" x=".068" y="0" width="42.598" height="31.949"/>
    <g id="g3551">
      <path id="path554" class="st5" d="M21.46,29.016l20.067-13.024L21.339,2.933,1.206,16.023l20.254,12.992h0Z"/>
      <path id="path557" class="st3" d="M30.204,15.975c0,4.681-3.801,8.476-8.489,8.476s-8.489-3.795-8.489-8.476,3.801-8.476,8.489-8.476,8.489,3.795,8.489,8.476h0Z"/>
      <polygon id="polygon559" class="st4" points="18.924 21.051 18.662 20.9 18.389 21.035 18.45 20.732 18.24 20.51 18.541 20.475 18.682 20.203 18.808 20.484 19.105 20.538 18.882 20.746 18.924 21.051"/>
      <polygon id="polygon560" class="st4" points="24.613 22.492 24.351 22.34 24.078 22.475 24.139 22.172 23.929 21.951 24.23 21.915 24.371 21.644 24.497 21.925 24.794 21.978 24.571 22.187 24.613 22.492"/>
      <polygon id="polygon561" class="st4" points="22.161 20.19 21.934 20.06 21.699 20.176 21.752 19.915 21.57 19.723 21.83 19.692 21.952 19.458 22.061 19.701 22.317 19.747 22.125 19.927 22.161 20.19"/>
      <polygon id="polygon562" class="st4" points="27.907 19.363 27.684 19.235 27.453 19.349 27.505 19.092 27.326 18.904 27.582 18.874 27.701 18.644 27.808 18.882 28.06 18.928 27.871 19.104 27.907 19.363"/>
      <polygon id="polygon563" class="st4" points="22.057 17.64 21.795 17.489 21.522 17.624 21.583 17.321 21.373 17.099 21.674 17.064 21.815 16.792 21.941 17.073 22.238 17.127 22.015 17.336 22.057 17.64"/>
      <polygon id="polygon564" class="st4" points="15.052 15.011 14.79 14.859 14.518 14.994 14.579 14.691 14.368 14.469 14.669 14.434 14.81 14.163 14.936 14.443 15.233 14.497 15.011 14.706 15.052 15.011"/>
      <polygon id="polygon565" class="st4" points="15.895 18.509 15.632 18.358 15.36 18.492 15.421 18.19 15.21 17.968 15.511 17.933 15.653 17.661 15.779 17.942 16.076 17.996 15.853 18.204 15.895 18.509"/>
      <polygon id="polygon566" class="st4" points="24.636 13.723 24.404 13.589 24.164 13.708 24.217 13.441 24.031 13.245 24.297 13.214 24.422 12.974 24.533 13.222 24.796 13.269 24.599 13.453 24.636 13.723"/>
      <polygon id="polygon567" class="st4" points="24.155 15.999 23.973 15.893 23.783 15.987 23.826 15.777 23.679 15.622 23.889 15.598 23.987 15.409 24.075 15.604 24.281 15.642 24.126 15.787 24.155 15.999"/>
      <polygon id="polygon568" class="st4" points="14.662 19.143 14.487 19.042 14.305 19.132 14.345 18.93 14.205 18.782 14.406 18.758 14.5 18.577 14.584 18.764 14.783 18.8 14.634 18.939 14.662 19.143"/>
      <polygon id="polygon569" class="st4" points="27.955 19.949 27.812 19.873 27.664 19.94 27.697 19.789 27.583 19.678 27.747 19.661 27.824 19.525 27.892 19.665 28.054 19.692 27.932 19.796 27.955 19.949"/>
      <polygon id="polygon570" class="st4" points="14.662 19.143 14.487 19.042 14.305 19.132 14.345 18.93 14.205 18.782 14.406 18.758 14.5 18.577 14.584 18.764 14.783 18.8 14.634 18.939 14.662 19.143"/>
      <polygon id="polygon571" class="st4" points="14.662 19.143 14.487 19.042 14.305 19.132 14.345 18.93 14.205 18.782 14.406 18.758 14.5 18.577 14.584 18.764 14.783 18.8 14.634 18.939 14.662 19.143"/>
      <polygon id="polygon572" class="st4" points="17.449 19.142 17.274 19.041 17.092 19.131 17.133 18.929 16.993 18.781 17.193 18.757 17.288 18.576 17.372 18.764 17.57 18.8 17.421 18.939 17.449 19.142"/>
      <polygon id="polygon573" class="st4" points="17.103 20.069 16.928 19.968 16.746 20.058 16.787 19.856 16.646 19.708 16.847 19.685 16.941 19.503 17.026 19.691 17.224 19.727 17.075 19.866 17.103 20.069"/>
      <polygon id="polygon574" class="st4" points="22.891 18.381 22.716 18.28 22.534 18.37 22.575 18.168 22.434 18.02 22.635 17.997 22.73 17.815 22.814 18.003 23.012 18.039 22.863 18.178 22.891 18.381"/>
      <polygon id="polygon575" class="st4" points="21.193 18.381 21.018 18.28 20.836 18.37 20.876 18.168 20.736 18.019 20.937 17.996 21.031 17.815 21.115 18.002 21.314 18.038 21.165 18.177 21.193 18.381"/>
      <polygon id="polygon576" class="st4" points="16.586 17.789 16.476 17.725 16.362 17.782 16.387 17.655 16.299 17.562 16.425 17.547 16.484 17.434 16.537 17.551 16.661 17.574 16.568 17.661 16.586 17.789"/>
      <polygon id="polygon577" class="st4" points="27.739 20.682 27.564 20.581 27.382 20.671 27.423 20.469 27.283 20.321 27.483 20.297 27.578 20.116 27.662 20.303 27.86 20.339 27.712 20.478 27.739 20.682"/>
      <polygon id="polygon578" class="st4" points="26.325 20.867 26.18 20.783 26.029 20.858 26.063 20.69 25.947 20.567 26.113 20.548 26.191 20.397 26.261 20.553 26.425 20.583 26.302 20.698 26.325 20.867"/>
      <polygon id="polygon579" class="st4" points="26.992 20.851 26.857 20.773 26.717 20.843 26.748 20.687 26.64 20.572 26.795 20.554 26.868 20.414 26.932 20.559 27.085 20.587 26.971 20.694 26.992 20.851"/>
      <polygon id="polygon580" class="st4" points="28.908 19.179 28.778 19.104 28.643 19.171 28.673 19.021 28.569 18.911 28.718 18.893 28.788 18.759 28.851 18.898 28.998 18.925 28.888 19.028 28.908 19.179"/>
      <polygon id="polygon581" class="st4" points="26.308 21.811 26.138 21.718 25.962 21.801 26.001 21.615 25.865 21.479 26.06 21.458 26.151 21.291 26.233 21.463 26.425 21.496 26.281 21.624 26.308 21.811"/>
      <polygon id="polygon582" class="st4" points="26.318 22.572 26.163 22.48 26.002 22.562 26.038 22.377 25.913 22.241 26.091 22.219 26.175 22.053 26.249 22.225 26.425 22.258 26.293 22.386 26.318 22.572"/>
      <polygon id="polygon583" class="st4" points="25.033 20.851 24.903 20.776 24.768 20.843 24.798 20.692 24.694 20.582 24.843 20.565 24.913 20.43 24.976 20.57 25.123 20.596 25.013 20.7 25.033 20.851"/>
      <polygon id="polygon584" class="st4" points="23.829 20.851 23.699 20.776 23.564 20.843 23.594 20.692 23.49 20.582 23.639 20.565 23.709 20.43 23.772 20.57 23.919 20.596 23.808 20.7 23.829 20.851"/>
      <polygon id="polygon585" class="st4" points="21.784 19.063 21.654 18.988 21.519 19.055 21.549 18.905 21.445 18.794 21.594 18.777 21.664 18.642 21.727 18.782 21.874 18.808 21.764 18.912 21.784 19.063"/>
      <polygon id="polygon586" class="st4" points="22.012 22.707 21.902 22.643 21.787 22.7 21.813 22.573 21.725 22.48 21.851 22.465 21.911 22.351 21.964 22.469 22.088 22.491 21.995 22.579 22.012 22.707"/>
      <polygon id="polygon587" class="st4" points="18.924 16.813 18.662 16.661 18.389 16.796 18.45 16.494 18.24 16.272 18.541 16.236 18.682 15.965 18.808 16.246 19.105 16.3 18.882 16.508 18.924 16.813"/>
      <path id="path726" class="st1" d="M29.645,19.024c.129-.338.296-.849.385-1.317-4.509-3.961-9.535-5.99-15.887-5.573-.228.437-.41.894-.564,1.388,7.525-.718,13.041,2.614,16.066,5.501h0,0Z"/>
      <path id="path790" class="st6" d="M27.618,16.797l.161.088c-.025.057-.032.107-.021.15.012.043.042.08.089.112.05.034.095.049.134.045.04-.004.07-.02.089-.049.012-.018.017-.037.015-.057-.002-.02-.013-.044-.033-.072-.014-.019-.048-.058-.102-.118-.069-.077-.111-.142-.124-.195-.019-.075-.007-.143.034-.204.027-.039.062-.069.107-.088.046-.019.095-.024.149-.013.054.011.111.036.17.076.097.066.155.136.175.212.02.076.008.15-.038.223l-.16-.099c.02-.044.025-.082.014-.115-.01-.032-.037-.063-.08-.093-.045-.031-.087-.045-.125-.044-.025,0-.044.011-.057.031-.012.018-.015.039-.009.063.009.03.044.079.108.149.063.069.107.126.13.17.024.044.034.089.032.136-.002.047-.019.095-.052.144-.03.044-.07.077-.121.099-.051.022-.105.027-.162.016-.057-.012-.119-.04-.186-.086-.097-.066-.157-.139-.179-.22-.021-.081-.008-.168.04-.261h0Z"/>
      <path id="path791" class="st6" d="M26.854,16.296l.165.081c-.023.058-.028.108-.015.15.014.042.045.079.093.109.052.032.097.045.136.04.04-.006.069-.023.087-.052.012-.019.016-.038.013-.058-.003-.02-.015-.043-.036-.07-.015-.018-.05-.056-.106-.114-.072-.074-.116-.138-.132-.19-.021-.074-.013-.142.026-.205.025-.04.06-.071.104-.092.045-.021.095-.027.149-.019.054.009.112.032.173.069.099.062.16.13.183.205.023.075.014.15-.028.224l-.164-.092c.018-.045.022-.083.01-.115-.011-.032-.039-.062-.084-.09-.046-.029-.089-.042-.126-.039-.025.002-.043.013-.056.034-.011.019-.014.04-.006.063.01.029.048.078.114.144.066.066.112.121.137.164.025.043.038.088.038.135,0,.047-.015.096-.046.146-.028.045-.067.08-.117.104-.05.024-.104.032-.162.022-.058-.009-.121-.036-.189-.078-.1-.062-.162-.133-.187-.212-.025-.08-.015-.167.029-.262h0Z"/>
      <path id="path792" class="st6" d="M25.908,16.042l.484-.796.588.36-.082.135-.428-.262-.108.177.398.244-.082.134-.398-.244-.132.217.443.272-.082.134-.603-.37h0Z"/>
      <path id="path795" class="st6" d="M24.531,14.911l.072-.14.359.186-.169.33c-.053.016-.119.02-.199.011-.079-.009-.153-.03-.221-.066-.086-.045-.152-.102-.198-.171-.045-.07-.067-.147-.065-.231.003-.085.024-.167.065-.246.044-.086.102-.154.172-.202.07-.048.15-.073.237-.073.067,0,.14.02.219.061.103.053.172.116.207.189.036.073.042.152.02.237l-.182-.055c.009-.047.004-.09-.017-.13-.02-.04-.054-.073-.102-.098-.073-.038-.143-.045-.21-.02-.067.024-.123.082-.17.173-.051.098-.067.184-.049.256.019.071.063.126.134.162.035.018.073.029.115.034.043.004.081.003.117-.003l.054-.105-.191-.099h0Z"/>
      <path id="path804" class="st6" d="M18.524,13.422l.135-.923.278.041.075.654.257-.605.279.041-.135.923-.172-.025.107-.727-.289.7-.179-.026-.075-.754-.107.727-.172-.025h0Z"/>
      <path id="path805" class="st6" d="M17.585,13.313l.087-.929.686.065-.014.157-.499-.047-.019.206.465.044-.015.157-.465-.044-.023.253.517.049-.014.157-.704-.066h0Z"/>
      <g id="g812">
        <path id="path810" class="st6" d="M14.478,12.732c.003-.095.019-.174.049-.238.022-.047.052-.089.09-.125.038-.037.079-.064.123-.081.059-.023.126-.034.201-.032.137.004.245.049.325.137.08.088.118.207.114.359-.004.15-.048.267-.132.35-.084.083-.194.122-.33.118-.138-.004-.247-.049-.326-.136-.079-.087-.117-.205-.113-.353h0Z"/>
        <path id="path811" class="st8" d="M14.672,12.73c-.003.106.019.186.066.242.047.056.108.085.183.086.075.002.137-.023.186-.076.05-.053.076-.134.079-.242.003-.107-.018-.187-.064-.241-.045-.054-.106-.082-.184-.084-.077-.002-.14.023-.189.075-.049.052-.075.131-.077.239h0Z"/>
      </g>
      <g id="g815">
        <path id="path808" class="st6" d="M15.58,13.213l.011-.933.395.005c.099.001.171.01.216.028.045.017.081.047.107.09s.039.092.039.147c0,.07-.022.128-.063.173-.042.045-.103.073-.185.084.04.024.073.051.099.079.026.029.061.08.105.153l.111.183-.224-.003-.133-.205c-.047-.073-.08-.119-.097-.138-.018-.019-.036-.032-.056-.04-.02-.007-.051-.011-.094-.012h-.038s-.005.389-.005.389l-.188-.002h0Z"/>
        <path id="path809" class="st2" d="M15.774,12.677l.139.002c.09.001.146-.002.169-.009.022-.007.04-.02.053-.039s.019-.042.02-.07c0-.031-.008-.057-.025-.076-.016-.02-.04-.032-.07-.038-.015-.002-.061-.004-.137-.005l-.146-.002-.003.237h0Z"/>
      </g>
      <g id="g818">
        <path id="path806" class="st6" d="M16.641,12.326l.343.017c.077.004.136.013.176.027.054.019.099.05.136.093.037.043.064.095.081.156.017.06.024.134.019.221-.004.077-.017.142-.038.197-.027.067-.062.12-.108.16-.034.03-.079.053-.135.068-.042.011-.098.015-.167.011l-.353-.018.047-.932h0Z"/>
        <path id="path807" class="st2" d="M16.821,12.492l-.031.617.14.007c.052.003.09.002.114-.003.031-.006.057-.018.077-.035.021-.017.039-.046.054-.087.015-.041.024-.098.028-.17s0-.128-.011-.167c-.011-.039-.027-.07-.049-.093-.022-.023-.05-.039-.084-.048-.026-.007-.077-.013-.153-.017l-.084-.004h0Z"/>
      </g>
      <g id="g824">
        <path id="path800" class="st6" d="M21.209,13.992l.217-.907.293.071c.111.027.182.049.214.066.048.026.085.066.109.12.024.054.027.117.01.189-.013.056-.034.1-.064.133-.029.033-.062.057-.098.071-.036.014-.071.021-.105.02-.046-.002-.11-.013-.192-.033l-.119-.029-.082.342-.183-.044h0Z"/>
        <path id="path801" class="st2" d="M21.572,13.282l-.062.257.1.024c.072.017.121.024.148.021.027-.004.049-.014.067-.031.019-.017.031-.039.038-.065.008-.033.005-.062-.009-.089-.014-.026-.035-.045-.064-.058-.021-.009-.064-.022-.13-.038l-.088-.021h0Z"/>
      </g>
      <g id="g827">
        <path id="path798" class="st6" d="M22.073,14.251l.309-.88.373.132c.094.033.159.065.195.096.037.031.061.071.073.12s.008.1-.01.152c-.023.066-.062.114-.116.143-.054.029-.121.036-.202.02.03.036.053.072.069.107.016.036.033.095.051.179l.047.21-.212-.075-.061-.237c-.021-.085-.037-.138-.048-.162-.01-.024-.024-.042-.04-.055-.016-.013-.045-.027-.086-.042l-.036-.013-.129.367-.177-.063h0Z"/>
        <path id="path799" class="st2" d="M22.428,13.806l.131.046c.085.03.139.045.163.045.024,0,.045-.006.063-.02.018-.013.032-.033.041-.06.01-.03.011-.056.001-.08-.009-.024-.027-.043-.054-.058-.014-.007-.056-.023-.128-.049l-.138-.049-.078.223Z"/>
      </g>
      <g id="g830">
        <path id="path796" class="st6" d="M23.165,14.217c.028-.091.065-.163.111-.216.034-.039.074-.071.12-.096.046-.025.093-.04.14-.044.063-.006.13.002.202.025.131.041.223.114.276.22.053.106.058.232.013.377-.045.144-.119.244-.222.301-.103.057-.22.065-.35.024-.132-.041-.224-.114-.277-.219-.053-.105-.057-.229-.013-.371h0Z"/>
        <path id="path797" class="st2" d="M23.352,14.269c-.031.101-.032.185-.002.251.03.066.081.111.153.133.071.022.138.015.199-.022.062-.037.109-.108.141-.211.032-.102.033-.185.004-.25-.029-.064-.08-.108-.154-.131-.074-.023-.141-.016-.202.021-.061.036-.107.106-.139.209h0Z"/>
      </g>
      <g id="g833">
        <path id="path793" class="st6" d="M24.981,15.516l.427-.829.351.182c.088.046.148.087.18.122.032.036.051.079.056.129s-.006.1-.031.149c-.032.062-.077.104-.134.126-.057.021-.125.019-.203-.009.025.04.043.078.053.116.011.038.019.099.026.184l.017.214-.199-.104-.028-.243c-.01-.087-.018-.142-.025-.167-.007-.025-.018-.045-.032-.061-.014-.016-.041-.033-.079-.053l-.034-.018-.178.346-.167-.087h0Z"/>
        <path id="path794" class="st2" d="M25.394,15.124l.123.064c.08.042.132.064.155.068.023.004.045,0,.065-.011.02-.011.036-.029.049-.053.014-.028.018-.054.012-.079-.006-.025-.021-.047-.046-.065-.013-.009-.053-.031-.12-.066l-.13-.067-.108.21h0Z"/>
      </g>
      <g id="g836">
        <path id="path788" class="st6" d="M28.429,17.219c.053-.079.109-.137.169-.174.044-.027.092-.047.143-.057.052-.011.1-.011.147-.002.062.012.124.04.187.082.113.077.18.174.201.291.021.117-.011.238-.096.364-.084.125-.184.2-.299.224-.115.024-.229-.002-.342-.079-.114-.078-.182-.175-.202-.29-.02-.116.011-.236.094-.359h0Z"/>
        <path id="path789" class="st2" d="M28.594,17.322c-.059.088-.084.168-.074.24.01.072.046.129.108.172.062.042.128.054.197.036.07-.018.136-.072.196-.161.06-.089.085-.168.075-.238-.009-.07-.046-.126-.11-.17s-.131-.057-.2-.039c-.069.017-.133.07-.193.159h0Z"/>
      </g>
      <path id="path872" class="st6" d="M20.157,13.613l.15-.655.484.112-.025.111-.352-.081-.034.145.328.076-.025.11-.327-.075-.041.178.364.084-.025.11-.496-.114h0Z"/>
    </g>
  </g>
</svg>